<svg version="1.1" id="" xmlns="http://www.w3.org/2000/svg" x="0" y="0" viewBox="0 0 500 252.3" xml:space="preserve"><style>.st2,.st3{fill:none;stroke:#171f3c;stroke-linecap:round;stroke-linejoin:round;stroke-miterlimit:10}.st3{stroke-width:3}</style><path fill="#fff" d="M126.1 186.1v3.9l-.1 1-.2 1.1-.2 1.1-.2 1.1-.2 1-.3 1-.3 1.1-.3 1-.4.9-.4 1-.5.9-.4.9-.5.9-.5.9-.6.9-.6.9-.6.8-.6.9-.7.8-.7.8-.8.8-.8.7-.8.8-.8.7-.9.7-.8.6-.5.3-.5.3-.4.3-.5.3-.5.3-.4.3-.5.2-.5.3-1 .5-1 .4-1 .4-1 .4-1 .4-1.1.3-1 .2-1.1.2-1 .2-1.1.2-1 .1-1 .1-1.1.1h-2l-1-.1-1.1-.1-1-.1-1.1-.2-1-.2-1.1-.2-1-.2-1-.3-1.1-.4-1-.4-1-.4-1-.4-1-.5-.5-.3-.5-.2-.4-.3-.5-.3-.5-.3-.4-.3-.5-.3-.4-.3-.9-.6-.9-.7-.8-.7-.8-.8-.8-.7-.7-.8-.8-.8-.6-.8-.7-.9-.6-.8-.6-.9-.6-.9-.5-.9-.5-.9-.4-.9-.5-.9-.4-1-.3-.9-.4-1-.3-1.1-.3-1-.2-1-.2-1.1-.2-1.1-.1-1.1-.1-1-.1-1.1v-3.3l.1-.6v-.5l.1-.6.1-.5.1-1.1.2-1.1.3-1 .3-1.1.3-1 .3-1.1.4-1 .4-.9.5-1 .4-1 .5-.9.6-.9.5-.9.6-.8h-8.1l-.5 1-.5 1.1-.5 1.1-.4 1.1-.4 1.1-.4 1.1-.3 1.1-.3 1.1-.3 1.2-.2 1.2-.2 1.1-.2 1.2-.1 1.1-.1 1.2-.1 1.2v14.8h-5v-13.7l.1-1.1v-1.2l.1-1.1.1-1.2.1-1.1.2-1.2.2-1.1.2-1.2.3-1.1.3-1.2.3-1.1.4-1.1.4-1.1.4-1.1.4-1 .5-1.1H38.5v7h-5.2v-22.5h5.2v-7.9H28.2v-10.3h286.4V35.6h10.3v84.7h5.1V53.1l.1-.3v-.5l.1-.2v-.3l.1-.3.1-.2.1-.3.1-.2.1-.2.1-.3.1-.2.1-.3.2-.2.1-.2.1-.2.2-.2.2-.2.1-.2.2-.2.2-.2.2-.2.2-.2.2-.2.2-.1.2-.2.2-.1.2-.2.3-.1.2-.1.2-.1.3-.2.2-.1.3-.1h.2l.3-.1.2-.1h.3l.2-.1h.3l.3-.1h58.5l.2.1h.3l.3.1h.2l.3.1.2.1.3.1h.2l.3.1.2.2.3.1.2.1.2.1.2.2.3.1.2.2.2.1.2.2.2.2.2.2.2.2.1.2.2.2.2.2.1.2.2.2.1.2.1.3.2.2.1.2.1.3.1.2.1.3.1.2v.3l.1.2.1.3v.2l6.7 39.1v.3l.1.2v.1l.1.1v.2l.1.1v.1l.1.2.1.1v.1l.1.2.1.1.1.1.1.1.1.1.1.1.1.1.1.1.1.1.1.1.1.1.1.1.2.1.1.1h.1l.1.1.2.1h.1l.1.1h.2l.1.1h.2l.1.1h.3l52.8 8.5h.3l.2.1h.3l.2.1h.1l.2.1h.1l.2.1h.1l.2.1.2.1.1.1h.2l.1.1.2.1.1.1.2.1.1.1.2.1.1.1.1.1.2.1.1.1.1.1.2.1.1.2.1.1.2.1.1.1.1.2.1.1.1.2.1.1.1.1.1.2.1.1.1.2.1.1.1.2.1.2.1.1v.2l.1.1.1.2v.1l.1.2v.2l.1.1v.2l.1.2v.1l.1.2v.3l.1.2v71.2l-.1.9-.1.8-.1.8-.2.8-.1.9-.2.8-.3.8-.2.8-.3.8-.3.8-.4.7-.3.8h-12.9v-4.3l-.1-1.2-.1-1.2-.1-1.1-.2-1.2-.2-1.1-.2-1.2-.3-1.2-.3-1.1-.3-1.1-.4-1.1-.4-1.1-.4-1.1-.5-1.1-.5-1.1-.5-1h-8.1l.6.8.6.9.5.9.5.9.5 1 .4 1 .4.9.4 1 .3 1.1.3 1 .3 1.1.3 1 .2 1.1.1 1.1.1.5.1.6v.5l.1.6v3.3l-.1 1.1-.1 1-.1 1.1-.2 1.1-.2 1.1-.2 1-.3 1-.3 1.1-.4 1-.3.9-.4 1-.5.9-.4.9-.5.9-.5.9-.6.9-.6.9-.6.8-.6.9-.7.8-.8.8-.7.8-.8.7-.8.8-.8.7-.9.7-.9.6-.4.3-.5.3-.4.3-.5.3-.5.3-.4.3-.5.2-.5.3-1 .5-1 .4-1 .4-1 .4-1.1.4-1 .3-1 .2-1.1.2-1 .2-1.1.2-1 .1-1.1.1-1 .1h-2l-1.1-.1-1-.1-1-.1-1.1-.2-1-.2-1.1-.2-1-.2-1.1-.3-1-.4-1-.4-1-.4-1-.4-1-.5-.5-.3-.5-.2-.4-.3-.5-.3-.5-.3-.4-.3-.5-.3-.5-.3-.8-.6-.9-.7-.8-.7-.8-.8-.8-.7-.8-.8-.7-.8-.7-.8-.6-.9-.6-.8-.6-.9-.6-.9-.5-.9-.5-.9-.4-.9-.5-.9-.4-1-.4-.9-.3-1-.3-1.1-.3-1-.2-1-.2-1.1-.2-1.1-.1-1.1-.1-1-.1-1.1v-3.3l.1-.6v-.5l.1-.6.1-.5.1-1.1.2-1.1.3-1 .2-1.1.4-1 .3-1.1.4-1 .4-.9.4-1 .5-1 .5-.9.5-.9.6-.9.6-.8h-8.1l-.5 1-.5 1.1-.5 1.1-.4 1.1-.4 1.1-.4 1.1-.3 1.1-.3 1.1-.3 1.2-.3 1.2-.1 1.1-.2 1.2-.1 1.1-.1 1.2-.1 1.2v14.8h-5v-14.8l.1-1.2.1-1.1.1-1.2.1-1.1.2-1.2.2-1.1.2-1.2.3-1.1.3-1.2.3-1.1.4-1.1.3-1.1.5-1.1.4-1.1.5-1H309v15.3h-.1v.1h-.1v.1h-.1v.1h-.1l-.1.1H232v-.1h-.2v-.1h-.1v-.1h-.1v-.2h-.1v-15.2h-15.9l.5 1.1.5 1.1.4 1.1.4 1.2.3 1.1.4 1.1.2 1.2.3 1.1.2 1.2.2 1.1.2 1.1.1 1.2.1 1.1.1 1.1v1.1l.1 1.1v3.2h-5v-4.3l-.1-1.2-.1-1.2-.1-1.1-.2-1.2-.2-1.2-.2-1.1-.3-1.2-.3-1.1-.3-1.1-.4-1.2-.4-1.1-.4-1.1-.5-1-.5-1.1-.5-1H202l.6.8.5.9.6.9.5.9.4 1 .5.9.4 1 .4 1 .3 1.1.3 1 .3 1 .2 1.1.3 1.1.1 1.1.1.5.1.6v1.1l.1.5v2.7l-.1 1.1-.1 1.1-.1 1.1-.2 1.1-.2 1-.2 1.1-.3 1-.3 1-.4 1-.3 1-.4 1-.5.9-.4.9-.5.9-.5.9-.6.9-.6.9-.6.8-.7.9-.6.8-.8.8-.7.8-.8.7-.8.8-.8.7-.9.6-.9.7-.4.3-.5.3-.4.3-.5.3-.5.3-.5.2-.4.3-.5.3-1 .5-1 .4-1 .4-1 .4-1.1.3-1 .3-1 .3-1.1.2-1 .2-1.1.2-1 .1-1.1.1h-1l-1 .1-1-.1h-1.1l-1-.1-1.1-.1-1-.2-1-.2-1.1-.2-1-.3-1.1-.3-1-.3-1-.4-1-.4-1-.4-1-.5-.5-.3-.5-.3-.5-.2-.4-.3-.5-.3-.5-.3-.4-.3-.5-.3-.8-.7-.9-.6-.8-.7-.8-.8-.8-.7-.8-.8-.7-.8-.7-.8-.6-.9-.7-.8-.5-.9-.6-.9-.5-.9-.5-.9-.5-.9-.4-.9-.4-1-.4-1-.3-1-.3-1-.3-1-.2-1.1-.3-1-.1-1.1-.2-1.1-.1-1.1v-4.3l.1-.6v-.5l.1-.6v-.5l.2-1.1.2-1.1.3-1.1.2-1 .3-1 .4-1.1.4-1 .4-1 .4-.9.5-1 .5-.9.5-.9.6-.9.6-.8h-8.1l-.5 1-.5 1.1-.5 1-.4 1.1-.4 1.1-.4 1.2-.4 1.1-.3 1.1-.2 1.2-.3 1.1-.2 1.2-.1 1.2-.1 1.1-.1 1.2-.1 1.2v4.3h-5v-4.3l-.1-1.2-.1-1.2-.1-1.1-.1-1.2-.2-1.1-.3-1.2-.2-1.2-.4-1.1-.3-1.1-.4-1.1-.4-1.1-.4-1.1-.5-1.1-.5-1.1-.5-1h-8.1l.6.8.6.9.5.9.5.9.5 1 .4 1 .4.9.4 1 .3 1.1.4 1 .2 1.1.3 1 .2 1.1.1 1.1.1.5.1.6v.5l.1.6z" id=""/><path d="M399.5 93.8v.8l-.1.1-.1.1-.1.1-.1.1-.1.1-.1.1-.1.1-.1.1-.1.1-.1.1-.1.1-.1.1-.1.1-.1.1-.1.1V96l-.1.1h-.1l-.1.1h-23.1l-.2-.1-.2-.1-.2-.1-.2-.1-.2-.1-.2-.1-.2-.1-.2-.1-.2-.1-.2-.1-.2-.1-8-5.8-.1-.1-.1-.1-.1-.1-.1-.1h-21.8l-.1-.1h-.1l-.1-.1-.1-.1-.1-.1-.1-.1-.1-.1-.1-.1-.1-.1-.1-.1-.1-.1-.1-.1-.1-.1-.1-.1-.1-.1-.1-.1-.1-.1-.1-.1V57.4l.1-.1-.5-.3.1-.1.1-.1.1-.1.1-.1.1-.1.1-.1.1-.1.1-.1.1-.1.1-.1.1-.1.1-.1.1-.1.1-.1.1-.1h50.4l.1.1h.1l.1.1.1.1.1.1.1.1.1.1.1.1.1.1.1.1.1.1.1.1.1.1.1.1.1.1.1.1.1.1v.1l.1.1v.8l1 5.6h-6.8v21.4h8.2v-10L399 92v.9l.5.9z" fill="#171f3c"/><g id=""><path class="st2" d="M409 91.4v53.9m-30.3 24.3v-.2l.7-1.3.7-1.3.7-1.3.8-1.3.9-1.3.9-1.2.9-1.2.9-1.1 1-1.2 1.1-1 1.1-1.1 1.1-1 1.1-1 1.2-.9 1.2-.9 1.3-.8 1.2-.8 1.3-.8 1.3-.7 1.4-.7 1.4-.6 1.4-.6 1.4-.5 1.4-.5.4-.1 1-.3 1.5-.4 1-.2.5-.1 1.4-.3 1.5-.2 1.5-.1 1.5-.2h4.5l1.5.1 1.5.2 1.5.2 1.5.2 1.5.3 1.4.4 1.5.4 1.4.4 1.4.5 1.4.6 1.4.6 1.4.6 1.3.7 1.3.7 1.3.8 1.3.8 1.2.9 1.2.9 1.1 1 1.2 1 1.1 1 1 1.1 1 1.1 1 1.1 1 1.2.9 1.2.8 1.2.7 1.2.1.1.8 1.3.7 1.3.7 1.4.6 1.3.6 1.4.5 1.4.5 1.5.4 1.4.4 1.4.4 1.5.2 1.5.3 1.5.1 1.5.2 1.5v1.5l.1 1.5-.1 1.5v1.5M376.6 175l.5-1.4m-.9 2.9l.4-1.4m-1 4l.2-1m-.7 4.1l.1-.8v-.5l.1-.2m-.4 2.9l.1-1m-.2 3.5v-.7l.1-1.2m-.2 3.4v-1m.6 7.8l-.3-1.5-.1-1.5-.1-1.5-.1-1.5M330 146.2h75.5m49.2 18.6h17.1M330 146.2v-25.9m73.8-28.4v38.2M364 89.5l-.1-.1h-.1l-.1-.1h-.1l-.1-.1h-.1l-.1-.1h-.1l-.1-.1h-.4l-.1-.1h-.6m10 6.4l-8-5.8m12 7h-1l-.2-.1h-.2l-.3-.1h-.2l-.2-.1-.2-.1h-.2l-.3-.1-.2-.1-.2-.1-.2-.1-.2-.2-.2-.1-.2-.1m1.1 12.7h5.9m0 0h.2v-.1h.2v-.1h.1v-.2h.1v-.2m0 0v-3.5m0 0v-.2l-.1-.1v-.1h-.1v-.1h-.1v-.1h-.2v-.1h-.1m0 0h-5.9m0 0h-.1l-.1.1h-.2v.1h-.1v.1l-.1.1v.3m0 0v3.5m0 0v.3h.1v.1h.1v.1h.1v.1h.3m17.3-52.6h.5l.1.1h.3l.1.1h.2l.1.1h.1l.1.1h.1l.1.1.1.1h.1l.1.1.1.1h.1l.1.1v.1l.1.1.1.1h.1l.1.1v.1l.1.1v.1l.1.1.1.1v.1l.1.1v.2l.1.2v.2l.1.1v.1m5.8 34.4l.1.1v.9l-.1.2v.3l-.1.1v.1l-.1.1v.1l-.1.2v.1l-.1.1v.1l-.1.1-.1.1v.1h-.1l-.1.1-.1.1v.1l-.1.1-.1.1h-.1l-.1.1-.1.1h-.1l-.1.1h-.1l-.1.1-.1.1h-.2l-.2.1h-.2l-.1.1h-.7M390.4 51l.2.1h.8l.3.1h.2l.3.1h.2l.3.1.2.1.3.1.2.1.3.1.2.1.2.1.3.2.2.1.2.2.2.1.2.2.2.2.2.1.2.2.2.2.2.2.2.2.1.2.2.2.1.2.2.3.1.2.1.2.1.3.1.2.1.3.1.2.1.3.1.2.1.3v.2l.1.3m-1.9 80h1.1l.2-.1h.3l.2-.1.3-.1h.2l.3-.1.2-.1.3-.1.2-.1.3-.1.2-.2.2-.1.2-.1.3-.2.2-.1.2-.2.2-.2.2-.2.2-.1.2-.2.1-.2.2-.2.2-.2.1-.3.2-.2.1-.2.1-.2.2-.3.1-.2.1-.2.1-.3.1-.2.1-.3v-.2l.1-.3.1-.2v-.3l.1-.3v-.7M398 57.5l5.8 34.4m-7.6 4.6H376m18.6-32.7h-6.8v21.4h8.2V64.4l-1.4-.6zm-.9-5.6l.9 5.6m2.1 11.9l2.8 16.9m-56.7 31.3h-.4v.1h-.1v.1h-.1v.2h-.1v.2m0 0v6.5m0 0v.1h.1v.2h.1v.1l.1.1h.1v.1h.3m0 0h9m0 0h.2l.1-.1h.1v-.1h.1v-.1h.1v-.3m0 0v-6.5m0 0v-.3l-.1-.1v-.1h-.2v-.1h-.3m-8.9-35h-.3l-.2-.1h-.4l-.1-.1h-.1l-.1-.1h-.3l-.1-.1-.1-.1h-.1l-.1-.1h-.1v-.1l-.1-.1-.1-.1h-.1l-.1-.1-.1-.1-.1-.1v-.1l-.1-.1-.1-.1v-.1h-.1l-.1-.1v-.1l-.1-.2v-.2l-.1-.1v-.1l-.1-.1v-.3l-.1-.1v-.4m0 0V58.8m0 0v-.5l.1-.1v-.3l.1-.1v-.2l.1-.1v-.2l.1-.1.1-.1V57l.1-.1v-.1l.1-.1.1-.1h.1v-.1l.1-.1.1-.1.1-.1h.1l.1-.1V56l.1-.1h.1l.1-.1h.1l.1-.1h.2l.1-.1h.2l.1-.1h.2l.1-.1h.6m-7.7 3.4v-1.1l.1-.2v-.3l.1-.3.1-.2v-.3l.1-.2.1-.3.1-.2.1-.2.1-.3.2-.2.1-.2.1-.3.2-.2.1-.2.2-.2.2-.2.2-.2.1-.2.2-.2.2-.1.2-.2.2-.2.2-.1.3-.2.2-.1.2-.2.2-.1.3-.1.2-.1.3-.1.2-.1.3-.1.2-.1h.3l.2-.1h.3l.2-.1h.8l.3-.1m0 86.5h-1.1l-.2-.1h-.3l-.2-.1-.3-.1h-.2l-.3-.1-.2-.1-.3-.1-.2-.1-.3-.1-.2-.2-.2-.1-.2-.1-.3-.2-.2-.1-.2-.2-.2-.2-.2-.2-.2-.1-.2-.2-.1-.2-.2-.2-.2-.2-.1-.3-.2-.2-.1-.2-.1-.2-.2-.3-.1-.2-.1-.2-.1-.3-.1-.2-.1-.3v-.2l-.1-.3-.1-.2v-.3l-.1-.3v-.7m0 0V58.8m16.6 65.1h-9m53.3 13.6h-53.2M362 88.9h-19.1m0-33.5h47.5M342.9 51h47.5M330 146.2v18.9h34.7v-18.3"/><path class="st2" d="M408.1 170.5l.4-.3.3-.2.4-.2.5-.2.4-.2.4-.1.4-.2.5-.2.4-.1.5-.2.4-.1.5-.1.5-.1.4-.1.5-.1.5-.1.5-.1h.5l.5-.1h2.5l.5.1h.5l.5.1h.5l.5.1.5.1.5.1.5.2.5.1.5.2.5.1.5.2.5.2.4.2.5.2.5.2.4.3.5.2.4.3.4.2.4.3.4.3.4.3.4.3.4.3.4.3.4.3.3.4.3.3.4.4.3.3.3.4.3.3.3.4.3.3.2.4.3.4.2.4.3.3.2.4.2.4.2.4.2.4.2.4.2.4.2.4.2.5.1.4.2.5.1.4.1.5.2.4.1.5.1.5.1.5v.4l.1.5.1.5v1l.1.5v.5l-.1.5v1.1l-.1.5v.5l-.1.5-.1.5-.1.5-.1.5-.1.5-.2.5-.1.5-.2.5-.2.4-.1.5-.2.5-.3.5-.2.4-.2.5-.3.4-.2.4-.3.5-.3.4-.2.4-.3.4-.3.4-.3.4-.4.3-.3.4-.3.3-.4.4-.3.3-.4.3-.3.4-.4.2-.3.3-.4.3-.4.3-.3.2-.4.3-.4.2-.4.2-.4.3-.3.2-.4.2-.5.2-.4.2-.4.1-.4.2-.5.2-.4.1-.5.2-.4.1-.5.1-.5.1-.4.1-.5.1-.5.1-.5.1h-.5l-.5.1h-2.5l-.5-.1h-.5l-.5-.1h-.5l-.5-.1-.5-.1-.5-.1-.5-.2-.5-.1-.5-.2-.5-.1-.5-.2-.5-.2-.4-.2-.5-.2-.5-.2-.4-.3-.5-.2-.4-.3-.4-.2-.4-.3-.4-.3-.4-.3-.4-.3-.4-.3-.4-.3-.3-.3-.4-.4-.3-.3-.4-.4-.3-.3-.3-.4-.3-.3-.3-.4-.3-.3-.2-.4-.3-.4-.2-.4-.3-.3-.2-.4-.2-.4-.2-.4-.2-.4-.2-.4-.2-.4-.2-.4-.2-.5-.1-.4-.2-.5-.1-.4-.1-.5-.2-.4-.1-.5-.1-.5-.1-.5v-.5l-.1-.4-.1-.5v-1l-.1-.5v-.5l.1-.5V186l.1-.5v-.5l.1-.5.1-.5.1-.5.1-.5.1-.5.2-.5.1-.5.2-.5.2-.4.1-.5.2-.5.3-.5.2-.4.2-.5.3-.4.2-.4.3-.5.3-.4.2-.4.3-.4.3-.4.3-.4.4-.3.3-.4.3-.4.4-.3.3-.3.4-.3.3-.4.4-.3.3-.2.4-.3.4-.3.3-.2.4-.3.4-.2z"/><path class="st2" d="M392.3 169.6l.2-.3.5-.7.6-.7.5-.7.6-.7.7-.7.6-.6.7-.7.7-.6.7-.6.7-.6.8-.5.8-.6.8-.5.8-.5.8-.5.8-.4.9-.4.8-.4.9-.4.9-.3.9-.3.8-.3.9-.3 1-.2.9-.2.9-.2.9-.1.9-.2.9-.1h.9l.9-.1h1.8l.9.1h.9l.9.1.9.1.9.2.9.1 1 .2.9.3.9.2.9.3.9.3.8.3.9.4.9.4.8.4.9.5.8.4.8.5.8.5.7.6.8.5.7.6.8.6.7.6.6.6.7.7.6.7.6.6.6.7.6.7.5.8.3.4"/><path class="st2" d="M451.8 169.6l-.3-.5-.6-1-.6-1.1-.7-1-.8-1-.7-1-.8-1-.9-1-.8-.9-.9-.9-1-.9-1-.9-1-.8-1-.8-1.1-.8-1.1-.7-1.1-.7-1.1-.6-1.2-.6-1.2-.6-1.2-.5-1.2-.5-1.2-.4-1.2-.4-1.3-.4-1.2-.3-1.3-.2-1.2-.3-1.3-.1-1.2-.2-1.3-.1h-4.9l-1.2.1-1.3.2-1.2.2-1.3.2-1.2.3-1.2.3-1.3.4-1.2.4-1.2.4-1.2.5-1.2.5-1.2.6-1.2.6-1.1.7-1.1.6-1.1.8-1.1.7-1 .8-1 .9-1 .8-.9.9-.9.9-.9 1-.8.9-.8 1-.8 1-.7 1.1-.7 1-.6 1.1-.6 1-.2.3m-59.3-23.4v-25.9M55.4 169.6l.6-1.2.5-1 .5-1 .6-1 .6-.9.6-1 .6-.9.7-1 .7-.9.7-.8.8-.9.8-.9.8-.8.8-.8.8-.8.9-.8.9-.7.9-.7.9-.7.9-.7 1-.6.9-.7 1-.5 1-.6 1-.5 1-.5 1.1-.5 1-.5 1-.4 1.1-.4 1-.3 1.1-.4m-43.7 0h286.4m-196.4 23.4l-.3-.5-.6-1-.6-1.1-.7-1-.7-1-.8-1-.8-1-.8-1-.9-.9-.9-.9-1-.9-1-.9-1-.8-1-.8-1.1-.8-1.1-.7-1.1-.7-1.1-.6-1.2-.6-1.2-.6-1.2-.5-1.2-.5-1.2-.4-1.2-.4-1.3-.4-1.2-.3-1.3-.2-1.2-.3-1.3-.1-1.2-.2-1.2-.1h-5l-1.2.1-1.2.2-1.3.2-1.2.2-1.3.3-1.2.3-1.3.4-1.2.4-1.2.4-1.2.5-1.2.5-1.2.6-1.2.6-1.1.7-1.1.6-1.1.8-1.1.7-1 .8-1 .9-1 .8-.9.9-.9.9-.9 1-.8.9-.8 1-.8 1-.7 1.1-.7 1-.6 1.1-.6 1-.2.3"/><path class="st2" d="M69 169.6l.2-.3.5-.7.6-.7.6-.7.6-.7.6-.7.6-.6.7-.7.7-.6.7-.6.8-.6.7-.5.8-.6.8-.5.8-.5.8-.5.8-.4.9-.4.8-.4.9-.4.9-.3.9-.3.9-.3.9-.3.9-.2.9-.2.9-.2.9-.1.9-.2.9-.1h.9l.9-.1h1.8l.9.1h.9l.9.1.9.1 1 .2.9.1.9.2.9.3.9.2.9.3.9.3.8.3.9.4.9.4.8.4.9.5.8.4.8.5.8.5.8.6.7.5.8.6.7.6.7.6.6.6.7.7.6.7.6.6.6.7.6.7.5.8.3.4m131.1-18.2v33.9m-6.5-33.9v33.9m44-33.9v33.9m6.5-33.9v33.9"/><path class="st2" d="M84.8 170.5l.4-.3.4-.2.4-.2.4-.2.4-.2.4-.1.4-.2.5-.2.4-.1.5-.2.4-.1.5-.1.5-.1.4-.1.5-.1.5-.1.5-.1h.5l.5-.1h2.5l.5.1h.5l.5.1h.5l.6.1.5.1.5.1.5.2.5.1.4.2.5.1.5.2.5.2.5.2.4.2.5.2.4.3.5.2.4.3.4.2.5.3.4.3.4.3.4.3.3.3.4.3.4.3.3.4.4.3.3.4.3.3.3.4.3.3.3.4.3.3.3.4.2.4.3.4.2.3.2.4.2.4.2.4.2.4.2.4.2.4.2.4.2.5.1.4.2.5.1.4.2.5.1.4.1.5.1.5.1.5.1.4v.5l.1.5v.5l.1.5v1.5l-.1.5v1.1l-.1.5-.1.5-.1.5-.1.5-.1.5-.1.5-.1.5-.2.5-.2.5-.1.4-.2.5-.2.5-.2.5-.3.4-.2.5-.2.4-.3.4-.3.5-.2.4-.3.4-.3.4-.3.4-.3.4-.3.3-.4.4-.3.3-.3.4-.4.3-.3.3-.4.4-.4.2-.3.3-.4.3-.3.3-.4.2-.4.3-.4.2-.4.2-.3.3-.4.2-.4.2-.4.2-.5.2-.4.1-.4.2-.4.2-.5.1-.4.2-.5.1-.5.1-.4.1-.5.1-.5.1-.5.1-.5.1h-.5l-.5.1h-2.5l-.5-.1h-.5l-.5-.1h-.5l-.5-.1-.5-.1-.5-.1-.5-.2-.5-.1-.5-.2-.5-.1-.5-.2-.5-.2-.4-.2-.5-.2-.4-.2-.5-.3-.4-.2-.5-.3-.4-.2-.4-.3-.4-.3-.4-.3-.4-.3-.4-.3-.4-.3-.3-.3-.4-.4-.3-.3-.4-.4-.3-.3-.3-.4-.3-.3-.3-.4-.3-.3-.2-.4-.3-.4-.2-.4-.3-.3-.2-.4-.2-.4-.2-.4-.2-.4-.2-.4-.2-.4-.2-.4-.1-.5-.2-.4-.2-.5-.1-.4-.1-.5-.1-.4-.2-.5-.1-.5v-.5l-.1-.5-.1-.4v-.5l-.1-.5V186l.1-.5v-.5l.1-.5.1-.5.1-.5.1-.5.1-.5.2-.5.1-.5.2-.5.2-.4.2-.5.2-.5.2-.5.2-.4.2-.5.3-.4.2-.4.3-.5.3-.4.3-.4.3-.4.3-.4.3-.4.3-.3.3-.4.3-.4.4-.3.3-.3.4-.3.3-.4.4-.3.3-.2.4-.3.4-.3.4-.2.3-.3.4-.2zm-46.3-16.4v15.5m127.9.8l.3-.2.4-.2.4-.2.4-.2.5-.2.4-.2.4-.1.5-.2.4-.1.5-.2.4-.1.5-.1.4-.1.5-.1.5-.1.5-.1.5-.1h.5l.5-.1h3l.5.1.5.1h.5l.5.1.5.1.5.1.5.2.5.1.5.1.5.2.5.2.5.2.4.2.5.2.4.2.5.2.4.3.5.3.4.2.4.3.4.3.4.3.4.3.4.3.4.3.3.3.4.4.3.3.4.3.3.4.3.3.3.4.3.4.3.3.2.4.3.4.2.3.3.4.2.4.2.4.2.4.2.4.2.4.2.4.2.4.1.5.2.4.2.4.1.5.1.5.2.4.1.5.1.5.1.4v.5l.1.5.1.5v3.5l-.1.6v.5l-.1.5-.1.5-.1.5-.1.5-.1.5-.2.5-.1.5-.2.4-.2.5-.2.5-.2.5-.2.4-.2.5-.2.4-.3.5-.2.4-.3.4-.3.5-.3.4-.2.4-.3.4-.4.3-.3.4-.3.4-.3.3-.4.4-.3.3-.4.3-.3.3-.4.3-.3.3-.4.3-.4.3-.4.2-.3.3-.4.2-.4.2-.4.2-.4.3-.4.2-.4.2-.4.1-.4.2-.4.2-.5.2-.4.1-.5.1-.4.2-.5.1-.5.1-.4.1-.5.1-.5.1h-.5l-.5.1h-.5l-.5.1h-2l-.5-.1h-.5l-.5-.1-.5-.1h-.5l-.6-.1-.5-.2-.5-.1-.4-.1-.5-.2-.5-.1-.5-.2-.5-.2-.5-.2-.4-.2-.5-.2-.4-.3-.5-.2-.4-.3-.4-.2-.4-.3-.5-.3-.4-.3-.3-.3-.4-.3-.4-.3-.4-.4-.3-.3-.4-.3-.3-.4-.3-.3-.3-.4-.3-.3-.3-.4-.3-.4-.2-.3-.3-.4-.2-.4-.3-.4-.2-.3-.2-.4-.2-.4-.2-.4-.2-.4-.2-.4-.2-.5-.2-.4-.1-.4-.2-.5-.1-.4-.2-.5-.1-.5-.1-.4-.1-.5-.1-.5-.1-.5v-.5l-.1-.4v-1l-.1-.5V187l.1-.5v-1l.1-.5.1-.5.1-.5.1-.5.1-.5.1-.5.1-.5.2-.5.2-.5.1-.5.2-.4.2-.5.2-.5.3-.4.2-.5.2-.4.3-.5.3-.4.2-.4.3-.4.3-.4.3-.4.3-.4.4-.4.3-.3.3-.4.3-.3.4-.3.3-.4.4-.3.4-.3.3-.3.4-.2.4-.3.3-.3.4-.2.4-.2z"/><path class="st2" d="M150.6 169.6l.2-.3.5-.7.5-.7.6-.7.6-.7.7-.7.6-.6.7-.7.7-.6.7-.6.7-.6.8-.5.7-.6.8-.5.8-.5.9-.5.8-.4.8-.4.9-.4.9-.4.9-.3.8-.4.9-.2.9-.3.9-.2.9-.2 1-.2.9-.2.9-.1.9-.1h.9l.9-.1h2.7l.9.1.9.1.9.1.9.2.9.1.9.2 1 .3.9.2.8.3.9.3.9.3.9.4.9.4.8.4.8.4.9.5.8.5.8.5.7.5.8.6.7.6.7.6.7.6.7.6.7.7.6.6.6.7.6.7.6.7.5.7.3.5"/><path class="st2" d="M210.1 169.6l-.3-.5-.6-1-.7-1.1-.6-1-.8-1.1-.7-1-.8-.9-.9-1-.8-.9-1-1-.9-.8-1-.9-1-.8-1-.8-1.1-.8-1.1-.7-1.1-.7-1.1-.6-1.2-.6-1.2-.6-1.2-.5-1.2-.5-1.2-.4-1.3-.4-1.2-.4-1.2-.3-1.3-.3-1.2-.2-1.3-.2-1.2-.1-1.3-.1h-1.2l-1.2-.1-1.3.1h-1.2l-1.2.1-1.3.2-1.2.2-1.3.2-1.2.3-1.3.3-1.2.3-1.2.4-1.2.5-1.3.5-1.2.5-1.1.6-1.2.6-1.1.6-1.1.7-1.1.8-1.1.7-1 .8-1 .8-1 .9-.9.9-.9.9-.9 1-.8.9-.8 1-.8 1-.7 1.1-.7 1-.6 1.1-.6 1-.2.3m-35.3-23.4l1.1.4 1 .3 1.1.4 1 .4 1.1.5 1 .5 1 .5 1.1.5 1 .6.9.6 1 .6 1 .7.9.6.9.7 1 .8.8.7.9.8.9.8.8.8.8.9.7.8.8.9.7.9.7.9.7.9.6 1 .7.9.6 1 .5 1 .5 1 .6 1 .4 1 .4.9.4.9.4.9.3.9m0 0l.3-.9.4-.9.4-.9.5-1.2.4-1 .6-1 .5-.9.6-1 .5-1 .7-.9.6-.9.7-1 .7-.9.7-.9.8-.8.7-.9.8-.8.8-.8.9-.8.9-.8.8-.7.9-.7 1-.7.9-.7.9-.7 1-.6 1-.6 1-.5 1-.6 1-.5 1-.4 1.1-.5 1-.4 1.1-.4 1-.4 1-.3h.1M309 169.6v-17.4h-77.1v18.1m-43.1-24.1l1 .3 1 .4 1 .4 1.1.4 1 .4 1 .5 1 .4 1 .6.9.5 1 .6 1 .6.9.6 1 .7.9.7.9.7.9.7.9.8.8.8.9.8.8.9.8.8.7.9.8.9.7.9.7 1 .7 1 .6.9.6 1 .6 1.1.6 1 .5 1 .5 1.1m4 21.2v-3.2l-.1-1.1v-1.1l-.1-1.1-.1-1.1-.1-1.2-.2-1.1-.2-1.1-.2-1.2-.3-1.1-.2-1.2-.4-1.1-.3-1.1-.4-1.2-.4-1.1-.5-1.1-.5-1.1m0 0h15.9"/><path class="st2" d="M231.5 169.6v15.2h.1v.2h.1v.1h.1v.1h.2v.1h76.5l.1-.1h.1v-.1h.1v-.1h.1v-.1h.1v-15.3m0 0h69.7m0 0l-.5 1-.4 1.1-.5 1.1-.2.8-.1.3-.4 1.1v.1l-.3 1-.1.4-.2.8-.2.8-.1.3-.1.7-.1.5-.2 1.1-.1.7-.1.5v.3l-.1.4v.4l-.1.6v.6l-.1 1.1v.8l-.1.4v1.1m0 0v13.7h5v-13.7m0 0v-1.1l.1-1.2.1-1.2.1-1.1.2-1.2.1-1.1.3-1.2.3-1.2.3-1.1.3-1.1.4-1.1.4-1.1.4-1.1.5-1.1.5-1.1.5-1m0 0h8.1m0 0l-.6.8-.6.9-.5.9-.5.9-.5 1-.4 1-.4.9-.4 1-.3 1.1-.4 1-.2 1.1-.3 1-.2 1.1-.1 1.1-.1.5-.1.6v.5l-.1.6v3.3l.1 1.1.1 1 .1 1.1.2 1.1.2 1.1.2 1 .3 1 .3 1.1.3 1 .4.9.4 1 .5.9.4.9.5.9.5.9.6.9.6.9.6.8.6.9.7.8.7.8.8.8.8.7.8.8.8.7.9.7.8.6.5.3.5.3.4.3.5.3.5.3.4.3.5.2.5.3 1 .5 1 .4 1 .4 1 .4 1 .4 1.1.3 1 .2 1.1.2 1 .2 1.1.2 1 .1 1 .1 1.1.1h2l1-.1 1.1-.1 1-.1 1.1-.2 1-.2 1.1-.2 1-.2 1-.3 1.1-.4 1-.4 1-.4 1-.4 1-.5.5-.3.5-.2.4-.3.5-.3.5-.3.4-.3.5-.3.4-.3.9-.6.9-.7.8-.7.8-.8.8-.7.7-.8.8-.8.7-.8.6-.9.6-.8.6-.9.6-.9.5-.9.5-.9.4-.9.5-.9.4-1 .3-.9.4-1 .3-1.1.3-1 .2-1 .2-1.1.2-1.1.1-1.1.1-1 .1-1.1v-3.3l-.1-.6v-.5l-.1-.6-.1-.5-.1-1.1-.2-1.1-.3-1-.3-1.1-.3-1-.3-1.1-.4-1-.4-.9-.4-1-.5-1-.5-.9-.5-.9-.6-.9-.6-.8m0 0h8.1m0 0l.5 1 .5 1.1.5 1.1.4 1.1.4 1.1.4 1.1.3 1.1.3 1.1.3 1.2.2 1.2.2 1.1.2 1.2.1 1.1.1 1.2.1 1.2v1.1m0 0v3.2h12.9m0 0l.3-.8.4-.7.3-.8.3-.8.2-.8.3-.8.2-.8.1-.9.2-.8.1-.8.1-.8.1-.9v-1.6m0 0V111m0 0v-1.1l-.1-.2v-.3l-.1-.2v-.1l-.1-.2v-.2l-.1-.1v-.2l-.1-.2v-.1l-.1-.2-.1-.1v-.2l-.1-.1-.1-.2-.1-.2-.1-.1-.1-.2-.1-.1-.1-.2-.1-.1-.1-.1-.1-.2-.1-.1-.1-.2-.1-.1-.2-.1-.1-.1-.1-.2-.2-.1-.1-.1-.1-.1-.2-.1-.1-.1-.1-.1-.2-.1-.1-.1-.2-.1-.1-.1-.2-.1-.1-.1h-.2l-.1-.1-.2-.1-.2-.1h-.1l-.2-.1h-.1l-.2-.1h-.1l-.2-.1h-.3l-.2-.1h-.3m0 0l-52.8-8.5m0 0h-.3l-.1-.1h-.2l-.1-.1h-.2l-.1-.1h-.1l-.2-.1-.1-.1h-.1l-.1-.1-.2-.1-.1-.1-.1-.1-.1-.1-.1-.1-.1-.1-.1-.1-.1-.1-.1-.1-.1-.1-.1-.1-.1-.1-.1-.2v-.1l-.1-.1-.1-.2v-.1l-.1-.1v-.2l-.1-.1v-.1l-.1-.2v-.3m0 0l-6.7-39.1m0 0v-.2l-.1-.3-.1-.2v-.3l-.1-.2-.1-.3-.1-.2-.1-.3-.1-.2-.2-.2-.1-.3-.1-.2-.2-.2-.1-.2-.2-.2-.2-.2-.1-.2-.2-.2-.2-.2-.2-.2-.2-.2-.2-.1-.2-.2-.3-.1-.2-.2-.2-.1-.2-.1-.3-.1-.2-.2-.3-.1h-.2l-.3-.1-.2-.1-.3-.1h-.2l-.3-.1h-.3l-.2-.1h-.8m0 0h-56.9m0 0h-.8l-.3.1h-.3l-.2.1h-.3l-.2.1-.3.1h-.2l-.3.1-.2.1-.3.2-.2.1-.2.1-.3.1-.2.2-.2.1-.2.2-.2.1-.2.2-.2.2-.2.2-.2.2-.2.2-.1.2-.2.2-.2.2-.1.2-.1.2-.2.2-.1.3-.1.2-.1.3-.1.2-.1.2-.1.3-.1.2-.1.3v.3l-.1.2v.5l-.1.3v.5"/><path class="st2" d="M55.4 169.6l-.5 1.1-.4 1-.4 1.1-.4 1.1-.4 1.1-.3 1.1-.3 1.2-.3 1.1-.2 1.2-.2 1.1-.2 1.2-.1 1.1-.1 1.2-.1 1.1v1.2l-.1 1.1m0 0v13.7h5v-13.7m0 0v-1.1l.1-1.2.1-1.2.1-1.1.2-1.2.2-1.1.2-1.2.3-1.2.3-1.1.3-1.1.4-1.1.4-1.1.4-1.1.5-1.1.5-1.1.5-1m0 0H69m0 0l-.6.8-.5.9-.6.9-.5.9-.4 1-.5 1-.4.9-.4 1-.3 1.1-.3 1-.3 1.1-.3 1-.2 1.1-.1 1.1-.1.5-.1.6v.5l-.1.6v3.3l.1 1.1.1 1 .1 1.1.2 1.1.2 1.1.2 1 .3 1 .3 1.1.4 1 .3.9.4 1 .5.9.4.9.5.9.5.9.6.9.6.9.6.8.7.9.6.8.8.8.7.8.8.7.8.8.8.7.9.7.9.6.4.3.5.3.4.3.5.3.5.3.4.3.5.2.5.3 1 .5 1 .4 1 .4 1 .4 1.1.4 1 .3 1 .2 1.1.2 1 .2 1.1.2 1 .1 1.1.1 1 .1h2l1.1-.1 1-.1 1-.1 1.1-.2 1-.2 1.1-.2 1-.2 1.1-.3 1-.4 1-.4 1-.4 1-.4 1-.5.5-.3.5-.2.4-.3.5-.3.5-.3.4-.3.5-.3.5-.3.8-.6.9-.7.8-.7.8-.8.8-.7.8-.8.7-.8.7-.8.6-.9.6-.8.6-.9.6-.9.5-.9.5-.9.4-.9.5-.9.4-1 .4-.9.3-1 .3-1.1.3-1 .2-1 .2-1.1.2-1.1.2-1.1.1-1v-4.4l-.1-.6v-.5l-.1-.6-.1-.5-.1-1.1-.2-1.1-.3-1-.2-1.1-.4-1-.3-1.1-.4-1-.4-.9-.4-1-.5-1-.5-.9-.5-.9-.6-.9-.6-.8m0 0h8.1m0 0l.5 1 .5 1.1.5 1.1.4 1.1.4 1.1.4 1.1.3 1.1.4 1.1.2 1.2.3 1.2.2 1.1.1 1.2.1 1.1.1 1.2.1 1.2v1.1m0 0v3.2h5v-3.2m0 0v-1.1l.1-1.2.1-1.2.1-1.1.1-1.2.2-1.2.3-1.1.2-1.2.3-1.1.4-1.1.4-1.2.4-1.1.4-1.1.5-1 .5-1.1.5-1m0 0h8.1m0 0l-.6.8-.6.9-.5.9-.5.9-.5 1-.4.9-.4 1-.4 1-.4 1.1-.3 1-.2 1-.3 1.1-.2 1.1-.2 1.1v.5l-.1.6v.5l-.1.6v4.3l.1 1.1.2 1.1.1 1.1.3 1 .2 1.1.3 1 .3 1 .3 1 .4 1 .4 1 .4.9.5.9.5.9.5.9.6.9.5.9.7.8.6.9.7.8.7.8.8.8.8.7.8.8.8.7.9.6.8.7.5.3.4.3.5.3.5.3.4.3.5.2.5.3.5.3 1 .5 1 .4 1 .4 1 .4 1 .3 1.1.3 1 .3 1.1.2 1 .2 1 .2 1.1.1 1 .1h1.1l1 .1 1-.1h1l1.1-.1 1-.1 1.1-.2 1-.2 1.1-.2 1-.3 1-.3 1.1-.3 1-.4 1-.4 1-.4 1-.5.5-.3.4-.3.5-.2.5-.3.5-.3.4-.3.5-.3.4-.3.9-.7.9-.6.8-.7.8-.8.8-.7.7-.8.8-.8.6-.8.7-.9.6-.8.6-.9.6-.9.5-.9.5-.9.4-.9.5-.9.4-1 .3-1 .4-1 .3-1 .3-1 .2-1.1.2-1 .2-1.1.1-1.1.1-1.1.1-1.1v-2.7l-.1-.5v-1.1l-.1-.6-.1-.5-.1-1.1-.3-1.1-.2-1.1-.3-1-.3-1-.3-1.1-.4-1-.4-1-.5-.9-.4-1-.5-.9-.6-.9-.5-.9-.6-.8m0 0h8.1m0 0l.5 1 .5 1.1.5 1 .4 1.1.4 1.1.4 1.2.3 1.1.3 1.1.3 1.2.2 1.1.2 1.2.2 1.2.1 1.1.1 1.2.1 1.2v1.1m0 0v3.2h5"/></g><path class="st3" d="M219.6 190.8v-3.2l-.1-1.1v-1.1l-.1-1.1-.1-1.1-.1-1.2-.2-1.1-.2-1.1-.2-1.2-.3-1.1-.3-1.2-.3-1.1-.3-1.1-.4-1.2-.4-1.1-.5-1.1-.5-1.1m0 0h15.9m0 0v15.2h.1v.2h.1v.1h.1v.1h.2v.1h76.6v-.1h.1v-.1h.1v-.1h.1v-.1h.1v-15.3m0 0h69.7m0 0l-.5 1.1-.4 1-.5 1.1-.3 1.1-.4 1.1-.3 1.1-.3 1.2-.3 1.1-.2 1.2-.2 1.1-.2 1.2-.1 1.1-.1 1.2-.1 1.1-.1 1.2v1.2m0 0v13.6h5v-13.6m0 0v-1.2l.1-1.2.1-1.1.1-1.2.1-1.2.2-1.1.3-1.2.2-1.2.4-1.1.3-1.1.4-1.1.4-1.1.4-1.1.5-1.1.5-1.1.5-1m0 0h8.1m0 0l-.6.9-.6.8-.5.9-.5.9-.5 1-.4 1-.4.9-.4 1.1-.3 1-.4 1-.2 1.1-.3 1-.2 1.1-.1 1.1-.1.5-.1.6v.5l-.1.6v4.4l.1 1 .2 1.1.2 1.1.2 1.1.2 1 .3 1 .3 1.1.3 1 .4.9.4 1 .5.9.4 1 .5.9.5.8.6.9.6.9.6.8.6.9.7.8.7.8.8.8.8.7.8.8.8.7.9.7.8.6.5.3.5.3.4.3.5.3.5.3.4.3.5.2.5.3 1 .5 1 .4 1 .4 1 .4 1 .4 1.1.3 1 .2 1.1.3 1 .1 1.1.2 1 .1 1 .1 1.1.1h2l1-.1 1.1-.1 1-.1 1.1-.2 1-.1 1.1-.3 1-.2 1-.3 1.1-.4 1-.4 1-.4 1-.4 1-.5.5-.3.5-.2.4-.3.5-.3.5-.3.4-.3.5-.3.4-.3.9-.6.9-.7.8-.7.8-.8.8-.7.7-.8.8-.8.6-.8.7-.9.6-.8.6-.9.6-.9.5-.8.5-.9.4-1 .5-.9.4-1 .3-.9.4-1 .3-1.1.3-1 .2-1 .2-1.1.2-1.1.1-1 .1-1.1.1-1.1v-3.3l-.1-.6v-.5l-.1-.6-.1-.5-.1-1.1-.2-1.1-.3-1-.3-1.1-.3-1-.3-1-.4-1.1-.4-.9-.5-1-.4-1-.5-.9-.5-.9-.6-.8-.6-.9m0 0h8.1m0 0l.5 1 .5 1.1.5 1.1.4 1.1.4 1.1.4 1.1.3 1.1.3 1.2.3 1.1.2 1.2.2 1.1.2 1.2.1 1.2.1 1.1.1 1.2v1.2m0 0v3.1h12.9m0 0l.3-.8.4-.7.3-.8.3-.8.2-.8.3-.8.2-.8.1-.8.2-.9.1-.8.1-.8.1-.9v-1.6m0 0V111m0 0v-1.1l-.1-.2v-.3l-.1-.2v-.1l-.1-.2v-.2l-.1-.1v-.2l-.1-.1v-.2l-.1-.2-.1-.1-.1-.2v-.1l-.1-.2-.1-.2-.1-.1-.1-.2-.1-.1-.1-.2-.1-.1-.1-.1-.1-.2-.1-.1-.1-.1-.2-.2-.1-.1-.1-.1-.1-.2-.2-.1-.1-.1-.1-.1-.2-.1-.1-.1-.2-.1-.1-.1-.1-.1-.2-.1-.1-.1-.2-.1-.1-.1h-.2l-.1-.1-.2-.1h-.2l-.1-.1-.2-.1h-.1l-.2-.1h-.1l-.2-.1h-.3l-.2-.1h-.3m0 0l-52.8-8.5m0 0h-.3l-.1-.1h-.2l-.1-.1h-.2l-.1-.1h-.1l-.2-.1-.1-.1h-.1l-.1-.1-.2-.1-.1-.1-.1-.1-.1-.1-.1-.1-.1-.1-.1-.1-.1-.1-.1-.1-.1-.1-.1-.1-.1-.1-.1-.2v-.1l-.1-.1-.1-.1v-.2l-.1-.1v-.2l-.1-.1v-.1l-.1-.2v-.3m0 0l-6.7-39.1m0 0v-.2l-.1-.3-.1-.2v-.3l-.1-.2-.1-.3-.1-.2-.1-.3-.1-.2-.2-.2-.1-.3-.1-.2-.2-.2-.1-.2-.2-.2-.2-.2-.2-.2-.1-.2-.2-.2-.2-.2-.2-.2-.2-.1-.2-.2-.3-.1-.2-.2-.2-.1-.2-.1-.3-.1-.2-.2-.3-.1h-.2l-.3-.1-.2-.1-.3-.1h-.2l-.3-.1h-.3l-.2-.1h-.8m0 0h-57m0 0h-.7l-.3.1h-.3l-.2.1h-.3l-.2.1-.3.1-.2.1h-.3l-.2.1-.3.2-.2.1-.2.1-.3.1-.2.2-.2.1-.2.2-.2.1-.2.2-.2.2-.2.2-.2.2-.2.2-.1.2-.2.2-.2.2-.1.2-.2.2-.1.2-.1.3-.1.2-.1.3-.1.2-.1.2-.1.3-.1.2-.1.3v.3l-.1.2v.5l-.1.3v.5"/><path class="st3" d="M55.4 169.6l-.5 1.1-.4 1-.4 1.1-.4 1.1-.4 1.1-.3 1.1-.3 1.2-.3 1.1-.2 1.2-.2 1.1-.2 1.2-.1 1.1-.1 1.2-.1 1.1-.1 1.2v1.2m0 0v13.6h5v-13.6m0 0v-1.2l.1-1.2.1-1.1.1-1.2.2-1.2.2-1.1.2-1.2.3-1.2.3-1.1.3-1.1.4-1.1.4-1.1.4-1.1.5-1.1.5-1.1.5-1m0 0H69m0 0l-.6.9-.6.8-.5.9-.5.9-.4 1-.5 1-.4.9-.4 1.1-.3 1-.3 1-.3 1.1-.3 1-.2 1.1-.1 1.1-.1.5-.1.6v.5l-.1.6v3.3l.1 1.1.1 1 .1 1.1.2 1.1.2 1.1.2 1 .3 1 .3 1.1.4 1 .3.9.4 1 .5.9.4 1 .5.9.5.8.6.9.6.9.6.8.6.9.7.8.8.8.7.8.8.7.8.8.8.7.9.7.9.6.4.3.5.3.4.3.5.3.5.3.4.3.5.2.5.3 1 .5 1 .4 1 .4 1 .4 1.1.4 1 .3 1 .2 1.1.3 1 .1 1.1.2 1 .1 1.1.1 1 .1h2l1.1-.1 1-.1 1-.1 1.1-.2 1-.1 1.1-.3 1-.2 1.1-.3 1-.4 1-.4 1-.4 1-.4 1-.5.5-.3.5-.2.4-.3.5-.3.5-.3.4-.3.5-.3.5-.3.8-.6.9-.7.8-.7.8-.8.8-.7.8-.8.7-.8.7-.8.6-.9.6-.8.6-.9.6-.9.5-.8.5-.9.4-1 .5-.9.4-1 .4-.9.3-1 .3-1.1.3-1 .2-1 .2-1.1.2-1.1.1-1.1.1-1 .1-1.1v-3.3l-.1-.6v-.5l-.1-.6-.1-.5-.1-1.1-.2-1.1-.3-1-.2-1.1-.4-1-.3-1-.4-1.1-.4-.9-.4-1-.5-1-.5-.9-.5-.9-.6-.8-.6-.9m0 0h8.1m0 0l.5 1 .5 1.1.5 1.1.4 1.1.4 1.1.4 1.1.3 1.1.3 1.1.3 1.2.3 1.2.1 1.1.2 1.2.1 1.2.1 1.1.1 1.2v1.2m0 0v3.1h5v-3.2m0 0v-1.1l.1-1.2v-1.2l.2-1.1.1-1.2.2-1.2.3-1.1.2-1.2.3-1.1.4-1.1.4-1.2.4-1.1.4-1 .5-1.1.5-1.1.5-1m0 0h8m0 0l-.5.8-.6.9-.5.9-.5.9-.5 1-.4.9-.4 1-.4 1-.4 1.1-.3 1-.2 1.1-.3 1-.2 1.1-.2 1.1v.5l-.1.6v.5l-.1.6v1.6l-.1.6.1 1.1v1l.1 1.1.2 1.1.1 1.1.3 1 .2 1.1.3 1 .3 1 .3 1 .4 1 .4 1 .4.9.5.9.5.9.5.9.6.9.5.9.7.8.6.9.7.8.7.8.8.8.7.7.9.8.8.7.8.6.9.7.5.3.4.3.5.3.5.3.4.3.5.3.5.2.5.3 1 .5 1 .4 1 .4 1 .4 1 .3 1.1.3 1 .3 1.1.2 1 .2 1 .2 1.1.1 1 .1h1.1l1 .1 1-.1h1l1.1-.1 1-.1 1.1-.2 1-.2 1-.2 1.1-.3 1-.3 1.1-.3 1-.4 1-.4 1-.4 1-.5.5-.3.4-.2.5-.3.5-.3.5-.3.4-.3.5-.3.4-.3.9-.7.9-.6.8-.7.8-.8.8-.7.7-.8.7-.8.7-.8.7-.9.6-.8.6-.9.6-.9.5-.9.5-.9.4-.9.4-.9.5-1 .3-1 .4-1 .3-1 .3-1 .2-1.1.2-1 .2-1.1.1-1.1.1-1.1.1-1v-2.8l-.1-.5v-.6l-.1-.5v-.6l-.1-.5-.2-1.1-.2-1.1-.2-1-.3-1.1-.3-1-.3-1.1-.4-1-.4-1-.5-.9-.4-1-.5-.9-.6-.9-.5-.9-.6-.8m0 0h8m0 0l.6 1 .5 1.1.5 1.1.4 1 .4 1.1.4 1.2.3 1.1.3 1.1.3 1.2.2 1.1.2 1.2.2 1.2.1 1.1.1 1.2.1 1.2v1.1m0 0v3.2h5"/></svg>