<svg version="1.1" id="" xmlns="http://www.w3.org/2000/svg" x="0" y="0" viewBox="0 0 1100 280.5" xml:space="preserve"><style>.st2,.st3{fill:none;stroke:#171f3c;stroke-linecap:round;stroke-linejoin:round;stroke-miterlimit:10}.st3{stroke-width:3}</style><path fill="#fff" d="M1073.6 235.1v.9l-.1.2v.3l-.1.3v.3l-.1.3-.1.3-.1.2-.1.3-.1.3-.1.2-.2.3-.1.2-.1.3-.2.2-.2.3-.1.2-.2.2-.2.3-.2.2-.2.2-.2.2-.2.2-.2.2-.3.2-.2.1-.2.2-.3.1-.2.2-.3.1-.3.2-.2.1-.3.1-.3.1-.2.1-.3.1h-.3l-.3.1-.3.1h-.5l-.3.1H1023v-2.3h-10l-.5 1.1-.5 1.1-.6 1-.7 1.1-.6 1-.7 1-.7.9-.8 1-.8.9-.8.8-.9.9-.9.8-.9.8-.9.8-1 .7-1 .7-1 .6-1 .7-1.1.5-1.1.6-1.1.5-1.1.5-1.1.4-1.2.4-1.1.4-1.2.3-1.2.2-1.2.3-1.1.2-1.2.1-1.3.1-1.2.1h-2.4l-1.2-.1-1.2-.1-1.2-.1-1.2-.2-1.2-.3-1.1-.2-1.2-.3-1.2-.4-1.1-.4-1.1-.4-1.2-.5-1.1-.5-1-.6-1.1-.5-1-.7-1-.6-1-.7-1-.7-.9-.8-1-.8-.8-.8-.9-.9-.8-.8-.8-.9-.8-1-.7-.9-.7-1-.7-1-.6-1.1-.6-1-.6-1.1-.5-1.1h-8.5v3.5h-4.9v-3.5H791.5v3.5h-5v-3.5h-8.4l-.6 1.1-.5 1.1-.6 1-.6 1.1-.7 1-.7 1-.7.9-.8 1-.8.9-.8.8-.9.9-.9.8-.9.8-.9.8-1 .7-1 .7-1 .6-1 .7-1.1.5-1.1.6-1.1.5-1.1.5-1.1.4-1.1.4-1.2.4-1.2.3-1.1.2-1.2.3-1.2.2-1.2.1-1.2.1-1.2.1h-2.5l-1.2-.1-1.2-.1-1.2-.1-1.2-.2-1.1-.3-1.2-.2-1.2-.3-1.1-.4-1.2-.4-1.1-.4-1.1-.5-1.1-.5-1.1-.6-1.1-.5-1-.7-1-.6-1-.7-1-.7-.9-.8-.9-.8-.9-.8-.9-.9-.8-.8-.8-.9-.8-1-.7-.9-.7-1-.7-1-.6-1.1-.6-1-.5-1.1-.5-1.1h-8.5v3.5h-5v-3.5h-5v-26.6h-96.9v26.6H481.7v-26.6h-45.9v26.6h-5v-26.6h-46v30.1h-5v-3.5h-8.5l-.5 1.1-.5 1-.6 1.1-.3.5-.3.5-.4.5-.3.6-.4.5-.3.5-.4.5-.4.5-.4.4-.4.5-.4.5-.4.5-.4.4-.5.5-.4.4-.5.5-.4.4-.5.4-.5.5-.5.4-.5.4-.5.4-.5.3-.5.4-.6.4-.5.3-.5.4-.6.3-.5.3-.6.3-.6.3-.5.3-.6.3-.6.3-.6.2-.5.3-.6.2-.6.2-.6.3-.6.2-.6.1-.6.2-.6.2-.6.2-.6.1-.6.1-.7.2-.6.1-.6.1-.6.1h-.6l-.6.1-1.2.1-1.2.1h-2.3l-1.2-.1-1.2-.1-.6-.1h-.7l-.6-.1-.6-.1-.6-.1-.6-.2-.6-.1-.6-.1-.6-.2-.6-.2-.6-.2-.6-.1-.6-.2-.6-.3-.6-.2-.6-.2-.6-.3-.5-.2-.6-.3-.6-.3-.6-.3-.5-.3-.6-.3-.5-.3-.6-.3-.5-.4-.6-.3-.5-.4-.5-.4-.5-.3-.5-.4-.5-.4-.5-.4-.5-.5-.5-.4-.5-.4-.4-.5-.5-.4-.4-.5-.4-.4-.5-.5-.4-.5-.4-.5-.4-.4-.3-.5-.4-.5-.4-.5-.3-.5-.4-.6-.3-.5-.3-.5-.3-.5-.6-1.1-.6-1-.5-1.1h-8.5v3.5h-4.9v-30.1h-5v30.1h-5v-3.5H276l-.5 1.1-.5 1-.6 1.1-.3.5-.4.5-.3.5-.3.6-.4.5-.3.5-.4.5-.4.5-.4.4-.4.5-.4.5-.4.5-.5.4-.4.5-.4.4-.5.5-.5.4-.4.4-.5.5-.5.4-.5.4-.5.4-.5.3-.6.4-.5.4-.5.3-.6.4-.5.3-.6.3-.5.3-.6.3-.6.3-.5.3-.6.3-.6.2-.6.3-.6.2-.6.2-.6.3-.6.2-.6.1-.6.2-.6.2-.6.2-.6.1-.6.1-.6.2-.6.1-.6.1-.6.1h-.6l-.6.1-1.2.1-1.2.1h-2.4l-1.2-.1-1.2-.1-.6-.1h-.6l-.6-.1-.6-.1-.6-.1-.6-.2-.6-.1-.6-.1-.6-.2-.6-.2-.6-.2-.6-.1-.6-.2-.6-.3-.6-.2-.6-.2-.6-.3-.6-.2-.6-.3-.5-.3-.6-.3-.6-.3-.5-.3-.6-.3-.5-.3-.6-.4-.5-.3-.5-.4-.5-.4-.6-.3-.5-.4-.5-.4-.5-.4-.4-.5-.5-.4-.5-.4-.4-.5-.5-.4-.4-.5-.5-.4-.4-.5-.4-.5-.4-.5-.4-.4-.4-.5-.3-.5-.4-.5-.3-.5-.4-.6-.3-.5-.3-.5-.3-.5-.6-1.1-.6-1-.5-1.1h-8.5v3.5h-5v-30.1h-4.9v30.1h-5v-3.5h-8.5l-.5 1.1-.6 1-.6 1.1-.3.5-.3.5-.3.5-.4.6-.3.5-.4.5-.3.5-.4.5-.4.4-.4.5-.4.5-.5.5-.4.4-.4.5-.5.4-.4.5-.5.4-.5.4-.4.5-.5.4-.5.4-.5.4-.6.3-.5.4-.5.4-.5.3-.6.4-.5.3-.6.3-.5.3-.6.3-.6.3-.6.3-.5.3-.6.2-.6.3-.6.2-.6.2-.6.3-.6.2-.6.1-.6.2-.6.2-.6.2-.6.1-.6.1-.6.2-.6.1-.6.1-.6.1h-.6l-.6.1-1.2.1-1.2.1h-2.4l-1.2-.1-1.2-.1-.6-.1h-.6l-.6-.1-.6-.1-.6-.1-.6-.2-.6-.1-.6-.1-.7-.2-.6-.2-.6-.2-.6-.1-.6-.2-.5-.3-.6-.2-.6-.2-.6-.3-.6-.2-.6-.3-.6-.3-.5-.3-.6-.3-.5-.3-.6-.3-.5-.3-.6-.4-.5-.3-.6-.4-.5-.4-.5-.3-.5-.4-.5-.4-.5-.4-.5-.5-.4-.4-.5-.4-.5-.5-.4-.4-.5-.5-.4-.4-.4-.5-.4-.5-.4-.5-.4-.4-.4-.5-.4-.5-.3-.5-.4-.5-.3-.6-.3-.5-.4-.5-.3-.5-.6-1.1-.5-1-.5-1.1h-8.5v3.5h-5v-30.1h-55V228h-10v-26.6h5v-32.6H29.7l-3.3-19.5h892.9l2.1-54.1h4.2v73.6h-14.3v19.3h24.9v-162l.1-.3v-.3l.1-.3.1-.2.1-.3.1-.3.1-.3.1-.2.1-.3.1-.3.2-.2.1-.3.2-.2.1-.2.2-.3.2-.2.2-.2.1-.2.2-.3.3-.2.2-.1.2-.2.2-.2.3-.2.2-.2.2-.1.3-.2.2-.1.3-.1.3-.1.2-.1.3-.2h.3l.3-.1.2-.1.3-.1h.3l.3-.1H1044l.3.1h.3l.3.1.3.1.2.1h.3l.3.2.3.1.2.1.3.1.2.2.3.1.2.2.3.1.2.2.2.2.3.2.2.2.2.2.2.2.2.2.2.2.1.2.2.3.2.2.1.3.2.2.1.3.1.2.2.3.1.3.1.2.1.3v.3l.1.3.1.2v.3l18 105.7.1.3v53.3l.3.2.2.2.3.1.2.2.2.2.2.2.3.1.2.3.2.2.1.2.2.2.2.2.2.3.1.2.2.2.1.3.2.2.1.3.1.3.1.2.1.3.1.3.1.2.1.3v.3l.1.3v.3l.1.2v.9z" id=""/><path d="M995.1 73.3v34l-.1.2v.4l-.1.1v.2l-.1.1v.2l-.1.1v.1l-.1.2-.1.1v.1l-.1.1-.1.2-.1.1-.1.1-.1.1-.1.1-.1.1-.1.1-.1.1-.1.1-.1.1-.1.1-.1.1h-.2l-.1.1-.1.1h-.1l-.2.1-.1.1h-.3l-.1.1h-.2l-.1.1h-21.6l-.2-.1h-.1l-.2-.1h-.2l-.2-.1-.1-.1h-.1l-.2-.1-.1-.1h-.1l-.1-.1-.1-.1-.2-.1-.1-.1-.1-.1-.1-.1-.1-.1-.1-.1-.1-.1-.1-.1v-.1l-.1-.2-.1-.1-.1-.1v-.1l-.1-.2-.1-.1v-.1l-.1-.2v-.1l-.1-.2v-.2l-.1-.2v-35l.1-.2v-.2l.1-.2v-.1l.1-.2v-.1l.1-.1.1-.1v-.2l.1-.1.1-.1.1-.1v-.2l.1-.1.1-.1.1-.1.1-.1.1-.1.1-.1.1-.1.2-.1.1-.1h.1l.1-.1.1-.1.2-.1h.1l.1-.1h.2l.1-.1h.1l.2-.1h.1l.2-.1h21.6l.1.1h.2l.1.1h.2l.1.1h.1l.2.1h.1l.1.1.1.1.2.1h.1l.1.1.1.1.1.1.1.1.1.1.1.1.1.1.1.1.1.1.1.2.1.1.1.1v.1l.1.2.1.1v.1l.1.1v.2l.1.1v.2l.1.1v.4l.1.2v.3zm59.1 21.7l3.5 20.8v.3l.1.2v.6l-.1.1v.4l-.1.2v.3l-.1.1v.1l-.1.2-.1.1v.1l-.1.2-.1.1-.1.1-.1.1v.2l-.1.1-.1.1-.1.1-.1.1-.1.1-.2.1-.1.1-.1.1-.1.1h-.1l-.2.1-.1.1-.1.1h-.2l-.1.1h-.1l-.2.1h-.1l-.2.1h-.4l-.1.1h-14.4l-.3-.1h-.6l-.3-.1-.3-.1h-.2l-.3-.1-.3-.1-.3-.1-.3-.1-.2-.2-.3-.1-.2-.1-.3-.2-.2-.1-.3-.2-10.1-7.3h-.1l-.1-.1-.1-.1-.2-.1h-.1l-.1-.1h-.2l-.1-.1h-.1l-.2-.1h-.1l-.2-.1h-.7l-.1-.1h-19l-.1-.1h-.2l-.1-.1h-.3l-.1-.1-.2-.1h-.1l-.1-.1-.1-.1h-.2l-.1-.1-.1-.1-.1-.1-.1-.1-.1-.1-.1-.1-.1-.1-.1-.1-.1-.1-.1-.1-.1-.2-.1-.1-.1-.1v-.1l-.1-.1-.1-.2v-.1l-.1-.1v-.2l-.1-.1v-.2l-.1-.1v-.4l-.1-.2V72.9l.1-.2v-.4l.1-.1V72l.1-.1v-.2l.1-.1v-.1l.1-.1.1-.2v-.1l.1-.1.1-.1.1-.2.1-.1.1-.1.1-.1.1-.1.1-.1.1-.1.1-.1.1-.1.1-.1h.1l.2-.1.1-.1.1-.1h.1l.2-.1h.1l.1-.1h.2l.1-.1h.2l.1-.1h43.3l.2.1h.1l.1.1h.2l.1.1h.2l.1.1h.1l.1.1.2.1.1.1h.1l.1.1.1.1.2.1.1.1.1.1.1.1.1.1.1.1.1.1v.2l.1.1.1.1.1.1v.2l.1.1.1.1v.2l.1.1v.1l.1.2v.4l.6 3.5h-7.9v.1h-.2v.1h-.1v.1h-.1v.2h-.1V111h.1v.2h.1v.1h.1l.1.1h.1v.1h10.6v-.1h.2v-.1h.1v-.1h.1v-.1h.1v-.3h.1v-.2z" fill="#171f3c"/><path class="st2" d="M27.5 155.8h898.1M328.7 208l.4-.2.4-.3.5-.2.4-.2.5-.2.4-.2.5-.2.5-.2.5-.2.5-.1.5-.2.5-.1.5-.1.6-.1.5-.1.5-.1.6-.1h.5l.6-.1h3.3l.6.1h.5l.6.1.6.1.5.1.6.2.5.1.6.2.5.1.6.2.5.2.5.2.5.2.6.3.5.2.5.3.4.3.5.2.5.3.5.3.4.3.5.4.4.3.4.4.4.3.4.4.4.3.4.4.4.4.3.4.4.4.3.4.3.4.3.4.3.4.3.4.3.4.2.4.3.4.2.5.2.4.3.4.2.5.2.5.2.4.2.5.1.5.2.5.2.5.1.5.2.5.1.5.1.5.1.6.1.5v.6l.1.5.1.6v2.7l-.1.6v.6l-.1.5-.1.6-.1.5-.1.6-.1.6-.1.5-.2.6-.2.5-.1.5-.2.6-.2.5-.3.5-.2.5-.3.5-.2.5-.3.5-.3.5-.3.5-.3.4-.3.5-.3.4-.3.5-.4.4-.3.4-.4.4-.4.4-.3.4-.4.3-.4.4-.4.3-.4.4-.4.3-.4.3-.4.3-.4.3-.4.2-.5.3-.4.2-.4.3-.4.2-.5.2-.4.3-.5.2-.5.2-.4.1-.5.2-.5.2-.5.2-.5.1-.5.1-.6.2-.5.1-.5.1-.5.1h-.6l-.5.1h-.6l-.5.1h-2.3l-.5-.1h-.6l-.6-.1-.5-.1-.6-.1-.5-.1-.6-.1-.5-.2-.6-.1-.5-.2-.6-.2-.5-.2-.5-.2-.5-.2-.6-.2-.5-.3-.5-.2-.5-.3-.4-.3-.5-.3-.5-.3-.4-.3-.5-.3-.4-.4-.4-.3-.4-.4-.4-.3-.4-.4-.4-.4-.4-.3-.3-.4-.4-.4-.3-.4-.3-.4-.3-.4-.3-.4-.3-.4-.3-.5-.2-.4-.3-.4-.2-.4-.3-.5-.2-.4-.2-.4-.2-.5-.2-.5-.2-.5-.2-.4-.1-.5-.2-.5-.1-.5-.2-.6-.1-.5-.1-.5-.1-.5-.1-.6-.1-.5v-.6l-.1-.5v-3.4l.1-.5.1-.6.1-.5v-.6l.2-.6.1-.5.1-.6.2-.5.1-.6.2-.5.2-.5.2-.6.3-.5.2-.5.2-.5.3-.5.3-.5.3-.5.2-.4.4-.5.3-.4.3-.5.3-.4.4-.4.3-.5.4-.4.3-.3.4-.4.4-.4.4-.3.4-.4.4-.3.4-.3.4-.3.4-.3.4-.3.4-.3.4-.3zm-95.4 0l.5-.2.4-.3.4-.2.5-.2.4-.2.5-.2.5-.2.5-.2.5-.2.5-.1.5-.2.5-.1.5-.1.5-.1.6-.1.5-.1.5-.1h.6l.5-.1h3.4l.6.1h.5l.6.1.5.1.6.1.6.2.5.1.6.2.5.1.5.2.6.2.5.2.5.2.5.3.5.2.5.3.5.3.5.2.5.3.4.3.5.3.4.4.5.3.4.4.4.3.4.4.4.3.4.4.3.4.4.4.3.4.4.4.3.4.3.4.3.4.3.4.2.4.3.4.2.4.3.5.2.4.2.4.3.5.2.5.2.4.1.5.2.5.2.5.1.5.2.5.1.5.2.5.1.5.1.6v.5l.1.6.1.5v.6l.1.5v2.2l-.1.6v.6l-.1.5-.1.6-.1.5-.1.6-.1.6-.2.5-.1.6-.2.5-.2.5-.2.6-.2.5-.2.5-.2.5-.3.5-.2.5-.3.5-.3.5-.3.5-.3.4-.3.5-.3.4-.4.5-.3.4-.4.4-.3.4-.4.4-.4.4-.3.3-.4.4-.4.3-.4.4-.4.3-.4.3-.4.3-.4.3-.5.2-.4.3-.4.2-.4.3-.5.2-.4.2-.5.3-.4.2-.5.2-.5.1-.4.2-.5.2-.5.2-.5.1-.6.1-.5.2-.5.1-.5.1-.6.1h-.5l-.6.1h-.5l-.6.1h-2.2l-.6-.1h-.5l-.6-.1-.5-.1-.6-.1-.6-.1-.5-.1-.6-.2-.5-.1-.6-.2-.5-.2-.5-.2-.6-.2-.5-.2-.5-.2-.5-.3-.5-.2-.5-.3-.5-.3-.4-.3-.5-.3-.5-.3-.4-.3-.4-.4-.5-.3-.4-.4-.4-.3-.4-.4-.3-.4-.4-.3-.3-.4-.4-.4-.3-.4-.3-.4-.3-.4-.3-.4-.3-.4-.3-.5-.3-.4-.2-.4-.2-.4-.3-.5-.2-.4-.2-.4-.2-.5-.2-.5-.2-.5-.2-.4-.2-.5-.1-.5-.2-.5-.1-.6-.1-.5-.1-.5-.1-.5-.1-.6-.1-.5v-.6l-.1-.5v-1.1l-.1-.6.1-.5v-1.2l.1-.5v-.6l.1-.5.1-.6.1-.6.2-.5.1-.6.2-.5.1-.6.2-.5.2-.5.2-.6.2-.5.3-.5.2-.5.3-.5.2-.5.3-.5.3-.4.3-.5.3-.4.4-.5.3-.4.3-.4.4-.5.4-.4.3-.3.4-.4.4-.4.4-.3.4-.4.4-.3.4-.3.4-.3.4-.3.4-.3.4-.3.4-.3zm-95.3 0l.4-.2.5-.3.4-.2.5-.2.4-.2.5-.2.5-.2.5-.2.4-.2.5-.1.6-.2.5-.1.5-.1.5-.1.5-.1.6-.1.5-.1h.6l.5-.1h3.4l.5.1h.6l.6.1.5.1.6.1.5.2.6.1.5.2.6.1.5.2.5.2.6.2.5.2.5.3.5.2.5.3.5.3.5.2.4.3.5.3.5.3.4.4.4.3.5.4.4.3.4.4.4.3.3.4.4.4.4.4.3.4.3.4.3.4.4.4.3.4.2.4.3.4.3.4.2.4.3.5.2.4.2.4.2.5.2.5.2.4.2.5.2.5.2.5.1.5.2.5.1.5.1.5.1.5.1.6.1.5.1.6.1.5v1.1l.1.6v.5l-.1.6v1.1l-.1.6v.5l-.1.6-.1.5-.1.6-.2.6-.1.5-.1.6-.2.5-.2.5-.2.6-.2.5-.2.5-.3.5-.2.5-.3.5-.2.5-.3.5-.3.5-.3.4-.3.5-.4.4-.3.5-.3.4-.4.4-.3.4-.4.4-.4.4-.4.3-.4.4-.3.3-.4.4-.4.3-.5.3-.4.3-.4.3-.4.2-.4.3-.4.2-.5.3-.4.2-.4.2-.5.3-.4.2-.5.2-.5.1-.5.2-.5.2-.5.2-.5.1-.5.1-.5.2-.5.1-.6.1-.5.1h-.5l-.6.1h-.5l-.6.1h-2.2l-.6-.1h-.6l-.5-.1-.6-.1-.5-.1-.6-.1-.5-.1-.6-.2-.5-.1-.6-.2-.5-.2-.6-.2-.5-.2-.5-.2-.5-.2-.5-.3-.5-.2-.5-.3-.5-.3-.5-.3-.4-.3-.5-.3-.4-.3-.5-.4-.4-.3-.4-.4-.4-.3-.4-.4-.4-.4-.3-.3-.4-.4-.3-.4-.3-.4-.4-.4-.3-.4-.3-.4-.3-.4-.2-.5-.3-.4-.2-.4-.3-.4-.2-.5-.2-.4-.2-.4-.3-.5-.1-.5-.2-.5-.2-.4-.2-.5-.1-.5-.2-.5-.1-.6-.1-.5-.2-.5-.1-.5v-.6l-.1-.5-.1-.6v-.5l-.1-.6v-1.6l.1-.6v-1.1l.1-.6.1-.5.1-.6.1-.6.1-.5.2-.6.1-.5.2-.6.2-.5.2-.5.2-.6.2-.5.2-.5.3-.5.2-.5.3-.5.3-.5.3-.4.3-.5.3-.4.3-.5.4-.4.3-.4.4-.5.3-.4.4-.3.4-.4.3-.4.4-.3.4-.4.4-.3.4-.3.4-.3.4-.3.5-.3.4-.3.4-.3zm916.2-113l3.5 20.8m0 0v.3l.1.2v.6l-.1.1v.4l-.1.2v.3l-.1.1v.1l-.1.2-.1.1v.1l-.1.2-.1.1-.1.1-.1.1v.2l-.1.1-.1.1-.1.1-.1.1-.1.1-.2.1-.1.1-.1.1-.1.1h-.1l-.2.1-.1.1-.1.1h-.2l-.1.1h-.1l-.2.1h-.1l-.2.1h-.4l-.1.1h-.5m0 0h-13.3m0 0h-.6l-.3-.1h-.6l-.3-.1-.3-.1h-.2l-.3-.1-.3-.1-.3-.1-.3-.1-.2-.2-.3-.1-.2-.1-.3-.2-.2-.1-.3-.2m0 0l-10.1-7.3m0 0h-.1l-.1-.1-.1-.1-.2-.1h-.1l-.1-.1h-.2l-.1-.1h-.1l-.2-.1h-.1l-.2-.1h-.7l-.1-.1m0 0h-18.1m0 0h-.9l-.1-.1h-.2l-.1-.1h-.3l-.1-.1-.2-.1h-.1l-.1-.1-.1-.1h-.2l-.1-.1-.1-.1-.1-.1-.1-.1-.1-.1-.1-.1-.1-.1-.1-.1-.1-.1-.1-.1-.1-.2-.1-.1-.1-.1v-.1l-.1-.1-.1-.2v-.1l-.1-.1v-.2l-.1-.1v-.2l-.1-.1v-.4l-.1-.2v-.3m0 0V73.3m0 0v-.4l.1-.2v-.4l.1-.1V72l.1-.1v-.2l.1-.1v-.1l.1-.1.1-.2v-.1l.1-.1.1-.1.1-.2.1-.1.1-.1.1-.1.1-.1.1-.1.1-.1.1-.1.1-.1.1-.1h.1l.2-.1.1-.1.1-.1h.1l.2-.1h.1l.1-.1h.2l.1-.1h.2l.1-.1h.9m0 0h41.6m0 0h.8l.2.1h.1l.1.1h.2l.1.1h.2l.1.1h.1l.1.1.2.1.1.1h.1l.1.1.1.1.2.1.1.1.1.1.1.1.1.1.1.1.1.1v.2l.1.1.1.1.1.1v.2l.1.1.1.1v.2l.1.1v.1l.1.2v.4m0 0l.6 3.5m14.2 107.9h-39.4M990.8 69.1h-19.9m24.2 4.2v-.4l-.1-.2v-.4l-.1-.1V72l-.1-.1v-.2l-.1-.1v-.1l-.1-.1-.1-.2v-.1l-.1-.1-.1-.1-.1-.2-.1-.1-.1-.1-.1-.1-.1-.1-.1-.1-.1-.1-.1-.1-.1-.1-.1-.1h-.1l-.2-.1-.1-.1-.1-.1h-.1l-.2-.1h-.1l-.1-.1h-.2l-.1-.1h-.2l-.1-.1h-.9m4.3 37.8V73.3m-4.3 37.8h.9l.1-.1h.2l.1-.1h.3l.1-.1.2-.1h.1l.1-.1.1-.1h.2l.1-.1.1-.1.1-.1.1-.1.1-.1.1-.1.1-.1.1-.1.1-.1.1-.1.1-.1.1-.2.1-.1v-.1l.1-.1.1-.2v-.1l.1-.1v-.2l.1-.1v-.2l.1-.1v-.4l.1-.2v-.4m-24.2 4.2h19.9m-24.1-4.2v.7l.1.2v.2l.1.2v.1l.1.2v.1l.1.1.1.2v.1l.1.1.1.1.1.2v.1l.1.1.1.1.1.1.1.1.1.1.1.1.1.1.2.1.1.1.1.1h.1l.1.1.2.1h.1l.1.1.2.1h.2l.2.1h.1l.2.1h.8m-4.2-37.8v33.6m4.2-37.8h-.8l-.2.1h-.1l-.2.1h-.1l-.1.1h-.2l-.1.1h-.1l-.2.1-.1.1-.1.1h-.1l-.1.1-.2.1-.1.1-.1.1-.1.1-.1.1-.1.1-.1.1-.1.1v.2l-.1.1-.1.1-.1.1v.2l-.1.1-.1.1v.1l-.1.2v.1l-.1.2v.2l-.1.2v.7m28.4 33.6v67m54.8-113.6h.3l.3.1h.6l.3.1h.3l.3.1h.2l.3.1.3.1.3.1.2.1.3.2.3.1.2.1.3.2.2.1.2.2.3.2.2.1.2.2.2.2.3.2.2.2.2.3.1.2.2.2.2.2.2.3.1.2.2.3.1.2.1.3.1.3.1.2.2.3v.3l.1.3.1.2.1.3m-63.2 6.2v-13m-70.4 133h-76.3v40.5h75.8v-39.9l.5-.6zm-84.1 40.6v-40.6h-32.3v41.3h31.6l.7-.7zM735.4 208l.6-.4.7-.3.7-.3.7-.3.7-.3.8-.3.7-.2.7-.2.8-.2.7-.1.8-.1.7-.1.8-.1h3l.8.1.7.1.8.1.7.1.8.2.7.2.8.2.7.2.7.3.7.3.7.3.7.4.6.3.7.4.6.4.7.5.6.4.6.5.6.5.5.5.6.5.5.6.5.6.5.6.4.6.5.6.4.6.4.7.4.6.3.7.4.7.3.7.2.7.3.7.2.8.2.7.2.7.2.8.1.7.1.8.1.7v3.1l-.1.8v.7l-.2.8-.1.7-.2.8-.1.7-.3.7-.2.8-.3.7-.2.7-.4.7-.3.7-.4.6-.3.7-.4.6-.5.7-.4.6-.5.6-.5.6-.5.5-.5.6-.6.5-.5.5-.6.5-.6.5-.6.4-.7.4-.6.5-.7.3-.7.4-.6.3-.7.3-.7.3-.8.3-.7.2-.7.2-.8.2-.7.2-.8.1-.7.1-.8.1-.7.1h-2.3l-.8-.1-.7-.1-.8-.1-.7-.1-.8-.2-.7-.1-.8-.2-.7-.3-.7-.2-.7-.3-.7-.3-.7-.3-.7-.4-.6-.4-.7-.4-.6-.4-.6-.4-.6-.5-.6-.5-.6-.5-.6-.5-.5-.6-.5-.5-.5-.6-.5-.6-.4-.6-.5-.7-.4-.6-.4-.7-.3-.6-.4-.7-.3-.7-.3-.7-.2-.7-.3-.7-.2-.8-.2-.7-.2-.8-.1-.7-.1-.8-.1-.7-.1-.8v-2.3l.1-.7v-.8l.1-.7.2-.8.1-.7.2-.8.2-.7.2-.7.3-.8.2-.7.3-.7.4-.7.3-.6.4-.7.4-.7.4-.6.4-.6.5-.6.5-.6.5-.6.5-.6.5-.5.6-.5.6-.5.6-.5.6-.5.6-.4.6-.4zm235 0l.6-.4.7-.3.7-.3.7-.3.7-.3.7-.3.8-.2.7-.2.7-.2.8-.1.7-.1.8-.1.8-.1h3l.8.1.7.1.8.1.7.1.8.2.7.2.7.2.8.2.7.3.7.3.7.3.6.4.7.3.7.4.6.4.6.5.6.4.6.5.6.5.6.5.5.5.6.6.5.6.4.6.5.6.4.6.5.6.4.7.3.6.4.7.3.7.3.7.3.7.3.7.2.8.2.7.2.7.1.8.2.7.1.8v.7l.1.8v2.3l-.1.8-.1.7-.1.8-.1.7-.2.8-.2.7-.2.7-.2.8-.3.7-.3.7-.3.7-.3.7-.4.6-.4.7-.4.6-.4.7-.4.6-.5.6-.5.6-.5.5-.6.6-.5.5-.6.5-.6.5-.6.5-.6.4-.6.4-.6.5-.7.3-.7.4-.7.3-.7.3-.7.3-.7.3-.7.2-.7.2-.8.2-.7.2-.8.1-.7.1-.8.1-.8.1h-2.2l-.8-.1-.8-.1-.7-.1-.8-.1-.7-.2-.8-.1-.7-.2-.7-.3-.7-.2-.7-.3-.7-.3-.7-.3-.7-.4-.7-.4-.6-.4-.6-.4-.7-.4-.6-.5-.6-.5-.5-.5-.6-.5-.5-.6-.5-.5-.5-.6-.5-.6-.5-.6-.4-.7-.4-.6-.4-.7-.3-.6-.4-.7-.3-.7-.3-.7-.3-.7-.2-.7-.2-.8-.2-.7-.2-.8-.1-.7-.1-.8-.1-.7-.1-.8v-3l.1-.8.1-.7.1-.8.2-.7.1-.8.2-.7.3-.7.2-.8.3-.7.3-.7.3-.7.4-.6.3-.7.4-.7.5-.6.4-.6.5-.6.4-.6.5-.6.6-.6.5-.5.6-.5.5-.5.6-.5.6-.5.7-.4.6-.4zm-55.8-6.5v1.9"/><path class="st2" d="M914.6 203.4v.3h-.1v.2h-.1v.1h-.1v.1h-.1v.1h-.2v.1h-.3m0 0H909m0 0h-.3v-.1h-.2v-.1h-.1v-.1h-.1v-.1h-.1v-.2h-.1v-.3m0 0v-1.9m0 0v-.2l.1-.1v-.1l.1-.1.1-.1.1-.1h.1v-.1h.4m0 0h4.7m0 0h.3l.1.1h.1v.1h.1l.1.1v.1h.1v.2h.1v.2m90-44.9v12.3m0 0v.4h.1v.1l.1.1.1.1h.1v.1h.2v.1h.2m0 0h8.8m0 0h.2v-.1h.2v-.1h.2v-.1h.1v-.2h.1v-.4m0 0v-12.3m0 0v-.4h-.1v-.1h-.1v-.1h-.1v-.1h-.1l-.1-.1h-.3m0 0h-8.8m0 0h-.3l-.1.1h-.1v.1h-.1v.1h-.1v.1l-.1.1v.3m-192.1 46.8v-1.9m0 0v-.1h.1v-.3h.1v-.1h.1v-.1h.1v-.1h.1l.1-.1h.3m0 0h4.8m0 0h.3v.1h.2v.1h.1v.1h.1v.2h.1v.3m0 0v1.9m0 0v.4h-.1v.1l-.1.1-.1.1-.1.1h-.2v.1h-.2m0 0h-4.8m0 0h-.3v-.1h-.2v-.1h-.1v-.1h-.1v-.1h-.1v-.3h-.1v-.2m168.4-66.8h7.9m0 0h.3v-.1h.2v-.1h.1v-.1h.1v-.1h.1v-.2h.1v-.3m0 0V131m0 0v-.2l-.1-.1v-.2h-.1v-.1h-.1v-.1h-.1v-.1h-.2v-.1h-.3m0 0h-7.9m0 0h-.2l-.1.1h-.2v.1h-.1v.1h-.1v.1h-.1v.3h-.1v.2m0 0v4.7m0 0v.2h.1v.3h.1v.1h.1v.1h.1v.1h.2v.1h.3m-26.3-76.3h95.3m-113.7 0h18.1m-8.2 8.5v-.6l.1-.2v-.6l.1-.3.1-.3v-.3l.1-.2.1-.3.1-.3.1-.3.1-.2.2-.3.1-.2.2-.3.1-.2.2-.3.2-.2.1-.2.2-.3.2-.2.2-.2.2-.2.2-.2.3-.2.2-.1.2-.2.3-.2.2-.1.3-.2.2-.1.3-.1.2-.2.3-.1.3-.1.3-.1.2-.1h.3l.3-.1h.3l.3-.1h.5l.3-.1h.3m-8.5 113.6V68.8M703.8 188.1l-.3.8-.4.7-.3.8-.2.8-.3.8-.2.8-.2.8-.2.8-.2.9-.1.8-.1.8-.1.9v1.6m0 0v41.9m13.5 0l-.5-1.1-.5-1.1-.4-1.2-.3-1.1-.3-1.2-.3-1.2-.2-1.1-.2-1.2-.2-1.2-.1-1.2-.1-1.2v-2.4l.1-1.2.1-1.2.1-1.2.2-1.2.2-1.2.2-1.2.4-1.2.3-1.1.4-1.2.4-1.1.5-1.1.5-1.1.5-1.1.6-1 .6-1.1.6-1 .7-1 .7-1 .8-.9.7-.9.9-.9.8-.9.9-.8.9-.8.9-.8 1-.7.9-.7 1-.7 1.1-.6 1-.6 1.1-.6 1.1-.5 1.1-.5 1.1-.5 1.1-.4 1.2-.4 1.1-.3 1.2-.3 1.2-.2 1.2-.2 1.1-.2 1.2-.1 1.3-.1h3.6l1.2.1 1.2.1 1.2.2 1.1.2 1.2.2 1.2.3 1.2.3 1.1.4 1.1.4 1.2.5 1.1.5 1 .5 1.1.6 1.1.6 1 .6 1 .7 1 .7.9.7.9.8.9.8.9.8.9.9.8.9.8.9.7.9.7 1 .7 1 .6 1 .7 1.1.5 1 .6 1.1.5 1.1.4 1.1.4 1.1.4 1.2.4 1.1.3 1.2.2 1.2.2 1.2.2 1.2.2 1.2.1 1.2v3.6l-.1 1.2-.1 1.2-.1 1.2-.2 1.2-.3 1.1-.3 1.2-.3 1.2-.3 1.1-.4 1.2-.5 1.1-.4 1.1m-71.9 0v-25.1m0 0l.4-1.4.4-1.4.5-1.3.6-1.4.5-1.3.7-1.3.6-1.3.8-1.2.7-1.2.8-1.2.9-1.2.9-1.1.9-1.1.9-1.1 1-1 1.1-1 1-1 1.1-.9 1.2-.9 1.1-.9 1.2-.8 1.2-.8 1.3-.7 1.2-.7 1.3-.6 1.3-.6 1.4-.5m0 0l.2-.1.3-.1.3-.1.3-.1.2-.1h.6l.3-.1h.9m0 0h24.1m0 0h.9l.3.1h.6l.2.1.3.1.3.1.3.1.2.1m0 0l1.4.5 1.3.6 1.3.6 1.2.7 1.3.7 1.2.8 1.2.8 1.2.9 1.1.9 1.1.9 1 1 1.1 1 1 1 .9 1.1 1 1.1.8 1.1.9 1.2.8 1.2.8 1.2.7 1.2.6 1.3.7 1.3.6 1.3.5 1.4.5 1.3.4 1.4.4 1.4m0 0v25.1m5 0v-41.9m0 0v-1.6l-.1-.9-.1-.8-.1-.8-.2-.9-.1-.8-.2-.8-.3-.8-.2-.8-.3-.8-.3-.8-.4-.7-.3-.8m152.2 53.2v-25.1m0 0l.4-1.4.5-1.4.5-1.3.5-1.4.6-1.3.6-1.3.7-1.3.7-1.2.8-1.2.8-1.2.8-1.2.9-1.1 1-1.1.9-1.1 1-1 1-1 1.1-1 1.1-.9 1.1-.9 1.2-.9 1.2-.8 1.2-.8 1.2-.7 1.3-.7 1.3-.6 1.3-.6 1.3-.5m0 0l.3-.1.3-.1.3-.1.2-.1.3-.1h.6l.3-.1h.8m0 0h24.2m0 0h.9l.3.1h.5l.3.1.3.1.3.1.3.1.2.1m0 0l1.3.5 1.4.6 1.2.6 1.3.7 1.2.7 1.3.8 1.1.8 1.2.9 1.1.9 1.1.9 1.1.9 1 1 1 1.1 1 1 .9 1.1.9 1.2.8 1.1.8 1.2.8 1.2.7 1.3.7 1.3.6 1.2.6 1.4.6 1.3.4 1.3.5 1.4.4 1.4.4 1.4.3 1.4.2 1.4.2 1.4.2 1.4.1 1.5v1.4l.1 1.4"/><path class="st2" d="M949.6 241.3l-.4-1.1-.5-1.1-.4-1.2-.3-1.1-.4-1.2-.2-1.2-.3-1.1-.2-1.2-.1-1.2-.1-1.2-.1-1.2v-3.6l.1-1.2.2-1.2.1-1.2.3-1.2.2-1.2.3-1.2.4-1.1.3-1.2.5-1.1.4-1.1.5-1.1.6-1.1.5-1 .6-1.1.7-1 .7-1 .7-1 .7-.9.8-.9.8-.9.9-.9.8-.8.9-.8 1-.8.9-.7 1-.7 1-.7 1-.6 1.1-.6 1-.6 1.1-.5 1.1-.5 1.1-.5 1.2-.4 1.1-.4 1.2-.3 1.2-.3 1.1-.2 1.2-.2 1.2-.2 1.2-.1 1.2-.1h3.6l1.2.1 1.2.1 1.2.2 1.2.2 1.2.2 1.2.3 1.1.3 1.2.4 1.1.4 1.1.5 1.1.5 1.1.5 1.1.6 1 .6 1.1.6 1 .7.9.7 1 .7.9.8.9.8.9.8.8.9.8.9.8.9.8.9.7 1 .7 1 .6 1 .6 1.1.6 1 .5 1.1.5 1.1.5 1.1.4 1.1.4 1.2.3 1.1.3 1.2.3 1.2.2 1.2.2 1.2.1 1.2.1 1.2.1 1.2v2.4l-.1 1.2-.1 1.2-.2 1.2-.2 1.2-.2 1.1-.3 1.2-.3 1.2-.4 1.1-.4 1.2-.4 1.1-.5 1.1m10-13.9v13.9m46.3-56.2l-.2-.1-.2-.1-.3-.1-.2-.1-.3-.1-.3-.1-.2-.1-.3-.1-.3-.1h-.2l-.3-.1h-.6l-.2-.1h-.6m-128.9 4.1v53.2m86.8-13.9h7.9v-28m0 0l-.1-.8v-.9l-.1-.9-.1-.8-.1-.9-.2-.8-.2-.9-.2-.8-.2-.9-.3-.8-.3-.8-.4-.8-.3-.8-.4-.8-.4-.8-.5-.7-.4-.7-.5-.8-.5-.7-.6-.6-.5-.7-.6-.7-.6-.6-.6-.6-.7-.6-.7-.5-.6-.6-.7-.5-.8-.5-.7-.4-.7-.5-.8-.4-.8-.4-.8-.3-.8-.4-.8-.3-.8-.3-.9-.2-.8-.2-.9-.2-.8-.2-.9-.1-.8-.1-.9-.1h-.9l-.8-.1m0 0h-69.2m114.7-97.8h-7.9v.1h-.2v.1h-.1v.1h-.1v.2h-.1V111h.1v.2h.1v.1h.1l.1.1h.1v.1h10.6v-.1h.2v-.1h.1v-.1h.1v-.1h.1v-.3h.1v-34l-.1-.1v-.2h-.1v-.1h-.1v-.1h-.1v-.1h-.1l-.1-.1h-.3zM599.3 234.7H481.7m117.6-40.8H481.7m307.2-5.8l-.4-.8-.5-.7-.4-.8-.5-.7-.5-.8-.6-.7-.5-.6-.6-.7-.6-.7-.6-.6-.7-.6-.7-.6-.6-.5-.8-.5-.7-.5-.7-.5-.8-.5-.8-.4-.7-.4-.9-.4-.8-.3-.8-.3-.8-.3-.9-.3-.8-.2-.9-.2-.9-.2-.8-.1-.9-.1-.9-.1h-.9l-.9-.1m0 0h-39.3m0 0l-.9.1h-.9l-.9.1-.8.1-.9.1-.9.2-.9.2-.8.2-.9.3-.8.3-.8.3-.8.3-.8.4-.8.4-.8.4-.8.5-.7.5-.7.5-.7.5-.7.5-.7.6-.6.6-.7.6-.6.7-.6.7-.5.6-.6.7-.5.8-.5.7-.4.8-.5.7-.4.8m0 0h-7.6m215.1 0H788.9M43.8 168.8h867.5M48.8 214.7v-13.3h-5m652.4-13.3v26.6m-96.9 0v-26.6H481.7v26.6m-45.9 0v-45.9m-5 0v45.9m-59.5 26.6l.5-1 .3-.9.4-1 .3-1 .3-1.1.3-1 .2-1.1.3-1 .1-1.1.2-1.1.1-1.1.1-1.1v-3.3l-.1-1.1-.1-1.1-.1-1.1-.2-1.1-.2-1.1-.2-1-.3-1.1-.3-1.1-.4-1-.3-1-.4-1-.4-1-.5-1-.5-.9-.5-1-.5-.9-.6-.9-.5-.8-.6-.9-.7-.8-.7-.8-.7-.9-.7-.8-.7-.7-.8-.8-.8-.7-.9-.7-.8-.7-.9-.7-.9-.6-.9-.6-1-.6-.9-.5-1-.5-1-.5-1-.5-1-.4-1.1-.4-1-.3-1.1-.3-1-.3-1.1-.3-1-.2-1.1-.1-1.1-.2-1-.1-1.1-.1h-4.2l-1 .1-1.1.1-1 .2-1.1.1-1.1.2-1 .3-1.1.3-1 .3-1.1.3-1 .4-1 .4-1 .5-1 .5-1 .5-1 .5-.9.6-.9.6-.9.6-.9.7-.9.7-.8.7-.8.7-.8.8-.7.7-.8.8-.7.9-.6.8-.7.8-.6.9-.6.8-.5.9-.5.9-.6 1-.4.9-.5 1-.4 1-.4 1-.4 1-.3 1-.3 1.1-.3 1.1-.2 1-.2 1.1-.2 1.1-.1 1.1-.1 1.1-.1 1.1v3.3l.1 1.1.1 1.1.1 1.1.2 1.1.2 1 .3 1.1.2 1 .3 1.1.4 1 .3 1 .4.9.4 1m-31.9 0l.4-1 .4-.9.4-1 .3-1 .3-1.1.3-1 .2-1.1.2-1 .2-1.1.1-1.1.2-1.1v-1.1l.1-1.1v-1.1l-.1-1.1v-1.1l-.1-1.1-.2-1.1-.1-1.1-.2-1.1-.3-1-.2-1.1-.3-1.1-.4-1-.3-1-.4-1-.5-1-.4-1-.5-.9-.5-1-.5-.9-.6-.9-.6-.8-.6-.9-.6-.8-.7-.8-.7-.9-.7-.8-.8-.7-.7-.8-.9-.7-.8-.7-.8-.7-.9-.7-.9-.6-1-.6-.9-.6-1-.5-.9-.5-1-.5-1-.5-1.1-.4-1-.4-1-.3-1.1-.3-1-.3-1.1-.3-1.1-.2-1-.1-1.1-.2-1-.1-1.1-.1h-4.2l-1 .1-1.1.1-1.1.2-1 .1-1.1.2-1 .3-1.1.3-1 .3-1.1.3-1 .4-1 .4-1 .5-1 .5-1 .5-1 .5-.9.6-.9.6-1 .6-.8.7-.9.7-.8.7-.8.7-.8.8-.8.7-.7.8-.7.9-.7.8-.6.8-.6.9-.6.8-.5.9-.6.9-.5 1-.5.9-.4 1-.4 1-.4 1-.4 1-.3 1-.3 1.1-.3 1.1-.2 1-.3 1.1-.1 1.1-.2 1.1-.1 1.1v1.1l-.1 1.1v1.1l.1 1.1.1 1.1.1 1.1.1 1.1.2 1.1.2 1 .2 1.1.3 1 .3 1.1.3 1 .4 1 .4.9.4 1m-31.9 0l.4-1 .4-.9.3-1 .4-1 .3-1.1.3-1 .2-1.1.2-1 .2-1.1.1-1.1.1-1.1.1-1.1v-4.4l-.1-1.1-.2-1.1-.2-1.1-.2-1.1-.2-1-.3-1.1-.3-1.1-.3-1-.4-1-.4-1-.4-1-.4-1-.5-.9-.5-1-.6-.9-.5-.9-.6-.8-.6-.9-.6-.8-.7-.8-.7-.9-.7-.8-.8-.7-.8-.8-.8-.7-.8-.7-.9-.7-.9-.7-.9-.6-.9-.6-.9-.6-1-.5-1-.5-1-.5-1-.5-1-.4-1-.4-1.1-.3-1-.3-1.1-.3-1-.3-1.1-.2-1.1-.1-1-.2-1.1-.1-1-.1h-4.2l-1.1.1-1 .1-1.1.2-1 .1-1.1.2-1.1.3-1 .3-1.1.3-1 .3-1 .4-1.1.4-1 .5-1 .5-.9.5-1 .5-.9.6-1 .6-.9.6-.9.7-.8.7-.9.7-.8.7-.7.8-.8.7-.7.8-.7.9-.7.8-.6.8-.6.9-.6.8-.6.9-.5.9-.5 1-.5.9-.4 1-.5 1-.4 1-.3 1-.4 1-.3 1.1-.2 1.1-.3 1-.2 1.1-.2 1.1-.1 1.1-.1 1.1-.1 1.1v2.2l.1 1.1v1.1l.1 1.1.2 1.1.2 1.1.2 1 .2 1.1.3 1 .3 1.1.3 1 .4 1 .4.9.4 1m182.1 0v-25.1"/><path class="st2" d="M299.4 216.2l.4-1.2.3-1.1.4-1.1.4-1.1.5-1.1.5-1.2.5-1 .6-1.1.6-1.1.6-1 .7-1.1.7-1 .7-1 .7-1 .8-.9.8-1 .9-.9.8-.9.9-.8.9-.8 1-.8.9-.8 1-.7 1-.8 1-.6 1-.7 1.1-.6 1-.6 1.1-.5 1.1-.5 1.1-.5 1-.4.2-.1.2-.1h.2l.2-.1h.2l.2-.1h.2l.2-.1h.4l.2-.1h26.1l.2.1h.4l.2.1h.2l.2.1h.2l.2.1h.2l.1.1.2.1 1.1.4 1.1.5 1.1.5 1 .5 1.1.6 1 .6 1.1.7 1 .6 1 .8.9.7 1 .8.9.8.9.8.9.8.9.9.8.9.9 1 .7.9.8 1 .7 1 .7 1 .7 1.1.6 1 .6 1.1.6 1.1.5 1 .5 1.2.4 1.1.5 1.1.3 1.1.4 1.1.3 1.2m0 0v25.1m5-26.6v-15.3"/><path class="st2" d="M384.8 199.4V198l-.1-.7-.1-.8-.1-.7-.1-.7-.1-.8-.2-.7-.1-.7-.2-.7-.3-.7-.2-.7-.3-.7-.2-.7-.3-.6-.3-.7-.4-.7-.4-.8-.5-.7-.5-.7-.5-.7-.5-.8-.5-.6-.6-.7-.3-.3-.3-.4-.4-.3-.3-.3-.3-.3-.3-.3-.4-.3-.3-.3-.4-.3-.3-.3-.4-.2-.3-.3-.4-.3-.4-.2-.4-.3-.3-.2-.4-.3-.4-.2-.4-.2-.4-.2-.4-.2-.4-.2-.4-.2-.5-.2-.4-.2-.4-.2-.4-.1-.4-.2-.5-.1-.4-.2-.4-.1-.4-.1-.9-.2-.9-.2-.8-.2-.9-.1-.8-.1-.9-.1h-.8l-.9-.1H320l-.9.1h-.8l-.9.1-.9.1-.8.1-.9.2-.8.2-.9.2-.4.1-.4.1-.5.2-.4.1-.4.2-.4.1-.5.2-.4.2-.4.2-.4.2-.4.2-.4.2-.4.2-.4.2-.4.2-.4.3-.4.2-.3.3-.4.2-.4.3-.4.3-.3.2-.4.3-.3.3-.4.3-.3.3-.3.3-.4.3-.3.3-.3.3-.3.4-.3.3-.6.7-.5.6-.6.8-.5.7-.4.7-.5.7-.4.8-.4.7-.3.7-.3.6-.3.7-.2.7-.3.7-.2.7-.2.7-.2.7-.1.7-.2.8-.1.7-.1.7v.8l-.1.7v16.7m-90.4 26.6v-25.1m0 0l.3-1.2.4-1.1.4-1.1.4-1.1.5-1.1.5-1.2.5-1 .6-1.1.6-1.1.6-1 .6-1.1.7-1 .8-1 .7-1 .8-.9.8-1 .8-.9.9-.9.9-.8.9-.8.9-.8 1-.8 1-.7 1-.8 1-.6 1-.7 1.1-.6 1-.6 1.1-.5 1.1-.5 1-.5 1.1-.4.2-.1.2-.1h.2l.2-.1h.2l.2-.1h.1l.2-.1h.4l.2-.1h26.2l.2.1h.4l.2.1h.2l.2.1h.1l.2.1h.2l.2.1.2.1 1.1.4 1.1.5 1 .5 1.1.5 1.1.6 1 .6 1 .7 1 .6 1 .8 1 .7 1 .8.9.8.9.8.9.8.9.9.8.9.8 1 .8.9.8 1 .7 1 .7 1 .6 1.1.7 1 .6 1.1.5 1.1.6 1 .4 1.2.5 1.1.4 1.1.4 1.1.4 1.1.3 1.2m0 0v25.1m5-26.6v-15.3"/><path class="st2" d="M289.5 199.4v-.7l-.1-.7v-.7l-.1-.8-.1-.7-.1-.7-.1-.8-.2-.7-.2-.7-.2-.7-.2-.7-.2-.7-.3-.7-.3-.7-.3-.6-.3-.7-.4-.7-.4-.8-.4-.7-.5-.7-.5-.7-.5-.8-.6-.6-.6-.7-.3-.3-.3-.4-.3-.3-.3-.3-.3-.3-.4-.3-.3-.3-.3-.3-.4-.3-.3-.3-.4-.2-.4-.3-.3-.3-.4-.2-.4-.3-.4-.2-.4-.3-.4-.2-.3-.2-.4-.2-.5-.2-.4-.2-.4-.2-.4-.2-.4-.2-.4-.2-.4-.1-.5-.2-.4-.1-.4-.2-.4-.1-.5-.1-.8-.2-.9-.2-.8-.2-.9-.1-.9-.1-.8-.1h-.9l-.8-.1h-39.4l-.8.1h-.9l-.8.1-.9.1-.8.1-.9.2-.9.2-.8.2-.4.1-.5.1-.4.2-.4.1-.4.2-.5.1-.4.2-.4.2-.4.2-.4.2-.4.2-.4.2-.4.2-.4.2-.4.2-.4.3-.4.2-.4.3-.3.2-.4.3-.4.3-.3.2-.4.3-.3.3-.4.3-.3.3-.4.3-.3.3-.3.3-.3.3-.3.4-.3.3-.6.7-.6.6-.5.8-.5.7-.5.7-.4.7-.4.8-.4.7-.3.7-.3.6-.3.7-.3.7-.2.7-.2.7-.2.7-.2.7-.1.7-.2.8-.1.7-.1.7-.1.8v.7l-.1.7v16m-90.3 26.6v-25.1m0 0l.3-1.2.4-1.1.4-1.1.4-1.1.4-1.1.5-1.2.6-1 .5-1.1.6-1.1.7-1 .6-1.1.7-1 .7-1 .8-1 .8-.9.8-1 .8-.9.9-.9.9-.8.9-.8.9-.8 1-.8 1-.7 1-.8 1-.6 1-.7 1-.6 1.1-.6 1.1-.5 1-.5 1.1-.5 1.1-.4.2-.1.2-.1h.2l.1-.1h.2l.2-.1h.2l.2-.1h.4l.2-.1h26.2l.2.1h.3l.2.1h.2l.2.1h.2l.2.1h.2l.2.1.2.1 1.1.4 1 .5 1.1.5 1.1.5 1 .6 1.1.6 1 .7 1 .6 1 .8 1 .7.9.8 1 .8.9.8.9.8.8.9.9.9.8 1 .8.9.7 1 .8 1 .7 1 .6 1.1.6 1 .6 1.1.6 1.1.5 1 .5 1.2.5 1.1.4 1.1.4 1.1.3 1.1.4 1.2m0 0v25.1m5-26.6v-15.3"/><path class="st2" d="M194.2 199.4l-.1-.7v-1.4l-.1-.8-.1-.7-.1-.7-.2-.8-.1-.7-.2-.7-.2-.7-.2-.7-.3-.7-.2-.7-.3-.7-.3-.6-.3-.7-.4-.7-.4-.8-.4-.7-.5-.7-.5-.7-.5-.8-.6-.6-.6-.7-.3-.3-.3-.4-.3-.3-.3-.3-.4-.3-.3-.3-.3-.3-.4-.3-.3-.3-.4-.3-.3-.2-.4-.3-.4-.3-.3-.2-.4-.3-.4-.2-.4-.3-.4-.2-.4-.2-.4-.2-.4-.2-.4-.2-.4-.2-.4-.2-.4-.2-.4-.2-.5-.1-.4-.2-.4-.1-.4-.2-.5-.1-.4-.1-.8-.2-.9-.2-.9-.2-.8-.1-.9-.1-.8-.1h-.9l-.8-.1h-39.4l-.8.1h-.9l-.8.1-.9.1-.9.1-.8.2-.9.2-.8.2-.5.1-.4.1-.4.2-.5.1-.4.2-.4.1-.4.2-.4.2-.4.2-.4.2-.5.2-.4.2-.4.2-.4.2-.3.2-.4.3-.4.2-.4.3-.4.2-.3.3-.4.3-.4.2-.3.3-.4.3-.3.3-.4.3-.3.3-.3.3-.3.3-.3.3-.3.4-.3.3-.6.7-.6.6-.5.8-.5.7-.5.7-.4.7-.4.8-.4.7-.3.7-.3.6-.3.7-.3.7-.2.7-.2.7-.2.7-.2.7-.2.7-.1.8-.1.7-.1.7-.1.8v.7l-.1.7v16m723-26.6v-19.3m-5 0v19.3m-704.5 53.2l.5 1.1.5 1 .6 1.1.3.5.4.5.3.5.3.6.4.5.3.5.4.5.4.5.4.4.4.5.4.5.4.5.4.4.5.5.4.4.5.5.5.4.4.4.5.5.5.4.5.4.5.4.5.3.5.4.6.4.5.3.6.4.5.3.6.3.5.3.6.3.5.3.6.3.6.3.6.2.6.3.6.2.6.2.5.3.6.2.6.1.6.2.6.2.7.2.6.1.6.1.6.2.6.1.6.1.6.1h.6l.6.1 1.2.1 1.2.1h2.4l1.2-.1 1.2-.1.6-.1h.6l.6-.1.6-.1.6-.1.6-.2.6-.1.6-.1.6-.2.6-.2.6-.2.6-.1.6-.2.6-.3.6-.2.6-.2.6-.3.6-.2.5-.3.6-.3.6-.3.6-.3.5-.3.6-.3.5-.3.6-.4.5-.3.5-.4.5-.4.6-.3.5-.4.5-.4.5-.4.4-.5.5-.4.5-.4.4-.5.5-.4.4-.5.4-.4.5-.5.4-.5.4-.5.4-.4.4-.5.3-.5.4-.5.3-.5.4-.6.3-.5.3-.5.3-.5.6-1.1.6-1 .5-1.1m0 0h8.5v3.5h5v-30.1h4.9v30.1h5v-3.5h8.5m0 0l.5 1.1.6 1 .6 1.1.3.5.3.5.3.5.4.6.3.5.4.5.3.5.4.5.4.4.4.5.4.5.4.5.5.4.4.5.5.4.4.5.5.4.5.4.4.5.5.4.5.4.5.4.6.3.5.4.5.4.5.3.6.4.5.3.6.3.5.3.6.3.6.3.5.3.6.3.6.2.6.3.6.2.6.2.6.3.6.2.6.1.6.2.6.2.6.2.6.1.6.1.6.2.6.1.6.1.6.1h.6l.6.1 1.2.1 1.2.1h2.4l1.2-.1 1.2-.1.6-.1h.6l.6-.1.6-.1.6-.1.6-.2.6-.1.6-.1.6-.2.6-.2.6-.2.6-.1.6-.2.6-.3.6-.2.6-.2.6-.3.6-.2.6-.3.5-.3.6-.3.6-.3.5-.3.6-.3.5-.3.6-.4.5-.3.5-.4.6-.4.5-.3.5-.4.5-.4.5-.4.5-.5.4-.4.5-.4.5-.5.4-.4.4-.5.5-.4.4-.5.4-.5.4-.5.4-.4.4-.5.4-.5.3-.5.4-.5.3-.6.3-.5.4-.5.3-.5.6-1.1.5-1 .5-1.1m0 0h8.5v3.5h5v-30.1h5v30.1h4.9v-3.5h8.5m0 0l.5 1.1.6 1 .6 1.1.3.5.3.5.3.5.4.6.3.5.4.5.4.5.3.5.4.4.4.5.4.5.5.5.4.4.4.5.5.4.4.5.5.4.5.4.5.5.5.4.5.4.5.4.5.3.5.4.5.4.6.3.5.4.6.3.5.3.6.3.5.3.6.3.6.3.6.3.5.2.6.3.6.2.6.2.6.3.6.2.6.1.6.2.6.2.6.2.6.1.6.1.6.2.6.1.6.1.6.1h.7l.6.1 1.2.1 1.2.1h2.3l1.2-.1 1.2-.1.6-.1h.6l.6-.1.6-.1.6-.1.7-.2.6-.1.6-.1.6-.2.6-.2.6-.2.6-.1.6-.2.6-.3.6-.2.6-.2.5-.3.6-.2.6-.3.6-.3.5-.3.6-.3.6-.3.5-.3.6-.3.5-.4.5-.3.6-.4.5-.4.5-.3.5-.4.5-.4.5-.4.5-.5.5-.4.4-.4.5-.5.4-.4.5-.5.4-.4.4-.5.4-.5.4-.5.4-.4.4-.5.4-.5.3-.5.4-.5.3-.6.4-.5.3-.5.3-.5.6-1.1.5-1 .5-1.1m0 0h8.5v3.5h5v-30.1h46v26.6h5v-26.6h45.9v26.6h117.6v-26.6h96.9v26.6h5v3.5h5v-3.5h8.5m0 0l.5 1.1.5 1.1.6 1 .6 1.1.7 1 .7 1 .7.9.8 1 .8.9.8.8.9.9.9.8.9.8.9.8 1 .7 1 .7 1 .6 1 .7 1.1.5 1.1.6 1.1.5 1.1.5 1.1.4 1.2.4 1.1.4 1.2.3 1.2.2 1.1.3 1.2.2 1.2.1 1.2.1 1.2.1h2.5l1.2-.1 1.2-.1 1.2-.1 1.2-.2 1.2-.3 1.1-.2 1.2-.3 1.2-.4 1.1-.4 1.1-.4 1.1-.5 1.1-.5 1.1-.6 1.1-.5 1-.7 1-.6 1-.7 1-.7.9-.8.9-.8.9-.8.9-.9.8-.8.8-.9.8-1 .7-.9.7-1 .7-1 .6-1.1.6-1 .5-1.1.6-1.1"/><path class="st2" d="M778.1 241.3h8.4v3.5h5v-3.5h144.7v3.5h4.9v-3.5h8.5m0 0l.5 1.1.6 1.1.6 1 .6 1.1.7 1 .7 1 .7.9.8 1 .8.9.8.8.9.9.8.8 1 .8.9.8 1 .7 1 .7 1 .6 1 .7 1.1.5 1 .6 1.1.5 1.2.5 1.1.4 1.1.4 1.2.4 1.2.3 1.1.2 1.2.3 1.2.2 1.2.1 1.2.1 1.2.1h2.4l1.2-.1 1.3-.1 1.2-.1 1.1-.2 1.2-.3 1.2-.2 1.2-.3 1.1-.4 1.2-.4 1.1-.4 1.1-.5 1.1-.5 1.1-.6 1.1-.5 1-.7 1-.6 1-.7 1-.7.9-.8.9-.8.9-.8.9-.9.8-.8.8-.9.8-1 .7-.9.7-1 .6-1 .7-1.1.6-1 .5-1.1.5-1.1"/><path class="st2" d="M1013 241.3h10v2.3h42.1m0 0h.6l.3-.1h.5l.3-.1.3-.1h.3l.3-.1.2-.1.3-.1.3-.1.2-.1.3-.2.3-.1.2-.2.3-.1.2-.2.2-.1.3-.2.2-.2.2-.2.2-.2.2-.2.2-.2.2-.3.2-.2.1-.2.2-.3.2-.2.1-.3.1-.2.2-.3.1-.2.1-.3.1-.3.1-.2.1-.3.1-.3v-.3l.1-.3v-.3l.1-.2v-.9m0 0v-42.6m0 0v-.9l-.1-.2v-.3l-.1-.3v-.3l-.1-.3-.1-.2-.1-.3-.1-.3-.1-.2-.1-.3-.1-.3-.2-.2-.1-.3-.2-.2-.1-.2-.2-.3-.2-.2-.2-.2-.1-.2-.2-.2-.2-.3-.3-.1-.2-.2-.2-.2-.2-.2-.3-.1-.2-.2-.3-.2m0 0v-52.2m0 0v-1.1l-.1-.3m0 0l-10.9-64.1v-.3l-7.1-41.3m0 0v-.3l-.1-.2-.1-.3v-.3l-.1-.3-.1-.2-.1-.3-.2-.3-.1-.2-.1-.3-.2-.2-.1-.3-.2-.2-.2-.3-.1-.2-.2-.2-.2-.2-.2-.2-.2-.2-.2-.2-.3-.2-.2-.2-.2-.2-.3-.1-.2-.2-.3-.1-.2-.2-.3-.1-.2-.1-.3-.1-.3-.2h-.3l-.2-.1-.3-.1-.3-.1h-.3l-.3-.1h-1.1m0 0h-98.2m0 0h-1.2l-.3.1h-.3l-.3.1-.2.1-.3.1h-.3l-.3.2-.2.1-.3.1-.3.1-.2.1-.3.2-.2.1-.2.2-.3.2-.2.2-.2.2-.2.1-.3.2-.2.3-.1.2-.2.2-.2.2-.2.3-.1.2-.2.2-.1.3-.2.2-.1.3-.1.3-.1.2-.1.3-.1.3-.1.3-.1.2-.1.3v.3l-.1.3v1.2m0 0v160.8h-24.9v-19.3h14.3V95.2h-4.2l-2.1 54.1H26.4l1.1 6.5 2.2 13h14.1v32.6h-5V228h10v-13.3h55v30.1h5v-3.5h8.5"/><path class="st3" d="M117.3 241.3l.5 1.1.5 1 .6 1.1.3.5.4.5.3.6.3.5.4.5.3.5.4.5.4.5.4.5.4.4.4.5.4.5.4.4.5.5.4.4.5.5.5.4.4.4.5.5.5.4.5.4.5.4.5.3.5.4.6.4.5.3.6.4.5.3.6.3.5.3.6.3.5.3.6.3.6.3.6.2.6.3.6.2.5.2.6.3.6.2.6.2.6.1.6.2.7.2.6.1.6.1.6.2.6.1.6.1.6.1h.6l.6.1 1.2.1 1.2.1h2.4l1.2-.1 1.2-.1.6-.1h.6l.6-.1.6-.1.6-.1.6-.2.6-.1.6-.1.6-.2.6-.2.6-.1.6-.2.6-.2.6-.3.6-.2.6-.2.6-.3.6-.2.5-.3.6-.3.6-.3.5-.3.6-.3.6-.3.5-.3.6-.4.5-.3.5-.4.5-.4.6-.3.5-.4.5-.4.4-.4.5-.5.5-.4.5-.4.4-.5.5-.4.4-.5.4-.4.5-.5.4-.5.4-.4.4-.5.4-.5.3-.5.4-.5.3-.5.4-.5.3-.6.3-.5.3-.5.6-1.1.6-1 .5-1.1m0 0h8.5v3.5h5v-30.1h4.9v30.1h5v-3.5h8.5m0 0l.5 1.1.6 1 .5 1.1.4.5.3.5.3.6.4.5.3.5.4.5.3.5.4.5.4.5.4.4.4.5.4.5.5.4.4.5.5.4.4.5.5.4.5.4.4.5.5.4.5.4.5.4.6.3.5.4.5.4.5.3.6.4.5.3.6.3.5.3.6.3.6.3.5.3.6.3.6.2.6.3.6.2.6.2.6.3.6.2.6.2.6.1.6.2.6.2.6.1.6.1.6.2.6.1.6.1.6.1h.6l.6.1 1.2.1 1.2.1h2.4l1.2-.1 1.2-.1.6-.1h.6l.6-.1.6-.1.6-.1.6-.2.6-.1.6-.1.6-.2.6-.2.6-.1.6-.2.6-.2.6-.3.6-.2.6-.2.6-.3.6-.2.6-.3.5-.3.6-.3.6-.3.5-.3.6-.3.5-.3.6-.4.5-.3.5-.4.6-.4.5-.3.5-.4.5-.4.5-.4.5-.5.4-.4.5-.4.5-.5.4-.4.4-.5.5-.4.4-.5.4-.5.4-.4.4-.5.4-.5.4-.5.3-.5.4-.5.3-.5.3-.6.4-.5.3-.5.6-1.1.5-1 .5-1.1m0 0h8.5v3.5h5v-30.1h5v30.1h4.9v-3.5h8.5m0 0l.5 1.1.6 1 .6 1.1.3.5.3.5.3.6.4.5.3.5.4.5.4.5.3.5.4.5.4.4.4.5.5.5.4.4.4.5.5.4.4.5.5.4.5.4.5.5.5.4.5.4.5.4.5.3.5.4.5.4.6.3.5.4.6.3.5.3.6.3.5.3.6.3.6.3.6.3.5.2.6.3.6.2.6.2.6.3.6.2.6.2.6.1.6.2.6.2.6.1.6.1.6.2.6.1.6.1.6.1h.6l.7.1 1.2.1 1.1.1h2.4l1.2-.1 1.2-.1.6-.1h.6l.6-.1.6-.1.6-.1.7-.2.6-.1.6-.1.6-.2.6-.2.6-.1.6-.2.6-.2.6-.3.6-.2.5-.2.6-.3.6-.2.6-.3.6-.3.5-.3.6-.3.6-.3.5-.3.6-.3.5-.4.5-.3.6-.4.5-.4.5-.3.5-.4.5-.4.5-.4.5-.5.5-.4.4-.4.5-.5.4-.4.5-.5.4-.4.4-.5.4-.5.4-.4.4-.5.4-.5.4-.5.3-.5.4-.5.3-.5.4-.6.3-.5.3-.5.6-1.1.5-1 .5-1.1"/><path class="st3" d="M371.3 241.3h8.5v3.5h5v-30.1h46v26.6h5v-26.6h45.9v26.6h117.6v-26.6h96.9v26.6h5v3.5h5v-3.5h8.5m0 0l.5 1.1.5 1.1.6 1 .6 1.1.7 1 .7 1 .7.9.8 1 .8.9.8.9.9.8.9.8.9.8.9.8 1 .7 1 .7 1 .6 1 .7 1.1.6 1.1.5 1.1.5 1.1.5 1.1.4 1.2.4 1.1.4 1.2.3 1.2.2 1.1.3 1.2.2 1.2.1 1.2.1 1.2.1h2.5l1.2-.1 1.2-.1 1.2-.1 1.2-.2 1.2-.3 1.1-.2 1.2-.3 1.2-.4 1.1-.4 1.1-.4 1.1-.5 1.1-.5 1.1-.5 1.1-.6 1-.7 1-.6 1-.7 1-.7.9-.8.9-.8.9-.8.9-.8.8-.9.8-.9.8-1 .7-.9.7-1 .7-1 .6-1.1.6-1 .5-1.1.6-1.1"/><path class="st3" d="M778.1 241.3h8.4v3.5h5v-3.5h144.7v3.5h4.9v-3.5h8.5m0 0l.5 1.1.6 1.1.6 1 .6 1.1.7 1 .7 1 .7.9.8 1 .8.9.8.9.9.8.8.8 1 .8.9.8 1 .7 1 .7 1 .6 1 .7 1.1.6 1 .5 1.1.5 1.2.5 1.1.4 1.1.4 1.2.4 1.1.3 1.2.2 1.2.3 1.2.2 1.2.1 1.2.1 1.2.1h2.4l1.2-.1 1.2-.1 1.2-.1 1.2-.2 1.2-.3 1.2-.2 1.2-.3 1.1-.4 1.2-.4 1.1-.4 1.1-.5 1.1-.5 1.1-.5 1.1-.6 1-.7 1-.6 1-.7 1-.7.9-.8.9-.8.9-.8.9-.8.8-.9.8-.9.8-1 .7-.9.7-1 .6-1 .7-1.1.6-1 .5-1.1.5-1.1"/><path class="st3" d="M1013 241.3h10v2.3h42.1m0 0h.6l.3-.1h.5l.3-.1.3-.1h.3l.3-.1.2-.1.3-.1.3-.1.2-.1.3-.2.3-.1.2-.2.3-.1.2-.2.2-.1.3-.2.2-.2.2-.2.2-.2.2-.2.2-.2.2-.3.2-.2.1-.2.2-.3.2-.2.1-.2.1-.3.2-.3.1-.2.1-.3.1-.3.1-.2.1-.3.1-.3v-.3l.1-.3v-.3l.1-.2v-.9m0 0v-42.6m0 0v-.8l-.1-.3v-.3l-.1-.3v-.3l-.1-.3-.1-.2-.1-.3-.1-.3-.1-.2-.1-.3-.1-.3-.2-.2-.1-.3-.2-.2-.1-.2-.2-.3-.2-.2-.2-.2-.1-.2-.2-.2-.2-.2-.3-.2-.2-.2-.2-.2-.2-.2-.3-.1-.2-.2-.3-.1m0 0v-52.3m0 0v-1.1l-.1-.3m0 0l-18-105.7m0 0v-.3l-.1-.2-.1-.3v-.3l-.1-.3-.1-.2-.1-.3-.2-.3-.1-.2-.1-.3-.2-.2-.1-.3-.2-.2-.2-.3-.1-.2-.2-.2-.2-.2-.2-.2-.2-.2-.2-.2-.3-.2-.2-.2-.2-.2-.3-.1-.2-.2-.3-.1-.2-.2-.3-.1-.2-.1-.3-.1-.3-.1-.3-.1-.2-.1-.3-.1-.3-.1h-.3l-.3-.1h-1.1m0 0h-98.2m0 0h-1.2l-.3.1h-.3l-.3.1-.2.1-.3.1-.3.1-.3.1-.2.1-.3.1-.3.1-.2.2-.3.1-.2.2-.2.1-.3.2-.2.2-.2.2-.2.1-.3.3-.2.2-.1.2-.2.2-.2.2-.2.3-.2.2-.1.2-.2.3-.1.3-.1.2-.1.3-.2.2-.1.3v.3l-.1.3-.1.2-.1.3v.3l-.1.3v1.2m0 0v160.8h-24.9v-19.3h14.3V95.2h-4.2l-2.1 54.1H26.4l3.3 19.5h14.1v32.6h-5V228h10v-13.3h55v30.1h5v-3.5h8.5"/></svg>