<svg version="1.1" id="Layer_Pickup" xmlns="http://www.w3.org/2000/svg" x="0" y="0" viewBox="0 0 550 275" xml:space="preserve"><style>.st2{fill:none;stroke:#171f3c;stroke-linecap:round;stroke-linejoin:round;stroke-miterlimit:10}</style><path fill="#fff" d="M540.3 139.2v31.3l-.1.5v.6l-.1.5-.1.5-.1.5-.1.6-.1.5-.1.5-.2.6-.1.5-.2.5-.2.6-.2.5-.2.5-.2.5-.3.6-.3.5-.2.5-.3.5-.3.5-.3.5-.4.5-.3.5-.3.4-.4.5-.4.4-.4.5-.4.4-.4.4-.4.5-.5.4-.4.3-.5.4-.4.4-.5.3-.5.4-.5.3-.4.3-.5.3-.5.3-.6.3-.5.2-.5.3-.5.2-.5.2-.6.2-.5.2-.5.2-.6.2-.5.1-.5.1-.6.2-.5.1-.5.1h-.6l-.5.1h-.5l-.5.1h-2.2l-.2-1.3h-12.1l.2.8.2.9.1.8.2.9.1.9v.8l.1.9v2.7l-.1.9v.9l-.1.9-.2.9-.1.9-.2.9-.2.9-.2.8-.3.9-.2.9-.3.8-.4.9-.3.8-.4.8-.4.8-.4.8-.4.8-.5.7-.5.8-.4.7-.5.7-.6.7-.5.6-.6.7-.6.6-.6.7-.6.6-.6.6-.7.6-.7.6-.7.5-.7.6-.7.5-.8.5-.8.4-.7.5-.8.4-.9.4-.8.4-.8.4-.8.3-.9.3-.8.3-.9.3-.9.2-.8.2-.9.2-.9.2-.9.1-.8.1-.9.1-.9.1h-3.4l-.9-.1-.9-.1-.9-.1-.8-.1-.9-.2-.9-.2-.8-.2-.9-.2-.9-.3-.8-.3-.9-.3-.8-.3-.8-.4-.9-.4-.8-.4-.8-.4-.8-.5-.7-.4-.8-.5-.7-.5-.7-.6-.7-.5-.7-.6-.7-.6-.6-.6-.7-.6-.6-.7-.5-.6-.6-.7-.5-.6-.6-.7-.5-.7-.5-.7-.4-.8-.5-.7-.4-.8-.4-.8-.4-.8-.4-.8-.3-.8-.4-.9-.3-.8-.3-.9-.2-.9-.2-.8-.2-.9-.2-.9-.2-.9-.1-.9-.1-.9-.1-.9v-3.6l.1-.9v-.8l.1-.9.2-.9.1-.8.2-.9.2-.8h-7.1l-.1.9-.2.9-.1 1-.1.9-.1.9-.1 1v5.3h-4.8l-.1-1.2-.1-1.2v-2.4l.1-1.2.1-1.2.1-1.2.2-1.2H210.7v-13.6h-41.9l.4.7.3.8.4.7.3.7.3.8.3.7.3.8.3.8.2.7.3.8.2.8.2.8.2.8.2.8.1.8.2.8.1.9.2.9.1 1 .1.9v1l.1.9v5h-5v-5l-.1-.9v-1l-.2-.9-.1-1-.1-.9-.2-.9h-7l.2.8.1.9.2.8.1.9.1.9.1.8v.9l.1.9v1.8l-.1.9-.1.9-.1.9-.1.9-.1.9-.2.9-.2.9-.3.8-.2.9-.3.9-.3.8-.3.9-.4.8-.3.8-.4.8-.4.8-.5.8-.4.7-.5.8-.5.7-.5.7-.5.7-.6.6-.5.7-.6.6-.6.7-.6.6-.7.6-.6.6-.7.6-.7.5-.7.6-.8.5-.7.5-.8.4-.8.5-.8.4-.8.4-.8.4-.8.4-.9.3-.8.3-.9.3-.8.3-.9.2-.9.2-.9.2-.8.2-.9.1-.9.1-.9.1-.8.1h-3.5l-.9-.1-.8-.1-.9-.1-.9-.1-.8-.2-.9-.2-.9-.2-.9-.2-.8-.3-.9-.3-.8-.3-.9-.3-.8-.4-.8-.4-.8-.4-.8-.4-.8-.5-.8-.4-.7-.5-.8-.5-.7-.6-.7-.5-.7-.6-.6-.6-.7-.6-.6-.6-.6-.7-.6-.6-.5-.7-.6-.6-.5-.7-.5-.7-.5-.7-.5-.8-.4-.7-.5-.8-.4-.8-.4-.8-.3-.8-.4-.8-.3-.9-.3-.8-.3-.9-.2-.9-.3-.8-.2-.9-.2-.9-.1-.9-.1-.9-.1-.9-.1-.9-.1-.9v-1.8l.1-.9v-.9l.1-.8.1-.9.1-.9.2-.8.1-.9.2-.8h-7l-.2.9-.1.9-.1 1-.2.9v1l-.1.9v5.3h-5v-5.3l.1-.9v-1l.1-.9.1-1 .2-.9.1-.9.2-.8.1-.8.2-.8.2-.8.2-.8.2-.8.3-.8.2-.7.3-.8.3-.8.3-.7.3-.8.3-.7.3-.7.4-.8.4-.7h-9.8v-10.9H14.8v9.4H9.7v-14.8h5.1v-16.1H9.7v-29.6h262.2l2.8-70.6h4.1v121.7h5.1V53.7l.1-.2v-.8l.1-.2v-.2l.1-.2v-.2l.1-.2v-.2l.1-.1.1-.2V51l.1-.2.1-.2.1-.2.1-.2.1-.2.1-.2.1-.2.1-.2.1-.1.2-.2.1-.2.1-.2.2-.1.1-.2.2-.2.1-.1.2-.2.1-.1.2-.2.2-.1.2-.1.1-.2.2-.1.2-.1.2-.1.2-.2.1-.1.2-.1.2-.1.2-.1h.2l.2-.1.2-.1.2-.1h.2l.2-.1h.2l.2-.1h.2l.2-.1h.4l.2-.1h41l1.3.1 1.4.1 1.3.1 1.3.1 1.3.2 1.3.2 1.4.2 1.3.3 1.3.2 1.3.3 1.3.3 1.3.4 1.3.4 1.2.4 1.3.4 1.3.4 1.2.5 1.3.5 1.2.5 1.2.6 1.2.5 1.2.6 1.2.6 1.2.6 1.2.7 1.1.7 1.1.7 1.1.7 1.1.7 1.1.8 60.6 43.3h.1l.1.1.1.1h.1l.1.1h.1l.1.1h.1l.2.1h.1l.1.1h.2l.2.1h.2l88.8 14.2.5.1.5.1.4.1.5.1.5.1.4.1.5.2.4.1.5.2.5.2.4.1.5.2.4.2.5.3.5.2.4.2.4.3.5.2.4.3.5.3.4.3.4.3.4.3.4.3.4.4.4.3.4.4.4.3.4.4.3.4.4.4.3.3.4.5.3.4.3.4.3.4.3.4.3.5.3.4.3.5.2.4.3.5.2.5.2.4.2.5.2.5.2.4.2.5.1.5.2.5.1.5.2.5.1.4.1.5.1.5.1.5.1.5v.5l.1.4v.5l.1.5v.9z" id="XMLID_19_"/><path d="M405.2 101.2v.3l-.1.1v.4l-.1.2v.3l-.1.1-.1.1v.2l-.1.1v.1l-.1.2-.1.1-.1.1-.1.1v.1l-.1.2-.1.1-.1.1-.1.1-.2.1-.1.1-.1.1h-.1l-.1.1-.1.1-.2.1-.1.1h-.1l-.2.1h-.1l-.1.1h-.2l-.1.1h-.2l-.1.1h-3.7V93.9l5.3 3.7.1.1.1.1.1.1.2.1.1.1.1.1.1.1v.1l.1.2.1.1.1.1.1.1.1.1v.2l.1.1v.1l.1.2.1.1v.3l.1.1v.5l.1.1v.3zm-42.6-32.7l25.6 18.3h-1.3v18h-75V61.1l.1-.1.1-.1.1-.1.1-.1.1-.1.1-.1.1-.1.1-.1.1-.1.1-.1.1-.1.1-.1.1-.1.1-.1.1-.1.1-.1.1-.1.1-.1.1-.1.1-.1.1-.1.1-.1h17.7l1.9.1 1.9.2 1.9.2 1.9.3 1.9.4 1.9.4 1.9.5 1.9.6 1.8.6 1.8.7 1.8.8 1.8.8 1.7.9 1.7.9 1.7 1 1.6 1 1.7.2z" fill="#171f3c"/><g id="XMLID_20_"><path class="st2" d="M474 138l2 .1 2.1.1 2 .2 2.1.2 2 .3 2 .4 2 .4 2 .6 1.9.5 1.9.7 2 .7 1.9.8 1.8.8 1.8.9 1.8 1 1.8 1 1.7 1.1 1.7 1.2 1.7 1.2 1.6 1.3 1.6 1.3 1.5 1.3 1.4 1.5 1.5 1.4 1.3 1.5 1.4 1.6M48.8 132.2h60.6m67.9 0h60.6m-124.9 0h60.7m67.8 0h30.4m-33.1-3.2h1.9m0 0h.3v.1h.2v.1h.1v.1h.1v.2h.1v.3m0 0v4.8m0 0v.4h-.1v.1l-.1.1-.1.1-.1.1h-.2v.1h-.2m0 0h-1.9m0 0h-.2l-.1-.1h-.2v-.1h-.1v-.1h-.1v-.1h-.1v-.2h-.1v-.3m0 0v-4.8m0 0v-.2h.1v-.2h.1v-.1h.1v-.1h.1v-.1h.2v-.1h.3m-64.3 0h1.9m0 0h.3v.1h.2v.1h.1l.1.1v.1h.1v.2h.1v.2m0 0v4.8m0 0v.2l-.1.1v.2h-.1v.1h-.1v.1h-.1v.1h-.2l-.1.1h-.2m0 0h-1.9m0 0h-.2v-.1h-.2l-.1-.1-.1-.1-.1-.1v-.1h-.1v-.4m0 0v-4.8m0 0v-.3h.1v-.2h.1v-.1h.1v-.1h.2v-.1h.3m-64.2 0h1.9m0 0h.3v.1h.1l.1.1h.1v.1h.1v.2h.1v.3m0 0v4.8m0 0v.4h-.1v.1l-.1.1-.1.1h-.1v.1h-.2v.1h-.2m0 0h-1.9m0 0h-.2l-.1-.1h-.2v-.1h-.1v-.1h-.1v-.1h-.1v-.2h-.1v-.3m0 0v-4.8m0 0v-.2h.1v-.2h.1v-.1l.1-.1h.1v-.1h.1l.1-.1h.3m-95.5 3.2h30.4m.8-3.2h1.9m0 0h.3v.1h.2v.1h.1v.1h.1v.1h.1v.2l.1.1v.1m0 0v4.8m0 0v.2h-.1v.2l-.1.1v.1h-.1v.1h-.1v.1h-.2l-.1.1h-.2m0 0H46m0 0h-.2v-.1h-.2l-.1-.1h-.1v-.1h-.1v-.2h-.1v-.4m0 0v-4.8m0 0v-.3h.1v-.2h.1v-.1h.1v-.1h.2v-.1h.3m-31.2 11.5h257.1m-118.1 16.1h118.1m-257.1 0h102.4m154.7-40.4v51.1m-111 0h111m-154.7-10.7h36.6m-33.4 24.2l.4-.2.4-.2.4-.2.4-.2.4-.2.5-.2.4-.2.4-.1.5-.2.4-.1.5-.2.4-.1.5-.1.5-.1.5-.1.5-.1h.4l.5-.1h1l.5-.1h1l.6.1h1l.5.1.5.1.5.1.5.1.5.1.5.1.5.1.5.2.5.2.4.1.5.2.5.2.5.2.4.3.5.2.4.2.4.3.5.3.4.2.4.3.4.3.4.3.4.3.3.4.4.3.4.3.3.3.3.4.3.3.4.4.3.4.2.3.3.4.3.4.2.3.3.4.2.4.3.4.2.3.2.4.2.4.2.4.2.5.1.4.2.4.2.5.1.4.2.5.1.4.1.5.1.4.1.5.1.5.1.5.1.5v.5l.1.5v2.5l-.1.5v.5l-.1.5v.5l-.1.5-.1.5-.1.5-.2.5-.1.5-.2.5-.1.5-.2.5-.2.5-.2.4-.2.5-.2.4-.3.5-.2.4-.3.5-.2.4-.3.4-.3.4-.3.4-.3.4-.3.4-.3.4-.3.3-.4.4-.3.3-.3.4-.4.3-.4.3-.3.3-.4.3-.3.3-.4.2-.4.3-.4.2-.3.3-.4.2-.4.2-.4.2-.4.2-.4.2-.4.2-.4.2-.5.1-.4.2-.5.2-.4.1-.5.1-.4.2-.5.1-.5.1-.5.1h-.4l-.5.1-.5.1h-3.6l-.5-.1h-.5l-.5-.1-.5-.1-.5-.1-.5-.1-.5-.1-.5-.2-.5-.1-.5-.2-.4-.2-.5-.2-.5-.2-.4-.2-.5-.2-.5-.2-.4-.3-.4-.2-.5-.3-.4-.3-.4-.3-.4-.2-.4-.4-.4-.3-.3-.3-.4-.3-.3-.3-.4-.4-.3-.3-.3-.4-.3-.3-.3-.4-.3-.3-.3-.4-.3-.4-.2-.4-.3-.3-.2-.4-.2-.4-.3-.4-.2-.4-.2-.4-.2-.4-.2-.4-.1-.4-.2-.4-.2-.5-.1-.4-.2-.5-.1-.4-.1-.5-.1-.5-.1-.4-.1-.5-.1-.5-.1-.5v-.5l-.1-.5v-2.5l.1-.5v-.5l.1-.5v-.5l.1-.5.1-.6.1-.5.2-.5.1-.4.2-.5.1-.5.2-.5.2-.5.2-.5.2-.4.2-.5.3-.4.2-.5.3-.4.2-.4.3-.4.3-.5.3-.4.3-.3.3-.4.3-.4.3-.4.4-.3.3-.4.4-.3.3-.3.4-.3.3-.3.4-.3.4-.3.3-.2.4-.3.4-.2.3-.3z"/><path class="st2" d="M167.9 190.5l-.3-1.3-.3-1.3-.4-1.3-.4-1.3-.5-1.2-.5-1.2-.5-1.3-.6-1.2-.6-1.1-.7-1.2-.7-1.1-.8-1.1-.8-1.1-.8-1-.8-1-.9-1-1-1-.9-.9-1-.9-1-.8-1.1-.9-1.1-.7-1.1-.8-1.1-.7-1.2-.6-1.1-.7-1.2-.5-1.2-.6-1.3-.5-1.2-.4-1.3-.4-1.3-.4-1.3-.3-1.3-.3-1.3-.2-1.3-.2-1.3-.2-1.4-.1h-3.9l-1.4.1-1.3.2-1.3.2-1.3.2-1.3.3-1.3.3-1.3.4-1.3.4-1.2.4-1.3.5-1.2.6-1.2.5-1.1.7-1.2.6-1.1.7-1.1.8-1.1.7-1.1.9-1 .8-1 .9-.9.9-1 1-.9 1-.8 1-.8 1-.8 1.1-.8 1.1-.7 1.1-.7 1.2-.6 1.1-.6 1.2-.5 1.3-.5 1.2-.5 1.2-.4 1.3-.4 1.3-.3 1.3-.3 1.3m-78-74.3v29.6m0 16.1v5.4m67.3 0h17.7m-7.9 10.9l.7-1.3.7-1.3.8-1.3.9-1.3.9-1.2.9-1.2 1-1.1 1-1.1 1-1.1h.1l1-1.1 1.2-1 1.1-.9 1.2-1 1.3-.8 1.2-.9 1.3-.8 1.3-.7 1.3-.7 1.4-.7 1.4-.6 1.4-.6 1.4-.5 1.4-.4"/><path class="st2" d="M160.9 190.5l-.2-.8-.2-.7-.2-.7-.3-.7-.2-.7-.3-.7-.3-.6-.3-.7-.3-.7-.3-.6-.4-.7-.3-.6-.4-.6-.3-.6-.4-.6-.4-.6-.3-.4-.6-.7-.5-.7-.6-.7-.6-.7-.7-.7-.6-.6-.7-.7-.7-.6-.7-.6-.7-.5-.8-.6-.8-.5-.8-.5-.8-.5-.8-.5-.8-.4-.9-.5-.8-.3-.9-.4-.9-.3-.9-.4-.9-.2-.9-.3-.9-.2-.9-.2-.9-.2-.9-.1-.9-.1-.9-.1-.9-.1h-3.6l-.9.1-1 .1-.9.1-.9.1-.9.2-.9.2-.9.3-.9.2-.9.3-.9.3-.9.4-.8.3-.9.4-.8.4-.9.5-.8.5-.8.5-.8.5-.8.5-.7.6-.7.6-.8.6-.6.6-.7.6-.7.7-.6.6-.6.7-.6.7-.5.7-.6.7-.6.9-.4.6-.3.6-.4.6-.3.6-.4.7-.3.6-.3.7-.3.7-.3.6-.3.7-.2.7-.3.7-.2.7-.2.7-.2.8m43.1-33.9l1.4.4 1.4.5 1.4.6 1.4.6 1.4.7 1.3.7 1.3.7 1.3.8 1.2.9 1.3.8 1.2 1 1.1.9 1.2 1 1 1.1h.1l1 1.1 1 1.1 1 1.1.9 1.2.9 1.2.9 1.3.8 1.3.7 1.3.7 1.3m115.1 13.6v-24.5m147.3 24.5l.2-1.4.3-1.5.3-1.5.4-1.4.5-1.5.5-1.4.5-1.4.6-1.4.6-1.4.7-1.3.8-1.3.7-1.3.9-1.3.8-1.2.9-1.2 1-1.2 1-1.1 1-1.1 1.1-1.1 1.1-1 1.1-1 1.2-.9 1.2-1 1.2-.8 1.3-.8 1.3-.8 1.3-.7 1.4-.7 1.3-.7 1.4-.5 1.4-.6 1.5-.5 1.4-.4 1.5-.4 1.4-.3 1.5-.3 1.5-.3 1.5-.1 1.5-.2 1.5-.1h1.5m0 0h1.5l1.5.1 1.5.1 1.5.2 1.4.3 1.5.2 1.5.4 1.4.4 1.4.4 1.5.5 1.4.5 1.3.6 1.4.6 1.3.7 1.3.7 1.3.8 1.3.8 1.2.8 1.2.9 1.2.9 1.1 1 1.1 1 1.1 1.1 1 1.1 1 1.1 1 1.1.9 1.2.8 1.2.9 1.3.8 1.3.7 1.3.7 1.3.6 1.3m0 0l.6 1.3.5 1.3.5 1.3.4 1.3.4 1.3.3 1.4.4 1.3.2 1.4m-12.1 0l-.2-.8-.2-.7-.2-.7-.2-.7-.3-.7-.3-.7-.2-.6-.3-.7-.3-.7-.4-.6-.3-.7-.4-.6-.3-.6-.4-.6-.4-.6-.4-.6-.3-.4-.5-.7-.6-.7-.6-.7-.6-.7-.6-.7-.7-.6-.6-.7-.7-.6-.8-.6-.7-.5-.8-.6-.7-.5-.8-.5-.8-.5-.9-.5-.8-.4-.8-.5-.9-.3-.9-.4-.9-.3-.8-.4-.9-.2-.9-.3-.9-.2-1-.2-.9-.2-.9-.1-.9-.1-.9-.1-.9-.1h-3.6l-.9.1-.9.1-.9.1-.9.1-.9.2-1 .2-.9.3-.9.2-.9.3-.8.3-.9.4-.9.3-.8.4-.9.4-.8.5-.8.5-.9.5-.7.5-.8.5-.8.6-.7.6-.7.6-.7.6-.7.6-.6.7-.7.6-.6.7-.5.7-.6.7-.5.7-.6.9-.4.6-.4.6-.4.6-.3.6-.3.7-.4.6-.3.7-.3.7-.3.6-.2.7-.3.7-.2.7-.2.7-.2.7-.2.8m-232.8-23.2v10.9m310.2-61.6h-1.2l-.1.1h-.2l-.2.1h-.1l-.1.1h-.1l-.2.1h-.1l-.1.1-.1.1h-.1l-.1.1-.1.1-.1.1-.1.1h-.1l-.1.1-.1.1-.1.1-.1.1v.1l-.1.1-.1.2-.1.1v.1l-.1.1v.1l-.1.1v.2l-.1.1v.1l-.1.1v.6l-.1.1v.5l.1.2v.5l.1.1v.1l.1.1v.2l.1.1v.1l.1.1v.1l.1.2.1.1v.1l.1.1.1.1.1.1.1.1.1.1.1.1.1.1h.1l.1.1.1.1.1.1h.1l.1.1.1.1h.1l.2.1h.1l.1.1h.3l.1.1h.2m20.5 16l-.9-.2-1-.2-1-.1-.9-.2-1-.1-.9-.1h-1.9m-12.9-15.1l.6.1.5.1.5.2.5.1.5.2.5.1.5.2.4.3.5.2.5.2.4.3.5.3.4.3.5.3.4.3.4.3.4.4.3.3.4.4.4.4.3.4.3.4.3.4.3.5.3.4.3.5.2.4.3.5.2.5.2.4.2.5.2.5.1.5.1.5.2.6.1.5v.5l.1.5v.5l.1.6v.5"/><path class="st2" d="M511.5 190.5l-.3-1.3-.3-1.3-.4-1.3-.4-1.3-.4-1.2-.5-1.3-.6-1.2-.6-1.2-.6-1.1-.7-1.2-.7-1.1-.7-1.1-.8-1.1-.8-1-.9-1-.9-1-.9-1-1-.9-1-.9-1-.8-1.1-.9-1-.7-1.1-.8-1.2-.7-1.1-.6-1.2-.7-1.2-.6-1.2-.5-1.2-.5-1.3-.4-1.3-.5-1.2-.3-1.3-.3-1.3-.3-1.3-.2-1.4-.2-1.3-.2-1.3-.1h-4l-1.3.1-1.4.2-1.3.2-1.3.2-1.3.3-1.3.3-1.3.3-1.2.5-1.3.4-1.2.5-1.2.5-1.2.6-1.2.7-1.2.6-1.1.7-1.1.8-1.1.7-1 .9-1 .8-1 .9-1 .9-.9 1-.9 1-.9 1-.8 1-.8 1.1-.7 1.1-.8 1.1-.6 1.2-.7 1.1-.5 1.2-.6 1.2-.5 1.3-.5 1.2-.4 1.3-.3 1.3-.4 1.3-.3 1.3m-23-62.6h.3v.1h.1l.1.1v.1h.1v.1h.1v.3m0 0v1.7m0 0v.4h-.1v.1h-.1v.1h-.1v.1h-.1l-.1.1h-.2m0 0h-4.3m0 0h-.3v-.1h-.2v-.1h-.1v-.1h-.1v-.2h-.1v-.3m0 0v-1.7m0 0v-.2h.1v-.2h.1v-.1h.1v-.1h.1v-.1h.4m0 0h4.3m-95.6-8.9v-8m0 0v-.2h-.1v-.2h-.1v-.2h-.1l-.1-.1h-.1v-.1h-.4m0 0h-4.7m0 0h-.4v.1h-.1l-.1.1h-.1v.1l-.1.1v.1l-.1.1v.2m0 0v8m0 0v.2l.1.1v.1l.1.1v.1h.1v.1h.2v.1h.4m0 0h4.7m0 0h.4v-.1h.1l.1-.1.1-.1v-.1h.1v-.2h.1v-.2m80.3-13.7h2.8m-89.6 0h75m11.8-16.5l18.4 13.1m-114.6-48h28m0 0h2.1l2.1.1 2 .2 2.1.2 2.1.4 2 .3 2 .5 2 .5 2 .6 2 .7 1.9.7 2 .8 1.8.9 1.9.9 1.8 1 1.8 1.1 1.8 1.1 1.7 1.2m0 0l30.3 21.7m2.8 7.1l5.3 3.7M315.6 58h14.3m0 0h1.9l2 .1 1.9.2 1.9.2 1.9.3 1.9.4 1.9.4 1.9.5 1.9.6 1.8.6 1.8.7 1.8.7 1.8.8 1.7.9 1.7.9 1.6 1 1.7 1.1 1.6 1.1m0 0l25.6 18.3m0 0h-1.3v20.1h10.6V87.4h-2.2l-7.1-.6zm12.7 18.5h.9l.1-.1h.2l.1-.1h.2l.1-.1h.1l.2-.1h.1l.1-.1.2-.1.1-.1.1-.1h.1l.1-.1.1-.1.2-.1.1-.1.1-.1.1-.1.1-.2v-.1l.1-.1.1-.1.1-.1.1-.2v-.1l.1-.1v-.2l.1-.1.1-.1v-.3l.1-.2v-.4l.1-.1v-.8l-.1-.1v-.5l-.1-.1v-.3l-.1-.1-.1-.2v-.1l-.1-.1V99l-.1-.1-.1-.1-.1-.1-.1-.1-.1-.2v-.1l-.1-.1-.1-.1-.1-.1-.2-.1-.1-.1-.1-.1-.1-.1m-92.1-35.3v-.6l.1-.2v-.3l.1-.1V61l.1-.2v-.1l.1-.1v-.2l.1-.1.1-.1V60l.1-.1.1-.1.1-.1.1-.1.1-.1.1-.2.1-.1.1-.1.1-.1h.1l.1-.1.1-.1.1-.1.2-.1.1-.1h.1l.1-.1.2-.1h.1l.1-.1h.3l.2-.1h.2l.2-.1h.6m-4.3 4.3v43m-13.7-47.2v-.4l.1-.2v-.4l.1-.1v-.2l.1-.1v-.1l.1-.2v-.1l.1-.1.1-.2v-.1l.1-.1.1-.1.1-.2.1-.1.1-.1.1-.1.1-.1.1-.1.1-.1.1-.1.1-.1.1-.1h.1l.2-.1.1-.1.1-.1h.2l.1-.1h.1l.2-.1h.1l.1-.1h.2l.1-.1h.9m-4.3 4.2v121.2m4.3 4.3h-.3l-.2-.1h-.4l-.1-.1h-.3l-.1-.1h-.2l-.1-.1h-.1l-.2-.1-.1-.1-.1-.1h-.2l-.1-.1-.1-.1-.1-.1-.1-.1-.1-.1-.1-.1-.1-.1-.1-.1-.1-.1-.1-.1-.1-.1-.1-.2-.1-.1v-.1l-.1-.1-.1-.2v-.1l-.1-.1v-.2l-.1-.1v-.1l-.1-.2v-.4l-.1-.1v-.5m4.3 4.3h116.4m-1.8-81.7l.1.1.1.1.1.1.1.1.1.1.1.1.1.1.1.1.1.1.1.1.1.1v.1l.1.2.1.1v.1l.1.2.1.1v.1l.1.2v.2l.1.2v.7l.1.1m0 0v86.5"/><path class="st2" d="M464.1 180.8l.4-.2.3-.2.4-.2.5-.2.4-.2.4-.2.4-.2.5-.1.4-.2.5-.1.4-.2.5-.1.5-.1.4-.1.5-.1.5-.1h.5l.5-.1h1l.5-.1h1l.5.1h1l.5.1.5.1.5.1.5.1.5.1.5.1.5.1.5.2.5.2.5.1.5.2.4.2.5.2.5.3.4.2.5.2.4.3.4.3.4.2.4.3.4.3.4.3.4.3.4.4.3.3.4.3.3.3.4.4.3.3.3.4.3.4.3.3.3.4.2.4.3.3.2.4.3.4.2.4.2.3.2.4.2.4.2.4.2.5.2.4.2.4.1.5.2.4.1.5.1.4.2.5.1.4.1.5.1.5v.5l.1.5.1.5v1l.1.5v.5l-.1.5v1l-.1.5v.5l-.1.5-.1.5-.1.5-.1.5-.1.5-.2.5-.1.5-.2.5-.2.5-.1.5-.2.4-.3.5-.2.4-.2.5-.3.4-.2.5-.3.4-.3.4-.2.4-.3.4-.3.4-.4.4-.3.4-.3.3-.3.4-.4.3-.3.4-.4.3-.3.3-.4.3-.3.3-.4.3-.4.2-.3.3-.4.2-.4.3-.4.2-.4.2-.3.2-.4.2-.5.2-.4.2-.4.2-.4.1-.5.2-.4.2-.5.1-.4.1-.5.2-.5.1-.4.1-.5.1h-.5l-.5.1-.5.1h-3.5l-.5-.1h-.5l-.5-.1-.5-.1-.5-.1-.5-.1-.5-.1-.5-.2-.5-.1-.5-.2-.5-.2-.5-.2-.4-.2-.5-.2-.5-.2-.4-.2-.5-.3-.4-.2-.4-.3-.4-.3-.4-.3-.4-.2-.4-.4-.4-.3-.4-.3-.4-.3-.3-.3-.3-.4-.4-.3-.3-.4-.3-.3-.3-.4-.3-.3-.3-.4-.2-.4-.3-.4-.2-.3-.3-.4-.2-.4-.2-.4-.2-.4-.2-.4-.2-.4-.2-.4-.2-.4-.2-.4-.1-.5-.2-.4-.1-.5-.1-.4-.2-.5-.1-.5-.1-.4-.1-.5v-.5l-.1-.5-.1-.5v-1l-.1-.5v-.5l.1-.5v-1l.1-.5v-.5l.1-.5.1-.5.1-.6.1-.5.1-.5.2-.4.1-.5.2-.5.2-.5.1-.5.2-.5.3-.4.2-.5.2-.4.3-.5.2-.4.3-.4.3-.4.2-.5.3-.4.3-.3.3-.4.4-.4.3-.4.3-.3.4-.4.3-.3.4-.3.3-.3.4-.3.3-.3.4-.3.4-.2.3-.3.4-.2.4-.3zM283.9 54.1v-.4l.1-.2v-.8l.1-.2v-.2l.1-.2v-.2l.1-.2v-.2l.1-.1.1-.2V51l.1-.2.1-.2.1-.2.1-.2.1-.2.1-.2.1-.2.1-.2.1-.1.2-.2.1-.2.1-.2.2-.1.1-.2.2-.2.1-.1.2-.2.1-.1.2-.2.2-.1.2-.1.1-.2.2-.1.2-.1.2-.1.2-.2.1-.1.2-.1.2-.1.2-.1h.2l.2-.1.2-.1.2-.1h.2l.2-.1h.2l.2-.1h.2l.2-.1h.4l.2-.1h41l1.3.1 1.4.1 1.3.1 1.3.1 1.3.2 1.3.2 1.4.2 1.3.3 1.3.2 1.3.3 1.3.3 1.3.4 1.3.4 1.2.4 1.3.4 1.3.4 1.2.5 1.3.5 1.2.5 1.2.6 1.2.5 1.2.6 1.2.6 1.2.6 1.2.7 1.1.7 1.1.7 1.1.7 1.1.7 1.1.8 60.6 43.3h.1l.1.1.1.1h.1l.1.1h.1l.1.1h.1l.2.1h.1l.1.1h.2l.2.1h.2l88.7 14.2h.1l.5.1.5.1.4.1.5.1.5.1.4.1.5.2.4.1.5.2.5.2.4.1.5.2.4.2.5.3.5.2.4.2.4.3.5.2.4.3.5.3.4.3.4.3.4.3.4.3.4.4.4.3.4.4.4.3.4.4.3.4.4.4.3.3.4.5.3.4.3.4.3.4.3.4.3.5.3.4.3.5.2.4.3.5.2.5.2.4.2.5.2.5.2.4.2.5.1.5.2.5.1.5.2.5.1.4.1.5.1.5.1.5.1.5v.5l.1.4v.5l.1.5v32.7l-.1.5v.6l-.1.5-.1.5-.1.5-.1.6-.1.5-.1.5-.2.6-.1.5-.2.5-.2.6-.2.5-.2.5-.2.5-.3.6-.3.5-.2.5-.3.5-.3.5-.3.5-.4.5-.3.5-.3.4-.4.5-.4.4-.4.5-.4.4-.4.4-.4.5-.5.4-.4.3-.5.4-.4.4-.5.3-.5.4-.5.3-.4.3-.5.3-.5.3-.6.3-.5.2-.5.3-.5.2-.5.2-.6.2-.5.2-.5.2-.6.2-.5.1-.5.1-.6.2-.5.1-.5.1h-.6l-.5.1h-.5l-.5.1h-2.2m0 0l-.2-1.3m0 0h-12.1"/><path class="st2" d="M504.5 190.5l.2.8.2.9.1.8.2.9.1.9v.8l.1.9v2.7l-.1.9v.9l-.1.9-.2.9-.1.9-.2.9-.2.9-.2.8-.3.9-.2.9-.3.8-.4.9-.3.8-.4.8-.4.8-.4.8-.4.8-.5.7-.5.8-.4.7-.5.7-.6.7-.5.6-.6.7-.6.6-.6.7-.6.6-.6.6-.7.6-.7.6-.7.5-.7.6-.7.5-.8.5-.8.4-.7.5-.8.4-.9.4-.8.4-.8.4-.8.3-.9.3-.8.3-.9.3-.9.2-.8.2-.9.2-.9.2-.9.1-.8.1-.9.1-.9.1h-3.4l-.9-.1-.9-.1-.9-.1-.8-.1-.9-.2-.9-.2-.8-.2-.9-.2-.9-.3-.8-.3-.9-.3-.8-.3-.8-.4-.9-.4-.8-.4-.8-.4-.8-.5-.7-.4-.8-.5-.7-.5-.7-.6-.7-.5-.7-.6-.7-.6-.6-.6-.7-.6-.6-.7-.5-.6-.6-.7-.5-.6-.6-.7-.5-.7-.5-.7-.4-.8-.5-.7-.4-.8-.4-.8-.4-.8-.4-.8-.3-.8-.4-.9-.3-.8-.3-.9-.2-.9-.2-.8-.2-.9-.2-.9-.2-.9-.1-.9-.1-.9-.1-.9v-3.6l.1-.9v-.8l.1-.9.2-.9.1-.8.2-.9.2-.8m0 0h-7.1m0 0l-.1.9-.2.9-.1 1-.1.9-.1.9-.1 1v5.3m0 0h-4.8m0 0l-.1-1.2-.1-1.2v-2.4l.1-1.2.1-1.2.1-1.2.2-1.2m0 0H210.7m0 0v-13.6m0 0h-41.9m0 0l.4.7.3.8.4.7.3.7.3.8.3.7.3.8.3.8.2.7.3.8.2.8.2.8.2.8.2.8.1.8.2.8.1.9.2.9.1 1 .1.9v1l.1.9v5m0 0h-5m0 0v-5l-.1-.9v-1l-.2-.9-.1-1-.1-.9-.2-.9m0 0h-7m0 0l.2.8.1.9.2.8.1.9.1.9.1.8v.9l.1.9v1.8l-.1.9-.1.9-.1.9-.1.9-.1.9-.2.9-.2.9-.3.8-.2.9-.3.9-.3.8-.3.9-.4.8-.3.8-.4.8-.4.8-.5.8-.4.7-.5.8-.5.7-.5.7-.5.7-.6.6-.5.7-.6.6-.6.7-.6.6-.7.6-.6.6-.7.6-.7.5-.7.6-.8.5-.7.5-.8.4-.8.5-.8.4-.8.4-.8.4-.8.4-.9.3-.8.3-.9.3-.8.3-.9.2-.9.2-.9.2-.8.2-.9.1-.9.1-.9.1-.8.1h-3.5l-.9-.1-.8-.1-.9-.1-.9-.1-.8-.2-.9-.2-.9-.2-.9-.2-.8-.3-.9-.3-.8-.3-.9-.3-.8-.4-.8-.4-.8-.4-.8-.4-.8-.5-.8-.4-.7-.5-.8-.5-.7-.6-.7-.5-.7-.6-.6-.6-.7-.6-.6-.6-.6-.7-.6-.6-.5-.7-.6-.6-.5-.7-.5-.7-.5-.7-.5-.8-.4-.7-.5-.8-.4-.8-.4-.8-.3-.8-.4-.8-.3-.9-.3-.8-.3-.9-.2-.9-.3-.8-.2-.9-.2-.9-.1-.9-.1-.9-.1-.9-.1-.9-.1-.9v-1.8l.1-.9v-.9l.1-.8.1-.9.1-.9.2-.8.1-.9.2-.8m0 0h-7m0 0l-.2.9-.1.9-.1 1-.2.9v1l-.1.9v5.3m0 0h-5m0 0v-5.3l.1-.9v-1l.1-.9.1-1 .2-.9.1-.9.2-.8.1-.8.2-.8.2-.8.2-.8.2-.8.3-.8.2-.7.3-.8.3-.8.3-.7.3-.8.3-.7.3-.7.4-.8.4-.7m0 0h-9.8m0 0v-10.9m0 0H14.8m0 0v9.4m0 0H9.7m0 0v-14.8m0 0h5.1m0 0v-16.1m0 0H9.7m0 0v-29.6m0 0h262.2m0 0l2.8-70.6m0 0h4.1m0 0v121.7m0 0h5.1m0 0V54.1"/></g><path class="st2" d="M506.7 169.4h33"/><path d="M283.9 54.1v-.4l.1-.2v-.8l.1-.2v-.2l.1-.2v-.2l.1-.2v-.2l.1-.2.1-.1V51l.1-.2.1-.2.1-.2.1-.2.1-.2.1-.2.1-.2.1-.2.1-.1.2-.2.1-.2.1-.2.2-.1.1-.2.2-.2.1-.1.2-.2.1-.1.2-.2.2-.1.2-.2.1-.1.2-.1.2-.1.2-.1.2-.2.1-.1.2-.1.2-.1.2-.1h.2l.2-.1.2-.1.2-.1h.2l.2-.1h.2l.2-.1h.2l.2-.1h.4l.2-.1h41l1.4.1 1.3.1 1.3.1 1.3.1 1.3.2 1.3.2 1.4.2 1.3.3 1.3.2 1.3.3 1.3.3 1.3.4 1.3.4 1.3.4 1.2.4 1.3.4 1.2.5 1.3.5 1.2.5 1.2.6 1.3.5 1.1.6 1.2.6 1.2.6 1.2.7 1.1.7 1.1.7 1.1.7 1.1.7 1.1.8 60.6 43.3h.1l.1.1.1.1h.1l.1.1h.1l.1.1h.2l.1.1h.1l.1.1h.2l.2.1h.2l88.8 14.2.5.1.5.1.4.1.5.1.5.1.4.1.5.2.4.1.5.2.5.2.4.1.5.2.5.2.4.3.5.2.4.2.5.3.4.2.4.3.5.3.4.3.4.3.4.3.4.3.4.4.4.3.4.3.4.4.4.4.3.4.4.4.3.3.4.5.3.4.3.4.3.4.3.4.3.5.3.4.3.5.2.4.3.5.2.5.2.4.2.5.2.5.2.4.2.5.1.5.2.5.1.5.2.5.1.4.1.5.1.5.1.5.1.5v.5l.1.4v.5l.1.5v32.7l-.1.5v.5l-.1.6-.1.5-.1.5-.1.6-.1.5-.1.5-.2.6-.1.5-.2.5-.2.6-.2.5-.2.5-.2.5-.3.6-.2.5-.3.5-.3.5-.3.5-.3.5-.3.5-.4.5-.3.4-.4.5-.4.4-.4.5-.4.4-.4.4-.4.5-.4.4-.5.3-.4.4-.5.4-.5.3-.5.4-.4.3-.5.3-.5.3-.5.3-.6.3-.5.2-.5.3-.5.2-.5.2-.6.2-.5.2-.5.2-.6.2-.5.1-.5.1-.6.2-.5.1h-.5l-.6.1-.5.1h-.5l-.5.1h-2.2m0 0l-.2-1.3m0 0h-12.1m0 0l.2.8.2.9.1.8.2.9.1.9v.8l.1.9v3.6l-.1.9-.1.9-.1.9-.2.9-.2.9-.2.9-.2.8-.3.9-.2.9-.3.8-.4.9-.3.8-.4.8-.4.8-.4.8-.4.8-.5.7-.4.8-.5.7-.5.7-.6.7-.5.6-.6.7-.6.6-.6.7-.6.6-.6.6-.7.6-.7.6-.7.5-.7.6-.7.5-.8.5-.8.4-.7.5-.8.4-.8.4-.9.4-.8.4-.8.3-.9.3-.8.3-.9.3-.9.2-.8.2-.9.2-.9.2-.9.1-.8.1-.9.1-.9.1h-3.4l-.9-.1-.9-.1-.9-.1-.8-.1-.9-.2-.9-.2-.8-.2-.9-.2-.9-.3-.8-.3-.9-.3-.8-.3-.8-.4-.9-.4-.8-.4-.8-.4-.8-.5-.7-.4-.8-.5-.7-.5-.7-.6-.7-.5-.7-.6-.7-.6-.6-.6-.7-.6-.6-.7-.5-.6-.6-.7-.5-.6-.6-.7-.5-.7-.5-.7-.4-.8-.5-.7-.4-.8-.4-.8-.4-.8-.4-.8-.3-.8-.4-.9-.3-.8-.3-.9-.2-.9-.2-.8-.2-.9-.2-.9-.2-.9-.1-.9-.1-.9-.1-.9v-3.6l.1-.9v-.8l.1-.9.2-.9.1-.8.2-.9.2-.8m0 0h-7.1m0 0l-.1.9-.2.9-.1 1-.1.9-.1.9-.1 1v5.2m0 0l-4.8.1m0 0l-.1-1.2-.1-1.2v-1.2l.1-1.2v-1.2l.1-1.2.1-1.2.2-1.2m0 0H210.7m0 0v-13.6m0 0h-41.9m0 0l.4.7.4.8.3.7.3.7.3.8.3.7.3.8.3.8.2.7.3.8.2.8.2.8.2.8.2.8.1.8.2.8.1.9.2.9.1 1 .1.9v1l.1.9v5m0 0h-4.9m0 0l-.1-3.1v-1.9l-.1-1v-.9l-.2-.9-.1-1-.1-.9-.2-.9m0 0h-7m0 0l.2.8.1.9.2.8.1.9.1.9.1.8v.9l.1.9v1.8l-.1.9-.1.9-.1.9-.1.9-.1.9-.2.9-.2.9-.3.8-.2.9-.3.9-.3.8-.3.9-.4.8-.3.8-.4.8-.4.8-.5.8-.4.7-.5.8-.5.7-.5.7-.5.7-.6.6-.5.7-.6.6-.6.7-.6.6-.7.6-.6.6-.7.6-.7.5-.7.6-.8.5-.7.5-.8.4-.8.5-.8.4-.8.4-.8.4-.8.4-.9.3-.8.3-.9.3-.8.3-.9.2-.9.2-.9.2-.8.2-.9.1-.9.1-.9.1-.8.1h-3.5l-.8-.1-.9-.1-.9-.1-.9-.1-.8-.2-.9-.2-.9-.2-.9-.2-.8-.3-.9-.3-.8-.3-.9-.3-.8-.4-.8-.4-.8-.4-.8-.4-.8-.5-.8-.4-.7-.5-.8-.5-.7-.6-.7-.5-.7-.6-.6-.6-.7-.6-.6-.6-.6-.7-.6-.6-.5-.7-.6-.6-.5-.7-.5-.7-.5-.7-.5-.8-.4-.7-.5-.8-.4-.8-.4-.8-.3-.8-.4-.8-.3-.9-.3-.8-.3-.9-.2-.9-.3-.8-.2-.9-.2-.9-.1-.9-.1-.9-.1-.9-.1-.9-.1-.9v-1.8l.1-.9v-.9l.1-.8.1-.9.1-.9.2-.8.1-.9.2-.8m0 0h-7m0 0l-.2.9-.1.9-.1 1-.2.9v.9l-.1 1v5.3m0 0h-5m0 0v-5.3l.1-.9v-1l.1-.9.1-1 .2-.9.1-.9.2-.8.1-.8.2-.8.2-.8.2-.8.3-.8.2-.8.2-.7.3-.8.3-.8.3-.7.3-.8.3-.7.4-.7.3-.8.4-.7m0 0h-9.8m0 0v-10.9m0 0H14.8m0 0v9.4m0 0H9.7m0 0v-14.8m0 0h5.1m0 0v-16.1m0 0H9.7m0 0v-29.6m0 0h262.2m0 0l2.8-70.6m0 0h4.1m0 0v121.7m0 0h5.1m0 0V54.1" stroke-width="3" fill="none" stroke="#171f3c" stroke-linecap="round" stroke-linejoin="round" stroke-miterlimit="10"/></svg>