<svg version="1.1" id="" xmlns="http://www.w3.org/2000/svg" x="0" y="0" viewBox="0 0 550 250" xml:space="preserve"><style>.st2,.st3{fill:none;stroke:#171f3c;stroke-linecap:round;stroke-linejoin:round;stroke-miterlimit:10}.st3{stroke-width:3}</style><path fill="#fff" d="M535.2 213.7v.7l-.1.2v.6l-.1.2v.2l-.1.2v.2l-.1.2-.1.2v.2l-.1.2-.1.2-.1.2-.1.2-.1.2-.1.2-.1.1-.1.2-.1.2-.1.2-.1.2-.2.1-.1.2-.1.2-.2.1-.1.2-.2.2-.1.1-.2.2-.2.1-.1.1-.2.2-.2.1-.2.1-.2.2-.1.1-.2.1-.2.1-.2.1-.2.1-.2.1-.2.1h-.2l-.2.1-.2.1-.2.1h-.2l-.2.1h-.2l-.2.1h-.4l-.1.1h-.8l-.2.1h-33l-.2-.1h-.4l-.2-.1h-.2l-.2-.1h-.2l-.2-.1-.1-.1h-.2l-.2-.1-.2-.1-.2-.1-.2-.1-.2-.1-.2-.1-.2-.1-.2-.1-.1-.2-.2-.1-.2-.1-.2-.2-.1-.1-.2-.1-.2-.2-.1-.1-.2-.2-.1-.2-.2-.1-.1-.2-.2-.2-.1-.1-.1-.2-.1-.2-.1-.2-.2-.2-.1-.2-.1-.1-.1-.2-.1-.2v-.2l-.1-.2-.1-.2-.1-.2v-.2l-.1-.2v-.2l-.1-.2v-.2l-.1-.2v-.4l-.1-.2v-2.3h-7l-.1 1.1-.1 1.1-.2 1-.2 1.1-.2 1-.3 1.1-.3 1-.4 1.1-.4 1-.4 1-.5.9-.4 1-.6 1-.5.9-.6.9-.6.9-.7.9-.7.8-.7.8-.7.8-.8.8-.8.7-.8.7-.8.7-.9.7-.9.6-.9.6-.9.6-.9.5-1 .5-1 .5-1 .4-1 .4-1 .4-1 .3-1.1.3-1 .2-1.1.3-1.1.1-1 .2-1.1.1-1.1.1h-3.3l-1-.1-1.1-.1-1.1-.2-1.1-.2-1-.2-1.1-.3-1-.3-1-.3-1.1-.4-1-.4-1-.4-.9-.5-1-.5-.9-.6-1-.5-.9-.6-.8-.7-.9-.6-.8-.7-.8-.7-.8-.8-.8-.8-.7-.8-.7-.8-.7-.8-.6-.9-.6-.9-.6-.9-.6-1-.5-.9-.5-1-.4-1-.4-1-.4-1-.4-1-.3-1.1-.2-1-.3-1.1-.2-1-.2-1.1-.1-1.1h-7v10.5l-5 .1v-10.6H196.9v-4.4l-.1-1.2-.1-1.3-.1-1.2-.2-1.3-.2-1.2-.3-1.2-.3-1.2-.3-1.2-.4-1.2-.5-1.2-.4-1.2-.5-1.1-.5-1.2-.6-1.1h-8.1l.6.9.6 1 .6.9.5 1 .5.9.4 1 .4 1 .4 1.1.3 1 .3 1 .3 1.1.2 1.1.2 1 .2 1.1.1 1.1.1 1.1v3.2l-.1 1.1-.1 1.1-.1 1.1-.2 1.1-.2 1-.3 1.1-.3 1-.3 1.1-.4 1-.4 1-.4 1-.5 1-.5 1-.5.9-.6.9-.6.9-.6.9-.7.9-.7.8-.7.8-.7.8-.8.8-.8.7-.8.8-.9.6-.8.7-.9.6-1 .6-.9.6-.9.5-1 .5-1 .4-1 .4-1 .4-1.1.4-1 .3-1 .3-1.1.2-1.1.2-1.1.2-1 .1-1.1.1-1.1.1h-2.2l-1.1-.1-1.1-.1-1-.1-1.1-.2-1.1-.2-1-.2-1.1-.3-1-.3-1.1-.4-1-.4-1-.4-1-.4-.9-.5-1-.5-.9-.6-.9-.6-.9-.6-.9-.7-.9-.6-.8-.8-.8-.7-.8-.8-.7-.8-.7-.8-.7-.8-.7-.9-.6-.9-.6-.9-.6-.9-.5-.9-.5-1-.5-1-.4-1-.4-1-.4-1-.3-1.1-.3-1-.3-1.1-.2-1-.2-1.1-.1-1.1-.1-1.1-.1-1.1v-3.2l.1-1.1.1-1.1.2-1.1.2-1 .2-1.1.3-1.1.3-1 .3-1 .4-1.1.4-1 .5-1 .4-.9.5-1 .6-.9.6-1 .6-.9h-8.1l-.5 1.1-.5 1-.5 1.1-.4 1.1-.4 1.1-.4 1.1-.3 1.1-.3 1.2-.3 1.1-.2 1.2-.2 1.1-.2 1.2-.1 1.2-.1 1.2-.1 1.1v14.8l-5 .1v-13.7l.1-1.4v-1.5l.1-1.4.2-1.4.2-1.4.3-1.5.3-1.4.3-1.3.4-1.4.5-1.4.5-1.3.5-1.4.6-1.3H30.2v7h-5.1v-22.5h5.1v-7.8H19.9V18.8h-5.1V8.5h397.8l.3.1h.3l.3.1h.3l.3.1.2.1.3.1.3.1.3.1.2.1.3.2.2.1.3.1.2.2.3.2.2.1.2.2.3.2.2.2.2.2.2.2.2.2.2.2.1.3.2.2.2.2.1.3.2.2.1.3.1.3.2.2.1.3.1.3.1.2.1.3v.3l.1.3v.3l.1.2v.3l.1.3v115.4l-.1.3v.3l-.1.3v.3l-.1.3v.3l-.1.2-.1.3-.1.3-.1.3-.2.2-.1.3-.1.2-.2.3-.1.2-.2.3-.2.2-.1.2-.2.3-.2.2-.2.2-5.4 5.4h13v-74l.1-.3v-.6l.1-.3.1-.3V67l.1-.3.1-.3.1-.3.1-.2.1-.3.2-.3.1-.2.2-.3.1-.2.2-.3.1-.2.2-.2.2-.2.2-.3.2-.2.2-.2.2-.2.3-.1.2-.2.2-.2.3-.2.2-.1.3-.2.2-.1.3-.1.2-.2.3-.1.3-.1.3-.1h.2l.3-.1.3-.1h.3l.3-.1h.5l.3-.1h53.8l.2.1h.6l.3.1 23.9 3.9.9.1.9.2.8.3.9.2.8.3.8.3.9.3.8.4.8.4.7.4.8.4.7.5.8.5.7.5.7.6.7.5.6.6.6.6.7.7.6.6.5.7.6.7.5.7.5.7.4.8.5.8.4.7.4.8.4.8.3.8.3.9.3.8.2.9.2.8.2.9.2.9.1.8.1.9.1.9 1.4 24.7v91z" id=""/><path d="M503.5 103.1l-.1.1v8.5h8.5v-8.5h-8.5l.1-.1zm13.2 15l-44.9-5.4h-.9l-.1-.1-.1-.1-.1-.1-.1-.1-.1-.1-.1-.1-.1-.1-.1-.1-.1-.1-.1-.1-.1-.1-.1-.1-.1-.1-.1-.1-.1-.1-.1-.1-.1-.1-.1-.1-.1-.1-.1-.1-.1-.1-.1-.1-.1-.1V84.6l.1-.1.1-.1.1-.1.1-.1.1-.1.1-.1.1-.1.1-.1.1-.1.1-.1.1-.1.1-.1.1-.1.1-.1.1-.1.1-.1.1-.1.1-.1.1-.1.1-.1.1-.1.1-.1.1-.1h32.8v18.4h8.5V81.5h3.5l.1.1.1.1.1.1.1.1.1.1.1.1.1.1.1.1.1.1.1.1.1.1.1.1.1.1.1.1.1.1.1.1.1.1.1.1.1.1.1.1.1.1.1.1.1.1v1l1.6 28.1v1.3l-.1.1-.1.1-.1.1-.1.1-.1.1-.1.1-.1.1-.1.1-.1.1-.1.1-.1.1-.1.1 1.6 1.6-.1.1-.1.1-.1.1-.1.1-.1.1-.1.1-.1.1-.1.1-.1.1-.1.1h-2.2l-.1.1zm-58.8-7.1l-16.9-2.1h-.4l-.2-.1h-.1l-.1-.1h-.2l-.1-.1h-.2l-.1-.1-.1-.1h-.1l-.2-.1-.1-.1-.1-.1-.1-.1-.1-.1-.1-.1-.2-.1-.1-.1-.1-.1-.1-.1v-.1l-.1-.1-.1-.1-.1-.2-.1-.1v-.1l-.1-.1-.1-.2v-.1l-.1-.2v-.1l-.1-.1v-.3l-.1-.2V85l.1-.1v-.3l.1-.2v-.1l.1-.1V84l.1-.1.1-.1v-.2l.1-.1.1-.1.1-.1v-.2l.1-.1.1-.1.1-.1.1-.1.1-.1.1-.1.1-.1.2-.1.1-.1h.1l.1-.1.1-.1.2-.1h.1l.1-.1h.2l.1-.1h.1l.2-.1h.3l.1-.1h18.3l.2.1h.3l.1.1h.1l.2.1h.1l.1.1.2.1h.1l.1.1.2.1.1.1.1.1.1.1.1.1.1.1.1.1.1.1.1.1.1.1.1.1.1.1.1.2.1.1v.1l.1.2.1.1v.1l.1.2v.1l.1.1v.3l.1.2v22.5l-.1.1v.3l-.1.2v.1l-.1.1v.2l-.1.1-.1.1v.2l-.1.1-.1.1-.1.1v.2l-.1.1-.1.1-.1.1-.1.1-.1.1-.2.1-.1.1-.1.1h-.1l-.1.1-.2.1-.1.1-.1.1h-.1l-.2.1h-.1l-.2.1h-.1l-.1.1h-.3l-.2.1h-1z" fill="#171f3c"/><g id=""><path class="st2" d="M425.4 153v-10.3m91.3-24.6h1l.1-.1h.5l.1-.1h.1l.2-.1h.1l.1-.1h.2l.1-.1.1-.1.2-.1h.1l.1-.1.1-.1.1-.1.1-.1.1-.1.1-.1.1-.1.1-.1.1-.1.1-.2.1-.1.1-.1.1-.1v-.2l.1-.1.1-.1v-.1l.1-.2v-.1l.1-.2v-.2l.1-.2v-1m0 0l-1.6-28.1m-3.1 32.6l-44.9-5.4m41.7-31.2h2.1m-2.1-1.4h7.4m-51.3 0h33.8m-31.1 1.4h31.1m0 22v8.8h.1v.1l.1.1.1.1h.1v.1h.2v.1h8.9v-.1h.2l.1-.1h.1v-.1h.1v-.2h.1v-9.2h-.1v-.2h-.1v-.1h-.1l-.1-.1h-.1l-.1-.1H504v.1h-.2v.1h-.2v.1l-.1.1v.1h-.1v.3zm0-23.4v20l.1.1v.1h.1v.1h.1v.1h.1v.1h.3v.1h8.7l.1-.1h.2v-.1h.2v-.1l.1-.1v-.1h.1V79.7h-.1v-.1h-.1v-.1h-.1v-.1h-.1l-.1-.1h-9.1v.1h-.2v.1h-.1v.1h-.1v.2h-.1v.3zm12.2 1.4h.7l.1.1h.3l.2.1h.1l.1.1h.2l.1.1.1.1h.2l.1.1.1.1.1.1.1.1h.2l.1.1.1.1.1.1.1.1.1.2.1.1.1.1v.1l.1.1.1.1.1.2v.1l.1.1.1.2v.1l.1.1v.2l.1.1v.3l.1.1v.5m7.1 79.3v-50.2m0 0l-1.7-30.5m-4.3-4h.4l.2.1h.4l.2.1h.1l.1.1h.2l.1.1h.1l.2.1.1.1h.1l.2.1.1.1.1.1.1.1.1.1.1.1.1.1.1.1.1.1.1.1.1.1.1.1.1.2.1.1v.1l.1.1.1.2v.1l.1.1v.2l.1.1v.2l.1.1v.6l.1.1M425.4 153h54.8l.1.1h.5l.2.1h.3l.2.1h.2l.1.1h.2l.1.1h.2l.2.1.1.1h.2l.1.1.2.1h.1l.2.1.1.1.2.1.1.1.2.1h.1l.1.1.2.1 11.6 8.5.1.1.1.1.2.1.1.1.2.1.1.1.1.1h.2l.1.1.2.1.1.1h.2l.2.1h.1l.2.1.1.1h.2l.2.1h.1l.2.1h.3l.2.1h.6l.2.1h34.9m-44 39.5l44-.1M465.3 84.4v-.2l.1-.1v-.6l.1-.1v-.3l.1-.2v-.1l.1-.1.1-.2v-.1l.1-.1.1-.1V82l.1-.1.1-.1.1-.1.1-.1.1-.1.1-.1.1-.1.1-.1.1-.1.1-.1.1-.1.2-.1.1-.1h.1l.1-.1.2-.1h.1l.1-.1h.2l.1-.1h.2l.1-.1h.4l.2-.1h.4m-4.3 72.9V84.4m-28 20.3v.7l.1.2v.3l.1.1v.1l.1.2v.1l.1.2.1.1v.1l.1.1.1.2.1.1.1.1v.1l.1.1.1.1.1.1.2.1.1.1.1.1.1.1.1.1.1.1.2.1h.1l.1.1.1.1h.2l.1.1h.2l.1.1h.1l.2.1h.4m16.9 2.1l-16.9-2.1m-3.7-4.2v-19m30.8 22.8v.9l.1.1v.2l.1.1v.1l.1.2v.1l.1.1v.2l.1.1.1.1.1.1.1.2v.1l.1.1.1.1.1.1.1.1.1.1.2.1.1.1.1.1.1.1.1.1.1.1h.2l.1.1.1.1h.2l.1.1h.1l.2.1h.3l.1.1h.3m-3.7-27v22.8m4.2-27h-.7l-.2.1h-.3l-.1.1h-.1l-.2.1h-.1l-.2.1-.1.1h-.1l-.1.1-.2.1-.1.1-.1.1-.1.1-.1.1-.1.1-.1.1-.1.1-.1.1-.1.1-.1.1-.1.1-.1.2-.1.1v.1l-.1.2-.1.1v.1l-.1.2v.1l-.1.1v.3l-.1.2v.7m-5.5 21.1v.7l-.1.1v.3l-.1.2v.1l-.1.1v.2l-.1.1-.1.1v.2l-.1.1-.1.1-.1.1v.2l-.1.1-.1.1-.1.1-.1.1-.1.1-.2.1-.1.1-.1.1h-.1l-.1.1-.2.1-.1.1-.1.1h-.1l-.2.1h-.1l-.2.1h-.1l-.1.1h-.3l-.2.1h-1.1m4.7-25.3v21.1m-4.2-25.3h.7l.2.1h.3l.1.1h.1l.2.1h.1l.1.1.2.1h.1l.1.1.2.1.1.1.1.1.1.1.1.1.1.1.1.1.1.1.1.1.1.1.1.1.1.1.1.2.1.1v.1l.1.2.1.1v.1l.1.2v.1l.1.1v.3l.1.2v.7m-21.1-4.2h16.9m-21.1 4.2V85l.1-.1v-.3l.1-.2v-.1l.1-.1V84l.1-.1.1-.1v-.2l.1-.1.1-.1.1-.1v-.2l.1-.1.1-.1.1-.1.1-.1.1-.1.1-.1.1-.1.2-.1.1-.1h.1l.1-.1.1-.1.2-.1h.1l.1-.1h.2l.1-.1h.1l.2-.1h.3l.1-.1h.7M192.4 192l-.3-.4m0 0l-.6-1.2-.7-1.1-.8-1.1-.7-1.1-.8-1-.9-1-.9-1-.9-1-.9-.9-1-.9-1-.8-1-.8-1.1-.8-1.1-.8-1.1-.7-1.2-.7-1.1-.6-1.2-.6-1.2-.5-1.2-.5-1.3-.5-1.2-.4-1.3-.4-1.2-.3-1.3-.3-1.3-.3-1.3-.2-1.3-.1-1.4-.1-1.3-.1h-2.6l-1.3.1-1.4.1-1.3.2-1.3.2-1.3.2-1.3.3-1.2.4-1.3.4-1.2.4-1.3.5-1.2.5-1.2.5-1.2.6-1.1.7-1.2.6-1.1.7-1.1.8-1 .8-1 .8-1 .9-1 .9-1 .9-.9.9-.8 1-.9 1.1-.8 1-.7 1.1-.8 1.1-.7 1.1-.6 1.2m0 0l-.2.2m8.1 0l.2-.3"/><path class="st2" d="M133.1 191.7l.6-.8.7-.9.7-.8.7-.8.8-.7.8-.8.8-.7.8-.7.9-.7.9-.6.9-.6.9-.5.9-.6 1-.5.9-.5 1-.4 1-.4 1-.4 1.1-.3 1-.3 1.1-.2 1-.3 1.1-.2 1-.1 1.1-.1 1.1-.1h3.2l1.1.1 1.1.1 1.1.1 1 .2 1.1.2 1 .3 1.1.3 1 .3 1 .3 1 .4 1 .5 1 .4.9.5 1 .6.9.5.9.6.9.6.9.7.8.7.8.7.8.7.8.8.7.8.7.8.7.8.6.9m0 0l.3.4m-65 0l.1-.2"/><path class="st2" d="M119.4 191.8l.7-1.4.7-1.3.7-1.3.8-1.3.8-1.2.9-1.2.9-1.2 1-1.2 1-1.1 1-1.1 1.1-1 1.1-1 1.2-1 1.2-.9 1.2-.9 1.2-.8 1.3-.8 1.3-.8 1.3-.7 1.4-.7 1.3-.6 1.4-.5 1.4-.6 1.4-.4.4-.1 1.1-.4 1.4-.3 1.5-.3 1.5-.3 1.5-.2 1.5-.2 1.5-.1 1.4-.1h1.6l1.5.1h1.4l1.5.2 1.5.2 1.5.2 1.5.3 1.4.4 1.5.4.2.1 1.2.3 1.4.5 1.4.6 1.4.6 1.4.6 1.3.7 1.3.8 1.3.7 1.2.9 1.3.8 1.2.9 1.1 1 1.1 1 1.1 1 1.1 1.1 1 1.1 1 1.1.9 1.2.9 1.2.9 1.2.8 1.3.8 1.3.7 1.3.7 1.3.6 1.4.6 1.4.5 1.4.5 1.4.4 1.4.4 1.5.3 1.4.3 1.5.3 1.5.1 1.5.2 1.5.1 1.5v1.5m0 0v3.1m215.1 0v-.6m0 0l-.1-1.1v-3.3l.1-1.1.1-1 .2-1.1.2-1.1.2-1.1.3-1 .3-1.1.3-1 .4-1 .4-1 .5-1 .4-1 .6-1 .5-.9.6-.9.6-.9.6-.9.7-.9.7-.8.8-.8.7-.8.8-.7.8-.8.8-.7.9-.6.9-.7.9-.6.9-.6 1-.5.9-.5 1-.5 1-.4 1-.5 1-.3 1.1-.4 1-.3 1.1-.2 1-.3 1.1-.2 1.1-.1 1.1-.1 1.1-.1h3.2l1.1.1 1.1.1 1.1.1 1.1.2 1 .2 1.1.3 1 .3 1.1.3 1 .4 1 .4 1 .4 1 .5 1 .5.9.5.9.6.9.6.9.6.9.7.8.7.8.7.8.8.8.8.7.8.7.8.7.8.7.9.6.9.6.9.5 1 .6.9.4 1 .5 1 .4 1 .4 1 .3 1.1.4 1 .2 1.1.3 1 .2 1.1.1 1.1.2 1.1.1 1v3.3l-.1 1.1m-74.6.8v-46.4"/><path class="st2" d="M486.6 210.1v-1.3l-.1-1.4-.1-1.3-.2-1.3-.2-1.3-.2-1.3-.3-1.3-.4-1.3-.4-1.2-.4-1.3-.4-1.2-.6-1.2-.5-1.2-.6-1.2-.6-1.2-.7-1.1-.7-1.1-.8-1.1-.8-1.1-.8-1-.8-1-.9-1-1-.9-.9-.9-1-.9-1-.9-1.1-.8-1.1-.7-1.1-.8-1.1-.7-1.1-.6-1.2-.6-1.2-.6-1.2-.5-1.2-.5-1.3-.5-1.2-.4-1.3-.3-1.3-.3-1.3-.3-1.3-.3-1.3-.1-1.3-.2-1.3-.1h-4l-1.3.1-1.3.2-1.3.1-1.3.3-1.3.3-1.3.3-1.3.3-1.2.4-1.3.5-1.2.5-1.2.5-1.2.6-1.2.6-1.1.6-1.2.7-1.1.8-1 .7-1.1.8-1 .9-1 .9-1 .9-.9.9-.9 1-.8 1-.9 1-.7 1.1-.8 1.1-.7 1.1-.7 1.1-.6 1.2-.6 1.2-.6 1.2-.5 1.2-.4 1.2-.5 1.3-.3 1.2-.4 1.3-.3 1.3-.2 1.3-.2 1.3-.2 1.3-.1 1.3-.1 1.4v1.3m0 0v3.1m-21.1-47l23.5-23.5m74.2 67.4v2.3M470.5 143h7.9m0 0h.2l.1-.1h.2v-.1h.1v-.1h.1v-.1h.1v-.3h.1v-.2m0 0v-4.7m0 0v-.2h-.1v-.3h-.1v-.1h-.1v-.1h-.1v-.1h-.2v-.1h-.3m0 0h-7.9m0 0h-.3v.1h-.2v.1h-.1v.1h-.1v.1h-.1v.2h-.1v.3m0 0v4.7m0 0v.3h.1v.2h.1v.1h.1v.1h.1v.1h.2v.1h.3m-155.1 30.8v34m-6.5-34v34m44-34v34m6.5-34v34m0 0h12.7v-32.4h-76.3v33h56.7l6.9-.6zm29.5-41.6l-.2.2-.2.2-.2.1-.3.2-.2.2-.2.2-.3.1-.2.2-.3.1-.3.1-.2.2-.3.1-.3.1h-.2l-.3.1-.3.1-.3.1h-.3l-.3.1h-.5l-.3.1h-.3m-211.8 0h211.8m24.6-35.7l.2-.2.2-.2.2-.2.2-.3.1-.2.2-.2.1-.3.2-.2.1-.3.2-.2.1-.3.1-.3.1-.2.1-.3.1-.3v-.3l.1-.3.1-.2v-.6l.1-.3v-.6m0 0V27.3m-25.4 128.6l22.9-22.9m-28.9 25.4h.3l.3-.1h.6l.3-.1h.3l.2-.1.3-.1h.3l.3-.1.2-.1.3-.1.3-.2.2-.1.3-.1.2-.2.3-.1.2-.2.3-.2.2-.1.2-.2.2-.2.2-.2m-345.9 2.5h339.9M410 27.3v-.6l-.1-.3v-.6l-.1-.2-.1-.3V25l-.1-.3-.1-.3-.1-.2-.1-.3-.1-.3-.2-.2-.1-.3-.2-.2-.1-.3-.2-.2-.1-.2-.2-.3-.2-.2-.2-.2-.2-.2-.2-.2-.2-.2-.3-.2-.2-.2-.2-.2-.3-.1-.2-.2-.3-.1-.2-.2-.3-.1-.2-.1-.3-.1-.3-.1-.2-.1-.3-.1-.3-.1h-.3l-.3-.1h-.3l-.2-.1h-.9M30.2 149.9v.3l.1.2v.6l.1.3v.3l.1.3.1.3v.2l.1.3.1.3.1.2.2.3.1.3.1.2.2.3.1.2.2.3.2.2.1.2.2.3.2.2.2.2.2.2.2.2.3.2.2.1.2.2.3.2.2.1.3.2.2.1.3.1.2.2.3.1.3.1.3.1h.2l.3.1.3.1h.3l.3.1h.6l.2.1h.3M30.2 27.3V27l.1-.3v-.6l.1-.3v-.2l.1-.3.1-.3v-.3l.1-.3.1-.2.1-.3.2-.3.1-.2.1-.3.2-.2.1-.3.2-.2.2-.2.1-.3.2-.2.2-.2.2-.2.2-.2.2-.2.3-.2.2-.2.2-.2.3-.1.2-.2.3-.1.2-.2.3-.1.2-.1.3-.1.3-.1.3-.1.2-.1.3-.1h.3l.3-.1h.3l.3-.1h.8m362.8 0H38.7m-8.5 8.5v122.6m50.6 14.6v-1.9m0 0v-.2l.1-.1v-.2h.1v-.1h.1v-.1h.1v-.1h.2v-.1h.3m0 0h4.8m0 0h.2v.1h.2v.1h.1l.1.1v.1h.1v.1l.1.1v.3m0 0v1.9m0 0v.3h-.1v.1l-.1.1v.1H87l-.1.1h-.1l-.1.1h-.2m0 0h-4.8m0 0h-.3v-.1h-.2v-.1h-.1v-.1H81v-.1h-.1v-.2h-.1v-.2m92 1.1v-1.9m0 0v-.2h.1v-.3h.1v-.1h.1v-.1h.2v-.1h.3v-.1h.1m0 0h4.8m0 0l.1.1h.2l.1.1h.1v.1h.1v.1h.1v.2h.1v.3m0 0v1.9m0 0v.3h-.1v.2h-.1v.1h-.1v.1h-.1v.1h-.3v.1h-.1m0 0h-4.8m0 0h-.1l-.1-.1h-.2l-.1-.1h-.1v-.1h-.1v-.1h-.1v-.3h-.1v-.2m89.4-1.1v-1.9m0 0v-.3h.1v-.2h.1v-.1h.1v-.1h.1v-.1h.2v-.1h.3m0 0h4.7m0 0h.3v.1h.2v.1h.1v.1h.1v.1h.1v.2h.1v.3m0 0v1.9m0 0v.2h-.1v.2h-.1v.1l-.1.1-.1.1h-.2v.1h-.3m0 0h-4.7m0 0h-.3l-.1-.1h-.1l-.1-.1-.1-.1-.1-.1v-.1l-.1-.1v-.2m90.7 0v-1.9m0 0v-.3l.1-.1v-.1h.1v-.1l.1-.1h.1v-.1h.2v-.1h.2m0 0h4.8m0 0h.3v.1h.2v.1h.1v.1h.1v.1h.1v.2l.1.1v.2m0 0v1.9m0 0v.2h-.1v.2h-.1v.1l-.1.1h-.1v.1h-.2v.1h-.3m0 0h-4.8m0 0h-.2l-.1-.1h-.1l-.1-.1h-.1v-.1l-.1-.1v-.1h-.1v-.3m-204.2 28.4l.6-.3.6-.4.6-.3.7-.2.6-.3.7-.2.6-.2.7-.2.7-.1.6-.2.7-.1.7-.1h.7l.7-.1h1.3l.7.1h.7l.7.1.7.1.7.1.6.2.7.2.7.2.6.2.7.2.6.3.6.3.6.3.6.3.6.4.6.4.6.3.5.5.6.4.5.4.5.5.5.5.5.5.4.5.5.5.4.6.4.5.4.6.3.6.4.6.3.6.3.6.3.7.2.6.2.7.2.6.2.7.2.7.1.6.1.7.1.7.1.7.1.7v1.3l-.1.7v.7l-.1.7-.1.7-.1.7-.2.6-.1.7-.2.7-.2.6-.3.7-.2.6-.3.6-.3.7-.3.6-.4.6-.4.5-.3.6-.5.6-.4.5-.4.5-.5.5-.5.5-.5.5-.5.5-.5.4-.5.5-.6.4-.6.3-.6.4-.6.4-.6.3-.6.3-.6.3-.7.2-.6.3-.7.2-.6.1-.7.2-.7.2-.6.1-.7.1-.7.1H157l-.7-.1-.7-.1-.7-.1-.7-.1-.6-.2-.7-.2-.7-.2-.6-.2-.7-.3-.6-.3-.6-.3-.6-.3-.6-.3-.6-.4-.6-.4-.5-.4-.6-.4-.5-.4-.5-.5-.5-.5-.5-.5-.5-.5-.4-.5-.4-.5-.5-.6-.3-.6-.4-.5-.4-.6-.3-.7-.3-.6-.3-.6-.3-.6-.2-.7-.2-.6-.2-.7-.2-.6-.1-.7-.2-.7-.1-.7v-.7l-.1-.7v-2.7l.1-.7.1-.7.1-.7.1-.6.2-.7.1-.7.3-.6.2-.7.2-.6.3-.7.3-.6.3-.6.3-.6.4-.6.4-.6.4-.5.4-.6.4-.5.5-.5.5-.5.4-.5.5-.5.6-.4.5-.5.6-.4.5-.4.6-.4z"/><path class="st2" d="M438.4 192.9l.6-.3.6-.4.6-.3.6-.2.7-.3.6-.2.7-.2.7-.2.6-.1.7-.2.7-.1.7-.1h.7l.7-.1h1.3l.7.1h.7l.7.1.7.1.6.1.7.2.7.2.6.2.7.2.6.2.7.3.6.3.6.3.6.3.6.4.6.4.6.3.5.5.6.4.5.4.5.5.5.5.5.5.4.5.4.5.5.6.4.5.3.6.4.6.3.6.4.6.3.6.2.7.3.6.2.7.2.6.2.7.2.7.1.6.1.7.1.7.1.7v.7l.1.7-.1.6v1.4l-.1.7-.1.7-.1.7-.2.6-.1.7-.2.7-.3.6-.2.7-.3.6-.2.6-.3.7-.4.6-.3.6-.4.5-.4.6-.4.6-.4.5-.4.5-.5.5-.5.5-.5.5-.5.5-.5.4-.6.5-.5.4-.6.3-.6.4-.6.4-.6.3-.6.3-.6.3-.7.2-.6.3-.7.2-.6.1-.7.2-.7.2-.7.1-.6.1-.7.1h-3.5l-.7-.1-.6-.1-.7-.1-.7-.1-.7-.2-.6-.2-.7-.2-.6-.2-.7-.3-.6-.3-.6-.3-.6-.3-.6-.3-.6-.4-.6-.4-.6-.4-.5-.4-.5-.4-.5-.5-.5-.5-.5-.5-.5-.5-.4-.5-.5-.5-.4-.6-.4-.6-.3-.5-.4-.6-.3-.7-.3-.6-.3-.6-.3-.6-.2-.7-.2-.6-.2-.7-.2-.6-.2-.7-.1-.7-.1-.7-.1-.7v-.7l-.1-.6v-.7l.1-.7v-.7l.1-.7v-.7l.2-.7.1-.6.2-.7.1-.7.2-.6.3-.7.2-.6.3-.7.3-.6.3-.6.3-.6.4-.6.4-.6.4-.5.4-.6.4-.5.5-.5.4-.5.5-.5.5-.5.5-.4.6-.5.5-.4.6-.4.6-.4zM30.2 168.7h115.9m302.2-1.9h1.5l1.4.1 1.5.1 1.5.2 1.4.2 1.5.3 1.4.3 1.5.4 1.4.4 1.4.5 1.4.5 1.3.6 1.4.6 1.3.7 1.3.7 1.3.7 1.2.8 1.2.8 1.2.9 1.2.9 1.1 1 1.1 1 1.1 1 1 1 1 1.1 1 1.2.9 1.1.8 1.2.9 1.2.8 1.3.7 1.3.7 1.3.7 1.3.6 1.3.5 1.4.6 1.4.4 1.4.5 1.4.3 1.4.4 1.5.2 1.4.3 1.5v.1l.1 1.4.2 1.4v1.5l.1 1.5m0 0h-5M405 166.8h43.3m-418.1 9.7V192m387.6-54.7l.2-.2.2-.2.2-.3.1-.2.2-.2.2-.3.1-.2.2-.3.1-.2.1-.3.2-.2.1-.3.1-.3.1-.3.1-.2v-.3l.1-.3v-.3l.1-.3v-.3l.1-.3v-.5m0 0V17m0 0v-.6l-.1-.3v-.3l-.1-.2v-.3l-.1-.3v-.3l-.1-.3-.1-.2-.1-.3-.1-.3-.2-.2-.1-.3-.1-.3-.2-.2-.1-.3-.2-.2-.2-.2-.1-.3-.2-.2-.2-.2-.2-.2-.2-.2-.2-.2-.3-.2-.2-.2-.2-.1-.3-.2-.2-.2-.3-.1-.2-.1-.3-.2-.2-.1-.3-.1-.3-.1-.3-.1-.2-.1-.3-.1h-.3l-.3-.1h-.3l-.3-.1h-.8"/><path class="st2" d="M411.8 8.5h-397v10.3h5.1v149.9h10.3v7.8h-5.1V199h5.1v-7h89.1"/><path class="st2" d="M119.3 192l-.6 1.3-.5 1.4-.5 1.3-.5 1.4-.4 1.4-.3 1.3-.3 1.4-.3 1.5-.2 1.4-.2 1.4-.1 1.4v1.5l-.1 1.4"/><path class="st2" d="M115.3 210.1v13.7l5-.1v-13.6m0 0v-1.2l.1-1.1.1-1.2.1-1.2.2-1.2.2-1.1.2-1.2.3-1.1.3-1.2.3-1.1.4-1.1.4-1.1.4-1.1.5-1.1.5-1 .5-1.1m0 0h8.1m0 0l-.6.9-.6 1-.6.9-.5 1-.4.9-.5 1-.4 1-.4 1.1-.3 1-.3 1-.3 1.1-.2 1.1-.2 1-.2 1.1-.1 1.1-.1 1.1v3.2l.1 1.1.1 1.1.1 1.1.2 1.1.2 1 .3 1.1.3 1 .3 1.1.4 1 .4 1 .4 1 .5 1 .5 1 .5.9.6.9.6.9.6.9.7.9.7.8.7.8.7.8.8.8.8.7.8.8.9.6.9.7.9.6.9.6.9.6 1 .5.9.5 1 .4 1 .4 1 .4 1.1.4 1 .3 1.1.3 1 .2 1.1.2 1.1.2 1 .1 1.1.1 1.1.1h2.2l1.1-.1 1.1-.1 1-.1 1.1-.2 1.1-.2 1.1-.2 1-.3 1-.3 1.1-.4 1-.4 1-.4 1-.4 1-.5.9-.5.9-.6 1-.6.9-.6.8-.7.9-.6.8-.8.8-.7.8-.8.7-.8.7-.8.7-.8.7-.9.6-.9.6-.9.6-.9.5-.9.5-1 .5-1 .4-1 .4-1 .4-1 .3-1.1.3-1 .3-1.1.2-1 .2-1.1.1-1.1.1-1.1.1-1.1v-3.2l-.1-1.1-.1-1.1-.2-1.1-.2-1-.2-1.1-.3-1.1-.3-1-.3-1-.4-1.1-.4-1-.4-1-.5-.9-.5-1-.6-.9-.6-1-.6-.9m0 0h8.1m0 0l.6 1.1.5 1.2.5 1.1.4 1.2.5 1.2.4 1.2.3 1.2.3 1.2.3 1.2.2 1.2.2 1.3.1 1.2.1 1.3.1 1.2v1.3m0 0v3.1H405v10.6l5-.1v-10.5h7m0 0l.1 1.1.2 1.1.2 1 .3 1.1.2 1 .3 1.1.4 1 .4 1 .4 1 .4 1 .5 1 .5.9.6 1 .6.9.6.9.6.9.7.8.7.8.7.8.8.8.8.8.8.7.8.7.9.6.8.7.9.6 1 .5.9.6 1 .5.9.5 1 .4 1 .4 1.1.4 1 .3 1 .3 1.1.3 1 .2 1.1.2 1.1.2 1.1.1 1 .1h3.3l1.1-.1 1.1-.1 1-.2 1.1-.1 1.1-.3 1-.2 1.1-.3 1-.3 1-.4 1-.4 1-.4 1-.5 1-.5.9-.5.9-.6.9-.6.9-.6.9-.7.8-.7.8-.7.8-.7.8-.8.7-.8.7-.8.7-.8.7-.9.6-.9.6-.9.5-.9.6-1 .4-1 .5-.9.4-1 .4-1 .4-1.1.3-1 .3-1.1.2-1 .2-1.1.2-1 .1-1.1.1-1.1m0 0h7v1.4m0 0v.9l.1.2v.4l.1.2v.2l.1.2v.2l.1.2v.2l.1.2.1.2.1.2v.2l.1.2.1.2.1.1.1.2.2.2.1.2.1.2.1.2.1.1.2.2.1.2.2.1.1.2.2.2.1.1.2.2.2.1.1.1.2.2.2.1.2.1.1.2.2.1.2.1.2.1.2.1.2.1.2.1.2.1.2.1h.2l.1.1.2.1h.2l.2.1h.2l.2.1h.4l.2.1h33l.2-.1h.8l.1-.1h.4l.2-.1h.2l.2-.1h.2l.2-.1.2-.1.2-.1h.2l.2-.1.2-.1.2-.1.2-.1.2-.1.2-.1.1-.1.2-.2.2-.1.2-.1.2-.2.1-.1.2-.1.2-.2.1-.1.2-.2.1-.2.2-.1.1-.2.1-.2.2-.1.1-.2.1-.2.1-.2.1-.2.1-.1.1-.2.1-.2.1-.2.1-.2.1-.2.1-.2v-.2l.1-.2.1-.2v-.2l.1-.2v-.2l.1-.2v-.6l.1-.2v-.7m0 0V113.2l-1.4-24.7m0 0l-.1-.9-.1-.9-.1-.8-.2-.9-.2-.9-.2-.8-.2-.9-.3-.8-.3-.9-.3-.8-.4-.8-.4-.8-.4-.7-.5-.8-.4-.8-.5-.7-.5-.7-.6-.7-.5-.7-.6-.6-.7-.7-.6-.6-.6-.6-.7-.5-.7-.6-.7-.5-.8-.5-.7-.5-.8-.4-.7-.4-.8-.4-.8-.4-.9-.3-.8-.3-.8-.3-.9-.2-.8-.3-.9-.2-.9-.1m0 0l-23.9-3.9m0 0l-.3-.1h-.6l-.2-.1h-.3m0 0h-53.2m0 0h-.3l-.3.1h-.5l-.3.1h-.3l-.3.1-.3.1h-.2l-.3.1-.3.1-.3.1-.2.2-.3.1-.2.1-.3.2-.2.1-.3.2-.2.2-.2.2-.3.1-.2.2-.2.2-.2.2-.2.3-.2.2-.2.2-.1.2-.2.3-.1.2-.2.3-.1.2-.2.3-.1.3-.1.2-.1.3-.1.3-.1.3v.2l-.1.3-.1.3v.6l-.1.3v.5m0 0v73.5h-13l5.4-5.4"/></g><path class="st3" d="M417.8 137.3l.2-.2.2-.2.2-.3.1-.2.2-.2.2-.3.1-.2.2-.3.1-.2.2-.3.1-.2.1-.3.1-.3.1-.3.1-.2v-.3l.1-.3.1-.3v-.6l.1-.2v-.6m0 0V17m0 0v-.6l-.1-.3v-.5l-.1-.3-.1-.3v-.3l-.1-.3-.1-.2-.1-.3-.1-.3-.1-.2-.2-.3-.1-.3-.2-.2-.1-.3-.2-.2-.2-.2-.1-.3-.2-.2-.2-.2-.2-.2-.2-.2-.2-.2-.3-.2-.2-.2-.2-.1-.3-.2-.2-.2-.3-.1-.2-.1-.3-.2-.2-.1-.3-.1-.3-.1-.3-.1-.2-.1-.3-.1h-.3l-.3-.1h-.3l-.3-.1h-.8"/><path class="st3" d="M411.8 8.5h-397v10.3h5.1v149.9h10.3v7.8h-5.1V199h5.1v-7h89.1"/><path class="st3" d="M119.3 192l-.6 1.3-.5 1.4-.5 1.3-.5 1.4-.4 1.4-.3 1.3-.3 1.4-.3 1.5-.2 1.4-.2 1.4-.1 1.4v1.5l-.1 1.4"/><path class="st3" d="M115.3 210.1v13.7l5-.1v-13.6m0 0v-1.2l.1-1.1.1-1.2.1-1.2.2-1.2.2-1.1.2-1.2.3-1.1.3-1.2.3-1.1.4-1.1.4-1.1.4-1.1.5-1.1.5-1 .5-1.1m0 0h8.1m0 0l-.6.9-.6 1-.6.9-.5 1-.4.9-.5 1-.4 1-.4 1.1-.3 1-.3 1-.3 1.1-.2 1.1-.2 1-.2 1.1-.1 1.1-.1 1.1v3.2l.1 1.1.1 1.1.1 1.1.2 1.1.2 1 .3 1.1.3 1 .3 1.1.4 1 .4 1 .4 1 .5 1 .5 1 .5.9.6.9.6.9.6.9.7.9.7.8.7.8.7.8.8.8.8.7.8.8.9.6.9.7.9.6.9.6.9.6 1 .5.9.5 1 .4 1 .4 1 .4 1.1.4 1 .3 1.1.3 1 .2 1.1.2 1.1.2 1 .1 1.1.1 1.1.1h2.2l1.1-.1 1.1-.1 1.1-.1 1-.2 1.1-.2 1.1-.2 1-.3 1.1-.3 1-.4 1-.4 1-.4 1-.4 1-.5.9-.5 1-.6.9-.6.9-.6.8-.7.9-.6.8-.8.8-.7.8-.8.7-.8.8-.8.6-.8.7-.9.6-.9.6-.9.6-.9.5-.9.5-1 .5-1 .4-1 .4-1 .4-1 .3-1.1.3-1 .3-1.1.2-1 .2-1.1.1-1.1.1-1.1.1-1.1v-3.2l-.1-1.1-.1-1.1-.2-1.1-.2-1-.2-1.1-.3-1.1-.3-1-.3-1-.4-1.1-.4-1-.4-1-.5-.9-.5-1-.6-.9-.5-1-.7-.9m0 0h8.1m0 0l.6 1.2.5 1.1.5 1.1.4 1.2.5 1.2.4 1.2.3 1.2.3 1.2.3 1.2.2 1.2.2 1.3.1 1.2.1 1.3.1 1.2v1.3m0 0v3.1H405v10.6l5-.1v-10.5h7m0 0l.1 1.1.2 1.1.2 1 .3 1.1.2 1 .3 1.1.4 1 .4 1 .4 1 .4 1 .5 1 .5.9.6 1 .6.9.6.9.6.9.7.8.7.8.7.8.8.8.8.8.8.7.8.7.9.6.8.7.9.6 1 .5.9.6 1 .5.9.5 1 .4 1 .4 1.1.4 1 .3 1 .3 1.1.3 1 .2 1.1.2 1.1.2 1.1.1 1 .1h3.3l1.1-.1 1.1-.1 1-.1 1.1-.2 1.1-.2 1-.3 1.1-.3 1-.3 1-.4 1-.4 1-.4 1-.5 1-.5.9-.5.9-.6.9-.6.9-.6.9-.7.8-.7.8-.7.8-.7.8-.8.7-.8.7-.8.7-.8.7-.9.6-.9.6-.9.5-.9.6-1 .4-1 .5-.9.4-1 .4-1 .4-1.1.3-1 .3-1.1.2-1 .2-1.1.2-1 .1-1.1.1-1.1m0 0h7v1.4m0 0v.9l.1.2v.4l.1.2v.2l.1.2v.2l.1.2v.2l.1.2.1.2.1.2v.2l.1.2.1.2.1.1.1.2.2.2.1.2.1.2.1.2.2.1.1.2.1.2.2.1.1.2.2.2.1.1.2.2.2.1.1.1.2.2.2.1.2.1.1.2.2.1.2.1.2.1.2.1.2.1.2.1.2.1.2.1h.2l.2.1.1.1h.2l.2.1h.2l.2.1h.4l.2.1h33l.2-.1h.8l.2-.1h.3l.2-.1h.2l.2-.1h.2l.2-.1.2-.1h.2l.2-.1.2-.1.2-.1.2-.1.2-.1.2-.1.2-.1.2-.1.1-.1.2-.2.2-.1.2-.2.1-.1.2-.1.2-.2.1-.1.2-.2.1-.2.2-.1.1-.2.1-.2.2-.1.1-.2.1-.2.1-.2.1-.2.1-.1.1-.2.1-.2.1-.2.1-.2.1-.2.1-.2v-.2l.1-.2.1-.2v-.2l.1-.2v-.2l.1-.2v-.6l.1-.2v-.7m0 0V113.2l-1.4-24.7m0 0l-.1-.9-.1-.9-.1-.8-.2-.9-.2-.9-.2-.8-.2-.9-.3-.8-.3-.8-.3-.9-.4-.8-.4-.8-.4-.7-.5-.8-.4-.8-.5-.7-.5-.7-.6-.7-.5-.7-.6-.6-.6-.7-.7-.6-.6-.6-.7-.5-.7-.6-.7-.5-.8-.5-.7-.5-.8-.4-.7-.4-.8-.4-.8-.4-.9-.3-.8-.3-.8-.3-.9-.2-.8-.3-.9-.2-.9-.1m0 0l-23.9-3.9m0 0l-.3-.1h-.6l-.2-.1h-.3m0 0h-53.2m0 0h-.3l-.3.1h-.5l-.3.1h-.3l-.3.1-.3.1h-.2l-.3.1-.3.1-.3.1-.2.2-.3.1-.2.1-.3.2-.2.1-.3.2-.2.2-.2.2-.3.1-.2.2-.2.2-.2.2-.2.3-.2.2-.2.2-.1.2-.2.3-.1.2-.2.3-.1.2-.2.3-.1.3-.1.2-.1.3-.1.3-.1.3v.2l-.1.3-.1.3v.6l-.1.3v.5m0 0v73.5h-13l5.4-5.4"/></svg>