<svg version="1.1" id="Layer_Closed_Pickup" xmlns="http://www.w3.org/2000/svg" x="0" y="0" viewBox="0 0 575.9 250" xml:space="preserve"><style>.st2,.st3{fill:none;stroke:#171f3c;stroke-linecap:round;stroke-linejoin:round;stroke-miterlimit:10}.st3{stroke-width:3}</style><path fill="#fff" d="M564.7 151.3v30.6l-.1.7v.8l-.1.8-.1.8-.2.7-.2.8-.2.7-.2.8-.2.7-.3.8-.3.7-.3.7-.4.7-.3.7-.4.7-.5.6-.4.6-.5.7-.4.6-.5.6-.6.6-.5.5-.6.6-.5.5-.6.5-.7.5-.6.5-.6.4-.7.4-.7.4-.7.4-.7.3-.7.3-.7.3-.7.3-.8.3-.7.2-.8.2-.7.2-.8.1-.8.1-.7.1-.8.1h-2.2l-.2-1.3h-12.1l.2 1 .2 1.1.2 1.1.1 1.1.1 1.1.1 1.1v2.1l-.1 1.1-.1 1.1-.1 1.1-.2 1.1-.2 1.1-.2 1-.3 1.1-.3 1.1-.4 1-.4 1-.4 1-.5 1-.5 1-.5.9-.6 1-.6.9-.6.9-.7.9-.7.8-.7.8-.7.8-.8.8-.8.8-.8.7-.9.7-.9.6-.9.7-.9.5-.9.6-1 .5-1 .5-1 .5-1 .4-1 .4-1 .4-1.1.3-1 .3-1.1.2-1.1.2-1.1.2-1 .1-1.1.1-1.1.1h-2.2l-1.1-.1-1.1-.1-1.1-.1-1.1-.2-1-.2-1.1-.2-1.1-.3-1-.3-1.1-.4-1-.4-1-.4-1-.5-1-.5-.9-.5-1-.6-.9-.5-.9-.7-.8-.6-.9-.7-.8-.7-.8-.8-.8-.8-.7-.8-.8-.8-.7-.8-.6-.9-.6-.9-.6-.9-.6-1-.5-.9-.5-1-.5-1-.4-1-.4-1-.4-1.1-.3-1-.3-1.1-.2-1-.3-1.1-.1-1.1-.2-1.1-.1-1.1V208l.1-1.1.1-1.1.2-1.1.2-1.1.3-1h-7.1l-.2 1.2-.2 1.2-.1 1.3-.1 1.3-.1 1.2v4.6l-4.9.1v-1.4l-.1-1.4v-1.3l.1-1.4.1-1.4.1-1.3.2-1.4H235.1v-13.6h-71.8l.7 1.3.6 1.4.5 1.3.5 1.4.5 1.4.4 1.4.4 1.4.3 1.4.3 1.5.2 1.4.2 1.5.1 1.5.1 1.4v4.6h-5v-5l-.1-1-.1-.9-.1-.9-.1-1-.2-.9-.1-.9h-7.1l.3 1 .2 1.1.2 1.1.1 1.1.1 1.1v1.1l.1 1.1-.1 1v1.1l-.1 1.1-.2 1.1-.1 1.1-.2 1.1-.3 1-.3 1.1-.3 1.1-.4 1-.4 1-.4 1-.5 1-.5 1-.5.9-.6 1-.5.9-.7.9-.6.9-.7.8-.7.8-.8.8-.8.8-.8.8-.8.7-.9.7-.8.6-.9.7-.9.5-1 .6-.9.5-1 .5-1 .5-1 .4-1 .4-1.1.4-1 .3-1.1.3-1.1.2-1 .2-1.1.2-1.1.1-1.1.1-1.1.1h-2.2l-1.1-.1-1.1-.1-1-.1-1.1-.2-1.1-.2-1.1-.2-1-.3-1.1-.3-1-.4-1-.4-1-.4-1-.5-1-.5-1-.5-.9-.6-.9-.5-.9-.7-.9-.6-.9-.7-.8-.7-.8-.8-.8-.8-.7-.8-.7-.8-.7-.8-.7-.9-.6-.9-.6-.9-.6-1-.5-.9-.5-1-.5-1-.4-1-.4-1-.3-1.1-.4-1-.3-1.1-.2-1-.2-1.1-.2-1.1-.1-1.1-.1-1.1-.1-1.1v-2.1l.1-1.1.1-1.1.1-1.1.2-1.1.2-1.1.2-1h-7l-.2 1.2-.2 1.2-.2 1.3-.1 1.3v1.2l-.1 1.3v3.4h-5v-3.4l.1-1v-1.9l.1-.9.1-.9.1-1 .2-.9.1-.9.2-.8.1-.8.2-.8.2-.8.2-.8.2-.8.3-.8.2-.7.3-.8.3-.8.3-.7.3-.8.3-.7.3-.7.4-.8.3-.7h-9.7v-10.9H39.2v14.8h-5.1v-14.8h-18V18.8h-5.2V8.5h284.7l.2.1h.3l.3.1h.3l.3.1.3.1.2.1.3.1.3.1.2.1.3.2.2.1.3.1.2.2.3.2.2.1.2.2.3.2.2.2.2.2.2.2.2.2.2.2.2.3.1.2.2.2.1.3.2.2.1.3.2.3.1.2.1.3.1.3.1.2.1.3v.3l.1.3.1.3v.5l.1.3v163h5.1V65.6l.1-.3V65l.1-.3v-.2l.1-.3v-.3l.1-.3.1-.3.1-.2.1-.3.2-.3.1-.2.1-.3.2-.2.1-.3.2-.2.2-.3.1-.2.2-.2.2-.2.2-.2.2-.2.2-.2.3-.2.2-.2.2-.2.3-.1.2-.2.3-.1.2-.2.3-.1.2-.1.3-.1.3-.1.3-.1.2-.1.3-.1h.3l.3-.1h.3l.3-.1h40.7l2.3.1 2.4.2 2.3.3 2.4.4 2.3.4 2.3.6 2.3.6 2.2.7 2.3.7 2.2.9 2.2.9 2.1 1 2.1 1 2.1 1.1 2 1.3 2 1.2 2 1.4 60.6 43.3h.1l.1.1.1.1.2.1h.1l.1.1h.1l.2.1h.1l.1.1h.3l.1.1h.2l88.8 14.2.8.1.8.2.7.2.8.2.8.3.7.2.7.3.7.3.8.4.6.3.7.4.7.5.7.4.6.5.6.4.6.5.6.6.6.5.5.6.6.5.5.6.5.7.4.6.5.6.4.7.4.7.4.7.3.7.4.7.3.7.3.8.2.7.2.8.2.7.2.8.2.8.1.7.1.8v.8l.1.8z" id="XMLID_13_"/><path d="M429.4 112.1l.1.1v.5l.1.1v.8l-.1.1v.4l-.1.2v.1l-.1.2v.1l-.1.1v.2l-.1.1-.1.1v.2l-.1.1-.1.1-.1.1-.1.1-.1.2v.1l-.1.1-.2.1-.1.1-.1.1-.1.1h-.1l-.1.1-.2.1-.1.1-.1.1h-.1l-.2.1h-.1l-.1.1h-.2l-.1.1h-.2l-.1.1h-3.7V106l5.3 3.7.1.1.1.1.1.1.1.1.1.1.1.1.1.1.1.1.1.1.1.2.1.1.1.1v.1l.1.2.1.1v.1l.1.2v.1l.1.2zM411 98.9l-.1.1v18h-75V73.1l.1-.1.1-.1.1-.1.1-.1.1-.1.1-.1.1-.1.1-.1.1-.1.1-.1.1-.1.1-.1.1-.1.1-.1.1-.1.1-.1.1-.1.1-.1.1-.1.1-.1.1-.1.1-.1h.1l.1-.1h17.5l1.9.1 1.9.2 1.9.2 1.9.3 1.9.4 1.9.4 1.9.5 1.9.6 1.8.6 1.8.7 1.8.8 1.8.8 1.7.9 1.7.9 1.7 1 1.6 1 1.6 1.1 25.6 18.3h-1.3l.2-.7z" fill="#171f3c"/><g id="XMLID_14_"><path class="st2" d="M498.4 150.1l2 .1 2.1.1 2 .2 2 .2 2.1.3 2 .4 2 .4 1.9.6 2 .5 1.9.7 2 .7 1.8.8 1.9.8 1.8.9 1.8 1 1.8 1 1.7 1.1 1.7 1.2 1.7 1.2 1.6 1.3 1.5 1.3 1.6 1.3 1.4 1.5 1.5 1.4 1.3 1.5 1.3 1.6m-389.4 7.2h147.8m-147.9 23.2l-.1-.8-.3-.7-.2-.7-.2-.7-.3-.7-.2-.7-.3-.6-.3-.7-.3-.7-.3-.6-.4-.7-.3-.6-.4-.6-.4-.6-.4-.6-.3-.6-.4-.4-.5-.7-.6-.7-.5-.7-.7-.7-.6-.7-.6-.6-.7-.7-.7-.6-.7-.6-.8-.5-.7-.6-.8-.5-.8-.6-.8-.4-.8-.5-.9-.4-.8-.5-.9-.4-.8-.3-.9-.4-.9-.3-.9-.2-.9-.3-.9-.2-.9-.2-.9-.2-.9-.1-1-.2h-.9l-.9-.1h-3.6l-.9.1-.9.1-.9.1-.9.1-.9.2-.9.2-.9.3-.9.2-.9.3-.9.3-.9.4-.9.3-.8.4-.9.4-.8.5-.8.5-.8.4-.8.6-.8.5-.7.6-.8.5-.7.6-.7.7-.6.6-.7.7-.6.6-.6.7-.6.7-.6.7-.5.7-.6.9-.4.6-.4.6-.3.6-.4.6-.3.7-.3.6-.3.7-.3.7-.3.6-.3.7-.2.7-.3.7-.2.7-.2.7-.2.8m-17.7-23.2h17.7"/><path class="st2" d="M162.4 202.6l-.3-1.4-.3-1.2-.4-1.3-.4-1.3-.5-1.2-.5-1.3-.6-1.2-.5-1.2-.7-1.1-.6-1.2-.8-1.1-.7-1.1-.8-1.1-.8-1-.9-1-.9-1-.9-1-1-.9-.9-.9-1.1-.9-1-.8-1.1-.7-1.1-.8-1.1-.7-1.2-.6-1.2-.7-1.2-.6-1.2-.5-1.2-.5-1.3-.4-1.2-.5-1.3-.3-1.3-.3-1.3-.3-1.3-.3-1.3-.1-1.4-.2-1.3-.1h-4l-1.3.1-1.3.2-1.3.1-1.4.3-1.3.3-1.2.3-1.3.3-1.3.5-1.2.4-1.3.5-1.2.5-1.2.6-1.2.7-1.1.6-1.2.7-1.1.8-1 .7-1.1.8-1 .9-1 .9-1 .9-.9 1-.9 1-.8 1-.9 1-.8 1.1-.7 1.1-.7 1.1-.7 1.2-.6 1.1-.6 1.2-.6 1.2-.5 1.3-.4 1.2-.4 1.3-.4 1.3-.3 1.2-.3 1.4"/><path class="st2" d="M114.9 192.9l.4-.2.4-.2.4-.3.4-.1.4-.2.4-.2.5-.2.4-.1.4-.2.5-.1.5-.2.4-.1.5-.1.5-.1.4-.1.5-.1h.5l.5-.1h.5l.5-.1h2l.5.1h.5l.6.1.5.1.5.1.5.1.5.1.5.1.5.1.5.2.4.2.5.1.5.2.5.2.4.2.5.3.4.2.5.2.4.3.4.3.5.2.4.3.4.3.4.3.3.3.4.4.4.3.3.3.4.3.3.4.3.3.3.4.3.4.3.3.3.4.3.4.2.3.3.4.2.4.2.4.2.3.3.4.2.4.1.4.2.5.2.4.2.4.1.5.2.4.1.4.2.5.1.5.1.4.1.5.1.5.1.5v.5l.1.5v.5l.1.5v2l-.1.5v.5l-.1.5-.1.5v.5l-.2.5-.1.5-.1.5-.1.5-.2.5-.1.5-.2.5-.2.5-.2.4-.2.5-.3.4-.2.5-.2.4-.3.5-.3.4-.2.4-.3.4-.3.4-.3.4-.3.4-.3.4-.4.3-.3.4-.3.3-.4.3-.3.4-.4.3-.3.3-.4.3-.4.2-.3.3-.4.3-.4.2-.4.2-.3.3-.4.2-.4.2-.4.2-.4.2-.4.2-.5.2-.4.1-.4.2-.5.2-.4.1-.5.1-.5.1-.4.2-.5.1h-.5l-.5.1-.5.1h-.5l-.4.1h-3.1l-.5-.1h-.5l-.5-.1-.5-.1-.5-.1-.5-.1-.5-.1-.5-.2-.5-.1-.5-.2-.5-.2-.4-.2-.5-.2-.5-.2-.4-.2-.5-.2-.4-.3-.5-.2-.4-.3-.4-.3-.4-.3-.4-.3-.4-.3-.4-.3-.4-.3-.3-.3-.4-.3-.3-.4-.3-.3-.4-.4-.3-.3-.3-.4-.3-.4-.2-.3-.3-.4-.3-.4-.2-.3-.2-.4-.3-.4-.2-.4-.2-.4-.2-.4-.2-.4-.2-.4-.2-.4-.1-.4-.2-.5-.1-.4-.2-.5-.1-.4-.1-.5-.1-.5-.1-.4-.1-.5-.1-.5-.1-.5v-.5l-.1-.5v-3l.1-.5v-.5l.1-.5.1-.6.1-.5.1-.5.1-.5.2-.5.1-.4.2-.5.2-.5.2-.5.2-.5.2-.4.2-.5.2-.4.3-.5.2-.4.3-.4.3-.4.3-.5.3-.4.3-.4.3-.3.3-.4.3-.4.4-.3.3-.4.3-.3.4-.3.3-.3.4-.3.4-.3.3-.3.4-.3.4-.2.3-.3.4-.2zm-28.6-2.6l.7-1.3.8-1.3.8-1.3.9-1.3.9-1.2.9-1.2 1-1.1 1-1.1 1-1.1 1.1-1.1 1.1-1 1.2-.9 1.2-1 1.2-.9 1.3-.8 1.3-.8 1.3-.7 1.3-.7 1.4-.7 1.3-.6 1.5-.6 1.4-.5 1.4-.4m0 0l1.5-.5 1.4-.3 1.5-.3 1.5-.3 1.5-.2 1.5-.1 1.4-.1 1.6-.1h1.5l1.5.1 1.5.1 1.5.1 1.4.2 1.5.3 1.5.3 1.4.4 1.5.4 1.4.5 1.4.5 1.4.5 1.4.7 1.4.6 1.3.7 1.3.8 1.3.8 1.2.8 1.2.9 1.2.9 1.2 1 1.1 1 1.1 1 1 1.1 1 1.1 1 1.2.9 1.1.9 1.3.8 1.2.8 1.3.8 1.3.7 1.3m-51.6-21.6h.6m-73.1 10.7h-5.1m.8-21h249.5m8.5-131.1v122.6m0 0v.5l-.1.3v.6l-.1.3-.1.3v.3l-.1.2-.1.3-.1.3-.1.2-.1.3-.2.3-.1.2-.2.3-.1.2-.2.3-.2.2-.1.2-.2.3-.2.2-.2.2-.2.2-.2.2-.3.2-.2.1-.2.2-.3.2-.2.1-.3.2-.2.1-.3.1-.2.2-.3.1-.3.1-.3.1h-.2l-.3.1-.3.1h-.3l-.3.1h-.5l-.3.1h-.3m0-139.6H34.9m258 8.5v-.6l-.1-.3v-.6l-.1-.2-.1-.3V25l-.1-.3-.1-.3-.1-.2-.1-.3-.1-.3-.2-.2-.1-.3-.1-.2-.2-.3-.2-.2-.1-.2-.2-.3-.2-.2-.2-.2-.2-.2-.2-.2-.2-.2-.2-.2-.3-.2-.2-.2-.2-.1-.3-.2-.2-.1-.3-.2-.3-.1-.2-.1-.3-.1-.3-.1-.2-.1-.3-.1-.3-.1h-.3l-.3-.1h-.2l-.3-.1h-.9m-258 8.5v122.6m0-122.6v-1.2l.1-.3v-.2l.1-.3.1-.3.1-.3.1-.3.1-.2.1-.3.1-.3.1-.2.2-.3.1-.2.2-.3.1-.2.2-.2.2-.3.2-.2.2-.2.2-.2.2-.2.2-.2.2-.2.2-.2.3-.2.2-.1.3-.2.2-.1.3-.2.2-.1.3-.1.2-.1.3-.1.3-.1.3-.1.3-.1h.2l.3-.1h.3l.3-.1h.9m-8.5 131.1v1.1l.1.3v.3l.1.3.1.3.1.2.1.3.1.3.1.2.1.3.1.3.2.2.1.3.2.2.1.3.2.2.2.2.2.3.2.2.2.2.2.2.2.2.2.2.2.1.3.2.2.2.3.1.2.2.3.1.2.1.3.2.2.1.3.1.3.1h.3l.3.1.2.1h.3l.3.1h.6l.3.1h.3m273.4 45.5v-24.5m147.3 24.5l.2-1.4.3-1.5.3-1.5.4-1.5.5-1.4.5-1.4.5-1.4.6-1.4.6-1.4.7-1.3.8-1.3.7-1.3.9-1.3.8-1.2.9-1.2 1-1.2 1-1.1 1-1.1 1.1-1.1 1.1-1 1.1-1 1.2-1 1.2-.9 1.2-.8 1.3-.8 1.3-.8 1.3-.7 1.4-.7 1.3-.7 1.4-.6 1.4-.5 1.4-.5 1.5-.4 1.4-.4 1.5-.3 1.5-.3 1.5-.3 1.5-.2 1.5-.1 1.5-.1h1.5m0 0h1.5l1.5.1 1.5.1 1.5.2 1.4.3 1.5.2 1.5.4 1.4.4 1.4.4 1.4.5 1.4.5 1.4.6 1.4.6 1.3.7 1.3.7 1.3.8 1.3.8 1.2.8 1.2.9 1.2.9 1.1 1 1.1 1 1.1 1.1 1 1.1 1 1.1 1 1.1.9 1.2.8 1.2.9 1.3.7 1.3.8 1.3.7 1.3.6 1.3m0 0l.6 1.3.5 1.3.5 1.3.4 1.3.4 1.3.3 1.4.3 1.3.3 1.4m-12.1 0l-.2-.8-.2-.7-.2-.7-.3-.7-.2-.7-.3-.7-.3-.6-.2-.7-.4-.7-.3-.6-.3-.7-.4-.6-.3-.6-.4-.6-.4-.6-.4-.6-.3-.4-.5-.7-.6-.7-.6-.7-.6-.7-.6-.7-.7-.6-.7-.7-.7-.6-.7-.6-.7-.5-.8-.6-.7-.5-.8-.6-.8-.4-.9-.5-.8-.4-.8-.5-.9-.4-.9-.3-.9-.4-.9-.3-.8-.2-.9-.3-1-.2-.9-.2-.9-.2-.9-.1-.9-.2h-.9l-.9-.1h-3.6l-.9.1-.9.1-.9.1-.9.1-1 .2-.9.2-.9.3-.9.2-.9.3-.8.3-.9.4-.9.3-.9.4-.8.4-.8.5-.9.5-.8.4-.8.6-.7.5-.8.6-.7.5-.7.6-.7.7-.7.6-.6.7-.7.6-.6.7-.6.7-.5.7-.5.7-.6.9-.4.6-.4.6-.4.6-.3.6-.4.7-.3.6-.3.7-.3.7-.3.6-.2.7-.3.7-.2.7-.2.7-.2.7-.2.8m-232.8-23.2v10.9m310.2-61.6H544l-.1.1h-.2l-.1.1h-.2l-.1.1-.2.1h-.1l-.1.1h-.1l-.1.1-.1.1-.1.1-.1.1h-.1l-.1.1-.1.1-.1.1-.1.1-.1.1-.1.1v.1l-.1.2-.1.1v.1l-.1.1v.1l-.1.1v.2l-.1.1v.1l-.1.1v.4l-.1.2v.7l.1.2v.4l.1.1v.2l.1.2v.1l.1.1.1.1v.1l.1.2.1.1v.1l.1.1.1.1.1.1.1.1.1.1.1.1v.1h.1l.2.1.1.1.1.1h.1l.1.1.1.1h.1l.2.1h.1l.1.1h.2l.2.1h.2m20.5 16l-1-.2-.9-.2-1-.2-.9-.1-1-.1-.9-.1h-1.9m-12.9-15.1l.6.1.5.1.5.2.5.1.5.2.5.1.5.2.4.3.5.2.5.2.4.3.5.3.4.3.4.3.5.3.4.3.4.4.3.3.4.4.4.4.3.4.3.4.3.4.3.5.3.4.3.5.2.4.3.5.2.5.2.4.2.5.1.5.2.5.1.5.2.6v.5l.1.5.1.5v.5l.1.6v.5"/><path class="st2" d="M535.9 202.6l-.3-1.4-.3-1.2-.4-1.3-.4-1.3-.4-1.2-.6-1.3-.5-1.2-.6-1.2-.6-1.1-.7-1.2-.7-1.1-.7-1.1-.8-1.1-.9-1-.8-1-.9-1-.9-1-1-.9-1-.9-1-.9-1.1-.8-1-.7-1.1-.8-1.2-.7-1.1-.7-1.2-.6-1.2-.6-1.2-.5-1.3-.5-1.2-.4-1.3-.5-1.3-.3-1.2-.3-1.3-.3-1.4-.3-1.3-.1-1.3-.2-1.3-.1h-4l-1.3.1-1.4.2-1.3.1-1.3.3-1.3.3-1.3.3-1.3.3-1.2.5-1.3.4-1.2.5-1.2.5-1.2.6-1.2.6-1.2.7-1.1.7-1.1.8-1.1.7-1 .8-1.1.9-1 .9-.9.9-.9 1-.9 1-.9 1-.8 1-.8 1.1-.8 1.1-.7 1.1-.6 1.2-.7 1.1-.6 1.2-.5 1.2-.5 1.3-.5 1.2-.4 1.3-.4 1.3-.3 1.2-.3 1.4M437.7 140h.4v.1h.1v.1h.1v.1h.1v.1h.1v.3m0 0v1.7m0 0v.3h-.1v.2h-.1v.1h-.1v.1h-.2v.1h-.3m0 0h-4.2m0 0h-.3v-.1h-.2v-.1h-.1v-.1h-.1v-.2h-.1v-.3m0 0v-1.7m0 0v-.2l.1-.1v-.1h.1v-.1h.1v-.1h.1v-.1h.4m0 0h4.2m-95.5-8.9v-8m0 0v-.2h-.1v-.2h-.1v-.1l-.1-.1-.1-.1h-.1v-.1h-.4m0 0h-4.8m0 0h-.3v.1h-.2v.1h-.1v.1h-.1v.2h-.1v.3m0 0v8m0 0v.3h.1v.1l.1.1v.1h.1l.1.1h.1v.1h.3m0 0h4.8m0 0h.3l.1-.1h.1v-.1h.1l.1-.1v-.1h.1v-.2l.1-.1v-.1m80.3-13.7h2.8m-89.6 0h75m11.8-16.5l18.4 13.1M326.3 66h28m0 0h2.1l2.1.1 2 .2 2.1.2 2 .4 2.1.3 2 .5 2 .5 2 .6 2 .7 1.9.7 1.9.8 1.9.9 1.9.9 1.8 1 1.8 1.1 1.8 1.1 1.7 1.2m0 0l30.3 21.7m2.8 7.1l5.3 3.7M340 70.1h14.3m0 0h1.9l2 .1 1.9.2 1.9.2 1.9.3 1.9.4 1.9.4 1.9.5 1.9.6 1.8.6 1.8.7 1.8.7 1.7.8 1.8.9 1.7.9 1.6 1 1.7 1.1 1.6 1.1m0 0l25.6 18.3m0 0h-1.3V119h10.6V99.5h-2.2l-7.1-.6zm12.7 18.5h.9l.1-.1h.2l.1-.1h.2l.1-.1h.1l.2-.1h.1l.1-.1.1-.1.2-.1.1-.1h.1l.1-.1.1-.1.1-.1.2-.1.1-.1v-.1l.1-.2.1-.1.1-.1.1-.1.1-.1v-.2l.1-.1.1-.1v-.2l.1-.1v-.1l.1-.2v-.1l.1-.2v-.4l.1-.1v-.8l-.1-.1v-.5l-.1-.1v-.1l-.1-.2v-.1l-.1-.2v-.1l-.1-.1-.1-.2v-.1l-.1-.1-.1-.1-.1-.2-.1-.1-.1-.1-.1-.1-.1-.1-.1-.1-.1-.1-.1-.1-.1-.1-.1-.1m-92.1-35.4v-.5l.1-.2v-.3l.1-.1v-.3l.1-.1v-.1l.1-.2.1-.1v-.1l.1-.2.1-.1.1-.1.1-.1.1-.1v-.1l.1-.2.1-.1.1-.1.2-.1.1-.1h.1l.1-.1.1-.1.1-.1.2-.1h.1l.1-.1.2-.1h.1l.1-.1h.2l.1-.1h.4l.2-.1h.6m-4.3 4.2v43.1M322 70.2v-.4l.1-.2v-.4l.1-.1v-.2l.1-.1v-.1l.1-.2v-.1l.1-.2.1-.1V68l.1-.1.1-.1.1-.2.1-.1.1-.1.1-.1.1-.1.1-.1.1-.1.1-.1.1-.1.1-.1h.1l.2-.1.1-.1.1-.1h.1l.2-.1.1-.1h.3l.1-.1h.2l.1-.1h.9m-4.3 4.2v121.2m4.3 4.3h-.3l-.2-.1h-.4l-.1-.1h-.3l-.2-.1h-.1l-.1-.1-.2-.1h-.1l-.1-.1-.1-.1h-.2l-.1-.1-.1-.1-.1-.1-.1-.1-.1-.1-.1-.1-.1-.1-.1-.1-.1-.1-.1-.1-.1-.1-.1-.2-.1-.1v-.1l-.1-.1-.1-.2v-.1l-.1-.1v-.2l-.1-.1v-.1l-.1-.2v-.4l-.1-.2v-.4m4.3 4.3h116.3m-1.7-81.7l.1.1.1.1h.1l.1.1.1.1.1.2.1.1.1.1.1.1.1.1.1.1v.1l.1.2.1.1v.1l.1.2v.1l.1.1v.2l.1.1v.1l.1.2v.8m0 0v86.5"/><path class="st2" d="M488.5 192.9l.3-.2.4-.2.4-.3.4-.1.5-.2.4-.2.4-.2.5-.1.4-.2.5-.1.4-.2.5-.1.4-.1.5-.1.5-.1.5-.1h.5l.5-.1h.5l.5-.1h2l.5.1h.5l.5.1.5.1.5.1.5.1.5.1.5.1.5.1.5.2.5.2.5.1.5.2.4.2.5.2.4.3.5.2.4.2.5.3.4.3.4.2.4.3.4.3.4.3.4.3.4.4.3.3.4.3.3.3.4.4.3.3.3.4.3.4.3.3.3.4.2.4.3.3.2.4.3.4.2.4.2.3.2.4.2.4.2.4.2.5.2.4.1.4.2.5.2.4.1.4.1.5.2.5.1.4.1.5.1.5v.5l.1.5.1.5v3.5l-.1.5v.5l-.1.5-.1.5-.1.5-.1.5-.1.5-.2.5-.1.5-.2.5-.2.5-.2.5-.2.4-.2.5-.2.4-.2.5-.3.4-.2.5-.3.4-.3.4-.3.4-.2.4-.4.4-.3.4-.3.4-.3.3-.3.4-.4.3-.3.3-.4.4-.3.3-.4.3-.3.3-.4.2-.4.3-.4.3-.3.2-.4.2-.4.3-.4.2-.4.2-.4.2-.4.2-.4.2-.4.2-.4.1-.5.2-.4.2-.5.1-.4.1-.5.1-.5.2-.4.1h-.5l-.5.1-.5.1h-.5l-.5.1h-3l-.5-.1h-.5l-.5-.1-.5-.1-.6-.1-.5-.1-.5-.1-.4-.2-.5-.1-.5-.2-.5-.2-.5-.2-.5-.2-.4-.2-.5-.2-.4-.2-.5-.3-.4-.2-.4-.3-.4-.3-.5-.3-.4-.3-.3-.3-.4-.3-.4-.3-.4-.3-.3-.3-.4-.4-.3-.3-.3-.4-.3-.3-.3-.4-.3-.4-.3-.3-.2-.4-.3-.4-.2-.3-.3-.4-.2-.4-.2-.4-.2-.4-.2-.4-.2-.4-.2-.4-.2-.4-.2-.4-.1-.5-.2-.4-.1-.5-.2-.4-.1-.5-.1-.5-.1-.4-.1-.5-.1-.5v-.5l-.1-.5v-1l-.1-.5v-1l.1-.5v-1l.1-.5.1-.5.1-.6.1-.5.1-.5.1-.5.1-.5.2-.4.2-.5.1-.5.2-.5.2-.5.2-.4.3-.5.2-.4.2-.5.3-.4.3-.4.2-.4.3-.5.3-.4.3-.4.3-.3.4-.4.3-.4.3-.3.3-.4.4-.3.3-.3.4-.3.4-.3.3-.3.4-.3.4-.3.3-.2.4-.3.4-.2zM308.3 66.2v-.6l.1-.3V65l.1-.3v-.2l.1-.3v-.3l.1-.3.1-.3.1-.2.1-.3.2-.3.1-.2.1-.3.2-.2.1-.3.2-.2.2-.3.1-.2.2-.2.2-.2.2-.2.2-.2.2-.2.3-.2.2-.2.2-.2.3-.1.2-.2.3-.1.2-.2.3-.1.2-.1.3-.1.3-.1.3-.1.2-.1.3-.1h.3l.3-.1h.3l.3-.1h.8m0 0h37.5m0 0h2.4l2.3.1 2.4.2 2.3.3 2.4.4 2.3.4 2.3.6 2.3.6 2.2.7 2.3.7 2.2.9 2.2.9 2.1 1 2.1 1 2.1 1.1 2 1.3 2 1.2 2 1.4m0 0l60.6 43.3m0 0h.1l.1.1.1.1.2.1h.1l.1.1h.1l.2.1h.1l.1.1h.3l.1.1h.2m0 0l88.7 14.2h.1m0 0l.8.1.8.2.7.2.8.2.8.3.7.2.7.3.7.3.8.4.6.3.7.4.7.5.7.4.6.5.6.4.6.5.6.6.6.5.5.6.6.5.5.6.5.7.4.6.5.6.4.7.4.7.4.7.3.7.4.7.3.7.3.8.2.7.2.8.2.7.2.8.2.8.1.7.1.8v.8l.1.8v.8m0 0v29.8m0 0v.8l-.1.7v.8l-.1.8-.1.8-.2.7-.2.8-.2.7-.2.8-.2.7-.3.8-.3.7-.3.7-.4.7-.3.7-.4.7-.5.6-.4.6-.5.7-.4.6-.5.6-.6.6-.5.5-.6.6-.5.5-.6.5-.7.5-.6.5-.6.4-.7.4-.7.4-.7.4-.7.3-.7.3-.7.3-.7.3-.8.3-.7.2-.8.2-.7.2-.8.1-.8.1-.7.1-.8.1h-1.6m0 0h-.6m0 0l-.2-1.3m0 0h-12.1"/><path class="st2" d="M528.9 202.6l.2 1 .2 1.1.2 1.1.1 1.1.1 1.1.1 1.1v2.1l-.1 1.1-.1 1.1-.1 1.1-.2 1.1-.2 1.1-.2 1-.3 1.1-.3 1.1-.4 1-.4 1-.4 1-.5 1-.5 1-.5.9-.6 1-.6.9-.6.9-.7.9-.7.8-.7.8-.7.8-.8.8-.8.8-.8.7-.9.7-.9.6-.9.7-.9.5-.9.6-1 .5-1 .5-1 .5-1 .4-1 .4-1 .4-1.1.3-1 .3-1.1.2-1.1.2-1.1.2-1 .1-1.1.1-1.1.1h-2.2l-1.1-.1-1.1-.1-1.1-.1-1.1-.2-1-.2-1.1-.2-1.1-.3-1-.3-1.1-.4-1-.4-1-.4-1-.5-1-.5-.9-.5-1-.6-.9-.5-.9-.7-.8-.6-.9-.7-.8-.7-.8-.8-.8-.8-.7-.8-.8-.8-.7-.8-.6-.9-.6-.9-.6-.9-.6-1-.5-.9-.5-1-.5-1-.4-1-.4-1-.4-1.1-.3-1-.3-1.1-.2-1-.3-1.1-.1-1.1-.2-1.1-.1-1.1V208l.1-1.1.1-1.1.2-1.1.2-1.1.3-1m0 0h-7.1m0 0l-.2 1.2-.2 1.2-.1 1.3-.1 1.3-.1 1.2v1.3m0 0v3.3l-4.9.1m0 0v-1.4l-.1-1.4v-1.3l.1-1.4.1-1.4.1-1.3.2-1.4"/><path class="st2" d="M455.6 203.9H235.1v-13.6h-71.8m0 0l.7 1.3.6 1.4.5 1.3.5 1.4.5 1.4.4 1.4.4 1.4.3 1.4.3 1.5.2 1.4.2 1.5.1 1.5.1 1.4v1.5"/><path class="st2" d="M168.1 210.1v3.1h-5v-3.1m0 0v-1.9l-.1-1-.1-.9-.1-.9-.1-1-.2-.9-.1-.9m0 0h-7.1m0 0l.3 1 .2 1.1.2 1.1.1 1.1.1 1.1v1.1l.1 1.1-.1 1v1.1l-.1 1.1-.2 1.1-.1 1.1-.2 1.1-.3 1-.3 1.1-.3 1.1-.4 1-.4 1-.4 1-.5 1-.5 1-.5.9-.6 1-.5.9-.7.9-.6.9-.7.8-.7.8-.8.8-.8.8-.8.8-.8.7-.9.7-.8.6-.9.7-.9.5-1 .6-.9.5-1 .5-1 .5-1 .4-1 .4-1.1.4-1 .3-1.1.3-1.1.2-1 .2-1.1.2-1.1.1-1.1.1-1.1.1h-2.2l-1.1-.1-1.1-.1-1-.1-1.1-.2-1.1-.2-1.1-.2-1-.3-1.1-.3-1-.4-1-.4-1-.4-1-.5-1-.5-1-.5-.9-.6-.9-.5-.9-.7-.9-.6-.9-.7-.8-.7-.8-.8-.8-.8-.7-.8-.7-.8-.7-.8-.7-.9-.6-.9-.6-.9-.6-1-.5-.9-.5-1-.5-1-.4-1-.4-1-.3-1.1-.4-1-.3-1.1-.2-1-.2-1.1-.2-1.1-.1-1.1-.1-1.1-.1-1.1v-2.1l.1-1.1.1-1.1.1-1.1.2-1.1.2-1.1.2-1m0 0h-7m0 0l-.2 1.2-.2 1.2-.2 1.3-.1 1.3v1.2l-.1 1.3m0 0v3.4h-5v-3.4m0 0l.1-1v-1.9l.1-.9.1-.9.1-1 .2-.9.1-.9.2-.8.1-.8.2-.8.2-.8.2-.8.2-.8.3-.8.2-.7.3-.8.3-.8.3-.7.3-.8.3-.7.3-.7.4-.8.3-.7"/><path class="st2" d="M86.3 190.3h-9.7v-10.9H39.2v14.8h-5.1v-14.8h-18V18.8h-5.2V8.5h283.8m0 0h.9l.2.1h.3l.3.1h.3l.3.1.3.1.2.1.3.1.3.1.2.1.3.2.2.1.3.1.2.2.3.2.2.1.2.2.3.2.2.2.2.2.2.2.2.2.2.2.2.3.1.2.2.2.1.3.2.2.1.3.2.3.1.2.1.3.1.3.1.2.1.3v.3l.1.3.1.3v.5l.1.3v.6m0 0v162.4h5.1V66.2"/></g><path class="st2" d="M532 182.7h33"/><path class="st3" d="M308.3 66.2v-.6l.1-.3v-.6l.1-.2.1-.3v-.3l.1-.3.1-.3.1-.2.1-.3.1-.3.2-.2.1-.3.2-.2.1-.3.2-.2.2-.3.1-.2.2-.2.2-.2.2-.2.2-.2.2-.2.3-.2.2-.2.2-.2.3-.1.2-.2.3-.1.2-.2.3-.1.2-.1.3-.1.3-.1.3-.1.2-.1.3-.1h.3l.3-.1h.3l.3-.1h.8m0 0h37.5m0 0h2.4l2.3.1 2.4.3 2.3.2 2.4.4 2.3.4 2.3.6 2.3.6 2.2.7 2.3.7 2.2.9 2.2.9 2.1 1 2.1 1 2.1 1.1 2 1.3 2 1.2 2 1.4m0 0l60.6 43.3m0 0h.1l.1.1.1.1.2.1h.1l.1.1h.1l.2.1h.1l.1.1h.3l.1.1h.2m0 0l88.8 14.2m0 0l.8.1.8.2.7.2.8.2.7.3.8.2.7.3.7.3.8.4.6.3.7.4.7.5.7.4.6.5.6.4.6.5.6.6.6.5.5.6.6.6.5.5.5.7.4.6.5.6.4.7.4.7.4.7.3.7.4.7.3.7.2.8.3.7.2.8.2.7.2.8.2.8.1.7.1.8v.8l.1.8v.8m0 0v29.8m0 0v.8l-.1.7v.8l-.1.8-.1.8-.2.7-.2.8-.2.7-.2.8-.2.7-.3.8-.3.7-.3.7-.4.7-.3.7-.4.7-.5.6-.4.6-.5.7-.4.6-.5.6-.6.6-.5.5-.6.6-.5.5-.6.5-.7.5-.6.5-.6.4-.7.4-.7.4-.7.4-.7.3-.7.3-.7.3-.7.3-.8.3-.7.2-.8.2-.7.2-.8.1-.8.1-.7.1-.8.1h-1.6m0 0h-.6m0 0l-.2-1.3m0 0h-12.1m0 0l.2 1 .2 1.1.2 1.1.1 1.1.1 1.1.1 1.1v2.1l-.1 1.1-.1 1.1-.1 1.1-.2 1.1-.2 1.1-.2 1-.3 1.1-.3 1.1-.4 1-.4 1-.4 1-.5 1-.5 1-.5.9-.6 1-.6.9-.6.9-.7.9-.7.8-.7.8-.7.8-.8.8-.8.8-.8.7-.9.7-.9.6-.9.7-.9.5-.9.6-1 .5-1 .5-1 .5-1 .4-1 .4-1 .4-1.1.3-1 .3-1.1.2-1.1.2-1.1.2-1 .1-1.1.1-1.1.1h-2.2l-1.1-.1-1.1-.1-1.1-.1-1.1-.2-1-.2-1.1-.2-1.1-.3-1-.3-1.1-.4-1-.4-1-.4-1-.5-1-.5-.9-.5-1-.6-.9-.5-.9-.7-.8-.6-.9-.7-.8-.7-.8-.8-.8-.8-.8-.8-.7-.8-.7-.8-.6-.9-.7-.9-.5-.9-.6-1-.5-.9-.5-1-.5-1-.4-1-.4-1-.4-1.1-.3-1-.3-1.1-.2-1-.3-1.1-.1-1.1-.2-1.1-.1-1.1V208l.1-1.1.1-1.1.2-1.1.2-1.1.3-1m0 0h-7.1m0 0l-.2 1.2-.2 1.2-.1 1.3-.1 1.3-.1 1.2v1.3m0 0v3.3l-4.9.1m0 0v-1.4l-.1-1.4v-1.3l.1-1.4v-1.3l.2-1.4.2-1.4m0 0H235.1v-13.6h-71.8m0 0l.7 1.3.6 1.4.5 1.3.5 1.4.5 1.4.4 1.4.4 1.4.3 1.4.3 1.5.2 1.4.2 1.5.1 1.5.1 1.4v1.5"/><path class="st3" d="M168.1 210.1v3.1h-5v-3.1m0 0v-1.9l-.1-1-.1-.9-.1-.9-.1-1-.2-.9-.1-.9m0 0h-7.1m0 0l.3 1 .2 1.1.2 1.1.1 1.1.1 1.1v4.3l-.1 1.1-.2 1.1-.1 1.1-.3 1.1-.2 1-.3 1.1-.3 1.1-.4 1-.4 1-.4 1-.5 1-.5 1-.5.9-.6 1-.6.9-.6.9-.6.9-.7.8-.8.8-.7.8-.8.8-.8.8-.8.7-.9.7-.8.6-.9.7-.9.5-1 .6-.9.5-1 .5-1 .5-1 .4-1 .4-1.1.4-1 .3-1.1.3-1.1.2-1 .2-1.1.2-1.1.1-1.1.1-1.1.1h-2.2l-1.1-.1-1.1-.1-1-.1-1.1-.2-1.1-.2-1.1-.2-1-.3-1.1-.3-1-.4-1-.4-1-.4-1-.5-1-.5-1-.5-.9-.6-.9-.5-.9-.7-.9-.6-.9-.7-.8-.7-.8-.8-.8-.8-.7-.8-.7-.8-.7-.8-.7-.9-.6-.9-.6-.9-.6-1-.5-.9-.5-1-.5-1-.4-1-.4-1-.4-1.1-.3-1-.3-1.1-.2-1-.2-1.1-.2-1.1-.1-1.1-.1-1.1-.1-1.1v-2.1l.1-1.1.1-1.1.1-1.1.2-1.1.2-1.1.2-1m0 0h-7m0 0l-.3 1.2-.1 1.3-.2 1.2-.1 1.3v1.2l-.1 1.3m0 0v3.4h-5v-3.4m0 0l.1-1v-1.9l.1-.9.1-.9.1-1 .2-.9.1-.9.2-.8.1-.8.2-.8.2-.8.2-.8.2-.8.3-.8.2-.7.3-.8.3-.8.3-.7.3-.8.3-.7.3-.7.4-.8.3-.7"/><path class="st3" d="M86.3 190.3h-9.7v-10.9H39.2v14.8h-5.1v-14.8h-18V18.8h-5.2V8.5h283.8m0 0h.9l.2.1h.3l.3.1h.3l.3.1.3.1.2.1.3.1.3.1.2.1.3.2.2.1.3.1.2.2.3.2.2.1.2.2.3.2.2.2.2.2.2.2.2.2.2.2.2.3.1.2.2.2.1.3.2.2.1.3.2.3.1.2.1.3.1.3.1.2.1.3v.3l.1.3.1.3v.5l.1.3v.6m0 0v162.4h5.1V66.2"/></svg>