<svg version="1.1" id="" xmlns="http://www.w3.org/2000/svg" x="0" y="0" viewBox="0 0 507.4 213.1" xml:space="preserve"><style>.st2{fill:none;stroke:#171f3c;stroke-linecap:round;stroke-linejoin:round;stroke-miterlimit:10}</style><path fill="#fff" d="M123.4 175.5h-10v-4.3l-.1-1.2-.1-1.2-.1-1.1-.2-1.2-.2-1.2-.2-1.1-.3-1.2-.3-1.1-.3-1.1-.4-1.1-.4-1.2-.4-1-.5-1.1-.5-1.1-.5-1h-8.1l.6.8.6.9.5.9.5.9.4 1 .5.9.4 1 .4 1 .3 1.1.3 1 .3 1.1.3 1 .2 1.1.1 1.1.1.5.1.6v.5l.1.6v3.3l-.1 1.1-.1 1-.1 1.1-.2 1.1-.2 1.1-.2 1-.3 1-.3 1-.4 1-.3 1-.4 1-.5.9-.4.9-.5.9-.5.9-.6.9-.6.9-.6.8-.6.9-.7.8-.7.8-.8.8-.8.7-.8.8-.8.7-.9.7-.9.6-.4.3-.5.3-.4.3-.5.3-.5.3-.4.3-.5.2-.5.3-1 .5-1 .4-1 .4-1 .4-1.1.3-1 .3-1 .3-1.1.2-1 .2-1.1.2-1 .1-1 .1-1.1.1h-2l-1.1-.1-1-.1-1-.1-1.1-.2-1-.2-1.1-.2-1-.3-1.1-.3-1-.3-1-.4-1-.4-1-.4-1-.5-.5-.3-.5-.2-.4-.3-.5-.3-.5-.3-.4-.3-.5-.3-.5-.3-.8-.6-.9-.7-.8-.7-.8-.8-.8-.7-.8-.8-.7-.8-.7-.8-.6-.9-.6-.8-.6-.9-.6-.9-.5-.9-.5-.9-.4-.9-.5-.9-.4-1-.4-1-.3-1-.3-1-.3-1-.2-1-.2-1.1-.2-1.1-.1-1.1-.1-1-.1-1.1v-3.3l.1-.6v-.5l.1-.6.1-.5.1-1.1.2-1.1.3-1 .2-1.1.4-1 .3-1.1.4-1 .4-1 .4-.9.5-1 .5-.9.5-.9.6-.9.6-.8h-8.1l-.5 1-.5 1.1-.5 1.1-.4 1-.4 1.2-.4 1.1-.3 1.1-.3 1.1-.3 1.2-.2 1.1-.2 1.2-.2 1.2-.1 1.1-.1 1.2-.1 1.2V186h-5v-14.8l.1-1.2.1-1.1.1-1.2.1-1.1.2-1.2.2-1.1.2-1.2.3-1.1.3-1.2.3-1.1.4-1.1.3-1.1.5-1.1.4-1 .5-1.1h-10v7h-5.1v-22.5h5.1v-14.7H15.5l-5.1-10.3V38.7h5.1V18.9h15.3v9.5h322.9V9.3h15.2v5l23.5-2.4v5l-23.5 2.4v85.6h5.2V30.5l.1-.2V30l.1-.2v-.4l.1-.2.1-.2v-.2l.1-.2.1-.2v-.2l.1-.2.1-.2.1-.2.1-.2.1-.2.1-.2.2-.2.1-.1.1-.2.1-.2.2-.2.1-.1.2-.2.1-.2.2-.1.1-.2.2-.1.1-.2.2-.1.2-.1.2-.2.1-.1.2-.1.2-.1.2-.1.2-.1.2-.1.2-.1.2-.1.1-.1.2-.1.2-.1h.2l.2-.1.2-.1h.2l.2-.1h.2l.2-.1h.6l.2-.1h54.6l25.9 4.2.7.2.8.1.8.2.7.3.7.2.8.3.7.3.7.3.7.3.7.4.7.4.6.4.7.4.6.4.6.5.6.5.6.5.6.6.5.5.5.6.5.6.5.6.5.6.4.6.5.7.4.6.3.7.4.7.3.7.3.7.3.8.3.7.2.7L496.1 96l.2.8.2.7.1.7.1.7.1.7.1.7.1.8v76l-.1.3v.2l-.1.3-.1.3-.1.3v.3l-.2.2-.1.3-.1.3-.1.2-.1.3-.2.2-.1.3-.2.2-.2.3-.2.2-.2.2-.1.2-.2.2-.3.2-.2.2-.2.2-.2.2-.3.2-.2.1-.2.2-.3.1-.2.2-.3.1-.3.1-.2.1-.3.1-.3.1-.3.1-.2.1h-.3l-.3.1h-.3l-.3.1h-13.7l-32 .1h-.8l-.3-.1h-.3l-.3-.1h-.3l-.3-.1-.2-.1-.3-.1-.3-.1-.2-.1-.3-.1-.3-.1-.2-.2-.3-.1-.2-.2-.3-.1-.2-.2-.2-.2-.2-.2-.3-.2-.2-.2-.2-.2-.2-.2-.2-.2-.1-.3-.2-.2-.2-.2-.1-.3-.2-.2-.1-.3-.1-.2-.2-.3-.1-.3-.1-.2-.1-.3v-.3l-.1-.3-.1-.3v-.2l-.1-.3v-.6l-.1-.3v-1.7l-6.9.1-.1 1-.1 1.1-.2 1.1-.2 1-.3 1.1-.3 1.1-.3 1-.3 1-.4 1-.4 1-.5 1-.5 1-.5.9-.6 1-.6.9-.6.9-.6.8-.7.9-.7.8-.8.8-.7.8-.8.7-.8.7-.9.7-.8.7-.9.6-.9.6-.9.5-1 .6-1 .5-.9.4-1 .5-1 .4-1.1.3-1 .4-1 .3-1.1.2-1.1.2-1 .2-1.1.2-1.1.1h-1.1l-1 .1h-1.1l-1.1-.1-1.1-.1-1.1-.1-1-.1-1.1-.2-1.1-.2-1-.3-1.1-.3-1-.3-1-.4-1-.4-1-.5-1-.4-.9-.5-1-.6-.9-.6-.9-.6-.9-.6-.8-.7-.9-.7-.8-.7-.8-.7-.7-.8-.8-.8-.7-.8-.6-.9-.7-.9-.6-.8-.6-1-.5-.9-.5-1-.5-.9-.5-1-.4-1-.4-1-.3-1.1-.3-1-.3-1-.2-1.1-.2-1.1-.2-1-.1-1.1h-7V186h-5v-10.5H204.9V170l-.1-1.2-.2-1.1-.1-1.2-.2-1.2-.3-1.1-.2-1.2-.3-1.1-.4-1.1-.3-1.2-.4-1.1-.5-1.1-.5-1-.5-1.1-.5-1h-8l.5.8.6.9.5.9.5.9.5 1 .4.9.4 1 .4 1 .4 1.1.3 1 .3 1 .2 1.1.2 1.1.2 1.1v.5l.1.6.1.5v1.7l.1.5v.5l-.1 1.1v1.1l-.1 1.1-.2 1.1-.1 1.1-.2 1-.3 1.1-.3 1-.3 1-.3 1-.4 1-.4 1-.4.9-.5.9-.5.9-.5.9-.5.9-.6.9-.7.8-.6.9-.7.8-.7.8-.8.8-.7.7-.8.8-.9.7-.8.6-.9.7-.5.3-.4.3-.5.3-.5.3-.4.3-.5.2-.5.3-.5.3-1 .5-1 .4-1 .4-1 .4-1 .3-1.1.3-1 .3-1 .2-1.1.2-1 .2-1.1.1-1 .1h-1l-1.1.1-1-.1h-1l-1.1-.1-1-.1-1-.2-1.1-.2-1-.2-1.1-.3-1-.3-1-.3-1.1-.4-1-.4-1-.4-1-.5-.4-.3-.5-.3-.5-.2-.5-.3-.4-.3-.5-.3-.5-.3-.4-.3-.9-.7-.9-.6-.8-.7-.8-.8-.8-.7-.7-.8-.7-.8-.7-.8-.7-.9-.6-.8-.6-.9-.5-.9-.6-.9-.4-.9-.5-.9-.4-.9-.4-1-.4-1-.4-1-.3-1-.2-1-.3-1.1-.2-1-.2-1.1-.1-1.1-.1-1.1-.1-1.1v-2.7l.1-.5v-.6l.1-.5v-.6l.1-.5.2-1.1.2-1.1.2-1.1.3-1 .3-1 .3-1.1.4-1 .4-1 .5-.9.5-1 .5-.9.5-.9.5-.9.6-.8h-8l-.6 1-.5 1.1-.4 1-.5 1.1-.4 1.1-.4 1.2-.3 1.1-.3 1.1-.3 1.2-.2 1.1-.2 1.2-.2 1.2-.1 1.1-.1 1.2v1.2l-.1 1.1v3.4l.1 10.3h-5v-10.3z" id=""/><path d="M413 73.2l-16.8-2h-.2l-.1-.1h-.4V71h-.3l-.1-.1h-.1l-.1-.1h-.1l-.1-.1h-.1l-.1-.1h-.1l-.1-.1h-.1v-.1l-.1-.1h-.1l-.1-.1v-.1h-.1l-.1-.1-.1-.1-.1-.1-.1-.1v-.1h-.1l-.1-.1v-.1l-.1-.1v-.1l-.1-.1-.1-.1v-.1l-.1-.1v-.2l-.1-.1v-.2l-.1-.1v-.1l-.1-.1v-.6l-.1-.1V47.7l.1-.1v-.5l.1-.1v-.4l.1-.1v-.1l.1-.1v-.1l.1-.1V46l.1-.1v-.1l.1-.1.1-.1v-.1l.1-.1.1-.1.1-.1v-.1l.1-.1h.1v-.1l.1-.1h.1l.1-.1.1-.1.1-.1.1-.1h.1l.1-.1h.1l.1-.1h.1l.1-.1h.1l.1-.1h.2l.1-.1h.2l.1-.1h.5l.1-.1h17.6l.1.1h.5l.1.1h.3l.1.1h.1l.1.1h.1l.1.1h.2l.1.1.1.1h.1l.1.1.1.1.1.1h.1l.1.1.1.1v.1h.1l.1.1.1.1v.1l.1.1.1.1v.1h.1l.1.1v.1l.1.1v.1l.1.1v.2l.1.1v.1l.1.1v.2l.1.1v.5l.1.1v22.1l-.1.1v.3l-.1.1v.2l-.1.1v.3l-.1.1v.1l-.1.1v.1l-.1.1-.1.1v.1l-.1.1-.1.1-.1.1-.1.1v.1l-.1.1-.1.1h-.1v.1l-.1.1h-.1l-.1.1-.1.1h-.1l-.1.1-.1.1h-.1l-.1.1h-.1l-.1.1h-.1l-.1.1h-.2l-.1.1h-.2l-.1.1h-.5l-.1.1h-.8zm56.4-29.4h2.7l.1.1.1.1h.1l.1.1.1.1-.6.8.1.1.1.1.1.1v.2l.1.1v1.8l8.5 28.7v2.2l-.1.1v.1l-.1.1-.1.1-.1.1-.1.1-.1.1-.1.1-.1.1-.1.1-.1.1-.1.1-.1.1-.1.1-.1.1-.1.1-.1.1-.1.1-.1.1-.1.1-.1.1-.1.1-.1.1-.1.1-.1.1h-1.7l-50-6h-2l-.1-.1h-.1l-.1-.1-.1-.1-.1-.1-.1-.1-.1-.1-.1-.1-.1-.1-.1-.1-.1-.1-.1-.1-.1-.1-.1-.1-.1-.1-.1-.1-.1-.1-.1-.1v-2.2.1-25.1l.1-.1v-.1l.1-.1.1-.1.1-.1.1-.1.1-.1.1-.1.1-.1.1-.1.1-.1.1-.1.1-.1.1-.1.1-.1.1-.1.1-.1.1-.1.1-.1.1-.1h.1l.1-.1h33.2v18.4h8.5V43.7h.7l1.9.1zm-.7 30.5v-8.6h-8.5v8.5h8.5v.1z" fill="#171f3c"/><g id=""><path class="st2" d="M30.8 28.4v95.7m0-15.3h322.9m15.2-89.5v-5M228.3 129.1V170m6.4-40.9V170m100.6-40.9V170m-6.5-40.9V170m24.9-45.9V28.4M15.5 38.7v85.4m184.9 30.2l-.2-.5-.7-1-.6-1.1-.7-1-.7-1.1-.8-1-.8-.9-.8-1-.9-.9-.9-1-1-.8-.9-.9-1-.8-1.1-.8-1-.8-1.1-.7-1.2-.7-1.1-.6-1.2-.6-1.1-.6-1.2-.5-1.2-.5-1.3-.4-1.2-.4-1.2-.4-1.3-.3-1.2-.3-1.3-.2-1.2-.2-1.3-.1-1.2-.1h-1.3l-1.2-.1-1.2.1h-1.2l-1.3.1-1.2.2-1.3.2-1.2.2-1.3.3-1.2.3-1.2.3-1.3.4-1.2.5-1.2.5-1.2.5-1.2.6-1.1.6-1.2.6-1.1.7-1.1.8-1 .7-1.1.8-1 .8-.9.9-1 .9-.9.9-.9 1-.8.9-.8 1-.7 1-.8 1.1-.6 1-.7 1-.6 1.1-.1.3M335.3 170H348v-39.4H215.1v40h113.3l6.9-.6z"/><path class="st2" d="M156.7 155.1l.4-.2.4-.2.4-.2.4-.2.4-.2.4-.2.5-.1.4-.2.5-.1.4-.2.5-.1.4-.1.5-.1.5-.1.5-.1.4-.1.5-.1h.5l.5-.1h3l.6.1h.5l.5.1.5.1.5.1.5.1.5.1.5.2.5.1.5.2.4.2.5.2.5.2.4.2.5.2.5.2.4.3.4.2.5.3.4.3.4.3.4.3.4.3.4.3.3.3.4.3.3.4.4.3.3.3.3.4.3.3.3.4.3.4.3.3.3.4.2.4.3.3.2.4.2.4.3.4.2.4.2.4.2.4.1.4.2.4.2.5.2.4.1.4.2.5.1.5.1.4.1.5.1.5.1.4.1.5.1.5v1l.1.5v2l-.1.5v.5l-.1.6v.5l-.1.5-.1.5-.2.5-.1.5-.1.5-.2.5-.1.4-.2.5-.2.5-.2.5-.2.4-.2.5-.3.4-.2.5-.3.4-.2.4-.3.5-.3.4-.3.4-.3.4-.3.3-.3.4-.3.4-.4.3-.3.4-.4.3-.3.3-.4.3-.3.3-.4.3-.4.3-.3.3-.4.2-.4.3-.4.2-.3.2-.4.2-.4.3-.4.2-.4.1-.4.2-.5.2-.4.2-.4.1-.5.2-.4.1-.5.2-.4.1-.5.1-.5.1-.5.1-.5.1h-.4l-.5.1h-.5l-.5.1h-2.1l-.5-.1h-.5l-.5-.1-.5-.1h-.5l-.5-.1-.5-.2-.5-.1-.5-.1-.5-.2-.5-.1-.5-.2-.4-.2-.5-.2-.5-.2-.4-.2-.5-.3-.4-.2-.4-.3-.5-.3-.4-.2-.4-.3-.4-.3-.4-.3-.4-.3-.3-.3-.4-.4-.4-.3-.3-.3-.3-.4-.4-.3-.3-.4-.3-.3-.2-.4-.3-.4-.3-.3-.2-.4-.3-.4-.2-.4-.3-.3-.2-.4-.2-.4-.2-.4-.2-.4-.2-.4-.1-.5-.2-.4-.2-.4-.1-.5-.2-.4-.1-.5-.1-.5-.1-.4-.1-.5-.1-.5-.1-.5-.1-.5v-.5l-.1-.4v-3.1l.1-.5.1-.5v-.5l.1-.5.1-.5.1-.5.2-.5.1-.5.2-.5.1-.5.2-.5.2-.4.2-.5.2-.5.2-.4.3-.5.2-.4.3-.5.2-.4.3-.4.3-.4.3-.4.3-.4.3-.4.3-.4.3-.3.4-.4.3-.3.3-.3.4-.4.3-.3.4-.3.4-.3.3-.2.4-.3.4-.3.4-.2.3-.2z"/><path class="st2" d="M127.3 154.3l.5-1 .4-.8.4-.8.4-.7.4-.8.5-.7.5-.8.4-.7.6-.7.5-.8.5-.7.6-.7.6-.7.6-.7.6-.7.6-.6.7-.7.6-.6.7-.7.7-.6.7-.6.7-.6.8-.6.7-.6.8-.5.8-.5.8-.6.8-.5.8-.4.8-.5.9-.5.8-.4.9-.4.8-.4.9-.4.9-.3.9-.4.9-.3.9-.3.9-.2.9-.3.9-.2.9-.2.9-.2.9-.2 1-.1.9-.2.9-.1.9-.1h.9l.9-.1h4.5l.9.1.9.1.9.1.8.1.9.1.8.1.9.2.8.2.8.2.9.2.8.2.8.3.9.2.8.3.8.3.8.3.9.4.8.3.8.4.8.4.8.4.8.4.8.5.8.5.8.4.8.6.8.5.7.5.8.6.7.6.7.6.7.6.7.6.7.6.7.7.7.7.6.7.7.7.6.7.6.7.6.8.5.8.6.7.5.8.6.8.4.8.5.8.5.8.4.9.5.8.4.9.4.8.3.9.4.8.3.9.3.9.3.9.3.8.2.9.2.9.2.9.2.9.2.8.2.9.1.9.1.9.1.8.1.9v.9l.1.8v4.9"/><path class="st2" d="M140.9 154.3l.2-.3.5-.7.6-.7.6-.7.6-.7.6-.7.7-.6.6-.7.7-.6.7-.6.8-.6.7-.6.8-.5.8-.5.8-.5.8-.5.9-.4.8-.4.9-.4.8-.4.9-.3.9-.4.9-.2.9-.3.9-.2.9-.2.9-.2.9-.2.9-.1.9-.1h.9l.9-.1h2.7l.9.1 1 .1.9.1.9.2.9.1.9.2.9.3.9.2.9.3.9.3.9.3.8.4.9.4.9.4.8.4.8.5.8.5.8.5.8.5.7.6.8.6.7.6.7.6.7.6.6.7.7.6.6.7.6.7.5.7.6.7.3.5m176.5-30.2v-19.2M25.8 124.1h343.1m-303.7 31l.4-.2.4-.2.4-.2.4-.2.4-.2.4-.1.4-.2.5-.2.4-.1.5-.2.4-.1.5-.1.5-.1.4-.1.5-.1.5-.1.5-.1h.5l.5-.1h2.5l.5.1h.5l.5.1h.5l.5.1.5.1.5.1.5.2.5.1.5.2.5.1.5.2.5.2.4.2.5.2.5.2.4.3.5.2.4.3.4.2.4.3.4.3.4.3.4.3.4.3.4.3.4.3.3.4.3.3.4.3.3.4.3.4.3.3.3.4.3.3.2.4.3.4.2.4.3.3.2.4.2.4.2.4.2.4.2.4.2.4.2.4.2.5.1.4.2.5.1.4.1.5.2.4.1.5.1.5.1.5v.4l.1.5.1.5v1l.1.5v1l-.1.5v.6l-.1.5v.5l-.1.5-.1.5-.1.5-.1.5-.1.5-.2.5-.1.5-.2.5-.2.4-.1.5-.2.5-.3.4-.2.5-.2.5-.3.4-.2.4-.3.5-.3.4-.2.4-.3.4-.3.4-.3.4-.4.3-.3.4-.3.3-.4.4-.3.3-.4.3-.3.3-.4.3-.3.3-.4.3-.4.3-.3.2-.4.3-.4.2-.4.2-.4.3-.3.2-.4.2-.5.2-.4.1-.4.2-.4.2-.5.2-.4.1-.5.2-.4.1-.5.1-.5.1-.4.1-.5.1-.5.1-.5.1h-1l-.5.1h-2l-.5-.1H73l-.5-.1H72l-.5-.1-.5-.1-.5-.1-.5-.2-.5-.1-.5-.2-.5-.1-.5-.2-.5-.2-.4-.2-.5-.2-.5-.2-.4-.3-.5-.2-.4-.3-.4-.2-.4-.3-.4-.3-.4-.3-.4-.3-.4-.3-.4-.3-.3-.3-.4-.4-.3-.3-.4-.4-.3-.3-.3-.4-.3-.3-.3-.4-.3-.4-.2-.3-.3-.4-.2-.4-.3-.3-.2-.4-.2-.4-.2-.4-.2-.4-.2-.4-.2-.4-.2-.5-.2-.4-.1-.4-.2-.5-.1-.4-.1-.5-.2-.4-.1-.5-.1-.5-.1-.5v-.5l-.1-.4-.1-.5v-1.5l-.1-.5.1-.5v-1.1l.1-.5v-.5l.1-.5.1-.5.1-.5.1-.5.1-.5.2-.5.1-.5.2-.5.2-.4.1-.5.2-.5.3-.5.2-.4.2-.5.3-.4.2-.4.3-.5.3-.4.2-.4.3-.4.3-.4.4-.4.3-.3.3-.4.3-.4.4-.3.3-.3.4-.3.3-.4.4-.3.3-.2.4-.3.4-.3.3-.2.4-.3.4-.2z"/><path class="st2" d="M35.8 154.3l.4-1 .4-.8.4-.7.5-.8.4-.8.4-.7.5-.8.5-.7.5-.7.5-.7.6-.8.6-.7.5-.7.6-.7.6-.6.7-.7.6-.7.7-.6.7-.7.7-.6.7-.6.7-.6.7-.6.8-.5.8-.6.7-.5.8-.5.8-.5.8-.5.9-.5.8-.4.9-.5.8-.4.9-.4.9-.3.8-.4.9-.3.9-.3.9-.3.9-.3.9-.3.9-.2 1-.2.9-.2.9-.2.9-.1.9-.2 1-.1.9-.1h.9l.9-.1h4.5l.9.1.9.1.8.1.9.1.8.1.9.2.8.1.9.2.8.2.8.2.9.2.8.3.8.2.8.3.9.3.8.3.8.4.8.3.9.4.8.4.8.4.8.4.8.5.8.5.8.5.7.5.8.5.8.5.7.6.8.6.7.6.7.6.7.6.7.7.7.6.6.7.7.7.6.7.6.7.6.8.6.7.6.8.6.7.5.8.5.8.5.8.5.8.5.9.4.8.4.8.4.9.4.8.4.9.3.9.4.8.3.9.2.9.3.8.3.9.2.9.2.9.2.9.2.8.1.9.1.9.2.9.1.8v.9l.1.9v.8l.1.9v4"/><path class="st2" d="M49.4 154.3l.2-.3.5-.7.6-.7.5-.7.6-.7.7-.7.6-.6.7-.7.7-.6.7-.6.7-.6.8-.5.8-.6.8-.5.8-.5.8-.5.8-.4.9-.4.8-.4.9-.4.9-.3.9-.3.8-.3.9-.3 1-.2.9-.2.9-.2.9-.1.9-.2.9-.1h.9l.9-.1h1.8l.9.1h.9l.9.1.9.1.9.2 1 .1.9.2.9.3.9.2.9.3.9.3.8.3.9.4.9.4.8.4.9.5.8.4.8.5.8.5.7.6.8.5.7.6.8.6.7.6.6.6.7.7.6.7.6.6.6.7.6.7.5.8.3.4"/><path class="st2" d="M108.9 154.3l-.3-.5-.6-1-.6-1.1-.7-1-.8-1-.7-1-.8-1-.9-1-.8-.9-.9-.9-1-.9-1-.9-1-.8-1-.8-1.1-.8-1.1-.7-1.1-.7-1.1-.6-1.2-.6-1.2-.6-1.2-.5-1.2-.5-1.2-.4-1.2-.4-1.3-.4-1.2-.3-1.3-.2-1.2-.3-1.3-.1-1.2-.2-1.3-.1h-4.9l-1.2.1-1.3.2-1.2.2-1.3.2-1.2.3-1.2.3-1.3.3-1.2.5-1.2.4-1.2.5-1.2.5-1.2.6-1.2.6-1.1.7-1.1.6-1.1.8-1.1.7-1 .8-1 .9-1 .8-.9.9-.9.9-.9 1-.8.9-.8 1-.8 1-.7 1.1-.7 1-.6 1.1-.6 1-.2.3M491.6 136v-35.4m-71.1 23.5V46.6m-46.4 77.5v-19.2m0 19.2h61.2l.2.1h.5l.2.1h.3l.1.1h.2l.2.1h.1l.2.1h.2l.1.1.2.1h.1l.2.1.1.1.2.1h.1l.2.1.1.1.2.1.1.1.1.1.2.1.1.1 11.6 8.5.1.1.2.1h.1l.2.1.1.1.2.1.1.1.1.1h.2l.1.1.2.1h.2l.1.1.2.1h.1l.2.1h.2l.1.1h.2l.1.1h.4l.1.1h.5l.2.1h36.3l5.4.1m-143.3-6.9h43.2m43.3 43.2h-5m-38.3-43.2h2.1l1.1.1 1 .1 1.1.1 1 .1 1.1.2 1 .2 1 .2 1.1.2 1 .3 1.1.3 1 .3 1 .4 1 .4 1 .4 1 .4 1 .4.9.5 1 .5.9.5 1 .6.9.5.9.6.8.6.9.6.8.7.9.6.8.7.7.7.8.7.7.7.8.8.7.7.7.8.7.8.6.9.7.8.6.9.6.8.6.9.5.9.6 1 .5.9.5 1 .5.9.4 1 .4 1 .4 1 .4 1 .3 1 .4 1 .3 1.1.2 1 .3 1 .2 1.1.2 1 .2 1.1v.4l.1.6.1 1.1.1 1 .1 1.1v2M387 155.1l.4-.2.4-.2.4-.2.4-.2.4-.2.4-.1.5-.2.4-.2.5-.1.4-.2.5-.1.4-.1.5-.1.5-.1.5-.1.4-.1.5-.1h.5l.5-.1h2.6l.5.1h.5l.5.1h.5l.5.1.5.1.5.1.5.2.5.1.5.2.5.1.4.2.5.2.5.2.5.2.4.2.5.3.4.2.4.3.5.2.4.3.4.3.4.3.4.3.4.3.3.3.4.3.4.4.3.3.3.3.3.4.4.4.3.3.2.4.3.3.3.4.2.4.3.4.2.3.2.4.3.4.2.4.2.4.2.4.2.4.1.4.2.5.2.4.1.5.2.4.1.5.1.4.1.5.1.5.1.5.1.4.1.5v.5l.1.5v2.5l-.1.6v.5l-.1.5v.5l-.1.5-.1.5-.1.5-.2.5-.1.5-.2.5-.1.5-.2.4-.2.5-.2.5-.2.4-.2.5-.3.5-.2.4-.3.4-.2.5-.3.4-.3.4-.3.4-.3.4-.3.4-.3.3-.3.4-.4.3-.3.4-.4.3-.3.3-.4.3-.3.3-.4.3-.3.3-.4.3-.4.2-.4.3-.3.2-.4.2-.4.3-.4.2-.4.2-.4.2-.4.1-.4.2-.5.2-.4.2-.5.1-.4.2-.5.1-.4.1-.5.1-.5.1-.5.1-.4.1-.5.1h-1l-.5.1h-2l-.6-.1h-.5l-.5-.1h-.5l-.5-.1-.5-.1-.5-.1-.5-.2-.5-.1-.5-.2-.5-.1-.4-.2-.5-.2-.5-.2-.5-.2-.4-.2-.5-.3-.4-.2-.4-.3-.5-.2-.4-.3-.4-.3-.4-.3-.4-.3-.4-.3-.3-.3-.4-.3-.4-.4-.3-.3-.3-.4-.3-.3-.4-.4-.3-.3-.2-.4-.3-.4-.3-.3-.2-.4-.3-.4-.2-.3-.2-.4-.3-.4-.2-.4-.2-.4-.2-.4-.2-.4-.1-.5-.2-.4-.2-.4-.1-.5-.2-.4-.1-.5-.1-.4-.1-.5-.1-.5-.1-.5-.1-.5-.1-.4v-.5l-.1-.5v-2.6l.1-.5v-.5l.1-.5v-.5l.1-.5.1-.5.1-.5.2-.5.1-.5.2-.5.1-.5.2-.4.2-.5.2-.5.2-.5.2-.4.3-.5.2-.4.3-.4.2-.5.3-.4.3-.4.3-.4.3-.4.3-.4.3-.3.3-.4.4-.4.3-.3.4-.3.3-.3.4-.4.3-.3.4-.2.3-.3.4-.3.4-.2.4-.3.3-.2zm48.2 17.2v2.3"/><path class="st2" d="M435.2 172.3v-1.8l-.1-.9v-.9l-.1-1-.2-.9-.1-.9-.2-1-.2-.9-.2-.9-.2-.9-.3-.9-.3-.9-.3-.9-.3-.9-.4-.9-.4-.9-.4-.9-.4-.8-.4-.8-.5-.9-.4-.8-.5-.8-.6-.8-.5-.8-.5-.7-.6-.8-.6-.7-.6-.7-.6-.7-.6-.7-.7-.6-.6-.7-.7-.6-.7-.6-.7-.6-.7-.6-.8-.6-.7-.5-.8-.6-.8-.5-.8-.5-.8-.4-.9-.5-.8-.4-.9-.5-.8-.4-.9-.3-.9-.4-.9-.3-.9-.3-.9-.3-.9-.3-.9-.2-.9-.2-1-.2-.9-.2-.9-.1-.9-.2-1-.1h-.9l-.9-.1h-3.7l-.9.1h-.9l-1 .1-.9.2-.9.1-1 .2-.9.2-.9.2-.9.2-.9.3-.9.3-.9.3-.9.3-.9.4-.9.3-.8.4-.9.5-.8.4-.9.5-.8.4-.8.5-.8.5-.8.6-.7.5-.8.6-.7.6-.7.6-.7.6-.7.6-.6.7-.7.6-.6.7-.6.7-.6.7-.6.7-.6.8-.5.7-.6.8-.5.8-.5.8-.4.8-.5.9-.4.8-.5.8-.4.9-.3.9-.4.9-.3.9-.3.9-.3.9-.3.9-.2.9-.2.9-.2.9-.2 1-.1.9-.2.9-.1 1v.9l-.1.9v5m-5 0v-46.4"/><path class="st2" d="M365.7 175.5l-.1-.7v-.7l-.1-.8v-1.6l.1-.8v-.8l.1-.8.1-.8.1-.9.1-.8.2-.8.1-.8.2-.8.2-.7.3-.8.2-.8.3-.8.3-.7.3-.8.4-.7.3-.8.4-.7.4-.7.4-.7.4-.7.5-.7.4-.7.5-.6.5-.6.5-.7.5-.6.5-.5.6-.6.5-.6.6-.5.6-.6.6-.5.6-.5.7-.5.6-.5.7-.4.7-.5.6-.4.8-.4.7-.4.7-.4.7-.4.8-.3.7-.3.8-.3.8-.3.7-.3.8-.2.8-.2.8-.2.8-.2.8-.2.8-.1.8-.1.8-.1.8-.1h.8l.8-.1h2.3l.8.1.8.1.8.1.8.1.8.1.8.1.8.2.8.2.8.2.8.3.7.2.8.3.8.3.7.3.8.3.7.4.8.4.7.4.7.4.7.4.7.4.6.5.7.5.6.5.7.5.6.5.6.5.5.6.6.5.5.6.6.6.5.6.5.6.5.6.5.7.4.7.5.6.4.7.4.7.4.7.4.8.3.7.4.7.3.8.3.7.3.8.3.8.2.8.2.8.2.8.2.8.2.8.1.8.1.8.1.8.1.8v.8l.1.8v1.6l-.1.8v.8m-2.7-69.5h8.4v-.1h.1v-.1h.1v-.1h.1v-.1l.1-.1v-5.4h-.1v-.2h-.1V99h-.1v-.1h-.2v-.1h-8.6v.1h-.2v.1h-.1v.1h-.1v.2h-.1v5.4l.1.1v.1h.1v.1h.1v.1h.1v.1h.4zM392.4 48v-.3l.1-.1v-.5l.1-.1v-.4l.1-.1v-.1l.1-.1v-.1l.1-.1V46l.1-.1v-.1l.1-.1.1-.1v-.1l.1-.1.1-.1.1-.1v-.1l.1-.1h.1v-.1l.1-.1h.1l.1-.1.1-.1.1-.1.1-.1h.1l.1-.1h.1l.1-.1h.1l.1-.1h.1l.1-.1h.2l.1-.1h.2l.1-.1h.5l.1-.1h.4m0 0h16.8m0 0h.4l.1.1h.5l.1.1h.3l.1.1h.1l.1.1h.1l.1.1h.2l.1.1.1.1h.1l.1.1.1.1.1.1h.1l.1.1.1.1v.1h.1l.1.1.1.1v.1l.1.1.1.1v.1h.1l.1.1v.1l.1.1v.1l.1.1v.2l.1.1v.1l.1.1v.2l.1.1v.5l.1.1v.5m0 0v21m0 0v.6l-.1.1v.3l-.1.1v.2l-.1.1v.3l-.1.1v.1l-.1.1v.1l-.1.1-.1.1v.1l-.1.1-.1.1-.1.1-.1.1v.1l-.1.1-.1.1h-.1v.1l-.1.1h-.1l-.1.1-.1.1h-.1l-.1.1-.1.1h-.1l-.1.1h-.1l-.1.1h-.1l-.1.1h-.2l-.1.1h-.2l-.1.1h-.5l-.1.1h-.8l-.1-.1m14.5-29.5h-.4l-.1.1h-.5l-.1.1h-.3l-.1.1h-.1l-.1.1h-.1l-.1.1h-.2l-.1.1-.1.1h-.1l-.1.1-.1.1-.1.1h-.1l-.1.1-.1.1v.1h-.1l-.1.1-.1.1v.1l-.1.1-.1.1v.1h-.1l-.1.1v.1l-.1.1v.1l-.1.1v.2l-.1.1v.1l-.1.1v.3l-.1.1v.4l-.1.1v.5m0 0v22.8m0 0v.5l.1.1v.4h.1v.3l.1.1v.2l.1.1v.1l.1.1v.1h.1v.1l.1.1v.1l.1.1v.1h.1l.1.1v.1l.1.1h.1v.1l.1.1.1.1.1.1.1.1h.1l.1.1.1.1.1.1h.1l.1.1h.1l.1.1h.1l.1.1h.2l.1.1h.2v.1h.5l.1.1h.1m-34.6-8V48M413 73.2l-16.8-2m-3.8-4.2v.3l.1.1v.6l.1.1v.1l.1.1v.2l.1.1v.2l.1.1v.1l.1.1.1.1v.1l.1.1v.1l.1.1h.1v.1l.1.1.1.1.1.1.1.1h.1v.1l.1.1h.1l.1.1v.1h.1l.1.1h.1l.1.1h.1l.1.1h.1l.1.1h.1l.1.1h.3v.1h.4l.1.1h.2m24.3-24.6v-.5l.1-.1v-.4l.1-.1v-.2l.1-.1V45l.1-.1v-.1l.1-.1v-.1l.1-.1v-.1l.1-.1.1-.1v-.1l.1-.1.1-.1.1-.1.1-.1v-.1l.1-.1h.1l.1-.1.1-.1h.1v-.1l.1-.1h.1l.1-.1h.1l.1-.1h.1l.1-.1h.1l.1-.1h.1l.1-.1h.2l.1-.1h.3l.1-.1h.8m33.7 0v19.8h.1v.3h.1v.1h.1v.1h.1v.1h.1l.1.1h9.1v-.1h.2v-.1h.1v-.1h.1v-.2h.1V42.1h-.1v-.2h-.1v-.1h-.1v-.1h-.1v-.1h-.3v-.1h-8.8v.1h-.2v.1h-.2v.1h-.1v.2h-.1v.2h-.1v.2zm0 23.3v8.6l.1.1v.2h.1v.1l.1.1v.1h.2v.1h9.2v-.1h.2v-.1h.1v-.1h.1v-.2h.1v-9.1h-.1v-.2h-.1v-.1h-.1V65h-.2v-.1H459v.1h-.1l-.1.1v.1h-.1v.1h-.1v.2l-.1.1v.1zm-31-22h31m-33.7-1.3h33.7m-18.7 124.1H497M468.7 43.7h.3m0 0h.4v.1h.5l.1.1h.3l.1.1h.1l.1.1h.2v.1h.2l.1.1.1.1h.1l.1.1.1.1h.1v.1h.1l.1.1v.1h.1l.1.1.1.1.1.1.1.1v.1h.1v.1l.1.1v.1h.1v.1l.1.1v.1l.1.1v.1l.1.1v.2h.1v.3m-4.3-4.4h2.7m0 0h.7l.1.1h.3l.1.1h.3l.1.1h.1l.1.1h.1l.1.1h.1l.1.1h.1v.1h.1l.1.1.1.1h.1l.1.1.1.1.1.1.1.1v.1h.1l.1.1v.1h.1v.1l.1.1.1.1v.1h.1v.2l.1.1v.1l.1.1v.1l.1.1v.2l.1.1m1.5 35.5L427 75m54.5.5L473 46.8m4 34.1l.1.1h.8l.1-.1h.4l.1-.1h.3l.1-.1h.1l.1-.1h.2l.1-.1.1-.1h.1l.1-.1.1-.1h.2l.1-.1.1-.1.1-.1.1-.1v-.1h.1l.1-.1.1-.1.1-.1.1-.1v-.1l.1-.1.1-.2v-.1l.1-.1.1-.1v-.1l.1-.1v-.2l.1-.1V78l.1-.1v-.4l.1-.2V76l-.1-.1v-.3l-.1-.1m9.9 23.9l-15.9-54m15.9 54l.1.1v.4h.1v.7M25.8 138.8v15.5m5-135.4v9.5m-15.3-9.5v19.8m15.3-19.8H15.5m338.2 9.5H30.8m338.1-14.1v-5m0 95.6V19.3m0 0l23.5-2.4m0 0v-5m-23.5 2.4l23.5-2.4m-38.7 16.5V9.3M10.4 113.8l5.1 10.3M368.9 9.3h-15.2m-161.3 145h8m-67.5 0h8m64 21.2h148.8m-226.4-21.2l-.5 1-.4 1.1-.4 1.1-.4 1.1-.4 1.1-.3 1.1-.3 1.2-.2 1.1-.3 1.1-.2 1.2-.1 1.1-.2 1.2-.1 1.2-.1 1.1v2.3m0 0V186h5l-.1-10.3v-3.4"/><path class="st2" d="M128.3 172.3l.1-1.1V170l.1-1.2.1-1.1.2-1.2.2-1.2.2-1.1.3-1.2.3-1.1.3-1.1.4-1.2.4-1.1.5-1.1.4-1 .5-1.1.6-1m-19.5 21.2h10m17.5-21.2l-.6.8-.5.9-.5.9-.5.9-.5 1-.5.9-.4 1-.4 1-.3 1.1-.3 1-.3 1-.2 1.1-.2 1.1-.2 1.1-.1.5v.6l-.1.5v.6l-.1.5v2.7l.1 1.1.1 1.1.1 1.1.2 1.1.2 1 .3 1.1.2 1 .3 1 .4 1 .4 1 .4 1 .4.9.5.9.4.9.6.9.5.9.6.9.6.8.7.9.7.8.7.8.7.8.8.7.8.8.8.7.9.6.9.7.4.3.5.3.5.3.4.3.5.3.5.2.5.3.4.3 1 .5 1 .4 1 .4 1.1.4 1 .3 1 .3 1.1.3 1 .2 1.1.2 1 .2 1 .1 1.1.1h1l1 .1 1.1-.1h1l1-.1 1.1-.1 1-.2 1.1-.2 1-.2 1-.3 1.1-.3 1-.3 1-.4 1-.4 1-.4 1-.5.5-.3.5-.3.5-.2.4-.3.5-.3.5-.3.4-.3.5-.3.9-.7.8-.6.9-.7.8-.8.7-.7.8-.8.7-.8.7-.8.6-.9.7-.8.6-.9.5-.9.5-.9.5-.9.5-.9.4-.9.4-1 .4-1 .3-1 .3-1 .3-1 .3-1.1.2-1 .1-1.1.2-1.1.1-1.1v-1.1l.1-1.1v-.5l-.1-.5v-1.7l-.1-.5-.1-.6v-.5l-.2-1.1-.2-1.1-.2-1.1-.3-1-.3-1-.4-1.1-.4-1-.4-1-.4-.9-.5-1-.5-.9-.5-.9-.6-.9-.5-.8m-83.5 0l.5 1 .5 1.1.5 1.1.4 1 .4 1.2.4 1.1.3 1.1.3 1.1.3 1.2.2 1.1.2 1.2.2 1.2.1 1.1.1 1.2.1 1.2v1.1m-12.6-18h8.1m-59.5 0l-.6.8-.6.9-.5.9-.5.9-.5 1-.4.9-.4 1-.4 1-.3 1.1-.4 1-.2 1.1-.3 1-.2 1.1-.1 1.1-.1.5-.1.6v.5l-.1.6v3.3l.1 1.1.1 1 .1 1.1.2 1.1.2 1.1.2 1 .3 1 .3 1 .3 1 .4 1 .4 1 .5.9.4.9.5.9.5.9.6.9.6.9.6.8.6.9.7.8.7.8.8.8.8.7.8.8.8.7.9.7.8.6.5.3.5.3.4.3.5.3.5.3.4.3.5.2.5.3 1 .5 1 .4 1 .4 1 .4 1 .3 1.1.3 1 .3 1.1.2 1 .2 1.1.2 1 .1 1 .1 1.1.1h2l1.1-.1 1-.1 1-.1 1.1-.2 1-.2 1.1-.2 1-.3 1-.3 1.1-.3 1-.4 1-.4 1-.4 1-.5.5-.3.5-.2.4-.3.5-.3.5-.3.4-.3.5-.3.4-.3.9-.6.9-.7.8-.7.8-.8.8-.7.8-.8.7-.8.7-.8.6-.9.6-.8.6-.9.6-.9.5-.9.5-.9.4-.9.5-.9.4-1 .3-1 .4-1 .3-1 .3-1 .2-1 .2-1.1.2-1.1.1-1.1.1-1 .1-1.1v-3.3l-.1-.6v-.5l-.1-.6-.1-.5-.1-1.1-.2-1.1-.3-1-.3-1.1-.3-1-.3-1.1-.4-1-.4-1-.5-.9-.4-1-.5-.9-.5-.9-.6-.9-.6-.8m-59.5 0h8.1m-12.6 18v-1.1l.1-1.2.1-1.2.1-1.1.2-1.2.2-1.2.2-1.1.3-1.2.3-1.1.3-1.1.4-1.1.4-1.2.4-1 .5-1.1.5-1.1.5-1m-4.5 21.4v-3.4m0 13.7v-10.3m-5 10.3h5m-5-10.3V186m0-13.7v3.4m4-21.4l-.5 1.1-.4 1-.5 1.1-.3 1.1-.4 1.1-.3 1.1-.3 1.2-.3 1.1-.2 1.2-.2 1.1-.2 1.2-.1 1.1-.1 1.2-.1 1.1-.1 1.2v1.1m-6-18h10m77.6 18v3.2m-87.6-14.2v-7m-5.1 7h5.1m-5.1-22.5v22.5m5.1-22.5h-5.1m5.1-14.7v14.7m-10.3-14.7h10.3M10.4 38.7v75.1m5.1-75.1h-5.1m363.7 66.2h-5.2m111.6-61.6l-.2-.7-.3-.7-.3-.8-.3-.7-.3-.7-.4-.7-.3-.7-.4-.6-.5-.7-.4-.6-.5-.6-.5-.6-.5-.6-.5-.6-.5-.5-.6-.6-.6-.5-.6-.5-.6-.5-.6-.4-.7-.4-.6-.4-.7-.4-.7-.4-.7-.3-.7-.3-.7-.3-.8-.3-.7-.2-.7-.3-.8-.2-.8-.1-.7-.2M496.1 96l-15.6-52.7m16.5 59.2v-1.4l-.1-.8-.1-.7-.1-.7-.1-.7-.1-.7-.2-.7-.2-.8m.9 70.5v-64m0 73.4v-9.4m-8.5 17.9h.9l.3-.1h.3l.3-.1h.3l.2-.1.3-.1.3-.1.3-.1.2-.1.3-.1.3-.1.2-.2.3-.1.2-.2.2-.1.3-.2.2-.2.2-.2.2-.2.3-.2.2-.2.1-.2.2-.2.2-.2.2-.3.2-.2.1-.3.2-.2.1-.3.1-.2.1-.3.1-.3.2-.2v-.3l.1-.3.1-.3.1-.3v-.2l.1-.3v-1.2m-21.3 8.5h12.8m-44.8.1l32-.1m-40.5-8.4v.3l.1.3v.6l.1.3v.2l.1.3.1.3v.3l.1.3.1.2.1.3.2.3.1.2.1.3.2.2.1.3.2.2.2.2.1.3.2.2.2.2.2.2.2.2.3.2.2.2.2.2.2.2.3.1.2.2.3.1.2.2.3.1.3.1.2.1.3.1.3.1.2.1.3.1h.3l.3.1h.3l.3.1h.8m-8.5-9.9v1.4m-6.9-1.3l6.9-.1m-69.5.9l.1 1.1.2 1 .2 1.1.2 1.1.3 1 .3 1 .3 1.1.4 1 .4 1 .5 1 .5.9.5 1 .5.9.6 1 .6.8.7.9.6.9.7.8.8.8.7.8.8.7.8.7.9.7.8.7.9.6.9.6.9.6 1 .6.9.5 1 .4 1 .5 1 .4 1 .4 1 .3 1.1.3 1 .3 1.1.2 1.1.2 1 .1 1.1.1 1.1.1 1.1.1h1.1l1-.1h1.1l1.1-.1 1.1-.2 1-.2 1.1-.2 1.1-.2 1-.3 1-.4 1.1-.3 1-.4 1-.5.9-.4 1-.5 1-.6.9-.5.9-.6.9-.6.8-.7.9-.7.8-.7.8-.7.7-.8.8-.8.7-.8.7-.9.6-.8.6-.9.6-.9.6-1 .5-.9.5-1 .5-1 .4-1 .4-1 .3-1 .3-1 .3-1.1.3-1.1.2-1 .2-1.1.1-1.1.1-1m-69.6.8h7m-7 10.5v-10.5m-5 10.5h5m-5-10.5V186M462.3 27.2L436.4 23m-53.8 0h-.8l-.2.1h-.6l-.2.1h-.2l-.2.1h-.2l-.2.1-.2.1h-.2l-.2.1-.2.1-.1.1-.2.1-.2.1-.2.1-.2.1-.2.1-.2.1-.2.1-.1.1-.2.2-.2.1-.2.1-.1.2-.2.1-.1.2-.2.1-.1.2-.2.2-.1.1-.2.2-.1.2-.1.2-.1.1-.2.2-.1.2-.1.2-.1.2-.1.2-.1.2-.1.2v.2l-.1.2-.1.2v.2l-.1.2-.1.2v.4l-.1.2v.3l-.1.2v1m0 0v73.4m8.5-81.9h53.8M204.9 175.5v-3.2m0 0V170l-.1-1.2-.2-1.1-.1-1.2-.2-1.2-.3-1.1-.2-1.2-.3-1.1-.4-1.1-.3-1.2-.4-1.1-.5-1.1-.5-1-.5-1.1-.5-1"/></g><path d="M30.8 18.9v9.5m-15.3-9.5v19.8m15.3-19.8H15.5m338.2 9.5H30.8m338.1-14.1v-5m0 95.6V19.3m0 0l23.5-2.4m0 0v-5m-23.5 2.4l23.5-2.4m-38.7 16.5V9.3M10.4 113.8l5.1 10.3M368.9 9.3h-15.2m-161.3 145h8m-67.5 0h8m64 21.2h148.8m-226.4-21.2l-.5 1-.4 1.1-.4 1.1-.4 1.1-.4 1.1-.3 1.1-.3 1.2-.2 1.1-.3 1.1-.2 1.2-.1 1.1-.2 1.2-.1 1.2-.1 1.1v2.3m0 0V186h5v-10.3l-.1-3.4m0 0l.1-1.1V170l.1-1.2.1-1.1.2-1.2.2-1.2.2-1.1.3-1.2.3-1.1.3-1.1.4-1.2.4-1.1.5-1.1.4-1 .5-1.1.6-1m-19.5 21.2h10m17.5-21.2l-.6.8-.5.9-.5.9-.5.9-.5 1-.5.9-.4 1-.3 1-.4 1-.3 1.1-.3 1-.2 1.1-.2 1.1-.2 1.1-.1.5v.6l-.1.5v.5l-.1.6v2.7l.1 1.1.1 1.1.1 1.1.2 1.1.2 1 .3 1.1.2 1 .3 1 .4 1 .4 1 .4 1 .4.9.5.9.4.9.6.9.5.9.6.9.6.8.7.9.7.8.7.8.7.8.8.7.8.8.8.7.9.6.9.7.4.3.5.3.5.3.4.3.5.3.5.2.5.3.4.3 1 .4 1 .5 1 .4 1.1.4 1 .3 1 .3 1.1.3 1 .2 1.1.2 1 .2 1 .1 1.1.1h1l1 .1 1.1-.1h1l1-.1 1.1-.1 1-.2 1.1-.2 1-.2 1.1-.3 1-.3 1-.3 1-.4 1-.4 1-.5 1-.4.5-.3.5-.3.5-.2.4-.3.5-.3.5-.3.4-.3.5-.3.9-.7.8-.6.9-.7.8-.8.7-.7.8-.8.7-.8.7-.8.7-.9.6-.8.6-.9.5-.9.5-.9.5-.9.5-.9.4-.9.4-1 .4-1 .3-1 .3-1 .3-1 .3-1.1.2-1 .1-1.1.2-1.1.1-1.1v-1.1l.1-1.1v-1.1l-.1-.5v-1.1l-.1-.5-.1-.6v-.5l-.2-1.1-.2-1.1-.2-1.1-.3-1-.3-1.1-.4-1-.4-1-.4-1-.4-.9-.5-1-.5-.9-.5-.9-.6-.9-.5-.8m-83.5 0l.5 1 .5 1.1.5 1.1.4 1 .4 1.1.4 1.2.3 1.1.3 1.1.3 1.2.2 1.1.2 1.2.2 1.2.1 1.1.1 1.2.1 1.2v1.1m-12.6-18h8.1m-59.5 0l-.6.8-.6.9-.5.9-.5.9-.5 1-.4.9-.4 1-.4 1-.3 1.1-.3 1-.3 1.1-.3 1-.2 1.1-.1 1.1-.1.5-.1.6v.5l-.1.6v3.3l.1 1 .1 1.1.1 1.1.2 1.1.2 1 .2 1.1.3 1 .3 1 .4 1 .3 1 .4 1 .5.9.4.9.5.9.5.9.6.9.6.9.6.8.6.9.7.8.7.8.8.8.8.7.8.8.8.7.9.6.9.7.4.3.5.3.4.3.5.3.5.3.4.3.5.2.5.3 1 .5 1 .4 1 .4 1 .4 1.1.3 1 .3 1 .3 1.1.2 1 .2 1.1.2 1 .1 1 .1h1.1l1 .1 1-.1h1.1l1-.1 1-.1 1.1-.2 1-.2 1.1-.2 1-.3 1-.3 1.1-.3 1-.4 1-.4 1-.4 1-.5.5-.3.5-.2.4-.3.5-.3.5-.3.4-.3.5-.3.4-.3.9-.7.9-.6.8-.7.8-.8.8-.7.8-.8.7-.8.7-.8.6-.9.6-.8.6-.9.6-.9.5-.9.5-.9.4-.9.5-.9.4-1 .3-1 .4-1 .3-1 .3-1 .2-1.1.2-1 .2-1.1.1-1.1.1-1.1.1-1v-3.3l-.1-.6v-.5l-.1-.6-.1-.5-.1-1.1-.2-1.1-.3-1-.3-1.1-.3-1-.3-1.1-.4-1-.4-1-.4-.9-.5-1-.5-.9-.5-.9-.6-.9-.6-.8m-59.5 0h8.1m-12.6 18v-1.1l.1-1.2.1-1.2.1-1.1.2-1.2.2-1.2.2-1.1.3-1.2.3-1.1.3-1.1.4-1.2.4-1.1.4-1 .5-1.1.5-1.1.5-1m-4.5 21.4v-3.4m0 13.7v-10.3m-5 10.3h5m-5-10.3V186m0-13.7v3.4m4-21.4l-.5 1-.4 1.1-.5 1.1-.3 1.1-.4 1.1-.3 1.1-.3 1.2-.3 1.1-.2 1.1-.2 1.2-.2 1.2-.1 1.1-.1 1.2-.1 1.1-.1 1.2v1.1m-6-18h10m77.6 18v3.2m-87.6-14.2v-7m-5.1 7h5.1m-5.1-22.6v22.6m5.1-22.6h-5.1m5.1-14.6v14.6m-10.3-14.6h10.3M10.4 38.7v75.1m5.1-75.1h-5.1m363.7 66.2h-5.2m111.6-61.6l-.2-.7-.3-.7-.3-.8-.3-.7-.3-.7-.4-.7-.3-.7-.4-.6-.5-.7-.4-.6-.5-.6-.5-.6-.5-.6-.5-.6-.5-.5-.6-.6-.6-.5-.6-.5-.6-.5-.6-.4-.7-.4-.6-.4-.7-.4-.7-.4-.7-.3-.7-.4-.7-.2-.8-.3-.7-.2-.7-.3-.8-.2-.8-.1-.7-.2M496.1 96l-15.6-52.7m16.5 59.2v-1.4l-.1-.8-.1-.7-.1-.7-.1-.7-.1-.7-.2-.7-.2-.8m.9 70.5v-64m0 73.4v-9.4m-8.5 17.9h.9l.3-.1h.3l.3-.1h.3l.2-.1.3-.1.3-.1.3-.1.2-.1.3-.1.3-.1.2-.2.3-.1.2-.2.2-.1.3-.2.2-.2.2-.2.2-.2.3-.2.2-.2.2-.2.1-.2.2-.3.2-.2.2-.2.1-.3.2-.2.1-.3.1-.2.1-.3.2-.3.1-.2v-.3l.1-.3.1-.3.1-.3v-.2l.1-.3v-1.2m-21.3 8.5h12.8m-44.8.1l32-.1m-40.5-8.4v.3l.1.3v.6l.1.3v.2l.1.3.1.3v.3l.1.3.1.2.1.3.2.3.1.2.1.3.2.2.1.3.2.2.2.2.1.3.2.2.2.2.2.2.2.2.3.2.2.2.2.2.2.1.3.2.2.2.3.1.2.2.3.1.3.1.2.1.3.1.3.1.2.1.3.1h.3l.3.1h.3l.3.1h.8m-8.5-9.9v1.4m-6.9-1.3l6.9-.1m-69.5.9l.1 1.1.2 1 .2 1.1.2 1.1.3 1 .3 1 .3 1.1.4 1 .4 1 .5 1 .5.9.5 1 .5.9.6.9.6.9.7.9.6.9.7.8.8.8.7.8.8.7.8.7.9.7.8.7.9.6.9.6.9.6 1 .6.9.5 1 .4 1 .5 1 .4 1 .4 1 .3 1.1.3 1 .2 1.1.3 1.1.2 1 .1 1.1.1 1.1.1 1.1.1h1.1l1-.1h1.1l1.1-.1 1.1-.2 1.1-.2 1-.2 1.1-.2 1-.3 1-.4 1.1-.3 1-.4 1-.5 1-.4.9-.5 1-.6.9-.5.9-.6.9-.6.8-.7.9-.7.8-.7.8-.8.7-.7.8-.8.7-.8.7-.9.6-.9.6-.8.6-1 .6-.9.5-.9.5-1 .5-1 .4-1 .4-1 .3-1 .3-1.1.3-1 .3-1.1.2-1 .2-1.1.1-1.1.1-1m-69.6.8h7m-7 10.5v-10.5m-5 10.5h5m-5-10.5V186M462.3 27.2L436.4 23m-53.8 0h-.8l-.2.1h-.6l-.2.1h-.2l-.2.1h-.2l-.2.1-.2.1h-.2l-.2.1-.1.1-.2.1-.2.1h-.2l-.2.1-.2.2-.2.1-.2.1-.2.1-.1.1-.2.2-.2.1-.2.1-.1.2-.2.1-.1.2-.2.1-.1.2-.2.2-.1.1-.2.2-.1.2-.1.2-.1.1-.2.2-.1.2-.1.2-.1.2-.1.2-.1.2v.2l-.1.2-.1.2-.1.2v.2l-.1.2v.2l-.1.2v.2l-.1.2v.3l-.1.2v1m0 0v73.4m8.5-81.9h53.8M204.9 175.5v-3.2m0 0V170l-.1-1.2-.2-1.1-.1-1.2-.2-1.2-.2-1.1-.3-1.2-.3-1.1-.4-1.1-.3-1.2-.4-1.1-.5-1.1-.5-1-.5-1.1-.5-1" stroke-width="3" fill="none" stroke="#171f3c" stroke-linecap="round" stroke-linejoin="round" stroke-miterlimit="10"/></svg>