<svg version="1.1" id="" xmlns="http://www.w3.org/2000/svg" x="0" y="0" viewBox="0 0 466.8 212.2" xml:space="preserve"><style>.st2{fill:none;stroke:#171f3c;stroke-linecap:round;stroke-linejoin:round;stroke-miterlimit:10}</style><path fill="#fff" d="M404.9 167.8l-.1.9v.9l-.1.9-.2.9-.1.9-.2.9-.2.9-.2.9-.3.8-.3.9-.3.8-.3.9-.3.8-.4.8-.4.8-.4.8-.4.8-.5.7-.5.8-.5.7-.5.7-.5.7-.5.7-.6.6-.6.7-.6.6-.6.6-.6.6-.7.6-.7.6-.7.5-.7.6-.8.5-.7.5-.8.5-.8.4-.8.4-.8.5-.8.3-.8.4-.8.3-.9.4-.9.2-.8.3-.9.2-.8.2-.9.2-.9.2-.9.1-.8.1-.9.1-.9.1h-3.4l-.9-.1-.9-.1-.9-.1-.8-.1-.9-.2-.9-.2-.9-.2-.8-.2-.9-.3-.8-.2-.9-.4-.8-.3-.9-.4-.8-.3-.8-.5-.8-.4-.8-.4-.7-.5-.8-.5-.7-.5-.7-.6-.7-.5-.7-.6-.7-.6-.6-.6-.7-.6-.6-.6-.6-.7-.5-.6-.6-.7-.5-.7-.5-.7-.5-.7-.4-.8-.5-.7-.4-.8-.4-.8-.4-.8-.4-.8-.4-.8-.3-.9-.3-.8-.3-.9-.2-.8-.2-.9-.2-.9-.2-.9-.2-.9-.1-.9-.1-.9-.1-.9v-4.4l.1-.9.1-.9.1-.9.2-.8.2-.9.2-.8h-7.1l-.1.9-.2 1-.1.9-.1.9-.1 1-.1.9v15.6h-5v-14.6l.1-1v-.9l.1-1 .1-.9.1-1 .1-.9.2-.9h-171l.2.9.1 1 .1.9.1.9.1 1v.9l.1 1v4h-5v-4l-.1-1v-.9l-.1-1-.1-.9-.1-1-.2-.9-.2-.9h-7l.2.8.2.9.1.8.2.9.1.9v.9l.1.8v3.6l-.1.9-.1.9-.1.9-.2.9-.2.9-.2.9-.2.9-.3.8-.2.9-.3.8-.4.9-.3.8-.4.8-.4.8-.4.8-.4.8-.5.7-.4.8-.5.7-.5.7-.6.7-.5.7-.6.6-.5.7-.7.6-.6.6-.6.6-.7.6-.7.6-.7.5-.7.6-.7.5-.8.5-.8.5-.7.4-.8.4-.8.5-.9.3-.8.4-.8.3-.9.4-.8.2-.9.3-.9.2-.8.2-.9.2-.9.2-.9.1-.8.1-.9.1-.9.1h-3.4l-.9-.1-.9-.1-.8-.1-.9-.1-.9-.2-.9-.2-.8-.2-.9-.2-.9-.3-.8-.2-.9-.4-.8-.3-.8-.4-.9-.3-.8-.5-.8-.4-.7-.4-.8-.5-.8-.5-.7-.5-.7-.6-.7-.5-.7-.6-.7-.6-.6-.6-.6-.6-.7-.6-.5-.7-.6-.6-.5-.7-.6-.7-.5-.7-.5-.7-.4-.8-.5-.7-.4-.8-.4-.8-.4-.8-.4-.8-.3-.8-.4-.9-.3-.8-.2-.9-.3-.8-.2-.9-.2-.9-.2-.9-.2-.9-.1-.9-.1-.9-.1-.9v-3.6l.1-.8v-.9l.1-.9.2-.9.1-.8.2-.9.2-.8h-7l-.2.9-.2 1-.1.9-.1.9-.1 1v.9l-.1 1v14.6h-5v-14.6l.1-1v-.9l.1-1 .1-.9.1-1 .1-.9.2-.9H16.8v7h-5.2V133h5.2v-7.8H6.5V84.8h332l2.8-70.6h4.2v111h5.1V21.9l.1-.2v-.3l.1-.2v-.4l.1-.2v-.2l.1-.2.1-.2v-.2l.1-.2.1-.2.1-.2.1-.2.1-.2.1-.2.1-.2.1-.2.1-.1.1-.2.1-.2.2-.2.1-.2.2-.1.1-.2.1-.1.2-.2.2-.2.1-.1.2-.2.2-.1.1-.1.2-.2.2-.1.2-.1.1-.1.2-.1.2-.1.2-.1.2-.1.2-.1.2-.1.2-.1.2-.1h.2l.2-.1.2-.1h.2l.2-.1h.2l.2-.1h.5l.2-.1H448l.1.1h.3l.1.1h.3l.1.1h.1l.1.1h.1l.1.1h.1l.1.1h.1l.1.1.1.1h.1l.1.1h.1v.1l.1.1h.1l.1.1v.1h.1l.1.1v.1l.1.1.1.1.1.1v.1h.1v.1l.1.1v.1l.1.1v.1l.1.1v.2l.1.1v.1l.1.1v.3l.1.1v.1l8.7 51.4v.1l.1.1v91.6l-.1.2v.6l-.1.2v.4l-.1.2-.1.2v.2l-.1.2v.2l-.1.2-.1.2-.1.2-.1.2-.1.2-.1.2-.1.1-.1.2-.1.2-.1.2-.2.2-.1.1-.1.2-.2.2-.1.1-.2.2-.1.2-.2.1-.1.2-.2.1-.2.2-.1.1-.2.1-.2.1-.2.2-.2.1-.1.1-.2.1-.2.1-.2.1-.2.1-.2.1-.2.1h-.2l-.2.1-.2.1h-.2l-.2.1h-.2l-.2.1h-.4l-.2.1h-.7l-.2.1h-17.6l-.2-.1h-.8l-.2-.1h-.4l-.2-.1h-.2l-.2-.1h-.2l-.2-.1-.2-.1h-.2l-.2-.1-.1-.1-.2-.1-.2-.1-.2-.1-.2-.1-.2-.1-.2-.1-.2-.2-.1-.1-.2-.1-.2-.1-.2-.2-.1-.1-.2-.2-.1-.1-.2-.2-.1-.2-.2-.1-.1-.2-.2-.2-.1-.1-.1-.2-.1-.2-.2-.2-.1-.2-.1-.1-.1-.2-.1-.2-.1-.2-.1-.2v-.2l-.1-.2-.1-.2v-.2l-.1-.2-.1-.2v-.4l-.1-.2v-.4l-.1-.2v-2.2H404l.2.8.2.9.1.8.1.9.1.9.1.9.1.8v1.8z" id=""/><path fill="#171f3c" d="M445 78.8v.2l-.1.1v.3l-.1.2v.1l-.1.1v.2l-.1.1-.1.1v.2l-.1.1-.1.1-.1.1-.1.2-.1.1-.1.1-.1.1-.1.1-.1.1-.1.1-.1.1-.1.1-.1.1h-.2l-.1.1-.1.1-.2.1h-.1l-.1.1h-.2l-.1.1h-.1l-.2.1h-.4l-.2.1h-34.8l-.3-.1h-.6l-.2-.1-.3-.1h-.3l-.3-.1-.3-.1-.2-.1-.3-.1-.3-.2-.2-.1-.3-.1-.3-.2-.2-.1-.2-.2-10.1-7.3h-.2l-.1-.1-.1-.1-.1-.1h-.2l-.1-.1-.1-.1h-.2l-.1-.1h-.3l-.1-.1h-.6l-.2-.1h-19.1l-.1-.1h-.1l-.2-.1h-.1l-.2-.1h-.1l-.1-.1h-.2l-.1-.1-.1-.1-.1-.1h-.2l-.1-.1-.1-.1-.1-.1-.1-.1-.1-.1-.1-.1-.1-.1-.1-.1-.1-.1-.1-.2-.1-.1v-.1l-.1-.1-.1-.2v-.1l-.1-.1-.1-.2v-.2l-.1-.2v-.1l-.1-.1V34.1l.1-.1v-.1l.1-.2v-.1l.1-.2v-.1l.1-.1V33l.1-.1.1-.1.1-.1v-.2l.1-.1.1-.1.1-.1.1-.1.1-.1.1-.1.1-.1.1-.1.1-.1.2-.1.1-.1h.1l.1-.1.1-.1h.2l.1-.1.1-.1h.3l.2-.1h.1l.1-.1h63.8l.1.1h.2l.1.1h.3l.1.1.2.1h.1l.1.1.1.1h.2l.1.1.1.1.1.1.1.1.1.1.1.1.1.1.1.1.1.1.1.1.1.2.1.1.1.1v.1l.1.2.1.1v.1l.1.1v.2l.1.1v.2l.1.1v.3l3.2 18.5h-7.6v.1h-.2v.1h-.1v.1h-.1v.1h-.1v.3h-.1v19.9l.1.1v.2l.1.1v.1h.1v.1h.1l.1.1h.2v.1h9.2v-.1h.2l.1-.1h.1v-.1h.1v-.1h.1v-.3h.1v-6.6l1.8 10.6v1.2z"/><g id=""><path class="st2" d="M426.2 159.1l34.2-.1m-200.5-33.8v24.5m36.6 0v-24.5m-36.6 24.5h36.6m39.4 9.4l.2-.7.1-.7.2-.7.2-.7.2-.6.2-.7.2-.7.3-.6.2-.7.3-.6.2-.7.3-.6.3-.7.3-.6.3-.6.3-.6m0 0l.2-.3.6-1.1.6-1 .7-1.1.7-1 .8-1 .8-1 .8-1 .9-.9.9-.9.9-.9 1-.9 1-.8 1-.8 1.1-.8 1.1-.7 1.1-.7 1.1-.6 1.2-.6 1.2-.6 1.1-.6 1.3-.4 1.2-.5 1.2-.4 1.2-.3 1.3-.4 1.2-.2 1.3-.3 1.2-.2 1.3-.1 1.2-.1 1.3-.1h1.3m0 0h20.1m-263.8-3.1l1.1.3 1.1.4 1.1.4 1.1.4 1 .5 1.1.5 1 .5 1 .6 1.1.6 1 .6.9.6 1 .7.9.7 1 .7.9.7.9.8.8.8.9.8.8.8.8.8.7.9.8.9.7.8.6.9.7 1 .6.9.6.9.6 1 .6.9.5 1 .5 1 .4 1 .6 1.2.5 1.3.5 1.3.4 1.3.4 1.3.3 1.4.4 1.3.2 1.4m-85.2 0l.2-1.4.4-1.3.3-1.4.4-1.3.4-1.3.5-1.3.5-1.3.6-1.2.6-1.3.4-.9.6-1 .5-.9.6-1 .6-.9.6-.9.7-.9.7-.9.7-.9.7-.9.8-.8.8-.8.8-.9.8-.7.8-.8.9-.8.9-.7.9-.7 1-.7.9-.6 1-.7 1-.6 1-.5 1-.6 1.1-.5 1-.5 1.1-.5 1-.4 1.1-.4 1.1-.4 1.1-.3m2.6 24.2l.4-.2.4-.2.4-.2.4-.2.4-.2.4-.2.4-.2.5-.1.4-.2.5-.1.4-.1.5-.2.5-.1.4-.1.5-.1h.5l.5-.1.5-.1h1.5l.5-.1.5.1h1l.5.1h.5l.5.1.5.1.5.1.5.1.5.1.5.2.5.1.5.2.5.2.5.1.4.2.5.3.5.2.4.2.5.3.4.2.4.3.4.3.5.2.4.3.3.3.4.4.4.3.4.3.3.3.3.4.4.3.3.4.3.3.3.4.3.3.3.4.2.4.3.3.2.4.3.4.2.4.2.4.2.4.2.4.2.4.2.4.2.4.2.4.1.5.2.4.1.5.2.4.1.5.1.5.1.4.1.5.1.5v.5l.1.5v1l.1.5v1l-.1.5v1l-.1.5-.1.5-.1.5-.1.5-.1.5-.1.5-.2.5-.1.5-.2.5-.1.5-.2.5-.2.4-.2.5-.3.5-.2.4-.3.5-.2.4-.3.4-.3.4-.2.4-.3.4-.3.4-.3.4-.4.4-.3.4-.3.3-.4.3-.3.4-.3.3-.4.3-.4.3-.3.3-.4.3-.4.2-.3.3-.4.2-.4.3-.4.2-.3.2-.4.2-.4.2-.4.2-.5.2-.4.2-.4.2-.5.1-.4.2-.5.1-.4.1-.5.2-.4.1-.5.1-.5.1h-.5l-.5.1-.5.1h-1l-.5.1h-1l-.5-.1h-.5l-.5-.1h-.5l-.5-.1-.5-.1-.5-.1-.5-.1-.5-.1-.5-.2-.5-.1-.5-.2-.5-.1-.5-.2-.4-.2-.5-.3-.5-.2-.4-.2-.4-.3-.5-.2-.4-.3-.4-.3-.4-.2-.4-.3-.4-.3-.4-.3-.4-.4-.3-.3-.4-.3-.3-.4-.4-.3-.3-.3-.3-.4-.3-.4-.3-.3-.3-.4-.2-.4-.3-.3-.2-.4-.3-.4-.2-.4-.2-.4-.2-.3-.2-.4-.2-.5-.2-.4-.2-.4-.1-.4-.2-.5-.2-.4-.1-.5-.1-.4-.2-.5-.1-.5-.1-.4-.1-.5v-.5l-.1-.5-.1-.5V165l.1-.5v-.5l.1-.5.1-.5.1-.5.1-.5.1-.5.2-.5.1-.5.2-.5.2-.5.1-.5.3-.4.2-.5.2-.5.2-.4.3-.4.2-.5.3-.4.3-.4.3-.4.2-.4.3-.4.4-.4.3-.4.3-.3.3-.4.4-.3.3-.4.4-.3.3-.3.4-.3.3-.3.4-.3.4-.2.3-.3.4-.2.4-.3z"/><path class="st2" d="M147.8 159.1l-.2-.7-.2-.8-.2-.7-.2-.7-.3-.7-.3-.6-.2-.7-.3-.7-.3-.7-.4-.6-.3-.6-.4-.7-.3-.6-.4-.6-.4-.6-.4-.5-.3-.5-.5-.7-.6-.7-.6-.7-.6-.7-.6-.7-.7-.6-.6-.6-.7-.7-.8-.5-.7-.6-.7-.6-.8-.5-.8-.5-.8-.5-.8-.5-.9-.4-.8-.4-.9-.4-.9-.4-.8-.3-.9-.3-.9-.3-.9-.3-.9-.2-.9-.2-1-.2-.9-.1-.9-.1-.9-.1-.9-.1h-3.6l-.9.1-.9.1-.9.1-.9.2-.9.1-.9.2-.9.3-.9.2-.9.3-.9.3-.9.4-.9.3-.8.4-.9.5-.8.4-.8.5-.8.5-.8.5-.8.5-.8.6-.7.6-.7.6-.7.6-.7.6-.6.7-.6.7-.7.6-.5.7-.6.7-.5.8-.6.8-.4.6-.4.6-.3.6-.4.7-.3.6-.4.6-.3.7-.3.7-.2.7-.3.6-.3.7-.2.7-.2.7-.2.8-.2.7"/><path class="st2" d="M79.8 159.1l.1-.7.2-.7.1-.7.2-.7.2-.6.2-.7.2-.7.3-.6.2-.7.3-.7.2-.6.3-.6.3-.7.3-.6.3-.6.5-.9.6-1.1.6-1 .7-1.1.7-1 .8-1 .8-1 .8-1 .9-.9.9-.9.9-.9 1-.9 1-.8 1-.8 1.1-.8 1.1-.7 1.1-.7 1.1-.6 1.2-.7 1.2-.5 1.2-.6 1.2-.4 1.2-.5 1.2-.4 1.3-.3 1.2-.4 1.3-.2 1.2-.3 1.2-.2 1.3-.1 1.2-.1 1.3-.1h2.4l1.2.1 1.3.1 1.2.1 1.3.2 1.2.2 1.3.3 1.2.3 1.3.3 1.2.4 1.2.5 1.2.5 1.2.5 1.2.5 1.2.7 1.1.6 1.1.7 1.1.7 1.1.8 1 .7 1 .9 1 .8 1 .9.9.9.8 1 .9.9.8 1 .7 1 .8 1 .7 1.1.6 1 .6 1.1.6 1.1.3.6.3.6.3.7.3.6.2.6.3.7.2.7.3.6.2.7.2.7.2.6.2.7.1.7.2.7.1.7m-39.3-33.9V121h.1v-.2h.1v-.1h.1v-.1h.1v-.1h.3v-.1h2.2l.1.1h.2v.1h.1l.1.1v.1h.1v.1l.1.1v5.4h-.1v.2h-.1v.1h-.1l-.1.1h-.1v.1H116v-.1h-.1l-.1-.1h-.1v-.2h-.1v-.1l-.1-.1v-.2zm3.6 0h36.6m-76.8 0h36.6m204.7 0h25.3m13.4-6.9l45.8.1h1l.2.1h.3l.2.1h.3l.1.1h.2l.2.1h.1l.2.1.2.1h.1l.2.1.1.1h.2l.1.1.2.1.1.1h.2l.1.1.1.1.2.1.1.1.2.1 11.5 8.5.2.1.1.1.2.1.1.1.1.1.2.1h.1l.2.1.1.1.2.1h.1l.2.1.2.1h.1l.2.1h.1l.2.1h.2l.1.1h.2l.1.1h.4l.1.1h.9l.1.1h34.6m-86.9-6.9h.1l1.5.1h1.5l1.4.2 1.5.2.8.1.7.1.8.1.7.2.8.2.7.1.8.2.7.2.8.3.7.2.7.2.8.3.7.3.7.3.8.3.7.3.7.3.7.4.7.3.1.1.6.3.7.4.7.4.6.4.7.4.7.5.6.4.7.5.6.4.6.5.6.5.7.5.6.5.5.5.6.6.6.5.5.6.6.5.5.6.5.6.5.5.5.6.5.6.5.6.5.6.4.7.4.6.5.6.4.7.8 1.2.7 1.3.7 1.3.6 1.4m0 0l.6 1.2.5 1.3.5 1.3.4 1.3.4 1.3.3 1.4.3 1.3.3 1.4m-42.6-35.8h-22.9m-70.6 1.9h36.6m-76.8 0h36.6m-76.8 0h36.6m-76.9 0h36.6m-157.2 0h36.6m241.3 0V121h.1v-.2h.1v-.1h.1v-.1h.1v-.1h.3v-.1h2.2l.1.1h.2v.1h.1l.1.1v.1h.1v.1h.1v5.5h-.1v.2h-.1v.1h-.1v.1h-.2v.1h-2.6v-.1h-.1v-.1h-.1l-.1-.1v-.1h-.1v-.2h-.1v-.2zm-40.2 0V121l.1-.1v-.1h.1v-.1l.1-.1h.1v-.1h.2l.1-.1h2.2v.1h.3v.1h.1v.1h.1v.1h.1v.2h.1v5.3l-.1.1v.1l-.1.1v.1h-.1l-.1.1h-.1v.1h-2.6v-.1h-.1l-.1-.1h-.1v-.1h-.1v-.2h-.1v-.3zm-40.2 0v-4.3h.1v-.1l.1-.1v-.1h.2v-.1h.2v-.1h2.3v.1h.3v.1h.1v.1h.1v.1h.1v.2l.1.1v5.2h-.1v.2h-.1v.1h-.1v.1h-.1v.1h-.1l-.1.1h-2.5v-.1h-.2v-.1h-.1v-.1h-.1v-.1l-.1-.1v-.3zm-40.3 0v-4h.1v-.3h.1v-.2h.1v-.1h.1l.1-.1h.2v-.1h2.3v.1h.2l.1.1h.1v.1h.1v.2h.1v.2l.1.1v5h-.1v.3h-.1v.1h-.1v.1h-.1v.1h-.2v.1h-2.5v-.1h-.2v-.1h-.1v-.1h-.1v-.1h-.1v-.3h-.1v-.1zm-40.2 0v-4.1l.1-.1v-.2h.1v-.1h.1v-.1h.1v-.1h.3v-.1h2.3v.1h.2v.1h.2v.1l.1.1v.1h.1v5.5l-.1.1v.1h-.1v.1h-.1v.1h-.2v.1h-2.5l-.1-.1h-.1v-.1h-.1v-.1h-.1v-.1h-.1v-.2h-.1v-.2zm-80.4 0v-4.3h.1v-.1h.1v-.1l.1-.1h.1v-.1h.2l.1-.1h2.2v.1h.3v.1h.1v.1h.1v.1h.1v.2h.1v5.3h-.1v.2h-.1v.1l-.1.1h-.1v.1h-.1v.1h-2.6v-.1h-.2v-.1h-.1v-.1h-.1v-.2h-.1v-.3zm-58.5 0h18.3m0 0v-4.3h.1v-.2h.1v-.1h.2v-.1h.2v-.1H38v.1h.3v.1h.1v.1h.1v.1l.1.1v.2h.1v5.2h-.1v.2h-.1v.1h-.1v.1h-.1v.1h-.1l-.1.1h-2.5v-.1h-.2v-.1h-.1v-.1h-.1v-.1l-.1-.1v-.3zm263.2-10.8h40.2m-80.4 0h40.2m-80.4 0h40.2m-80.5 0h40.3m-80.5 0h40.2m-80.4 0h40.2m-80.4 0h40.2m-80.4 0H57M16.8 84.8v40.4m0-24.3h321.7m-321.7 8.2h321.7M16.8 133v26.1m424-106.3h-7.6v.1h-.2v.1h-.1v.1h-.1v.1h-.1v.3h-.1v19.9l.1.1v.2l.1.1v.1h.1v.1h.1l.1.1h.2v.1h9.2v-.1h.2l.1-.1h.1v-.1h.1v-.1h.1v-.3h.1v-20l-.1-.1v-.2h-.1v-.1h-.1V53h-.1v-.1h-.2v-.1h-.3zM343 159.1l.2-1 .3-1.1.4-1 .4-.9.4-1 .4-1 .5-.9.5-1 .5-.9.6-.9.6-.8m0 0l.6-.9.7-.9.7-.8.7-.8.8-.8.8-.8.8-.7.8-.7.9-.7.9-.7.9-.6.9-.5 1-.6.9-.5 1-.5 1-.4 1-.4 1.1-.4 1-.4 1.1-.3 1-.2 1.1-.3 1.1-.1 1.1-.2 1-.1 1.1-.1h3.3l1.1.1 1.1.1 1.1.2 1.1.1 1 .3 1.1.2 1.1.3 1 .4 1 .4 1.1.4 1 .4.9.5 1 .5 1 .6.9.5.9.6.9.7.8.7.9.7.8.7.8.8.8.8.7.8.7.8.7.9.6.9m0 0l.6.8.6.9.5.9.5 1 .5.9.4 1 .4 1 .4.9.3 1 .3 1.1.3 1"/><path class="st2" d="M363.6 149.4l.6-.3.6-.3.6-.3.6-.3.7-.2.6-.3.7-.2.7-.2.6-.1.7-.1.7-.2h.7l.7-.1h.6l.7-.1.7.1h1.4l.7.1.7.1.6.2.7.1.7.2.6.2.7.2.6.3.7.2.6.3.6.3.6.4.6.3.6.4.6.4.5.4.5.4.6.5.5.4.5.5.4.5.5.5.4.6.5.5.4.6.3.5.4.6.3.6.4.6.3.7.2.6.3.6.2.7.2.6.2.7.2.7.1.6.1.7.1.7.1.7v3.4l-.1.7-.1.7-.1.7-.2.7-.2.6-.1.7-.3.6-.2.7-.3.6-.2.7-.3.6-.4.6-.3.6-.4.6-.4.5-.4.6-.4.5-.4.6-.5.5-.5.5-.5.4-.5.5-.5.4-.6.5-.5.4-.6.4-.6.3-.6.4-.6.3-.6.3-.6.3-.7.2-.6.3-.7.2-.6.2-.7.1-.7.2-.7.1-.6.1-.7.1h-.7l-.7.1h-.7l-.7-.1h-.7l-.7-.1-.6-.1-.7-.1-.7-.1-.7-.2-.6-.2-.7-.2-.6-.2-.7-.3-.6-.3-.6-.3-.6-.3-.6-.3-.6-.4-.6-.4-.6-.4-.5-.4-.5-.4-.6-.5-.5-.5-.4-.4-.5-.6-.4-.5-.5-.5-.4-.6-.4-.5-.3-.6-.4-.6-.3-.6-.3-.6-.3-.7-.3-.6-.2-.6-.2-.7-.2-.7-.2-.6-.2-.7-.1-.7-.1-.7-.1-.6v-.7l-.1-.7v-1.4l.1-.7.1-.7v-.7l.1-.6.2-.7.1-.7.2-.6.2-.7.3-.7.2-.6.3-.6.3-.7.3-.6.3-.6.4-.6.4-.5.4-.6.4-.6.4-.5.5-.5.4-.5.5-.5.5-.5.5-.4.6-.5.5-.4.6-.4.6-.3zm10-49.2v-7.9m0 0V92l-.1-.1v-.1h-.1v-.1h-.1v-.1h-.1v-.1h-.3v-.1h-.1m0 0H368m0 0h-.1v.1h-.3v.1h-.1l-.1.1-.1.1v.1h-.1v.4m0 0v7.9m0 0v.4h.1v.2h.1v.1h.1v.1h.2v.1h.3m0 0h4.8m0 0h.2l.1-.1h.1l.1-.1h.1v-.1h.1v-.2h.1v-.4M407 82.5h-.6l-.3-.1h-.6l-.2-.1-.3-.1h-.3l-.3-.1-.3-.1-.2-.1-.3-.1-.3-.2-.2-.1-.3-.1-.3-.2-.2-.1-.2-.2m0 0L392 73.6m0 0h-.2l-.1-.1-.1-.1-.1-.1h-.2l-.1-.1-.1-.1h-.2l-.1-.1h-.3l-.1-.1h-.6l-.2-.1h-.1m0 0h-18.1m0 0h-.9l-.1-.1h-.1l-.2-.1h-.1l-.2-.1h-.1l-.1-.1h-.2l-.1-.1-.1-.1-.1-.1h-.2l-.1-.1-.1-.1-.1-.1-.1-.1-.1-.1-.1-.1-.1-.1-.1-.1-.1-.1-.1-.2-.1-.1v-.1l-.1-.1-.1-.2v-.1l-.1-.1-.1-.2v-.2l-.1-.2v-.1l-.1-.1v-.8m0 0V35m0 0v-.9l.1-.1v-.1l.1-.2v-.1l.1-.2v-.1l.1-.1V33l.1-.1.1-.1.1-.1v-.2l.1-.1.1-.1.1-.1.1-.1.1-.1.1-.1.1-.1.1-.1.1-.1.2-.1.1-.1h.1l.1-.1.1-.1h.2l.1-.1.1-.1h.3l.2-.1h.1l.1-.1h.9m62 0h.9l.1.1h.2l.1.1h.3l.1.1.2.1h.1l.1.1.1.1h.2l.1.1.1.1.1.1.1.1.1.1.1.1.1.1.1.1.1.1.1.1.1.2.1.1.1.1v.1l.1.2.1.1v.1l.1.1v.2l.1.1v.2l.1.1v.3m7.4 43.2V79l-.1.1v.3l-.1.2v.1l-.1.1v.2l-.1.1-.1.1v.2l-.1.1-.1.1-.1.1-.1.2-.1.1-.1.1-.1.1-.1.1-.1.1-.1.1-.1.1-.1.1-.1.1h-.2l-.1.1-.1.1-.2.1h-.1l-.1.1h-.2l-.1.1h-.1l-.2.1h-.4l-.2.1h-.4m-69.4-51.7h62m7.4 51.7H407m30.6-48.2l3.2 18.5m2.4 14.1l1.8 10.6m-86.1-50.8v91.6m0-91.6V26l.1-.1v-.3l.1-.2v-.1l.1-.1V25l.1-.1.1-.1v-.2l.1-.1.1-.1.1-.1v-.1l.1-.2.1-.1.1-.1.1-.1.1-.1.1-.1.2-.1.1-.1h.1l.1-.1.1-.1.2-.1h.1l.1-.1.1-.1h.2l.1-.1h.1l.2-.1h.3l.1-.1h.7m-24.6 62.3v40.4m24.6-102.7h77.3m0 0h.7l.2.1h.3l.1.1h.1l.2.1h.1l.1.1.2.1h.1l.1.1.1.1.2.1h.1l.1.1.1.1.1.1.1.1.1.1.1.1.1.2.1.1.1.1.1.1v.1l.1.2.1.1.1.1v.1l.1.2v.1l.1.2v.2l.1.2v.1m0 0l7.4 43.8m.1 60.4V70.5m-.1-.7l.1.1v.6m-78.6 52.8l-1.5.1h-1.5l-1.5.2-1.5.2-1.5.2-1.5.3-1.5.3-1.4.4-1.5.4-1.4.5-1.4.6-1.4.6-1.4.6-1.3.7-1.3.7-1.3.8-1.3.8-1.2.9-1.2.9-1.2 1-1.2.9-1.1 1.1-1 1-1.1 1.1-1 1.2-.9 1.2-.9 1.2-.9 1.2-.8 1.3-.8 1.3-.7 1.3-.7 1.3-.6 1.4-.6 1.4-.6 1.4-.5 1.4-.4 1.5-.4 1.4-.3 1.5-.3 1.5m14.6-33.9h5.1"/><path class="st2" d="M350.6 125.2V21.9l.1-.2v-.3l.1-.2v-.4l.1-.2v-.2l.1-.2.1-.2v-.2l.1-.2.1-.2.1-.2.1-.2.1-.2.1-.2.1-.2.1-.2.1-.1.1-.2.1-.2.2-.2.1-.2.2-.1.1-.2.1-.1.2-.2.2-.2.1-.1.2-.2.2-.1.1-.1.2-.2.2-.1.2-.1.1-.1.2-.1.2-.1.2-.1.2-.1.2-.1.2-.1.2-.1.2-.1h.2l.2-.1.2-.1h.2l.2-.1h.2l.2-.1h.5l.2-.1H448l.1.1h.3l.1.1h.3l.1.1h.1l.1.1h.1l.1.1h.1l.1.1h.1l.1.1.1.1h.1l.1.1h.1v.1l.1.1h.1l.1.1v.1h.1l.1.1v.1l.1.1.1.1.1.1v.1h.1v.1l.1.1v.1l.1.1v.1l.1.1v.2l.1.1v.1l.1.1v.3l.1.1v.1l8.7 51.4v.1l.1.1v91.6l-.1.2v.6l-.1.2v.4l-.1.2-.1.2v.2l-.1.2v.2l-.1.2-.1.2-.1.2-.1.2-.1.2-.1.2-.1.1-.1.2-.1.2-.1.2-.2.2-.1.1-.1.2-.2.2-.1.1-.2.2-.1.2-.2.1-.1.2-.2.1-.2.2-.1.1-.2.1-.2.1-.2.2-.2.1-.1.1-.2.1-.2.1-.2.1-.2.1-.2.1-.2.1h-.2l-.2.1-.2.1h-.2l-.2.1h-.2l-.2.1h-.4l-.2.1h-.7l-.2.1h-17.6l-.2-.1h-.8l-.2-.1h-.4l-.2-.1h-.2l-.2-.1h-.2l-.2-.1-.2-.1h-.2l-.2-.1-.1-.1-.2-.1-.2-.1-.2-.1-.2-.1-.2-.1-.2-.1-.2-.2-.1-.1-.2-.1-.2-.1-.2-.2-.1-.1-.2-.2-.1-.1-.2-.2-.1-.2-.2-.1-.1-.2-.2-.2-.1-.1-.1-.2-.1-.2-.2-.2-.1-.2-.1-.1-.1-.2-.1-.2-.1-.2-.1-.2v-.2l-.1-.2-.1-.2v-.2l-.1-.2-.1-.2v-.4l-.1-.2v-.4l-.1-.2v-2.2m0 0H404m0 0l.2.8.2.9.1.8.1.9.1.9.1.9.1.8v2.7l-.1.9v.9l-.1.9-.2.9-.1.9-.2.9-.2.9-.2.9-.3.8-.3.9-.3.8-.3.9-.3.8-.4.8-.4.8-.4.8-.4.8-.5.7-.5.8-.5.7-.5.7-.5.7-.5.7-.6.6-.6.7-.6.6-.6.6-.6.6-.7.6-.7.6-.7.5-.7.6-.8.5-.7.5-.8.5-.8.4-.8.4-.8.5-.8.3-.8.4-.8.3-.9.4-.9.2-.8.3-.9.2-.8.2-.9.2-.9.2-.9.1-.8.1-.9.1-.9.1h-3.4l-.9-.1-.9-.1-.9-.1-.8-.1-.9-.2-.9-.2-.9-.2-.8-.2-.9-.3-.8-.2-.9-.4-.8-.3-.9-.4-.8-.3-.8-.5-.8-.4-.8-.4-.7-.5-.8-.5-.7-.5-.7-.6-.7-.5-.7-.6-.7-.6-.6-.6-.7-.6-.6-.6-.6-.7-.5-.6-.6-.7-.5-.7-.5-.7-.5-.7-.4-.8-.5-.7-.4-.8-.4-.8-.4-.8-.4-.8-.4-.8-.3-.9-.3-.8-.3-.9-.2-.8-.2-.9-.2-.9-.2-.9-.2-.9-.1-.9-.1-.9-.1-.9v-4.4l.1-.9.1-.9.1-.9.2-.8.2-.9.2-.8m0 0h-7.1m0 0l-.1.9-.2 1-.1.9-.1.9-.1 1-.1.9v15.6m0 0h-5m0 0v-14.6l.1-1v-.9l.1-1 .1-.9.1-1 .1-.9.2-.9m0 0h-171m0 0l.2.9.1 1 .1.9.1.9.1 1v.9l.1 1v4m0 0h-5m0 0v-4l-.1-1v-.9l-.1-1-.1-.9-.1-1-.2-.9-.2-.9m0 0h-7m0 0l.2.8.2.9.1.8.2.9.1.9v.9l.1.8v3.6l-.1.9-.1.9-.1.9-.2.9-.2.9-.2.9-.2.9-.3.8-.2.9-.3.8-.4.9-.3.8-.4.8-.4.8-.4.8-.4.8-.5.7-.4.8-.5.7-.5.7-.6.7-.5.7-.6.6-.5.7-.7.6-.6.6-.6.6-.7.6-.7.6-.7.5-.7.6-.7.5-.8.5-.8.5-.7.4-.8.4-.8.5-.9.3-.8.4-.8.3-.9.4-.8.2-.9.3-.9.2-.8.2-.9.2-.9.2-.9.1-.8.1-.9.1-.9.1h-3.4l-.9-.1-.9-.1-.8-.1-.9-.1-.9-.2-.9-.2-.8-.2-.9-.2-.9-.3-.8-.2-.9-.4-.8-.3-.8-.4-.9-.3-.8-.5-.8-.4-.7-.4-.8-.5-.8-.5-.7-.5-.7-.6-.7-.5-.7-.6-.7-.6-.6-.6-.6-.6-.7-.6-.5-.7-.6-.6-.5-.7-.6-.7-.5-.7-.5-.7-.4-.8-.5-.7-.4-.8-.4-.8-.4-.8-.4-.8-.3-.8-.4-.9-.3-.8-.2-.9-.3-.8-.2-.9-.2-.9-.2-.9-.2-.9-.1-.9-.1-.9-.1-.9v-3.6l.1-.8v-.9l.1-.9.2-.9.1-.8.2-.9.2-.8m0 0h-7m0 0l-.2.9-.2 1-.1.9-.1.9-.1 1v.9l-.1 1v14.6m0 0h-5m0 0v-14.6l.1-1v-.9l.1-1 .1-.9.1-1 .1-.9.2-.9m0 0H16.8v7h-5.2V133h5.2v-7.8H6.5V84.8h332l2.8-70.6h4.2m0 0v111"/></g><path d="M345.5 125.2h5.1m0 0V21.9l.1-.2v-.3l.1-.2v-.4l.1-.2v-.2l.1-.2.1-.2v-.2l.1-.2.1-.2.1-.2.1-.2.1-.2.1-.2.1-.2.1-.2.1-.1.1-.2.1-.2.2-.2.1-.2.2-.1.1-.2.1-.1.2-.2.2-.2.1-.1.2-.2.2-.1.1-.1.2-.2.2-.1.2-.1.1-.1.2-.1.2-.1.2-.1.2-.1.2-.1.2-.1.2-.1.2-.1h.2l.2-.1.2-.1h.2l.2-.1h.2l.2-.1h.5l.2-.1H448l.1.1h.4v.1h.3l.1.1h.1l.1.1h.1l.1.1h.1l.1.1h.1l.1.1.1.1h.1l.1.1h.1v.1l.1.1h.1l.1.1v.1h.1l.1.1v.1l.1.1.1.1.1.1v.1h.1v.1l.1.1v.1l.1.1v.1l.1.1v.2l.1.1v.1l.1.1v.3l.1.1v.1l8.7 51.4v.1l.1.1v91.6l-.1.2v.6l-.1.2v.4l-.1.2-.1.2v.2l-.1.2v.2l-.1.2-.1.2-.1.2-.1.2-.1.2-.1.2-.1.1-.1.2-.1.2-.1.2-.2.2-.1.1-.1.2-.2.2-.1.1-.2.2-.1.2-.2.1-.1.2-.2.1-.2.2-.1.1-.2.1-.2.2-.2.1-.2.1-.1.1-.2.1-.2.1-.2.1-.2.1-.2.1-.2.1h-.2l-.2.1-.2.1h-.2l-.2.1h-.2l-.2.1h-.4l-.2.1h-.7l-.2.1h-17.6l-.2-.1h-.8l-.2-.1h-.4l-.2-.1h-.2l-.2-.1h-.2l-.2-.1-.2-.1h-.2l-.2-.1-.1-.1-.2-.1-.2-.1-.2-.1-.2-.1-.2-.1-.2-.1-.2-.1-.1-.2-.2-.1-.2-.1-.2-.2-.1-.1-.2-.2-.1-.1-.2-.2-.1-.2-.2-.1-.1-.2-.2-.2-.1-.1-.1-.2-.1-.2-.2-.2-.1-.2-.1-.1-.1-.2-.1-.2-.1-.2-.1-.2v-.2l-.1-.2-.1-.2v-.2l-.1-.2-.1-.2v-.4l-.1-.2v-.4l-.1-.2v-2.2m0 0H404m0 0l.2.8.2.9.1.8.1.9.1.9.1.9.1.8v2.7l-.1.9v.9l-.1.9-.2.9-.1.9-.2.9-.2.9-.2.9-.3.8-.3.9-.3.8-.3.9-.3.8-.4.8-.4.8-.4.8-.4.8-.5.7-.5.8-.4.7-.6.7-.5.7-.5.7-.6.6-.6.7-.6.6-.6.6-.6.6-.7.6-.7.6-.7.5-.7.6-.8.5-.7.5-.8.5-.8.4-.8.4-.8.5-.8.3-.8.4-.8.3-.9.4-.9.2-.8.3-.9.2-.8.2-.9.2-.9.2-.9.1-.8.1-.9.1-.9.1h-3.4l-.9-.1-.9-.1-.9-.1-.8-.1-.9-.2-.9-.2-.9-.2-.8-.2-.9-.3-.8-.2-.9-.4-.8-.3-.9-.4-.8-.3-.8-.5-.8-.4-.8-.4-.7-.5-.8-.5-.7-.5-.7-.6-.7-.5-.7-.6-.7-.6-.6-.6-.7-.6-.6-.6-.6-.7-.5-.6-.6-.7-.5-.7-.5-.7-.5-.7-.4-.8-.5-.7-.4-.8-.4-.8-.4-.8-.4-.8-.4-.8-.3-.9-.3-.8-.3-.9-.2-.8-.2-.9-.2-.9-.2-.9-.2-.9-.1-.9-.1-.9-.1-.9v-4.4l.1-.9.1-.9.1-.9.2-.8.2-.9.2-.8m0 0h-7.1m0 0l-.1.9-.2 1-.1.9-.1.9-.1 1-.1.9v15.6m0 0h-5m0 0v-14.6l.1-1v-.9l.1-1 .1-.9.1-1 .1-.9.2-.9m0 0h-171m0 0l.2.9.1 1 .1.9.1.9.1 1v.9l.1 1v4m0 0h-5m0 0v-4l-.1-1v-.9l-.1-1-.1-.9-.1-1-.2-.9-.2-.9m0 0h-7m0 0l.2.8.2.9.1.8.2.9.1.9v.9l.1.8v3.6l-.1.9-.1.9-.1.9-.2.9-.2.9-.2.9-.2.9-.3.8-.2.9-.3.8-.4.9-.3.8-.4.8-.4.8-.4.8-.4.8-.5.7-.4.8-.5.7-.5.7-.6.7-.5.7-.6.6-.5.7-.7.6-.6.6-.6.6-.7.6-.7.6-.7.5-.7.6-.7.5-.8.5-.8.5-.7.4-.8.4-.8.5-.9.3-.8.4-.8.3-.9.4-.8.2-.9.3-.9.2-.8.2-.9.2-.9.2-.9.1-.8.1-.9.1-.9.1h-3.4l-.9-.1-.9-.1-.8-.1-.9-.1-.9-.2-.9-.2-.8-.2-.9-.2-.9-.3-.8-.2-.9-.4-.8-.3-.8-.4-.9-.3-.8-.5-.8-.4-.7-.4-.8-.5-.8-.5-.7-.5-.7-.6-.7-.5-.7-.6-.7-.6-.6-.6-.6-.6-.7-.6-.5-.7-.6-.6-.5-.7-.6-.7-.5-.7-.5-.7-.4-.8-.5-.7-.4-.8-.4-.8-.4-.8-.4-.8-.3-.8-.4-.9-.3-.8-.2-.9-.3-.8-.2-.9-.2-.9-.2-.9-.2-.9-.1-.9-.1-.9-.1-.9v-3.6l.1-.8v-.9l.1-.9.2-.9.1-.8.2-.9.2-.8m0 0h-7m0 0l-.2.9-.2 1-.1.9-.1.9-.1 1v.9l-.1 1v14.6m0 0h-5m0 0v-14.6l.1-1v-.9l.1-1 .1-.9.1-1 .1-.9.2-.9m0 0H16.8v7h-5.2V133h5.2v-7.8H6.5V84.8h332l2.8-70.6h4.2m0 0v111" stroke-width="3" fill="none" stroke="#171f3c" stroke-linecap="round" stroke-linejoin="round" stroke-miterlimit="10"/></svg>