<svg version="1.1" id="Layer_Trailer" xmlns="http://www.w3.org/2000/svg" x="0" y="0" viewBox="0 0 879.7 250" xml:space="preserve"><style>.st2,.st3{fill:none;stroke:#171f3c;stroke-linecap:round;stroke-linejoin:round;stroke-miterlimit:10}.st3{stroke-width:3}</style><path d="M870.6 127.7v68.1l-.1.8-.1.8-.1.8-.2.8-.2.8-.2.8-.2.8-.3.8-.3.8-.3.8-.3.8-.4.8-.4.8-.4.8-.5.8-.5.7-.5.7-.5.7-.6.7-.6.7-.6.6-.6.6-.7.6-.7.6-.7.5-.7.5-.7.5-.7.5-.8.5-.8.4-.8.4-.8.4-.8.3-.8.3-.8.3-.8.3-.9.2-.9.2-.9.2-.9.1-.9.1-.9.1h-8.4v-12.6H828l-.1 1.2-.1 1.2-.2 1.2-.2 1.2-.2 1.2-.3 1.2-.3 1.1-.3 1.1-.4 1.1-.4 1.1-.5 1.1-.5 1.1-.6 1.1-.6 1.1-.6 1-.7 1-.7 1-.7 1-.8.9-.8.9-.8.9-.8.8-.9.8-.9.8-.9.8-1 .7-1 .7-1 .7-1 .6-1.1.6-1.1.5-1.1.5-1.1.5-1.1.4-1.2.4-1.2.3-1.2.3-1.2.3-1.2.2-1.2.2-1.2.2-1.2.1-1.2.1H792l-1.2-.1-1.2-.1-1.2-.2-1.2-.2-1.2-.2-1.2-.3-1.2-.3-1.2-.3-1.1-.4-1.1-.4-1.1-.5-1.1-.5-1.1-.5-1.1-.6-1-.6-1-.7-1-.7-1-.7-.9-.8-.9-.8-.9-.8-.9-.8-.8-.9-.8-.9-.8-.9-.7-1-.7-1-.7-1-.6-1-.6-1.1-.6-1.1-.5-1.1-.5-1.1-.4-1.1-.4-1.1-.4-1.1-.3-1.1-.3-1.2-.2-1.2-.2-1.2-.2-1.2-.1-1.2-.1-1.2H748v12.6h-5v-22.6h-71.6l.2 1.4.2 1.4.2 1.4.1 1.4.1 1.4v4.9h-5.5v-4.9l-.1-1.4-.1-1.4-.2-1.4-.2-1.4-.2-1.4h-7.8l.3 1.2.2 1.2.2 1.2.1 1.2.1 1.2.1 1.2v2.4l-.1 1.2-.1 1.2-.2 1.2-.2 1.2-.2 1.2-.3 1.2v1.3l-.4 1.2-.4 1.2-.4 1.1-.5 1.1-.5 1.1-.5 1.1-.6 1.1-.6 1-.7 1-.7 1-.7 1-.8.9-.8.9-.8.9-.9.8-.9.8-.8.8-1 .8-1 .7-1 .7-1 .7-1 .6-1.1.6-1.1.5-1.1.5-1.1.5-1.1.4-1.2.4-1.2.3-1.2.3-1.2.3-1.2.2-1.2.2-1.2.1-1.2.1-1.2.1h-2.4l-1.2-.1-1.1.1-1.2-.1-1.2-.2-1.2-.2-1.2-.3-1.2-.3-1.2-.3-1.2-.4-1.1-.4-1.1-.5-1.1-.5-1.1-.5-1.1-.6-1-.6-1-.7-1-.7-1-.7-1-.8-.9-.8-.9-.8-.9-.8-.8-.9-.8-.9-.8-.9-.7-1-.7-1-.7-1-.6-1-.6-1.1-.5-1.1-.5-1.1-.5-1.1-.4-1.1-.4-1.2-.4-1.2-.3-1.2-.3-1.2-.2-1.2-.2-1.2-.2-1.2-.1-1.2-.1-1.2v-2.4l.1-1.2.1-1.2.1-1.2.2-1.2.2-1.2.3-1.2h-7.8l-.2 1.4-.2 1.4-.2 1.4-.1 1.4-.1 1.4v16.5h-5.5v-16.5l.1-1.4.1-1.4.2-1.4.2-1.4.2-1.4h-7l.2 1.4.2 1.4.2 1.4.1 1.4.1 1.4v4.9h-5.5v-4.9l-.1-1.4-.1-1.4-.2-1.4-.2-1.4-.2-1.4H557l.3 1.2.2 1.2.2 1.2.1 1.2.1 1.2.1 1.2v2.4l-.1 1.2-.1 1.2-.2 1.2-.2 1.2-.2 1.2-.3 1.2-.3 1.2-.4 1.2-.4 1.1-.4 1.1-.5 1.1-.5 1.1-.5 1.1-.6 1.1-.6 1-.7 1-.7 1-.7 1-.8.9-.8.9-.8.9-.9.9-.9.8-.9.8-1 .8-1 .7-1 .7-1 .7-1 .6-1.1.6-1.1.5-1.1.5-1.1.5-1.1.4-1.2.4-1.2.4-1.2.3-1.2.3-1.2.2-1.2.2h-.8l-1.2.1-1.2.1h-2.4l-1.2-.1-1.2-.1-1.2-.2-1.2-.2-1.2-.2-1.2-.3-1.2-.3-1.2-.4-1.2-.4-1.1-.4-1.1-.5-1.1-.5-1.1-.5-1.1-.6-1-.6-1-.7-1-.7-1-.7-.9-.8-.9-.8-.9-.8-.9-.9-.8-.9-.8-.9-.8-.9-.7-1-.7-1-.7-1-.6-1-.6-1.1-.5-1.1-.5-1.1-.5-1.1-.4-1.1-.4-1.1-.4-1.2-.3-1.2-.3-1.2-.2-1.2-.2-1.2-.2-1.2-.1-1.2-.1-1.2v-2.4l.1-1.2.1-1.2.1-1.2.2-1.2.2-1.2.3-1.2h-7.8l-.2 1.4-.2 1.4-.2 1.4-.1 1.4v17.9h-5.5v-16.6l.1-1.4.1-1.4.1-1.4.2-1.4.2-1.4h-19.4v8.1h-67.9v-8h-6.7v8h-28.3v-8.6h-6.7v8.1h-67.9v-8h-19.4l.3 1.6.2 1.7.2 1.7.1 1.7v5.2h-5.5v-4.9l-.1-1.4-.1-1.4-.2-1.4-.2-1.4-.2-1.4h-7.8l.3 1.2.2 1.2.2 1.2.1 1.2.1 1.2.1 1.2v2.4l-.1 1.2-.1 1.2-.1 1.2-.2 1.2-.2 1.2-.3 1.2-.3 1.2-.4 1.2-.4 1.2-.4 1.1-.5 1.1-.5 1.1-.6 1.1-.6 1.1-.6 1-.7 1-.7 1-.7 1-.8.9-.8.9-.8.9-.9.8-.9.8-.9.8-.9.8-1 .7-1 .7-1 .7-1 .6-1.1.6-1.1.5-1.1.5-1.1.5-1.1.4-1.1.4-1.2.3-1.2.3-1.2.3-1.2.2-1.2.2-1.2.1-1.2.1-1.2.1h-2.4l-1.2-.1-1.2-.1-1.2-.1-1.2-.2-1.2-.2-1.2-.3-1.2-.3-1.2-.3-1.1-.4-1.1-.4-1.1-.5-1.1-.5-1.1-.5-1.1-.6-1-.6-1-.7-1-.7-1-.7-.9-.8-.9-.8-.9-.8-.9-.8-.8-.9-.8-.9-.8-.9-.7-1-.7-1-.7-1-.6-1-.6-1.1-.5-1.1-.5-1.1-.5-1.1-.4-1.1-.4-1.2-.4-1.2-.3-1.2-.3-1.2-.2-1.2-.2-1.2-.1-1.2-.1-1.2-.1-1.2v-2.4l.1-1.2.1-1.2.1-1.2.2-1.2.2-1.2.3-1.2h-7.8l-.2 1.4-.2 1.4-.2 1.4-.1 1.4-.1 1.4V220H165v-16.5l.1-1.4.1-1.4.1-1.4.2-1.4.2-1.4h-7l.2 1.4.2 1.4.1 1.4.1 1.4.1 1.4v4.9h-5.5v-4.9l-.1-1.4-.1-1.4-.2-1.4-.2-1.4-.2-1.4h-7.8l.3 1.2.2 1.2.2 1.2.1 1.2.1 1.2.1 1.2v2.4l-.1 1.2-.1 1.2-.1 1.2-.2 1.2-.2 1.2-.3 1.2-.3 1.2-.4 1.2-.4 1.1-.4 1.1-.5 1.1-.5 1.1-.5 1.1-.6 1.1-.6 1-.7 1-.7 1-.7 1-.8.9-.8.9-.8.9-.9.9-.9.8-.9.8-.9.8-1 .7-1 .7-1 .7-1 .6-1.1.6-1.1.5-1.1.5-1.1.5-1.1.4-1.1.4-1.2.4-1.2.3-1.2.3-1.2.2-1.2.2-1.2.2-1.2.1-1.2.1h-2.4l-1.2-.1-5.2.4-1.2-.2-1.2-.2-1.2-.2-1.2-.3-1.2-.3-1.2-.4-1.1-.4-1.1-.4-1.1-.5-1.1-.5-1.1-.5-1.1-.6-1-.6-1-.7-1-.7-1-.7-.9-.8-.9-.8-.9-.8-.9-.9-.8-.9-.8-.9-.8-.9-.7-1-.7-1-.7-1-.6-1-.6-1.1-.5-1.1-.5-1.1-.5-1.1-.4-1.1-.4-1.1-.4-1.2-.3-1.2-.3-1.2-.2-1.2-.2-1.2-.1-1.2-.1-1.2-.1-1.2v-2.4l.1-1.2.1-1.2.1-1.2.2-1.2.2-1.2.3-1.2h-7.8l-.2 1.4-.2 1.4-.2 1.4-.1 1.4-.1 1.4v16.5h-5.5v-16.6l.1-1.4.1-1.4.1-1.4.2-1.4.2-1.4h-30v-11.3H17.9V179h-1v6.8h-4.4V179H9.7v-2.7l2.9-.4v-44.7h.7v-11.5h-.7v-4.4h8V21.9h-2.8v-8h-2v-4h656.8v105.3h10V59.7l.1-.3.1-.2.1-.3.1-.2.1-.2.1-.2.1-.2.1-.2.1-.2.1-.2.1-.2.2-.2.2-.2.2-.2.2-.2.2-.2.2-.2.2-.2.2-.2.2-.2.2-.2.2-.1.1-.2.2-.1.2-.1.2-.1.2-.1.2-.1.2-.1.2-.1.2-.1.2-.1.2-.1.3-.1h72.3l.3.1.2.1.2.1.2.1.2.1.2.1.2.1.2.1.2.1.5.2.2.1.2.2.2.2.2.2.2.2.2.2.2.2.2.2.2.2.2.2.2.2.2.2.1.2.1.2.1.2.1.2.1.2.1.2.1.2.1.2.1.2.1.3.1.3v.3l7.8 45.5 90 14.4h.3l.3.1.2.1.3.1.2.1.2.1.2.1.2.1.2.1.2.1.2.1.2.1.2.1.2.1.2.2.2.2.2.2.2.2.2.2.2.2.2.2.2.2.2.2.2.2.1.2.1.2.1.2.1.2.1.2.1.2.1.2.1.2.1.3.1.3.1.3.1.3v1.7z" fill="#fff"/><path d="M760.1 106.2v1.3l-.1.1-.1.1-.1.1-.1.1-.1.1-.1.1-.1.1-.1.1-.1.1-.1.1-.1.1-.1.1-.1.1-.1.1-.1.1-.1.1-.1.1-.1.1-.1.1-.1.1h-23l-.2-.1-.2-.1-.2-.1-.2-.1-.2-.1-.2-.1-.2-.1-.2-.1-.2-.1-.2-.1-.2-.1-8-5.8-.1-.1-.1-.1-.1-.1-.1-.1h-21.8l-.1-.1h-.1l-.1-.1-.1-.1-.1-.1-.1-.1-.1-.1-.1-.1-.1-.1-.1-.1-.1-.1-.1-.1-.1-.1-.1-.1-.1-.1-.1-.1-.1-.1v-.1l-.1-.1V70.7l.1-.1v-.1l.1-.1.1-.1.1-.1.1-.1.1-.1.1-.1.1-.1.1-.1.1-.1.1-.1.1-.1.1-.1.1-.1.1-.1.1-.1.1-.1H753l.1.1h.1l.1.1.1.1.1.1.1.1.1.1.1.1.1.1.1.1.1.1.1.1.1.1.1.1.1.1.1.1.1.1.1.1v.9l.9 5.6h-6.8V99h8.3V89l2.9 16.9v.3z" fill="#171f3c"/><path class="st2" d="M650.5 150.6h.2l.1.1h.2v.1h.1v.2h.1v.2h.1v.2m0 0v1.7m0 0v.2h-.1v.2h-.1v.1h-.1v.1h-.1v.1h-.4m0 0h-4.3m0 0h-.3v-.1h-.2v-.1h-.1v-.2h-.1v-.3m0 0v-1.7m0 0v-.4h.1v-.1h.1v-.1h.1v-.1h.2v-.1h.2m0 0h4.3m-138.1 35.8l.4-.3.4-.2.5-.2.4-.2.5-.2.5-.2.4-.2.5-.2.5-.2.5-.1.5-.2.5-.1.6-.1.5-.1.5-.1.6-.1.5-.1.5-.1h1.1l.6-.1h.6l.5.1h1.1l.6.1h.6l.5.1.6.1.5.1.6.1.6.2.5.1.5.2.6.2.5.2.5.2.6.2.5.3.5.2.5.3.5.2.5.3.4.3.5.3.4.3.5.4.4.3.4.3.4.4.4.3.4.4.4.4.4.4.3.4.4.3.3.4.3.4.3.5.3.4.3.4.3.4.2.4.3.4.2.4.3.5.2.4.2.5.2.4.2.5.2.5.2.5.1.5.2.5.1.5.2.5.1.5.1.5.1.6.1.5.1.5v.6l.1.5v3.4l-.1.6-.1.5v.6l-.1.5-.1.6-.2.5-.1.6-.2.5-.1.6-.2.5-.2.6-.2.5-.2.5-.3.5-.2.5-.3.5-.3.5-.2.5-.3.5-.3.4-.4.5-.3.4-.3.5-.4.4-.3.4-.4.4-.3.4-.4.4-.4.3-.4.4-.4.3-.4.3-.4.4-.4.3-.4.3-.4.3-.4.2-.4.3-.4.2-.5.3-.4.2-.4.2-.5.2-.5.3-.4.1-.5.2-.5.2-.5.2-.5.1-.5.2-.5.1-.5.1-.6.2-.5.1h-.5l-.6.1-.5.1h-.6l-.5.1h-1.7l-.5-.1H521l-.5-.1-.6-.1-.6-.1-.5-.1-.6-.1-.5-.2-.6-.1-.5-.2-.5-.2-.6-.2-.5-.2-.5-.2-.5-.2-.5-.3-.5-.2-.5-.3-.5-.3-.5-.3-.4-.3-.5-.3-.4-.3-.5-.4-.4-.3-.4-.4-.4-.3-.4-.4-.4-.4-.3-.4-.4-.3-.3-.4-.4-.4-.3-.4-.3-.4-.3-.4-.3-.5-.2-.4-.3-.4-.3-.4-.2-.4-.2-.5-.3-.4-.2-.5-.2-.4-.2-.5-.2-.5-.1-.5-.2-.4-.2-.5-.1-.6-.1-.5-.2-.5-.1-.5-.1-.5-.1-.6v-.5l-.1-.6v-.5l-.1-.6v-2.2l.1-.6v-.5l.1-.6.1-.6.1-.5.1-.6.1-.5.1-.6.2-.5.2-.6.2-.5.2-.5.2-.6.2-.5.2-.5.3-.5.2-.5.3-.5.3-.5.3-.4.3-.5.3-.5.3-.4.4-.4.3-.5.3-.4.4-.4.4-.4.3-.3.4-.4.4-.4.4-.3.4-.3.4-.3.4-.4.4-.3.4-.2.4-.3.5-.3zm101.3 0l.4-.3.4-.2.5-.2.4-.2.5-.2.4-.2.5-.2.5-.2.5-.2.5-.1.5-.2.5-.1.5-.1.6-.2.5-.1h.5l.6-.1.5-.1h.6l.5-.1h1.7l.6.1h.5l.6.1h.6l.5.1.6.1.5.1.6.1.5.2.6.1.5.2.6.2.5.2.5.2.5.2.6.2.5.3.5.2.4.3.5.3.5.3.5.3.4.3.5.3.4.4.4.3.4.4.4.3.4.4.4.4.4.4.3.3.4.4.3.4.3.4.3.4.3.4.3.5.3.4.2.4.3.4.2.4.2.5.3.4.2.5.2.4.2.5.2.5.2.5.1.4.2.5.1.6.2.5.1.5.1.5.1.5.1.6.1.5v.6l.1.5v2.8l-.1.6v.5l-.1.6-.1.6-.1.5-.1.6-.1.5-.1.6-.2.5-.2.6-.1.5-.2.5-.2.6-.3.5-.2.5-.2.5-.3.5-.3.5-.3.5-.3.4-.3.5-.3.5-.3.4-.3.4-.4.5-.3.4-.4.4-.4.4-.3.3-.4.4-.4.4-.4.3-.4.3-.4.4-.4.3-.4.3-.4.2-.4.3-.4.3-.5.2-.4.3-.4.2-.5.2-.4.2-.5.2-.5.2-.4.2-.5.2-.5.2-.5.1-.5.2-.5.1-.5.1-.6.1-.5.1-.5.1-.6.1-.5.1h-1.1l-.6.1H624l-.6-.1h-.5l-.6-.1h-.6l-.5-.1-.6-.1-.5-.1-.6-.1-.5-.2-.6-.1-.5-.2-.6-.2-.5-.2-.5-.2-.5-.2-.6-.3-.5-.2-.5-.3-.5-.2-.4-.3-.5-.3-.5-.3-.4-.3-.5-.4-.4-.3-.4-.3-.4-.4-.4-.3-.4-.4-.4-.4-.4-.4-.3-.4-.4-.3-.3-.4-.3-.4-.3-.4-.3-.5-.3-.4-.3-.4-.2-.4-.3-.4-.2-.4-.2-.5-.3-.4-.2-.5-.2-.4-.2-.5-.2-.5-.2-.5-.1-.5-.2-.5-.1-.5-.2-.5-.1-.5-.1-.5-.1-.6-.1-.5-.1-.5v-.6l-.1-.5v-2.8l.1-.6v-.5l.1-.6.1-.6.1-.5.1-.6.1-.5.1-.6.2-.5.2-.6.1-.5.2-.6.2-.5.3-.5.2-.5.2-.5.3-.5.3-.5.3-.5.3-.5.3-.4.3-.5.3-.4.3-.5.4-.4.3-.4.4-.4.4-.4.3-.4.4-.3.4-.4.4-.3.4-.3.4-.4.4-.3.4-.3.4-.3.4-.2.4-.3zm50.8-164.5v138.7m-644 0h652m-474.6 25.8l.5-.3.4-.2.4-.2.5-.2.4-.2.5-.2.5-.2.5-.2.5-.2.5-.1.5-.2.5-.1.5-.1.5-.2.6-.1h.5l.5-.1.6-.1h.5l.6-.1h1.7l.5.1h.6l.6.1h.5l.6.1.5.1.6.1.5.1.6.2.5.1.6.2.5.2.6.2.5.2.5.2.5.2.5.3.5.2.5.3.5.3.5.3.4.3.5.3.4.3.5.4.4.3.4.4.4.3.4.4.4.4.3.4.4.3.3.4.4.4.3.4.3.4.3.4.3.5.2.4.3.4.2.4.3.4.2.5.2.4.2.5.3.4.2.5.1.5.2.5.2.4.1.5.2.6.1.5.2.5.1.5.1.5v.6l.1.5.1.6v.5l.1.6v1.6l-.1.6v1.1l-.1.6-.1.6-.1.5-.1.6-.1.5-.2.6-.1.5-.2.6-.2.5-.2.5-.2.6-.2.5-.2.5-.3.5-.2.5-.3.5-.3.5-.3.4-.3.5-.3.5-.3.4-.4.4-.3.5-.4.4-.3.4-.4.4-.4.3-.3.4-.4.4-.4.3-.4.3-.4.4-.4.3-.4.3-.4.2-.5.3-.4.3-.4.2-.4.3-.5.2-.4.2-.5.2-.4.2-.5.2-.5.2-.4.2-.5.2-.5.1-.5.2-.6.1-.5.1-.5.1-.5.1-.6.1-.5.1-.6.1h-1.1l-.5.1h-1.1l-.6-.1h-.6l-.5-.1h-.6l-.5-.1-.6-.1-.6-.1-.5-.1-.6-.2-.5-.1-.6-.2-.5-.2-.5-.2-.6-.2-.5-.2-.5-.3-.5-.2-.5-.3-.5-.2-.5-.3-.4-.3-.5-.3-.5-.3-.4-.4-.4-.3-.5-.3-.4-.4-.4-.3-.4-.4-.3-.4-.4-.4-.4-.4-.3-.3-.3-.4-.3-.4-.4-.4-.2-.5-.3-.4-.3-.4-.3-.4-.2-.4-.2-.4-.3-.5-.2-.4-.2-.5-.2-.4-.2-.5-.2-.5-.2-.5-.2-.5-.1-.5-.2-.5-.1-.5-.1-.5-.1-.5-.1-.6-.1-.5-.1-.5-.1-.6v-1.6l-.1-.6.1-.6v-1.1l.1-.5v-.6l.1-.6.1-.5.1-.6.2-.5.1-.6.1-.5.2-.6.2-.5.2-.6.2-.5.2-.5.3-.5.2-.5.3-.5.2-.5.3-.5.3-.5.3-.4.3-.5.4-.4.3-.5.3-.4.4-.4.4-.4.3-.4.4-.4.4-.3.4-.4.4-.3.3-.3.5-.4.4-.3.4-.3.4-.3.4-.2.4-.3zm-101.2 0l.4-.3.4-.2.5-.2.4-.2.5-.2.4-.2.5-.2.5-.2.5-.2.5-.1.5-.2.5-.1.5-.1.6-.1.5-.1.5-.1.6-.1.5-.1h1.1l.6-.1h.5l.6.1h1.1l.6.1h.5l.6.1.6.1.5.1.6.1.5.2.6.1.5.2.5.2.6.2.5.2.5.2.5.3.5.2.5.3.5.2.5.3.5.3.5.3.4.3.4.4.5.3.4.3.4.4.4.3.4.4.4.4.3.4.4.4.3.3.4.4.3.4.3.5.3.4.3.4.3.4.2.4.3.4.2.4.2.5.3.4.2.5.2.4.2.5.2.5.1.5.2.5.2.5.1.5.1.5.2.5.1.5.1.6.1.5v.5l.1.6v.5l.1.6v2.2l-.1.6v.6l-.1.5-.1.6-.1.5-.1.6-.1.5-.1.6-.2.5-.2.6-.1.5-.2.6-.3.5-.2.5-.2.5-.3.5-.2.5-.3.5-.3.5-.3.5-.3.4-.3.5-.3.4-.3.5-.4.4-.3.4-.4.4-.4.4-.3.4-.4.3-.4.4-.4.3-.4.3-.4.4-.4.3-.4.3-.4.3-.4.2-.5.3-.4.2-.4.3-.4.2-.5.2-.4.2-.5.3-.5.1-.4.2-.5.2-.5.2-.5.1-.5.2-.5.1-.6.1-.5.2-.5.1h-.6l-.5.1-.5.1h-.6l-.5.1H107l-.6-.1h-1.1l-.6-.1-.5-.1-.6-.1-.5-.1-.6-.1-.5-.2-.6-.1-.5-.2-.6-.2-.5-.2-.5-.2-.6-.2-.5-.2-.5-.3-.5-.2-.5-.3-.4-.3-.5-.3-.5-.3-.4-.3-.5-.3-.4-.4-.4-.3-.4-.4-.4-.3-.4-.4-.4-.4-.4-.4-.3-.3-.4-.4-.3-.4-.3-.4-.3-.4-.3-.4-.3-.5-.3-.4-.2-.4-.3-.4-.2-.4-.3-.5-.2-.4-.2-.5-.2-.4-.2-.5-.2-.5-.2-.5-.1-.4-.2-.5-.1-.6-.2-.5-.1-.5-.1-.5-.1-.5-.1-.6-.1-.5v-.6l-.1-.5v-3.4l.1-.5.1-.6v-.6l.1-.5.2-.6.1-.5.1-.6.2-.5.1-.6.2-.5.2-.5.2-.6.2-.5.3-.5.2-.5.3-.5.3-.5.2-.5.3-.4.3-.5.4-.5.3-.4.3-.4.4-.5.3-.4.4-.4.3-.4.4-.3.4-.4.4-.4.4-.3.4-.3.4-.3.4-.4.4-.3.4-.2.4-.3.4-.3zm771.3-6.2v5.7m-15-35.4l1 .8 1 .8 1 .9.9.8.9.9.9 1 .8.9.8 1 .8 1.1.7 1 .7 1.1.6 1.1.7 1.1.5 1.1.6 1.2.5 1.2.4 1.2.4 1.2.4 1.2.3 1.2.3 1.3.3 1.2.2 1.3.1 1.2.1 1.3.1 1.3v1.3m-15-29.7l-2.5-1.5-2.7-1.5-2.6-1.3-2.8-1.3-2.7-1.2-2.8-1.1-2.8-1-2.9-.9-2.9-.8-2.9-.7-3-.6-2.9-.5-3-.3-3-.3-3-.2-3-.1h-3l-3 .1-3 .2-3 .4-2.9.4-3 .5-2.9.6m-43.3 57v-2l.1-2 .2-2 .3-2 .3-2 .3-2 .5-2 .5-2 .6-1.9.6-1.9.7-1.9.8-1.9.8-1.8.9-1.8.3-.5.7-1.3 1-1.7.9-1.3.2-.4 1.1-1.7 1.2-1.6 1.3-1.6 1.3-1.6 1.3-1.5 1.5-1.4 1.4-1.4 1.5-1.4 1.6-1.3 1.5-1.2 1.7-1.2 1.7-1.2 1.7-1 1.7-1.1 1.8-.9 1.8-.9 1.8-.9 1.9-.7 1.9-.7 1.9-.7 2-.6m-62.2-36.7h-.1l-.1-.1-.1-.1h-.1l-.1-.1h-.1l-.1-.1h-.2l-.1-.1h-.3l-.1-.1h-.6m10 6.4l-8-5.8m12 7.1h-.3l-.2-.1h-.7l-.2-.1h-.2l-.3-.1-.2-.1h-.2l-.2-.1-.2-.1-.3-.1-.2-.1-.2-.1-.2-.1-.2-.2-.2-.1m50 77.9l.6-.4.7-.3.7-.4.7-.3.7-.2.7-.3.8-.2.7-.2.7-.2.8-.1.7-.1.8-.1.8-.1h.7l.8-.1.7.1h.8l.8.1h.7l.8.2.7.1.8.2.7.2.7.2.8.2.7.3.7.3.7.3.7.4.6.3.7.4.6.4.6.5.7.4.6.5.5.5.6.5.5.5.6.6.5.6.5.5.4.7.5.6.4.6.4.7.4.6.3.7.3.7.3.7.3.7.3.7.2.7.2.8.2.7.1.8.2.7.1.8v.7l.1.8v2.3l-.1.7-.1.8-.1.8-.1.7-.2.7-.2.8-.2.7-.2.7-.3.8-.3.7-.3.7-.3.6-.4.7-.4.7-.4.6-.4.7-.4.6-.5.6-.5.6-.5.5-.5.6-.6.5-.6.5-.5.5-.6.5-.7.4-.6.4-.6.4-.7.4-.7.4-.7.3-.7.3-.7.3-.7.3-.7.2-.7.2-.8.2-.7.2-.8.1-.7.1-.8.1h-.7l-.8.1h-1.5l-.8-.1-.7-.1-.8-.1-.8-.1-.7-.2-.7-.1-.8-.3-.7-.2-.7-.2-.7-.3-.7-.3-.7-.4-.7-.3-.7-.4-.6-.4-.6-.4-.7-.5-.6-.4-.5-.5-.6-.5-.6-.5-.5-.6-.5-.6-.5-.5-.5-.6-.4-.6-.5-.7-.4-.6-.4-.7-.3-.6-.4-.7-.3-.7-.3-.7-.2-.7-.3-.8-.2-.7-.2-.7-.2-.8-.1-.7-.1-.8-.1-.7-.1-.8v-3l.1-.8.1-.8.1-.7.2-.8.2-.7.2-.7.2-.8.2-.7.3-.7.3-.7.3-.7.4-.7.4-.6.4-.7.4-.6.4-.6.5-.7.4-.5.6-.6.5-.6.5-.5.6-.5.5-.5.6-.5.6-.5.7-.4.6-.4z"/><path class="st2" d="M838.5 194.5l-.4-1.5-.4-1.6-.6-1.5-.5-1.5-.6-1.5-.5-1-.2-.4-.7-1.5-.8-1.4-.8-1.4-.9-1.3-.9-1.3-.9-1.3-1-1.3-1.1-1.2-1-1.2-1.2-1.2-1.1-1.1-1.2-1-1.3-1.1-1.2-.9-1.3-1-1.4-.9-1.3-.8-1.4-.8-1.4-.8-1.5-.7-1.5-.6-1.5-.6-1.5-.6-1.5-.4-1.5-.5-1.6-.4-1.6-.3-1.6-.3-1.5-.2-1.6-.2-1.6-.1H791l-1.6.1-1.6.2-1.5.2-1.6.3-1.6.3-1.6.4-1.5.5-1.5.4-1.5.6-1.5.6-1.5.6-1.5.7-1.4.8-1.4.8-1.3.8-1.4.9-1.3 1-1.2.9-1.3 1.1-1.2 1-1.1 1.1-1.2 1.2-1 1.2-1.1 1.2-1 1.3-.9 1.3-.9 1.3-.9 1.3-.8 1.4-.8 1.4-.7 1.5-.7 1.4-.6 1.5-.5 1.5-.6 1.5-.4 1.6-.4 1.5m87.1-8.6h35.1m-188.1-21.5h70.4m-70.4 4.3h67.8m-53.2 0v18.9m25.5-18.9v18.9m-5-18.9v18.9M702 168.7v18.9m-681.5-27v8.1m-4.3-37.6v-11.5m14.3 52l-12.6 2.8m317.1 1.7v1.7m0 0v.3l-.1.1v.1h-.1v.1h-.1v.1h-.2v.1h-.2m0 0H330m0 0h-.3v-.1h-.1l-.1-.1h-.1v-.1l-.1-.1v-.1l-.1-.1v-.2m0 0v-1.7m0 0v-.2h.1v-.2h.1v-.1h.1v-.1h.1v-.1h.3v-.1h.1m0 0h4.3m0 0v.1h.3l.1.1h.1v.1h.1v.2h.1v.3m112 0v1.7m0 0v.3h-.1v.2h-.1v.1h-.1v.1h-.2v.1h-.3m0 0H442m0 0h-.3v-.1h-.2v-.1h-.1v-.1h-.1v-.2h-.1v-.3m0 0v-1.7m0 0v-.2l.1-.1v-.1l.1-.1.1-.1h.1v-.1h.3v-.1h.1m0 0h4.2m0 0h.1v.1h.3v.1h.1l.1.1h.1v.2h.1v.3m-91.4 1.7v-1.7m0 0v-.3h.1v-.1l.1-.1.1-.1h.1v-.1h.3v-.1h.1m0 0h4.2m0 0h.1v.1h.3v.1h.1l.1.1.1.1v.1l.1.1v.2m0 0v1.7m0 0v.3h-.1v.2h-.1v.1h-.1v.1h-.2v.1h-.3m0 0h-4.2m0 0h-.3v-.1h-.2v-.1h-.1v-.1h-.1v-.2h-.1v-.3m134 19.3l.3-1.2.4-1.1.3-1.2.5-1.1.4-1.1.5-1.1.6-1.1.6-1 .6-1 .6-1 .7-1 .7-1 .8-.9.7-1 .8-.8.9-.9.9-.8.9-.8.9-.8.9-.7 1-.7 1-.7 1-.6 1.1-.6 1-.6 1.1-.5 1.1-.5 1.1-.4 1.2-.4 1.1-.4 1.2-.3 1.1-.3 1.2-.2 1.2-.2 1.2-.2 1.2-.1 1.2-.1 1.2-.1h1.2l1.2.1 1.2.1 1.2.1 1.1.2 1.2.2 1.2.2 1.2.3 1.1.3 1.2.4 1.1.4 1.1.4 1.1.5 1.1.5 1 .6 1.1.6 1 .6 1 .7 1 .7.9.7 1 .8.9.8.8.8.9.9.8.8.8 1 .7.9.7 1 .7 1 .7 1 .6 1 .5 1 .6 1.1.5 1.1.5 1.1.4 1.1.4 1.2.3 1.1.3 1.2m33.8 0l.3-1.2.3-1.1.4-1.2.4-1.1.5-1.1.5-1.1.6-1.1.5-1 .6-1.1.7-1 .7-1 .7-.9.7-1 .8-.9.8-.9.9-.8.8-.8.9-.8 1-.8.9-.7 1-.7 1-.7 1-.6 1.1-.6 1-.6 1.1-.5 1.1-.5 1.1-.4 1.1-.4 1.2-.4 1.1-.3 1.2-.3 1.2-.3 1.2-.2 1.1-.1 1.2-.1 1.2-.1 1.2-.1h1.2l1.2.1 1.2.1 1.2.1 1.2.1 1.2.2 1.2.3 1.1.3 1.2.3 1.1.4 1.2.4 1.1.4 1.1.5 1.1.5 1 .6 1.1.6 1 .6 1 .7 1 .7.9.7.9.8.9.8.9.8.9.8.8.9.7.9.8 1 .7.9.7 1 .6 1 .7 1.1.5 1 .6 1.1.5 1.1.4 1.1.5 1.1.3 1.2.4 1.1.3 1.2m-104.3-28.4l1.2 1 1.2 1.1 1.1 1.1 1.1 1.2 1 1.2 1.1 1.2.9 1.3 1 1.3.9 1.3.8 1.4.8 1.3.7 1.4.8 1.5.6 1.4.6 1.5.6 1.5.5 1.5.4 1.5.4 1.6.4 1.5.3 1.6m-5.6 0l-.3-1.4-.4-1.4-.4-1.4-.4-1.4-.5-1.3-.6-1.4-.5-1.3-.7-1.3-.6-1.2-.8-1.3-.7-1.2-.8-1.2-.9-1.2-.8-1.1-1-1.1-.9-1.1-1-1.1-1-1-1.1-1-1.1-.9-1.1-.9-1.2-.9-1.2-.8-1.2-.8-1.2-.7m-42.3 0l-1.2.7-1.2.8-1.2.8-1.2.9-1.1.9-1.1.9-1 1-1.1 1-1 1.1-.9 1.1-.9 1.1-.9 1.1-.9 1.2-.8 1.2-.7 1.2-.7 1.3-.7 1.2-.6 1.3-.6 1.3-.6 1.4-.5 1.3-.4 1.4-.4 1.4-.4 1.4-.3 1.4m-5.6 0l.3-1.6.4-1.5.4-1.6.4-1.5.5-1.5.6-1.5.6-1.5.7-1.4.7-1.5.7-1.4.8-1.3.9-1.4.9-1.3.9-1.3 1-1.3 1-1.2 1-1.2 1.1-1.2 1.2-1.1 1.1-1.1 1.2-1m162.8 0l1.2 1 1.2 1.1 1.1 1.1 1.1 1.2 1 1.2 1.1 1.2.9 1.3 1 1.3.8 1.3.9 1.4.8 1.3.7 1.4.7 1.5.7 1.4.6 1.5.6 1.5.5 1.5.4 1.5.4 1.6.4 1.5.3 1.6m-5.6 0l-.3-1.4-.4-1.4-.4-1.4-.4-1.4-.5-1.3-.6-1.4-.6-1.3-.6-1.3-.7-1.3-.7-1.2-.7-1.2-.8-1.2-.9-1.2-.9-1.1-.9-1.1-.9-1.1-1-1.1-1-1-1.1-1-1.1-.9-1.1-.9-1.2-.9-1.1-.8-1.3-.8-1.2-.7m-42.3 0l-1.3.7-1.2.8-1.2.8-1.1.9-1.1.9-1.1.9-1.1 1-1 1-1 1.1-1 1.1-.9 1.1-.8 1.1-.9 1.2-.8 1.2-.7 1.2-.8 1.2-.6 1.3-.7 1.3-.5 1.3-.6 1.4-.5 1.3-.4 1.4-.4 1.4-.4 1.4-.3 1.4m-5.6 0l.3-1.6.4-1.5.4-1.6.4-1.5.5-1.5.6-1.5.6-1.5.6-1.4.7-1.5.8-1.4.8-1.3.8-1.4.9-1.3 1-1.3.9-1.3 1-1.2 1.1-1.2 1.1-1.2 1.1-1.1 1.2-1.1 1.2-1m-406.2 0l-1.2.7-1.2.8-1.2.8-1.1.9-1.2.9-1.1.9-1 1-1 1-1 1.1-1 1.1-.9 1.1-.9 1.1-.8 1.2-.8 1.2-.8 1.2-.7 1.2-.7 1.3-.6 1.3-.6 1.3-.5 1.4-.5 1.3-.5 1.4-.4 1.4-.3 1.4-.3 1.4m-5.6 0l.3-1.6.3-1.5.4-1.6.5-1.5.5-1.5.5-1.5.7-1.5.6-1.4.7-1.5.8-1.4.8-1.3.8-1.4.9-1.3.9-1.3 1-1.3 1-1.2 1.1-1.2 1.1-1.2 1.1-1.1 1.2-1.1 1.2-1m61.5 0l1.2 1 1.1 1.1 1.2 1.1 1.1 1.2 1 1.2 1 1.2 1 1.3.9 1.3.9 1.3.9 1.4.7 1.3.8 1.4.7 1.5.7 1.4.6 1.5.5 1.5.5 1.5.5 1.5.4 1.6.3 1.5.4 1.6m-5.7 0l-.3-1.4-.3-1.4-.4-1.4-.5-1.4-.5-1.3-.5-1.4-.6-1.3-.6-1.3-.7-1.3-.7-1.2-.8-1.2-.8-1.2-.8-1.2-.9-1.1-.9-1.1-1-1.1-.9-1.1-1.1-1-1-1-1.1-.9-1.1-.9-1.2-.9-1.2-.8-1.2-.8-1.2-.7m-143.6 0l-1.2.7-1.3.8-1.1.8-1.2.9-1.1.9-1.1.9-1.1 1-1 1-1 1.1-.9 1.1-1 1.1-.8 1.1-.9 1.2-.8 1.2-.7 1.2-.8 1.3-.6 1.2-.7 1.3-.6 1.3-.5 1.4-.5 1.3-.4 1.4-.4 1.4-.4 1.4-.3 1.4m-5.6 0l.3-1.6.3-1.5.4-1.6.5-1.5.5-1.5.6-1.5.6-1.5.6-1.4.7-1.5.8-1.4.8-1.3.8-1.4.9-1.3 1-1.3.9-1.3 1-1.2 1.1-1.2 1.1-1.2 1.1-1.1 1.2-1.1 1.2-1m61.5 0l1.2 1 1.1 1.1 1.2 1.1 1.1 1.2 1 1.2 1 1.2 1 1.3.9 1.3.9 1.3.9 1.4.8 1.3.7 1.4.7 1.5.7 1.4.6 1.5.5 1.5.6 1.5.4 1.5.4 1.6.4 1.5.3 1.6m-5.6 0l-.3-1.4-.4-1.4-.4-1.4-.4-1.4-.5-1.3-.6-1.4-.6-1.3-.6-1.3-.7-1.2-.7-1.3-.8-1.2-.8-1.2-.8-1.2-.9-1.1-.9-1.1-.9-1.1-1-1.1-1.1-1-1-1-1.1-.9-1.1-.9-1.2-.9-1.2-.8-1.2-.8-1.2-.7m46.3 28.4l.4-1.2.3-1.1.4-1.2.4-1.1.5-1.1.5-1.1.5-1.1.6-1 .6-1.1.7-1 .6-1 .8-.9.7-1 .8-.9.8-.9.8-.8.9-.8.9-.8.9-.8 1-.7 1-.7 1-.7 1-.6 1-.6 1.1-.6 1.1-.5 1.1-.5 1.1-.4 1.1-.4 1.2-.4 1.1-.3 1.2-.3 1.1-.3 1.2-.2 1.2-.1 1.2-.1 1.2-.1 1.2-.1h1.2l1.2.1 1.2.1 1.2.1 1.2.1 1.2.2 1.1.3 1.2.3 1.2.3 1.1.4 1.1.4 1.2.4 1 .5 1.1.5 1.1.6 1 .6 1.1.6 1 .7.9.7 1 .7.9.8.9.8.9.8.8.8.8.9.8.9.8 1 .7.9.7 1 .6 1 .6 1.1.6 1 .5 1.1.5 1.1.5 1.1.4 1.1.4 1.2.4 1.1.3 1.2m-168.8 0l.3-1.2.3-1.1.4-1.2.4-1.1.5-1.1.5-1.1.5-1.1.6-1 .6-1 .7-1 .7-1 .7-1 .7-.9.8-1 .8-.8.9-.9.8-.8.9-.8 1-.8.9-.7 1-.7 1-.7 1-.6 1-.6 1.1-.6 1.1-.5 1.1-.5 1.1-.4 1.1-.4 1.2-.4 1.1-.3 1.2-.3 1.2-.2 1.1-.2 1.2-.2 1.2-.1 1.2-.1 1.2-.1h1.2l1.2.1 1.2.1 1.2.1 1.2.2 1.2.2 1.2.2 1.1.3 1.2.3 1.1.4 1.2.4 1.1.4 1.1.5 1.1.5 1 .6 1.1.6 1 .6 1 .7 1 .7.9.7.9.8.9.8.9.8.8.9.9.8.7 1 .8.9.7 1 .7 1 .6 1 .6 1 .6 1 .6 1.1.5 1.1.4 1.1.4 1.1.4 1.2.4 1.1.3 1.2m134-28.4V183m458.2-61.8h5.9m0 0h.3v-.1h.1v-.1h.1v-.1l.1-.1v-.2m0 0v-3.5m0 0v-.3h-.1v-.1h-.1v-.1h-.1v-.1h-.3m0 0h-5.9m0 0h-.3v.1h-.1l-.1.1v.1h-.1v.3m0 0v3.5m0 0v.3h.1v.1h.1v.1h.1v.1h.3m59.3-3.1H774m0 0h-.2v.1h-.2v.1h-.1v.2h-.1v.2m0 0v10.6m0 0v.2l.1.1v.1h.1v.1h.1v.1h.3m0 0h18.9m0 0h.3v-.1h.1v-.1h.1v-.1h.1v-.3m0 0v-10.6m0 0v-.1m-101.4 50.1v18.2m0 0v.6m0 .1h34.7m0 0h.4v-.1h.1v-.1h.1v-.1h.1v-.2h.1v-.2m0 0v-18.2m-710.7 6.6v-44.2m602.2 20.3v1.7m0 0v.2h-.1v.2h-.1v.1h-.1v.1h-.1v.1h-.4m0 0H614m0 0h-.3v-.1h-.2v-.1h-.1v-.2h-.1v-.3m0 0v-1.7m0 0v-.4h.1v-.1h.1v-.1h.1v-.1h.2v-.1h.2m0 0h4.3m0 0h.2l.1.1h.2v.1h.1v.1l.1.1v.2h.1v.2m-32.2 0v1.7m0 0v.2h-.1v.2h-.1v.1h-.1v.1h-.1v.1h-.4m0 0h-4.3m0 0h-.3v-.1h-.2v-.1h-.1v-.2h-.1v-.3m0 0v-1.7m0 0v-.4h.1v-.1h.1v-.1h.1v-.1h.2v-.1h.2m0 0h4.3m0 0h.2l.1.1h.2v.1h.1v.1l.1.1v.1l.1.1v.2m-32.2 0v1.7m0 0v.2h-.1v.2h-.1v.1h-.1v.1h-.1v.1h-.4m0 0h-4.3m0 0h-.3v-.1h-.2v-.1h-.1v-.2h-.1v-.3m0 0v-1.7m0 0v-.3l.1-.1v-.1h.1v-.1h.1v-.1h.2v-.1h.2m0 0h4.3m0 0h.3v.1h.2v.1h.1v.1l.1.1v.1l.1.1v.2m-32.2 0v1.7m0 0v.2h-.1v.2h-.1v.1h-.1v.1h-.1v.1h-.4m0 0h-4.3m0 0h-.3v-.1h-.2v-.1h-.1v-.2h-.1v-.3m0 0v-1.7m0 0v-.3l.1-.1v-.1h.1v-.1h.1v-.1h.2v-.1h.2m0 0h4.3m0 0h.3v.1h.2v.1h.1v.1l.1.1v.1l.1.1v.2m-32.2 0v1.7m0 0v.2h-.1v.2h-.1v.1h-.1v.1h-.1v.1h-.4m0 0h-4.3m0 0h-.3v-.1h-.2v-.1l-.1-.1v-.1h-.1v-.3m0 0v-1.7m0 0v-.3l.1-.1v-.1h.1v-.1h.1v-.1h.2v-.1h.2m0 0h4.3m0 0h.3v.1h.2v.1h.1v.1l.1.1v.1h.1v.3m-32.2 0v1.7m0 0v.2h-.1v.2h-.1v.1h-.1v.1h-.1v.1h-.4m0 0H453m0 0h-.3v-.1h-.2v-.1l-.1-.1v-.1h-.1v-.3m0 0v-1.7m0 0v-.3l.1-.1v-.1h.1v-.1h.1v-.1h.2v-.1h.2m0 0h4.3m0 0h.3v.1h.2v.1h.1v.1h.1v.2h.1v.3m-32.2 0v1.7m0 0v.2h-.1v.2h-.1v.1l-.1.1h-.1v.1h-.4m0 0h-4.3m0 0h-.3v-.1h-.2v-.1l-.1-.1v-.1h-.1v-.3m0 0v-1.7m0 0v-.3h.1v-.2h.1v-.1h.1v-.1h.2v-.1h.2m0 0h4.3m0 0h.3v.1h.2v.1h.1v.1h.1v.2h.1v.3m-32.2 0v1.7m0 0v.2l-.1.1v.1h-.1v.1l-.1.1h-.1v.1h-.4m0 0h-4.2m0 0h-.4v-.1h-.1l-.1-.1-.1-.1v-.1h-.1v-.3m0 0v-1.7m0 0v-.3h.1v-.2h.1v-.1h.1v-.1h.2v-.1h.3m0 0h4.2m0 0h.3v.1h.2v.1h.1v.1h.1v.2h.1v.3m-32.2 0v1.7m0 0v.2l-.1.1v.1h-.1v.1l-.1.1h-.1v.1h-.4m0 0h-4.2m0 0h-.4v-.1h-.1l-.1-.1-.1-.1v-.1h-.1v-.3m0 0v-1.7m0 0v-.3h.1v-.2h.1v-.1h.1v-.1h.2v-.1h.3m0 0h4.2m0 0h.3v.1h.2v.1h.1v.1h.1v.2h.1v.3m-32.2 0v1.7m0 0v.2l-.1.1v.1h-.1v.1l-.1.1h-.1v.1h-.4m0 0h-4.2m0 0h-.4v-.1h-.1l-.1-.1v-.1h-.1v-.1h-.1v-.3m0 0v-1.7m0 0v-.3h.1v-.2h.1v-.1h.1v-.1h.2v-.1h.3m0 0h4.2m0 0h.3v.1h.2v.1h.1v.1h.1v.2h.1v.3m-32.2 0v1.7m0 0v.3h-.1v.1h-.1v.1l-.1.1h-.1v.1h-.4m0 0h-4.2m0 0h-.4v-.1h-.1l-.1-.1v-.1h-.1v-.1l-.1-.1v-.2m0 0v-1.7m0 0v-.3h.1v-.2h.1v-.1h.1v-.1h.2v-.1h.3m0 0h4.2m0 0h.3v.1h.2v.1h.1v.1h.1v.2h.1v.3m-32.2 0v1.7m0 0v.3h-.1v.1l-.1.1-.1.1h-.1v.1h-.4m0 0h-4.2m0 0h-.4v-.1h-.1l-.1-.1v-.1h-.1v-.1l-.1-.1v-.2m0 0v-1.7m0 0v-.3h.1v-.2h.1v-.1h.1v-.1h.2v-.1h.3m0 0h4.2m0 0h.3v.1h.2v.1h.1v.1h.1v.2h.1v.3m-32.2 0v1.7m0 0v.3h-.1v.1l-.1.1-.1.1h-.1v.1h-.4m0 0h-4.2m0 0h-.4v-.1h-.1l-.1-.1v-.1h-.1v-.1l-.1-.1v-.2m0 0v-1.7m0 0v-.3h.1v-.2h.1v-.1h.1v-.1h.2v-.1h.3m0 0h4.2m0 0h.3v.1h.2v.1h.1v.1h.1v.2h.1v.3m-32.2 0v1.7m0 0v.3h-.1v.1l-.1.1v.1h-.2v.1h-.3m0 0h-4.3m0 0h-.4v-.1h-.1l-.1-.1v-.1h-.1v-.2h-.1v-.2m0 0v-1.7m0 0v-.3h.1v-.2h.1v-.1h.1v-.1h.2v-.1h.3m0 0h4.3m0 0h.2v.1h.2v.1h.1v.1h.1v.1l.1.1v.3m-32.2 0v1.7m0 0v.3h-.1v.1l-.1.1v.1h-.2v.1h-.3m0 0h-4.3m0 0h-.4v-.1h-.1v-.1h-.1v-.1h-.1v-.2h-.1v-.2m0 0v-1.7m0 0v-.3h.1v-.1l.1-.1v-.1h.1v-.1h.2v-.1h.3m0 0h4.3m0 0h.2v.1h.2v.1h.1v.1h.1v.1l.1.1v.3m-32.2 0v1.7m0 0v.3h-.1v.1l-.1.1v.1h-.2v.1h-.3m0 0h-4.3m0 0h-.4v-.1h-.1v-.1h-.1v-.1h-.1v-.2h-.1v-.2m0 0v-1.7m0 0v-.3h.1v-.1l.1-.1v-.1h.1v-.1h.2v-.1h.3m0 0h4.3m0 0h.2v.1h.2v.1h.1v.1h.1v.1l.1.1v.3m-32.2 0v1.7m0 0v.3h-.1v.2h-.1v.1h-.2v.1h-.3m0 0h-4.3m0 0h-.4v-.1h-.1v-.1h-.1v-.1h-.1v-.2h-.1v-.2m0 0v-1.7m0 0v-.2l.1-.1v-.1l.1-.1v-.1h.1v-.1h.2v-.1h.3m0 0h4.3m0 0h.2v.1h.2v.1h.1v.1h.1v.1l.1.1v.3m-32.2 0v1.7m0 0v.3h-.1v.2h-.1v.1h-.2v.1H71m0 0h-4.3m0 0h-.4v-.1h-.1v-.1h-.1v-.1H66v-.2h-.1v-.2m0 0v-1.7m0 0v-.2l.1-.1v-.1l.1-.1v-.1h.1v-.1h.2l.1-.1h.2m0 0H71m0 0h.2v.1h.2v.1h.1v.1h.1v.1h.1v.4m-32.2 0v1.7m0 0v.3h-.1v.2h-.1v.1h-.2v.1h-.3m0 0h-4.3m0 0h-.4v-.1H34v-.1h-.1v-.1h-.1v-.2h-.1v-.2m0 0v-1.7m0 0v-.2h.1v-.2l.1-.1v-.1h.1v-.1h.2l.1-.1h.2m0 0h4.3m0 0h.2v.1h.2v.1h.1v.1h.1v.1h.1v.4m-19-129.5h652M17.7 13.8h654.8m-652 101.4v4.4m-7.3 0h3m0 0h4.3m-3.6 11.5h-.7m0 0h-3m4.7 44l-1 .2-4.3.6m0 3.1h4.3m1-4.6v4.6m12.6-10.3v2.9m0 0v14.2m-10-17.1h10m0 0h642m-652-49.1v41M275.4 183v14.1m69.5 0v-28.4m6.7 0v28.4m35.8-28.4v28.4m-6.7 0v-28.4m76.1 28.4v-28.4m286.6 27.7v.7m5 10v-12.6"/><path class="st2" d="M758.7 207.1v-3.6l.1-1.2.1-1.2.2-1.2.2-1.2.3-1.2.3-1.2.3-1.1.4-1.2.4-1.1.5-1.2.5-1.1.5-1 .6-1.1.6-1.1.6-1 .7-1 .7-1 .8-.9.7-.9.9-.9.8-.9.9-.9.9-.8.9-.7 1-.8.9-.7 1-.7 1.1-.6 1-.6 1.1-.6 1.1-.5 1.1-.5 1.1-.5 1.1-.4 1.2-.4 1.2-.3 1.1-.3 1.2-.2 1.2-.2 1.2-.2 1.2-.1 1.2-.1 1.2-.1h1.2l1.3.1 1.2.1 1.2.1 1.2.2 1.2.2 1.1.2 1.2.3 1.2.3 1.1.4 1.2.4 1.1.5 1.1.5 1.1.5 1.1.6 1 .6 1 .6 1.1.7.9.7 1 .8.9.7.9.8.9.9.8.9.8.9.8.9.8.9.7 1 .7 1 .6 1 .6 1.1.6 1.1.5 1 .5 1.1.5 1.2.4 1.1.4 1.2.3 1.1.3 1.2.3 1.2.2 1.2.1 1.2.2 1.2.1 1.2v3.6m10.3-12.6v12.6m-156-38.4v-53.6m-10 53.6v-53.6m78.4-46.5h.4l.1.1h.4l.1.1h.1l.1.1h.2l.1.1.1.1h.1l.1.1h.1l.1.1.1.1.1.1h.1l.1.1v.1l.1.1.1.1.1.1v.1h.1l.1.1v.1l.1.1v.1l.1.2v.1l.1.1v.2l.1.1v.2m5.9 34.4v1.1l-.1.1v.3l-.1.1v.3l-.1.1v.1l-.1.1-.1.1v.1l-.1.1v.1l-.1.1-.1.1-.1.1h-.1v.1l-.1.1-.1.1-.1.1h-.1l-.1.1-.1.1h-.1l-.1.1h-.1l-.1.1h-.1l-.1.1h-.2l-.2.1h-.4l-.1.1h-.3m-5.8-45.5h1l.3.1h.2l.3.1.3.1h.2l.3.1.2.1.3.1.2.1.2.1.3.2.2.1.2.1.2.2.2.1.3.2.2.2.1.2.2.1.2.2.2.2.2.2.1.2.2.2.1.3.2.2.1.2.1.3.2.2.1.2.1.3.1.2v.3l.1.2.1.3v.2l.1.3m-1.9 80h1.1l.2-.1h.3l.2-.1h.3l.3-.1.2-.1.3-.1.2-.1.2-.1.3-.1.2-.1.2-.2.3-.1.2-.2.2-.1.2-.2.2-.2.2-.1.2-.2.2-.2.1-.2.2-.2.2-.2.1-.2.2-.2.1-.3.2-.2.1-.2.1-.3.1-.2.1-.3.1-.2.1-.3.1-.2v-.3l.1-.2v-.3l.1-.2v-.8m0-38.2v38.2m-5.8-72.6l5.8 34.4m-7.6 4.7h-20.2M755.1 77h-6.8v22h8.3V77.6h-1.5zm-.9-5.6l.9 5.6m2.1 12l2.9 16.8m-56.8 31.3h-.3v.1h-.2v.1l-.1.1v.2h-.1v.1m0 0v6.5m0 0v.1h.1v.2h.1v.1l.1.1h.1v.1h.3m0 0h9m0 0h.3v-.1h.1l.1-.1v-.1h.1v-.2h.1v-.1m0 0v-6.5m0 0v-.1h-.1v-.2l-.1-.1v-.1h-.2v-.1h-.3m-8.9-35h-.6l-.1-.1h-.2l-.1-.1h-.2l-.1-.1h-.1l-.1-.1h-.1l-.1-.1-.1-.1h-.1l-.1-.1-.1-.1h-.1l-.1-.1-.1-.1-.1-.1v-.1l-.1-.1h-.1l-.1-.1v-.1l-.1-.1v-.1l-.1-.1v-.1l-.1-.1v-.1l-.1-.2v-.2l-.1-.1v-.3l-.1-.1v-.3m0 0V72m0 0v-.4l.1-.1v-.3l.1-.1v-.2l.1-.1v-.2l.1-.1v-.1l.1-.1v-.1l.1-.1V70h.1l.1-.1.1-.1v-.1l.1-.1.1-.1.1-.1h.1l.1-.1.1-.1h.1l.1-.1.1-.1h.1l.1-.1h.2l.1-.1h.1l.1-.1h.3l.2-.1h.4m-7.7 3.4v-.8l.1-.3v-.5l.1-.2.1-.3v-.2l.1-.3.1-.2.1-.3.1-.2.2-.3.1-.2.1-.2.2-.2.1-.3.2-.2.1-.2.2-.2.2-.2.1-.2.2-.2.2-.1.2-.2.2-.2.3-.1.2-.2.2-.1.2-.1.3-.2.2-.1.2-.1.3-.1.2-.1.3-.1h.2l.3-.1.2-.1h.3l.3-.1h1m0 86.4h-1l-.3-.1h-.3l-.2-.1h-.3l-.2-.1-.3-.1-.2-.1-.3-.1-.2-.1-.2-.1-.3-.1-.2-.2-.2-.1-.3-.2-.2-.1-.2-.2-.2-.2-.2-.1-.2-.2-.1-.2-.2-.2-.2-.2-.2-.2-.1-.2-.2-.2-.1-.3-.1-.2-.2-.2-.1-.3-.1-.2-.1-.3-.1-.2-.1-.3v-.2l-.1-.3-.1-.2v-.5l-.1-.3v-.5m0 0V72m16.6 65.1h-9m53.3 13.6h-53.2m19.1-48.6h-19.1m0-33.5h47.5m-47.5-4.3h47.5M60.5 197.1l-.2 1.4-.2 1.3-.2 1.4-.1 1.4v2.8m0 0v15.1h5.5v-15.1m0 0V204l.1-1.4.1-1.4.1-1.4.2-1.3.3-1.4m0 0h7.8m0 0l-.3 1.2-.2 1.2-.2 1.2-.2 1.2-.1 1.2v4.8l.2 1.2.1 1.2.2 1.2.2 1.2.3 1.2.3 1.2.4 1.1.4 1.2.4 1.1.5 1.1.5 1.1.6 1.1.5 1 .7 1.1.6 1 .7 1 .8.9.7 1 .8.9.8.9.9.8.9.9.9.8.9.7 1 .8 1 .6 1 .7 1.1.6 1 .6 1.1.6 1.1.5 1.1.4 1.2.5 1.1.4 1.2.3 1.1.3 1.2.3 1.2.2 1.2.2 1.2.2 1.2.1 1.2.1h2.4l1.3-.1 1.2-.1 1.2-.2 1.2-.2 1.1-.2 1.2-.3 1.2-.3 1.2-.3 1.1-.4 1.1-.5 1.2-.4 1-.5 1.1-.6 1.1-.6 1-.6 1-.7 1-.6 1-.8.9-.7 1-.8.9-.9.8-.8.8-.9.8-.9.8-1 .7-.9.7-1 .7-1 .6-1.1.6-1 .6-1.1.5-1.1.4-1.1.5-1.1.4-1.2.3-1.1.3-1.2.3-1.2.3-1.2.1-1.2.2-1.2.1-1.2.1-1.2v-2.4l-.1-1.2-.1-1.2-.1-1.2-.2-1.2-.2-1.2-.3-1.2m0 0h7.8m0 0l.2 1.4.2 1.3.2 1.4.1 1.4.1 1.4v1.4m0 0v3.5h5.5v-3.5m0 0V204l-.1-1.4-.1-1.4-.1-1.4-.2-1.3-.2-1.4m0 0h7m0 0l-.3 1.3-.1 1.4-.2 1.4-.1 1.4v1.4l-.1 1.4m0 0v15.1h5.6v-11.4l-.1-3.7m0 0l.1-1.4v-1.4l.2-1.4.1-1.4.2-1.4.3-1.3m0 0h7.7m0 0l-.2 1.2-.2 1.1-.2 1.2-.2 1.2-.1 1.2v1.3l-.1 1.2.1 1.2v1.2l.1 1.2.2 1.2.2 1.2.2 1.2.3 1.2.3 1.1.4 1.2.4 1.1.4 1.2.5 1.1.5 1.1.5 1.1.6 1 .6 1.1.7 1 .7 1 .7.9.8 1 .8.9.8.9.9.8.9.9.9.7.9.8 1 .7 1 .7 1 .7 1 .6 1.1.6 1.1.5 1.1.6 1.1.4 1.1.5 1.2.4 1.1.3 1.2.3 1.2.3 1.2.2 1.2.2 1.2.2 1.2.1h1.2l1.2.1 1.2-.1h1.2l1.2-.1 1.2-.2 1.2-.2 1.2-.2 1.2-.3 1.2-.3 1.1-.3 1.2-.4 1.1-.5 1.1-.4 1.1-.6 1.1-.5 1.1-.6 1-.6 1-.7 1-.7 1-.7.9-.8.9-.7.9-.9.9-.8.8-.9.8-.9.8-1 .7-.9.7-1 .7-1 .6-1.1.6-1 .5-1.1.5-1.1.5-1.1.5-1.2.4-1.1.3-1.2.3-1.1.3-1.2.2-1.2.2-1.2.2-1.2.1-1.2.1-1.2v-2.4l-.1-1.3-.1-1.2-.2-1.2-.1-1.2-.3-1.1-.2-1.2m0 0h7.7m0 0l.3 1.3.2 1.4.2 1.4.1 1.4v1.4l.1 1.4m0 0v3.5h5.5v-3.5m0 0v-1.7l-.1-1.6-.2-1.7-.2-1.7-.2-1.6m0 0h19.3v8m0 0v.1h.1v.3h.1v.1h.1v.1h.1l.1.1h.3m0 0h67.9m0 0h.4v-.1h.1v-.1h.1v-.1h.1v-.2h.1v-.1m0 0v-8.1h6.7v8m0 0v.6m0 .1h28.3m0 0h.4v-.1h.1v-.1h.1v-.1h.1v-.2h.1v-.2m0 0v-8h6.7v8m0 0v.2h.1v.2h.1v.1h.1v.1h.1l.1.1h.3m0 0h67.9m0 0h.4v-.1h.1v-.1h.1v-.1h.1v-.3m0 0v-8.1h19.4m0 0l-.2 1.4-.2 1.3-.1 1.4-.1 1.4-.1 1.4v1.4m0 0v15.1h5.5v-15.1m0 0V204l.1-1.4.1-1.4.2-1.4.2-1.3.2-1.4m0 0h7.8m0 0l-.3 1.2-.2 1.2-.2 1.2-.1 1.2-.1 1.2-.1 1.2v2.4l.1 1.2.1 1.2.1 1.2.2 1.2.3 1.2.2 1.2.4 1.2.3 1.1.4 1.2.4 1.1.5 1.1.5 1.1.6 1.1.6 1 .6 1.1.7 1 .7 1 .7.9.8 1 .8.9.8.9.8.8.9.9.9.8 1 .7 1 .8.9.6 1.1.7 1 .6 1.1.6 1 .6 1.1.5 1.2.4 1.1.5 1.1.4 1.2.3 1.2.3 1.1.3 1.2.2 1.2.2 1.2.2 1.2.1 1.2.1h2.5l1.2-.1 1.2-.1 1.2-.2 1.2-.2 1.2-.2 1.2-.3 1.1-.3 1.2-.3 1.1-.4 1.2-.5 1.1-.4 1.1-.5 1.1-.6 1-.6 1.1-.6 1-.7 1-.6.9-.8 1-.7.9-.8.9-.9.8-.8.9-.9.8-.9.7-1 .8-.9.7-1 .6-1 .6-1.1.6-1 .6-1.1.5-1.1.5-1.1.4-1.1.4-1.2.4-1.1.3-1.2.3-1.2.2-1.2.2-1.2.1-1.2.1-1.2.1-1.2v-3.6l-.2-1.2-.1-1.2-.2-1.2-.2-1.2-.3-1.2m0 0h7.8m0 0l.2 1.4.3 1.3.1 1.4.1 1.4.1 1.4v1.4m0 0v3.5h5.5v-3.5m0 0v-2.8l-.1-1.4-.2-1.4-.2-1.3-.2-1.4m0 0h7m0 0l-.2 1.3-.2 1.4-.2 1.4-.1 1.4v2.8m0 0v15.1h5.5v-15.1m0 0V204l.1-1.4.1-1.4.1-1.4.3-1.4.2-1.3m0 0h7.8m0 0l-.3 1.2-.2 1.1-.2 1.2-.1 1.2-.1 1.2-.1 1.3v2.4l.1 1.2.1 1.2.1 1.2.2 1.2.2 1.2.3 1.2.3 1.1.4 1.2.4 1.1.4 1.2.5 1.1.5 1.1.6 1.1.6 1 .6 1.1.6 1 .7 1 .8.9.7 1 .8.9.9.9.8.8.9.9.9.7 1 .8.9.7 1 .7 1 .7 1.1.6 1 .6 1.1.5 1.1.6 1.1.4 1.2.5 1.1.4 1.2.3 1.1.3 1.2.3 1.2.2 1.2.2 1.2.2 1.2.1h1.2l1.2.1 1.3-.1h1.2l1.2-.1 1.2-.2 1.2-.2 1.2-.2 1.1-.3 1.2-.3 1.2-.3 1.1-.4 1.1-.5 1.2-.4 1.1-.6 1-.5 1.1-.6 1-.6 1.1-.7 1-.7.9-.7 1-.8.9-.7.9-.9.8-.8.8-.9.8-.9.8-1 .7-.9.7-1 .7-1 .6-1.1.6-1 .6-1.1.5-1.1.5-1.1.4-1.2.4-1.1.3-1.2.4-1.1.2-1.2.3-1.2.2-1.2.1-1.2.1-1.2.1-1.2v-2.4l-.1-1.3-.1-1.2-.1-1.2-.2-1.2-.2-1.1-.3-1.2m0 0h7.8m0 0l.2 1.3.2 1.4.2 1.4.1 1.4.1 1.4v1.4"/><path class="st2" d="M667 205.4v3.5h5.5v-3.5m0 0V204l-.1-1.4-.1-1.4-.1-1.4-.2-1.4-.2-1.3m0 0h71.6v22.6h5v-12.6h10.3m0 0l.1 1.2.1 1.2.2 1.1.2 1.2.2 1.2.3 1.1.3 1.2.4 1.1.3 1.1.5 1.1.4 1.1m0 0l.6 1.1.5 1.1.6 1 .6 1 .7 1.1.7.9.7 1 .8.9.8 1 .8.8.9.9.9.8.9.8.9.8 1 .7 1 .7 1 .6 1 .7 1.1.5 1.1.6 1.1.5 1.1.5 1.1.4 1.1.4 1.2.3 1.2.3 1.1.3 1.2.2 1.2.2 1.2.2 1.2.1 1.2.1h2.5l1.2-.1 1.2-.1 1.2-.2 1.2-.2 1.1-.2 1.2-.3 1.2-.3 1.1-.3 1.2-.4 1.1-.4 1.1-.5 1.1-.5 1.1-.6 1.1-.5 1-.7 1-.6 1-.7 1-.7.9-.8.9-.8.9-.8.9-.9.8-.8.8-1 .8-.9.7-1 .7-.9.7-1.1.6-1 .6-1 .5-1.1.5-1.1m0 0l.5-1.1.4-1.1.4-1.1.4-1.1.3-1.2.3-1.1.2-1.2.2-1.2.2-1.1.1-1.2.1-1.2m0 0h10.3v12.6h6.6m0 0h.9l.9-.1h.9l.9-.2.8-.1.9-.2.9-.2.8-.2.9-.2.8-.3.8-.3.8-.4.8-.4.8-.4.8-.4.8-.4.7-.5.7-.5.7-.6.7-.5.7-.6.7-.6.6-.6.6-.7.6-.6.5-.7.6-.7.5-.7.5-.8.4-.7.5-.8.4-.8m0 0l.3-.7.4-.8.3-.8.3-.8.2-.8.2-.8.2-.8.2-.8.2-.8.1-.9.1-.8.1-.8v-1.7m0 0v-66.5m0 0v-.8l-.1-.2v-.5l-.1-.3-.1-.3v-.2l-.1-.3-.1-.2-.1-.3-.1-.2-.2-.2-.1-.3-.1-.2-.2-.2-.1-.3-.2-.2-.1-.2-.2-.2-.2-.2-.2-.2-.2-.2-.2-.1-.2-.2-.2-.2-.2-.1-.2-.2-.3-.1-.2-.1-.2-.2-.3-.1-.2-.1-.3-.1-.2-.1-.3-.1h-.2l-.3-.1-.2-.1h-.3m0 0l-90-14.4-7.8-45.5m0 0V60l-.1-.3v-.3l-.1-.2-.1-.3-.1-.2-.1-.3-.1-.2-.1-.2-.1-.3-.2-.2-.1-.2-.2-.2-.1-.3-.2-.2-.1-.2-.2-.2-.2-.2-.2-.1-.2-.2-.2-.2-.2-.1-.2-.2-.2-.2-.3-.1-.2-.1-.2-.2-.3-.1-.2-.1-.2-.1-.3-.1-.2-.1h-.3l-.3-.1-.2-.1h-.5l-.3-.1h-.8m0 0h-68.5m0 0h-.8l-.2.1h-.6l-.2.1-.3.1h-.2l-.3.1-.2.1-.3.1-.2.1-.2.1-.3.2-.2.1-.2.1-.2.2-.2.1-.3.2-.2.2-.2.2-.1.1-.2.2-.2.2-.2.2-.1.2-.2.2-.1.3-.2.2-.1.2-.1.3-.2.2-.1.2-.1.3-.1.2v.3l-.1.2-.1.3v.2l-.1.3v.3l-.1.2v.8"/><path class="st2" d="M682.5 61.5v53.6h-10V9.8H15.7v4h2v8.1h2.8v93.3h-7.9v4.4h.6v11.5h-.6v44.8l-2.9.3v2.8h2.9v6.8h4.3V179h1v6.8h12.6v11.3h30"/><path class="st3" d="M60.5 197.1l-.2 1.4-.2 1.3-.2 1.4-.1 1.4v2.8m0 0v15.1h5.5v-15.1m0 0V204l.1-1.4.1-1.4.1-1.4.2-1.3.3-1.4m0 0h7.8m0 0l-.3 1.2-.2 1.2-.2 1.2-.2 1.2-.1 1.2v4.8l.2 1.2.1 1.2.2 1.2.2 1.2.3 1.2.3 1.2.4 1.1.4 1.2.4 1.1.5 1.1.5 1.1.6 1.1.5 1 .7 1.1.6 1 .7 1 .8.9.7 1 .8.9.8.9.9.8.9.9.9.8.9.7 1 .8 1 .6 1 .7 1.1.6 1 .6 1.1.6 1.1.5 1.1.4 1.2.5 1.1.4 1.2.3 1.1.3 1.2.3 1.2.2 1.2.2 1.2.2 1.2.1 1.2.1h2.4l1.2-.1 1.3-.1 1.2-.2 1.2-.2 1.1-.2 1.2-.3 1.2-.3 1.2-.3 1.1-.4 1.1-.5 1.1-.4 1.1-.5 1.1-.6 1.1-.6 1-.6 1-.7 1-.6 1-.8.9-.7 1-.8.8-.9.9-.8.8-.9.8-.9.8-1 .7-.9.7-1 .7-1 .6-1.1.6-1 .5-1.1.6-1.1.4-1.1.5-1.1.4-1.2.3-1.1.3-1.2.3-1.2.3-1.2.1-1.2.2-1.2.1-1.2.1-1.2v-2.4l-.1-1.2-.1-1.2-.1-1.2-.2-1.2-.2-1.2-.3-1.2m0 0h7.8m0 0l.2 1.4.2 1.3.2 1.4.1 1.4.1 1.4v1.4m0 0v3.5h5.5v-3.5m0 0V204l-.1-1.4-.1-1.4-.1-1.4-.2-1.3-.2-1.4m0 0h7m0 0l-.3 1.3-.1 1.4-.2 1.4-.1 1.4v1.4l-.1 1.4m0 0v15.1h5.6l-.1-11.4v-3.7m0 0l.1-1.4v-1.4l.2-1.4.1-1.4.2-1.4.3-1.3m0 0h7.7m0 0l-.2 1.1-.3 1.2-.1 1.2-.2 1.2-.1 1.2v1.3l-.1 1.2.1 1.2v1.2l.1 1.2.2 1.2.2 1.2.2 1.2.3 1.2.3 1.1.4 1.2.4 1.1.4 1.2.5 1.1.5 1.1.5 1.1.6 1 .6 1.1.7 1 .7 1 .7.9.8 1 .8.9.8.9.9.8.9.9.9.7.9.8 1 .7 1 .7 1 .7 1 .6 1.1.6 1.1.5 1.1.6 1.1.4 1.1.5 1.2.4 1.1.3 1.2.3 1.2.3 1.2.2 1.2.2 1.2.2 1.2.1h1.2l1.2.1 1.2-.1h1.2l1.2-.1 1.2-.2 1.2-.2 1.2-.2 1.2-.3 1.2-.3 1.1-.3 1.2-.4 1.1-.5 1.1-.4 1.1-.6 1.1-.5 1.1-.6 1-.6 1-.7 1-.7 1-.7.9-.8.9-.7.9-.9.9-.8.8-.9.8-.9.8-1 .7-.9.7-1 .7-1 .6-1.1.6-1 .5-1.1.5-1.1.5-1.1.5-1.2.4-1.1.3-1.2.3-1.1.3-1.2.2-1.2.2-1.2.2-1.2.1-1.2v-1.2l.1-1.2v-1.2l-.1-1.3-.1-1.2-.2-1.2-.1-1.2-.3-1.2-.2-1.1m0 0h7.7m0 0l.3 1.3.2 1.4.2 1.4.1 1.4v1.4l.1 1.4m0 0v3.5h5.5v-3.5m0 0l-.1-1.7v-1.6l-.2-1.7-.2-1.7-.2-1.6m0 0h19.3v8m0 0v.1l.1.1v.2h.1v.1h.1v.1h.1l.1.1h.3m0 0h67.9m0 0h.4v-.1h.1v-.1h.1v-.1h.1v-.2h.1v-.1m0 0v-8.1h6.7v8m0 0v.6m0 .1h28.3m0 0h.4v-.1h.1v-.1h.1v-.1h.1v-.2h.1v-.2m0 0v-8h6.7v8m0 0v.2h.1v.2h.1v.1h.1v.1h.1v.1h.4m0 0h67.9m0 0h.3l.1-.1h.1v-.1h.1v-.1h.1v-.3m0 0v-8.1h19.4m0 0l-.2 1.4-.2 1.3-.1 1.4-.1 1.4-.1 1.4v1.4m0 0v15.1h5.5v-15.1m0 0V204l.1-1.4.1-1.4.2-1.4.2-1.3.2-1.4m0 0h7.8m0 0l-.3 1.2-.2 1.2-.2 1.2-.1 1.2-.1 1.2-.1 1.2v2.4l.1 1.2.1 1.2.1 1.2.2 1.2.3 1.2.2 1.2.4 1.2.3 1.1.4 1.2.4 1.1.5 1.1.5 1.1.6 1.1.6 1 .6 1.1.7 1 .7 1 .7.9.8 1 .7.9.9.9.8.8.9.9.9.8 1 .7.9.8 1 .6 1.1.7 1 .6 1.1.6 1 .6 1.1.5 1.2.4 1.1.5 1.1.4 1.2.3 1.2.3 1.1.3 1.2.2 1.2.2 1.2.2 1.2.1 1.2.1h2.5l1.2-.1 1.2-.1 1.2-.2 1.2-.2 1.2-.2 1.2-.3 1.1-.3 1.2-.3 1.1-.4 1.2-.5 1.1-.4 1.1-.5 1.1-.6 1-.6 1.1-.6 1-.7 1-.6.9-.8 1-.7.9-.8.9-.9.8-.8.9-.9.8-.9.7-1 .8-.9.7-1 .6-1 .6-1.1.6-1 .6-1.1.5-1.1.5-1.1.4-1.1.4-1.2.4-1.1.3-1.2.3-1.2.2-1.2.2-1.2.1-1.2.1-1.2.1-1.2v-2.4l-.1-1.2-.1-1.2-.1-1.2-.2-1.2-.2-1.2-.3-1.2m0 0h7.8m0 0l.2 1.4.3 1.3.1 1.4.1 1.4.1 1.4v1.4m0 0v3.5h5.5v-3.5m0 0V204l-.1-1.4-.1-1.4-.1-1.4-.2-1.3-.2-1.4m0 0h7m0 0l-.2 1.3-.2 1.4-.2 1.4-.1 1.4v2.8m0 0v15.1h5.5v-15.1m0 0V204l.1-1.4.1-1.4.1-1.4.3-1.4.2-1.3m0 0h7.8m0 0l-.3 1.1-.2 1.2-.2 1.2-.2 1.2-.1 1.2v3.7l.1 1.2.1 1.2.1 1.2.2 1.2.2 1.2.3 1.2.3 1.1.4 1.2.4 1.1.4 1.2.5 1.1.5 1.1.6 1.1.6 1 .6 1.1.6 1 .7 1 .8.9.7 1 .8.9.9.9.8.8.9.9.9.7 1 .8.9.7 1 .7 1 .7 1.1.6 1 .6 1.1.5 1.1.6 1.1.4 1.2.5 1.1.4 1.2.3 1.1.3 1.2.3 1.2.2 1.2.2 1.2.2 1.2.1h1.2l1.2.1 1.2-.1h1.3l1.2-.1 1.2-.2 1.2-.2 1.2-.2 1.1-.3 1.2-.3 1.2-.3 1.1-.4 1.1-.5 1.2-.4 1.1-.6 1-.5 1.1-.6 1-.6 1.1-.7.9-.7 1-.7 1-.8.9-.7.9-.9.8-.8.8-.9.8-.9.8-1 .7-.9.7-1 .7-1 .6-1.1.6-1 .6-1.1.5-1.1.5-1.1.4-1.2.4-1.1.3-1.2.4-1.1.2-1.2.3-1.2.2-1.2.1-1.2.1-1.2.1-1.2v-2.4l-.1-1.3-.1-1.2-.1-1.2-.2-1.2-.2-1.2-.3-1.1m0 0h7.8m0 0l.2 1.3.2 1.4.2 1.4.1 1.4.1 1.4v1.4m0 0v3.5h5.5v-3.5m0 0V204l-.1-1.4-.1-1.4-.1-1.4-.2-1.4-.2-1.3m0 0h71.6v22.6h5v-12.6h10.3m0 0l.1 1.2.1 1.2.2 1.1.2 1.2.2 1.2.3 1.1.3 1.2.4 1.1.3 1.1.5 1.1.4 1.1m0 0l.6 1.1.5 1.1.6 1 .6 1 .7 1.1.7.9.7 1 .8.9.8 1 .8.8.9.9.8.8 1 .8.9.8 1 .7 1 .7 1 .6 1 .6 1.1.6 1.1.6 1 .5 1.2.5 1.1.4 1.1.4 1.2.3 1.2.3 1.1.3 1.2.2 1.2.2 1.2.2 1.2.1 1.2.1h2.4l1.3-.1 1.2-.1 1.2-.2 1.2-.2 1.1-.2 1.2-.3 1.2-.3 1.1-.3 1.2-.4 1.1-.4 1.1-.5 1.1-.5 1.1-.6 1.1-.6 1-.6 1-.6 1-.7 1-.7.9-.8.9-.8.9-.8.9-.9.8-.8.8-1 .8-.9.7-1 .7-.9.7-1.1.6-1 .6-1 .5-1.1.5-1.1m0 0l.5-1.1.4-1.1.4-1.1.4-1.1.3-1.2.3-1.1.2-1.2.2-1.2.2-1.1.1-1.2.1-1.2m0 0h10.3v12.6h6.6m0 0h.9l.9-.1.9-.1.9-.1.8-.1.9-.2.9-.2.8-.2.9-.2.8-.3.8-.3.8-.4.8-.4.8-.4.8-.4.8-.4.7-.5.7-.5.7-.6.7-.5.7-.6.6-.6.7-.6.6-.7.6-.6.5-.7.6-.7.5-.7.5-.8.4-.7.5-.8.4-.8m0 0l.3-.7.4-.8.3-.8.2-.8.3-.8.2-.8.2-.8.2-.8.2-.8.1-.9.1-.8.1-.8v-1.7m0 0v-66.5m0 0v-.8l-.1-.2v-.6l-.1-.2-.1-.3-.1-.2v-.3l-.1-.2-.1-.3-.1-.2-.2-.3-.1-.2-.1-.2-.2-.2-.1-.3-.2-.2-.1-.2-.2-.2-.2-.2-.2-.2-.2-.2-.2-.1-.2-.2-.2-.2-.2-.1-.2-.2-.3-.1-.2-.1-.2-.2-.3-.1-.2-.1-.3-.1-.2-.1-.3-.1h-.2l-.3-.1-.2-.1h-.3m0 0l-90-14.4-7.8-45.5m0 0V60l-.1-.3v-.3l-.1-.2-.1-.3-.1-.2-.1-.3-.1-.2-.1-.2-.1-.3-.2-.2-.1-.2-.2-.2-.1-.3-.2-.2-.2-.2-.1-.2-.2-.2-.2-.1-.2-.2-.2-.2-.2-.1-.2-.2-.2-.2-.3-.1-.2-.1-.2-.2-.3-.1-.2-.1-.2-.1-.3-.1-.2-.1h-.3l-.3-.1-.2-.1h-.3l-.2-.1h-1.1m0 0h-68.5m0 0h-1l-.3.1h-.3l-.2.1-.3.1h-.2l-.3.1-.2.1-.3.1-.2.1-.2.1-.3.2-.2.1-.2.1-.2.2-.3.1-.2.2-.2.2-.2.2-.1.1-.2.2-.2.2-.2.2-.1.2-.2.2-.1.3-.2.2-.1.2-.1.2-.2.3-.1.2-.1.3-.1.2v.3l-.1.2-.1.3v.2l-.1.3v.3l-.1.2v.8"/><path class="st3" d="M682.5 61.5v53.6h-10V9.8H15.7v4h2v8.1h2.8v93.3h-7.9v4.4h.6v11.5h-.6v44.8l-2.9.3v2.8h2.9v6.8h4.3V179h1v6.8h12.6v11.3h30"/></svg>