<svg xmlns="http://www.w3.org/2000/svg" width="455.485" height="189.67" viewBox="0 0 455.485 189.67"><g transform="translate(0 0)"><g transform="translate(390.739 146.676)"><path d="M3.19,0H58.809A3.191,3.191,0,0,1,62,3.191v25a3.193,3.193,0,0,1-3.193,3.193H3.189A3.189,3.189,0,0,1,0,28.2V3.19A3.19,3.19,0,0,1,3.19,0Z" fill="#333"/></g><g transform="translate(331.891 32.864)"><path d="M3.191,0H17.5A3.193,3.193,0,0,1,20.7,3.193v94.6a3.19,3.19,0,0,1-3.19,3.19H3.189A3.189,3.189,0,0,1,0,97.794V3.191A3.191,3.191,0,0,1,3.191,0Z" fill="#1a1a1a"/><path d="M3.191,0H17.5A3.193,3.193,0,0,1,20.7,3.193v94.6a3.19,3.19,0,0,1-3.19,3.19H3.189A3.189,3.189,0,0,1,0,97.794V3.191A3.191,3.191,0,0,1,3.191,0Z" fill="#1a1a1a"/></g><g transform="translate(345.246 26.225)"><path d="M394.488,373.156v30.473a29.6,29.6,0,0,1-29.577,29.577h-51.09a29.6,29.6,0,0,1-29.571-29.577V321.386A2.735,2.735,0,0,1,285.9,318.9c5.379-2.219,12.367-3.41,20.2-3.41a104.272,104.272,0,0,1,29.647,4.7c2.188.666,4.519,1.455,7.1,2.4,8.727,1.708,20.342,7.427,29.681,14.612a73.527,73.527,0,0,1,11.581,10.932c.75.882,1.452,1.775,2.112,2.671C391.626,358.078,394.488,365.715,394.488,373.156Z" transform="translate(-284.25 -315.485)" fill="#b2b2b2"/></g><g transform="translate(385.219 58.869)"><path d="M368.747,352.134V378.8l-9.087-.986-.593-.065-9.362-1.025-6.915-.75-19.732-2.155-7.444-.806c-9.482,0-17.134-4.75-17.134-10.595V337.7c0-5.826,7.651-10.6,17.134-10.6h42.753c.75.882,1.452,1.775,2.112,2.671a44.807,44.807,0,0,1,5.809,10.258A32.207,32.207,0,0,1,368.747,352.134Z" transform="translate(-298.481 -327.107)" fill="#4d4d4d"/></g><g transform="translate(345.246 11.945)"><path d="M370.757,342.076a8.988,8.988,0,0,1-6.438,8.6,9.239,9.239,0,0,1-2.525.357H293.21a8.965,8.965,0,0,1-8.96-8.96V319.361a8.963,8.963,0,0,1,8.96-8.96l52.449,8.96C374.324,324.116,370.757,342.076,370.757,342.076Z" transform="translate(-284.25 -310.401)" fill="#ccc"/></g><g transform="translate(345.246 20.832)"><path d="M364.319,344.956a9.253,9.253,0,0,1-2.525.357H293.21a8.965,8.965,0,0,1-8.96-8.96V313.925a8.658,8.658,0,0,1,2.489-.36l52.43,8.969C365.7,326.924,364.622,342.625,364.319,344.956Z" transform="translate(-284.25 -313.565)" fill="#e6e6e6"/></g><g transform="translate(345.246 105.908)"><path d="M394.488,368.948v29.72a8.863,8.863,0,0,1-1.885,5.486.764.764,0,0,1-.138.2,8.933,8.933,0,0,1-5.651,3.171,8.1,8.1,0,0,1-1.287.107H293.21a8.951,8.951,0,0,1-8.96-8.963V343.854l101.02,16.1.258.037a8.814,8.814,0,0,1,5.769,2.118,8.907,8.907,0,0,1,2.615,3.7A8.784,8.784,0,0,1,394.488,368.948Z" transform="translate(-284.25 -343.854)" fill="#ccc"/></g><g transform="translate(165.487 146.645)"><path d="M263.281,379.87a21.514,21.514,0,1,1-21.516-21.513A21.517,21.517,0,0,1,263.281,379.87Z" transform="translate(-220.252 -358.357)" fill="#333"/><g transform="translate(2.126 1.829)"><path d="M259.782,378.389A19.387,19.387,0,1,1,240.4,359.008,19.39,19.39,0,0,1,259.782,378.389Z" transform="translate(-221.009 -359.008)" fill="#1a1a1a"/></g><g transform="translate(8.851 8.786)"><g transform="translate(0.899 0.893)"><path d="M247.25,373.566A11.763,11.763,0,1,1,235.486,361.8,11.766,11.766,0,0,1,247.25,373.566Z" transform="translate(-223.723 -361.803)" fill="#666"/></g><path d="M236.065,386.8a12.658,12.658,0,1,1,12.657-12.659A12.673,12.673,0,0,1,236.065,386.8Zm0-23.524a10.866,10.866,0,1,0,10.867,10.865A10.875,10.875,0,0,0,236.065,363.277Z" transform="translate(-223.403 -361.485)" fill="gray"/></g></g><g transform="translate(61.001 146.645)"><path d="M226.081,379.87a21.514,21.514,0,1,1-21.516-21.513A21.515,21.515,0,0,1,226.081,379.87Z" transform="translate(-183.053 -358.357)" fill="#333"/><g transform="translate(2.129 1.829)"><path d="M222.587,378.389a19.388,19.388,0,1,1-19.392-19.381A19.394,19.394,0,0,1,222.587,378.389Z" transform="translate(-183.811 -359.008)" fill="#1a1a1a"/></g><g transform="translate(8.853 8.786)"><g transform="translate(0.899 0.893)"><path d="M210.057,373.566A11.766,11.766,0,1,1,198.286,361.8,11.768,11.768,0,0,1,210.057,373.566Z" transform="translate(-186.525 -361.803)" fill="#666"/></g><path d="M198.864,386.8a12.658,12.658,0,1,1,12.662-12.659A12.672,12.672,0,0,1,198.864,386.8Zm0-23.524a10.866,10.866,0,1,0,10.87,10.865A10.884,10.884,0,0,0,198.864,363.277Z" transform="translate(-186.205 -361.485)" fill="gray"/></g></g><g transform="translate(236.295 125.626)"><path d="M3.191,0H76.873a3.189,3.189,0,0,1,3.189,3.189V30.12a3.191,3.191,0,0,1-3.191,3.191H3.191A3.191,3.191,0,0,1,0,30.12V3.191A3.191,3.191,0,0,1,3.191,0Z" fill="#1a1a1a"/></g><g transform="translate(276.129 148.473)"><rect width="105.957" height="31.38" fill="gray"/></g><g transform="translate(2.607 133.847)"><path d="M3.191,0H217.943a3.192,3.192,0,0,1,3.192,3.192V36.242a3.191,3.191,0,0,1-3.191,3.191H3.191A3.191,3.191,0,0,1,0,36.242V3.191A3.191,3.191,0,0,1,3.191,0Z" fill="#4d4d4d"/></g><g transform="translate(360.575 146.645)"><path d="M332.736,379.87a21.514,21.514,0,1,1-21.518-21.513A21.514,21.514,0,0,1,332.736,379.87Z" transform="translate(-289.707 -358.357)" fill="#333"/><g transform="translate(2.126 1.829)"><path d="M329.237,378.389a19.387,19.387,0,1,1-19.389-19.381A19.392,19.392,0,0,1,329.237,378.389Z" transform="translate(-290.464 -359.008)" fill="#1a1a1a"/></g><g transform="translate(8.856 8.786)"><g transform="translate(0.893 0.893)"><path d="M316.7,373.566A11.763,11.763,0,1,1,304.938,361.8,11.766,11.766,0,0,1,316.7,373.566Z" transform="translate(-293.178 -361.803)" fill="#666"/></g><path d="M305.514,386.8a12.658,12.658,0,1,1,12.659-12.659A12.668,12.668,0,0,1,305.514,386.8Zm0-23.524a10.866,10.866,0,1,0,10.873,10.865A10.878,10.878,0,0,0,305.514,363.277Z" transform="translate(-292.86 -361.485)" fill="gray"/></g><g transform="translate(15.499 15.502)"><path d="M307.253,369.887a6.014,6.014,0,1,1-6.017-6.011A6.013,6.013,0,0,1,307.253,369.887Z" transform="translate(-295.225 -363.876)" fill="gray"/></g></g><g transform="translate(245.951 146.645)"><path d="M291.925,379.87a21.513,21.513,0,1,1-21.513-21.513A21.516,21.516,0,0,1,291.925,379.87Z" transform="translate(-248.899 -358.357)" fill="#333"/><g transform="translate(2.126 1.829)"><path d="M288.432,378.389a19.388,19.388,0,1,1-19.389-19.381A19.388,19.388,0,0,1,288.432,378.389Z" transform="translate(-249.656 -359.008)" fill="#1a1a1a"/></g><g transform="translate(8.853 8.786)"><g transform="translate(0.893 0.893)"><path d="M275.9,373.566A11.766,11.766,0,1,1,264.135,361.8,11.77,11.77,0,0,1,275.9,373.566Z" transform="translate(-252.369 -361.803)" fill="#666"/></g><path d="M264.71,386.8a12.658,12.658,0,1,1,12.66-12.659A12.671,12.671,0,0,1,264.71,386.8Zm0-23.524a10.866,10.866,0,1,0,10.867,10.865A10.88,10.88,0,0,0,264.71,363.277Z" transform="translate(-252.051 -361.485)" fill="gray"/></g><g transform="translate(15.502 15.502)"><path d="M266.44,369.887a6.011,6.011,0,1,1-6.011-6.011A6.01,6.01,0,0,1,266.44,369.887Z" transform="translate(-254.418 -363.876)" fill="gray"/></g></g><g transform="translate(385.219 69.301)"><path d="M324.628,339.787v22.265a8.791,8.791,0,0,1-1.57,5.053l-7.444-.806c-9.482,0-17.134-4.75-17.134-10.6V332.995a8.817,8.817,0,0,1,5.828-2.174h11.362A8.965,8.965,0,0,1,324.628,339.787Z" transform="translate(-298.481 -330.821)" fill="#333"/></g><g transform="translate(429.46 70.867)"><path d="M340.257,344.407v26.67l-9.087-.986-16.87-1.84a8.783,8.783,0,0,1,.556-4.359l10.556-26.838A8.959,8.959,0,0,1,337.029,332l.77.306A32.2,32.2,0,0,1,340.257,344.407Z" transform="translate(-314.232 -331.379)" fill="#333"/></g><g transform="translate(424.615 94.061)"><path d="M333.7,355.09l-9.362-1.025-10.609-8.584a3.28,3.28,0,0,1-.483-4.623,3.286,3.286,0,0,1,4.626-.489L332.5,352.2A3.27,3.27,0,0,1,333.7,355.09Z" transform="translate(-312.507 -339.636)" fill="#1a1a1a"/></g><g transform="translate(432.863 58.869)"><path d="M332.689,352.134V378.8l-6.865-.747V352.134c0-7.44-2.87-15.078-8.269-22.355-.66-.9-1.362-1.789-2.112-2.671h6.865c.75.882,1.449,1.775,2.115,2.671C329.821,337.056,332.689,344.693,332.689,352.134Z" transform="translate(-315.443 -327.107)" fill="#b2b2b2"/></g><g transform="translate(442.472 124.983)"><path d="M331.877,357.114v35.315a6.427,6.427,0,0,1-.845,3.188c0,.014,0,.039-.014.039a6.492,6.492,0,0,1-5.646,3.278,6.674,6.674,0,0,1-1.169-.1,6.494,6.494,0,0,1-3.444-1.8,6.569,6.569,0,0,1-1.9-4.6V357.15a6.483,6.483,0,0,1,3.795-5.9,6.218,6.218,0,0,1,2.713-.609A6.51,6.51,0,0,1,329.346,352a7.277,7.277,0,0,1,.629.556A6.509,6.509,0,0,1,331.877,357.114Z" transform="translate(-318.864 -350.645)" fill="gray"/></g><g transform="translate(446.915 136.864)"><path d="M329.016,354.875v29.9a6.428,6.428,0,0,1-.845,3.188,10.413,10.413,0,0,1-1.04-.16,8.482,8.482,0,0,1-6.309-5.831,8.088,8.088,0,0,1-.376-2.486v-16.1a8.487,8.487,0,0,1,8.516-8.511Z" transform="translate(-320.446 -354.875)" fill="#f8ef6c"/></g><g transform="translate(446.915 131.452)"><path d="M329.016,352.948v10.831h-3.152a5.422,5.422,0,0,1-5.418-5.418,5.254,5.254,0,0,1,.466-2.188,5.5,5.5,0,0,1,1.115-1.646,5.9,5.9,0,0,1,.89-.716,5.477,5.477,0,0,1,2.947-.862Z" transform="translate(-320.446 -352.948)" fill="#fff"/></g><g transform="translate(446.915 161.478)"><path d="M329.016,363.638v5.289a6.429,6.429,0,0,1-.845,3.188c.27.014.525.039.792.039h-4.247a4.259,4.259,0,0,1-4.269-4.269,4.134,4.134,0,0,1,.376-1.761,3.99,3.99,0,0,1,.879-1.247,4.258,4.258,0,0,1,3.014-1.239Z" transform="translate(-320.446 -363.638)" fill="#109d59"/></g><g transform="translate(408.728 116.407)"><path d="M323.708,353.132a3.364,3.364,0,0,1-3.854,2.781l-10.177-1.635a3.367,3.367,0,0,1-2.784-3.859h0a3.362,3.362,0,0,1,3.854-2.784l10.173,1.643a3.372,3.372,0,0,1,2.787,3.854Z" transform="translate(-306.851 -347.592)" fill="#4d4d4d"/></g><g transform="translate(345.247 52.567)"><rect width="21.45" height="95.914" fill="#999"/></g><g transform="translate(348.994 135.469)"><path d="M346.168,393.075a5.608,5.608,0,0,1-5.612-5.6,21.881,21.881,0,0,0-43.762,0,5.605,5.605,0,0,1-11.21,0,33.094,33.094,0,0,1,66.187,0A5.607,5.607,0,0,1,346.168,393.075Z" transform="translate(-285.584 -354.378)" fill="#b2b2b2"/></g><g transform="translate(234.376 135.469)"><path d="M305.353,393.075a5.6,5.6,0,0,1-5.6-5.6,21.882,21.882,0,0,0-43.764,0,5.6,5.6,0,0,1-11.207,0,33.091,33.091,0,1,1,66.182,0A5.605,5.605,0,0,1,305.353,393.075Z" transform="translate(-244.778 -354.378)" fill="#b2b2b2"/></g><g transform="translate(398.291 62.889)"><path d="M3.189,0H31.381A3.189,3.189,0,0,1,34.57,3.189V19.008A3.191,3.191,0,0,1,31.379,22.2H3.191A3.191,3.191,0,0,1,0,19.008V3.189A3.189,3.189,0,0,1,3.189,0Z" fill="#fff"/></g><g transform="translate(362.76 19.856)"><path d="M312.961,319.26a3.624,3.624,0,0,1-4.056,3.135l-15.252-1.949a3.624,3.624,0,0,1-3.137-4.059h0a3.637,3.637,0,0,1,4.059-3.14l15.249,1.955a3.624,3.624,0,0,1,3.137,4.059Z" transform="translate(-290.485 -313.218)" fill="#fff"/></g><g transform="translate(382.084 135.469)"><path d="M309.131,357.336a2.953,2.953,0,0,1-2.955,2.955h-5.854a2.954,2.954,0,0,1-2.958-2.955h0a2.956,2.956,0,0,1,2.958-2.958h5.854a2.955,2.955,0,0,1,2.955,2.958Z" transform="translate(-297.365 -354.378)" fill="#fff"/></g><g transform="translate(288.977 154.82)"><path d="M3.192,0H68.013a3.192,3.192,0,0,1,3.192,3.192V19.477a3.191,3.191,0,0,1-3.191,3.191H3.191A3.191,3.191,0,0,1,0,19.477V3.192A3.192,3.192,0,0,1,3.192,0Z" fill="#b2b2b2"/></g><g transform="translate(296.757 158.241)"><path d="M1.276,0H54.371a1.276,1.276,0,0,1,1.276,1.276V14.552a1.275,1.275,0,0,1-1.275,1.275H1.275A1.275,1.275,0,0,1,0,14.551V1.276A1.276,1.276,0,0,1,1.276,0Z" fill="#ccc"/></g><g transform="translate(14.34 138.425)"><path d="M1.277,0H202.754a1.275,1.275,0,0,1,1.275,1.275V28.454a1.277,1.277,0,0,1-1.277,1.277H1.277A1.277,1.277,0,0,1,0,28.454V1.277A1.277,1.277,0,0,1,1.277,0Z" fill="#333"/></g><path d="M3.19,0H336.472a3.193,3.193,0,0,1,3.193,3.193V141.7a3.191,3.191,0,0,1-3.191,3.191H3.191A3.191,3.191,0,0,1,0,141.7V3.19A3.19,3.19,0,0,1,3.19,0Z" fill="#0d539b"/><g transform="translate(12.948 10.241)"><path d="M3.191,0H314.815A3.189,3.189,0,0,1,318,3.189V124.077a3.19,3.19,0,0,1-3.19,3.19H3.191A3.191,3.191,0,0,1,0,124.075V3.191A3.191,3.191,0,0,1,3.191,0Z" fill="#f6b17e"/></g><g transform="translate(14.34 20.84)"><path d="M451.128,406.065v13.783c0,4.946-3.1,8.96-6.925,8.96H140.048c-3.824,0-6.923-4.014-6.923-8.96V313.568c15.851,4.208,73.939,14,104.951,34.579C302.228,390.7,397.4,410.995,451.128,406.065Z" transform="translate(-133.125 -313.568)" fill="#ee8335"/></g><g transform="translate(345.246 36.699)"><path d="M363.619,329.969V335.1H284.39a.433.433,0,0,1-.14-.014V322.8a3.592,3.592,0,0,1,3.584-3.584l72.2,7.174a3.58,3.58,0,0,1,3.388,2.438A3.369,3.369,0,0,1,363.619,329.969Z" transform="translate(-284.25 -319.214)" fill="#666"/></g><g transform="translate(345.246 46.311)"><path d="M384.823,325.768a3.125,3.125,0,0,1-3.132,3.138h-97.3a.434.434,0,0,1-.14-.014V322.65a.433.433,0,0,1,.14-.014h97.3A3.126,3.126,0,0,1,384.823,325.768Z" transform="translate(-284.25 -322.636)" fill="#4d4d4d"/></g></g><text transform="translate(121.325 95.717)" fill="#fff" font-size="66" font-family="OpenSans-Bold, Open Sans" font-weight="700"><tspan x="0" y="0">20ft</tspan></text></svg>