<svg xmlns="http://www.w3.org/2000/svg" width="426.034" height="271.831" viewBox="0 0 426.034 271.831"><g transform="translate(0 0)"><path d="M431.773,50.262l93.213,51.109c11.652,6.389,3.884,17.036-12.946,17.036H325.612c-15.536,0-23.3-10.648-12.947-17.036l93.214-51.109C413.647,46.713,425.3,46.713,431.773,50.262Z" transform="translate(-307.95 -47.6)" fill="#ff7058"/><path d="M11.733,249.439V133.733h96.54l42.591,77.374v38.332Z" transform="translate(267.362 -79.82)" fill="#40596b"/><path d="M48,219.325V164.667h63.887l30.524,54.658Z" transform="translate(251.68 -90.168)" fill="#54c0eb"/><path d="M11.733,302.267H419.311v51.109c0,7.808-8.116,14.2-18.034,14.2H29.768c-9.919,0-18.034-6.389-18.034-14.2V302.267Z" transform="translate(-1.085 -136.197)" fill="#cdd6e0"/><path d="M11.733,302.267v49.69c0,8.518,9.017,15.617,19.838,15.617h367.9c10.821,0,19.838-7.1,19.838-15.617v-49.69Z" transform="translate(-1.085 -136.197)" fill="#f2f2f2"/><path d="M11.733,302.267v49.69c0,8.518,9.017,15.617,19.838,15.617h367.9c10.821,0,19.838-7.1,19.838-15.617v-49.69Z" transform="translate(-1.085 -136.197)" fill="#fdc90e"/><g transform="translate(2.84 204.401)"><path d="M0,386.488H37.622A12.724,12.724,0,0,0,50.4,373.711h0a12.724,12.724,0,0,0-12.777-12.778H0Z" transform="translate(372.795 -360.223)" fill="#cdd6e0"/><path d="M439.444,386.131H479.2V359.866H439.444a12.724,12.724,0,0,0-12.777,12.777h0C426.667,380.452,432.346,386.131,439.444,386.131Z" transform="translate(-426.667 -359.866)" fill="#cdd6e0"/></g><path d="M35.2,372.215H142.388a53.925,53.925,0,0,0-53.949-53.949C58.625,318.266,35.2,343.111,35.2,372.215Z" transform="translate(260.221 -141.549)" fill="#334a5e"/><path d="M62.174,386.131H35.2V359.866H55.785A57.365,57.365,0,0,1,62.174,386.131Z" transform="translate(340.435 -155.465)" fill="#bdccdb"/><path d="M301.867,372.215H409.054a53.925,53.925,0,0,0-53.949-53.949C326,318.976,301.867,343.111,301.867,372.215Z" transform="translate(-270.633 -141.549)" fill="#334a5e"/><path d="M433.055,360.933H450.8V387.2H426.666A53.3,53.3,0,0,1,433.055,360.933Z" transform="translate(-395.432 -155.822)" fill="#bdccdb"/><ellipse cx="41.881" cy="41.881" rx="41.881" ry="41.881" transform="translate(306.362 188.069)" fill="#ff7058"/><ellipse cx="17.747" cy="17.747" rx="17.747" ry="17.747" transform="translate(330.296 212.003)" fill="#f2f2f2"/><ellipse cx="41.881" cy="41.881" rx="41.881" ry="41.881" transform="translate(43.083 188.069)" fill="#ff7058"/><ellipse cx="17.747" cy="17.747" rx="17.747" ry="17.747" transform="translate(67.017 212.003)" fill="#f2f2f2"/><g transform="translate(304.649 74.499)"><path d="M106.941,219.325,60.8,164.667h7.1l46.85,54.658Z" transform="translate(-33.826 -164.667)" fill="#84dbff"/><path d="M133.607,219.325l-46.14-54.658H104.5l46.14,54.658Z" transform="translate(-87.467 -164.667)" fill="#84dbff"/></g><path d="M146.482,275.942h24.135a3.353,3.353,0,0,0,3.549-3.549v-.71a3.353,3.353,0,0,0-3.549-3.549H146.482a3.353,3.353,0,0,0-3.549,3.549v.71A3.8,3.8,0,0,0,146.482,275.942Z" transform="translate(129.971 -124.779)" fill="#cdd6e0"/><path d="M378.529,109.549V85.733H502.977v19.954H442.322V216.4H157.867V109.549Z" transform="translate(-157.867 -50.329)" fill="#145ca1"/><g transform="translate(19.876 71.659)"><rect width="24.135" height="70.985" transform="translate(124.934)" fill="#f8b64c"/><rect width="24.135" height="70.985" transform="translate(62.467)" fill="#f8b64c"/><rect width="24.135" height="70.985" transform="translate(0)" fill="#f8b64c"/></g></g></svg>