<svg xmlns="http://www.w3.org/2000/svg" xmlns:xlink="http://www.w3.org/1999/xlink" width="426.034" height="144.08" viewBox="0 0 426.034 144.08"><defs><linearGradient id="a" x1="105.967" y1="1.858" x2="105.967" y2="0.429" gradientUnits="objectBoundingBox"><stop offset="0" stop-color="#b6b8b9"/><stop offset="0.122" stop-color="#989a9a"/><stop offset="0.316" stop-color="#6f7171"/><stop offset="0.505" stop-color="#4e5050"/><stop offset="0.686" stop-color="#373939"/><stop offset="0.855" stop-color="#292b2a"/><stop offset="1" stop-color="#252726"/></linearGradient><linearGradient id="b" x1="105.969" y1="1.217" x2="105.969" y2="0.115" gradientUnits="objectBoundingBox"><stop offset="0" stop-color="#b6b8b9"/><stop offset="1" stop-color="#252726"/></linearGradient><linearGradient id="c" x1="922.534" y1="1.216" x2="922.534" y2="0.115" xlink:href="#b"/><linearGradient id="d" x1="1005.077" y1="1.217" x2="1005.077" y2="0.115" xlink:href="#b"/><linearGradient id="e" x1="423.963" y1="1.012" x2="423.963" y2="-0.017" xlink:href="#b"/><linearGradient id="f" x1="423.914" y1="1.012" x2="423.914" y2="-0.017" xlink:href="#b"/><linearGradient id="g" x1="10905.078" y1="-0.212" x2="10905.078" y2="1.102" gradientUnits="objectBoundingBox"><stop offset="0.029" stop-color="#fff"/><stop offset="0.455" stop-color="#b6b8b9"/><stop offset="1" stop-color="#7a7a7c"/></linearGradient><radialGradient id="h" cx="0.5" cy="0.5" r="0.582" gradientTransform="matrix(-1, 0, 0, 1, 1034.34, 0)" gradientUnits="objectBoundingBox"><stop offset="0.394" stop-color="#1e211d"/><stop offset="0.508" stop-color="#232521"/><stop offset="0.644" stop-color="#31332f"/><stop offset="0.792" stop-color="#494a46"/><stop offset="0.871" stop-color="#5a5956"/><stop offset="0.902" stop-color="#5d5c59"/><stop offset="0.928" stop-color="#676663"/><stop offset="0.953" stop-color="#787775"/><stop offset="0.976" stop-color="#91908d"/><stop offset="0.998" stop-color="#b0afad"/><stop offset="1" stop-color="#b3b2b0"/></radialGradient><radialGradient id="i" cx="0.5" cy="0.895" r="1.042" gradientTransform="matrix(-0.559, 0, 0, 1, 831.539, 0)" gradientUnits="objectBoundingBox"><stop offset="0.394" stop-color="#1e211d"/><stop offset="0.469" stop-color="#232521"/><stop offset="0.56" stop-color="#31332f"/><stop offset="0.658" stop-color="#494a46"/><stop offset="0.71" stop-color="#5a5956"/><stop offset="0.758" stop-color="#696865"/><stop offset="0.852" stop-color="#92918f"/><stop offset="0.918" stop-color="#b3b2b0"/></radialGradient><radialGradient id="j" cx="0.5" cy="0.5" r="0.5" gradientTransform="matrix(-1, 0, 0, 1, 1370.029, 0)" gradientUnits="objectBoundingBox"><stop offset="0.394" stop-color="#1e211d"/><stop offset="0.469" stop-color="#232521"/><stop offset="0.56" stop-color="#31332f"/><stop offset="0.658" stop-color="#494a46"/><stop offset="0.71" stop-color="#5a5956"/><stop offset="0.782" stop-color="#5d5c59"/><stop offset="0.841" stop-color="#676663"/><stop offset="0.894" stop-color="#777674"/><stop offset="0.944" stop-color="#8f8e8b"/><stop offset="0.992" stop-color="#adacaa"/><stop offset="1" stop-color="#b3b2b0"/></radialGradient><radialGradient id="k" cx="0.5" cy="0.5" r="0.5" gradientTransform="matrix(-1, 0, 0, 1, 1617.683, 0)" gradientUnits="objectBoundingBox"><stop offset="0" stop-color="#fff"/><stop offset="0.27" stop-color="#fff"/><stop offset="0.381" stop-color="#fcfcfc"/><stop offset="0.451" stop-color="#f4f3f5"/><stop offset="0.509" stop-color="#e7e5e8"/><stop offset="0.561" stop-color="#d4d0d7"/><stop offset="0.604" stop-color="#bfb9c3"/><stop offset="0.623" stop-color="#c8c3cb"/><stop offset="0.679" stop-color="#e0dde2"/><stop offset="0.737" stop-color="#f1f0f2"/><stop offset="0.797" stop-color="#fbfbfb"/><stop offset="0.862" stop-color="#fff"/><stop offset="0.907" stop-color="#fcfcfc"/><stop offset="0.936" stop-color="#f4f3f5"/><stop offset="0.961" stop-color="#e6e4e8"/><stop offset="0.982" stop-color="#d3cfd6"/><stop offset="1" stop-color="#bfb9c3"/></radialGradient><radialGradient id="l" cx="0.5" cy="0.5" r="0.5" gradientTransform="matrix(-1, 0, 0, 1, 1852.467, 0)" xlink:href="#k"/><radialGradient id="m" cx="0.616" cy="0.309" r="0.768" gradientTransform="matrix(-1, 0, 0, 1, 1999.461, 0)" gradientUnits="objectBoundingBox"><stop offset="0" stop-color="#fff"/><stop offset="0.175" stop-color="#f2f1f3"/><stop offset="0.5" stop-color="#d2ced5"/><stop offset="0.678" stop-color="#bfb9c3"/><stop offset="0.691" stop-color="#bfb9c3"/><stop offset="1" stop-color="#bfb9c3"/></radialGradient><radialGradient id="n" cx="0.616" cy="-0.331" r="1.478" gradientTransform="matrix(-0.519, 0, 0, 1, 1519.288, 0)" xlink:href="#m"/><radialGradient id="o" cx="0.5" cy="0.5" r="0.5" gradientTransform="matrix(-0.999, 0, 0, 1, 5187.915, 0)" xlink:href="#k"/><radialGradient id="p" cx="0.616" cy="0.308" r="0.768" gradientTransform="matrix(-1, 0, 0, 1, 5880.62, 0)" xlink:href="#m"/><radialGradient id="q" cx="0.5" cy="0.5" r="0.5" gradientTransform="matrix(-1, 0, 0, 1, 10441.203, 0)" xlink:href="#k"/><radialGradient id="r" cx="0.616" cy="0.309" r="0.768" gradientTransform="matrix(-1, 0, 0, 1, 11807.581, 0)" xlink:href="#m"/><radialGradient id="s" cx="0.5" cy="0.499" r="0.5" gradientTransform="matrix(-0.997, 0, 0, 1, 16409.023, 0)" xlink:href="#k"/><radialGradient id="t" cx="0.616" cy="0.309" r="0.768" gradientTransform="matrix(-1, 0, 0, 1, 18612.252, 0)" xlink:href="#m"/><radialGradient id="u" cx="0.499" cy="0.499" r="0.501" gradientTransform="matrix(-0.997, 0, 0, 1, 16381.847, 0)" xlink:href="#k"/><radialGradient id="v" cx="0.616" cy="0.31" r="0.768" gradientTransform="matrix(-1, 0, 0, 1, 18594.555, 0)" xlink:href="#m"/><radialGradient id="w" cx="0.5" cy="0.501" r="0.5" gradientTransform="matrix(0, 1, 1, 0, 7030.541, -7030.486)" xlink:href="#k"/><radialGradient id="x" cx="0.309" cy="0.384" r="0.767" gradientTransform="matrix(0, 1, 1, 0, 7943.363, -7943.363)" xlink:href="#m"/><radialGradient id="y" cx="0.5" cy="0.5" r="0.5" gradientTransform="matrix(0, 1, 1, 0, 7016.894, -7016.927)" xlink:href="#k"/><radialGradient id="z" cx="0.309" cy="0.383" r="0.768" gradientTransform="matrix(0, 1, 0.996, 0, 7927.943, -7957.366)" xlink:href="#m"/><radialGradient id="aa" cx="0.499" cy="0.5" r="0.498" gradientTransform="matrix(0.708, 0.707, 0.708, -0.707, 1560.922, -3740.958)" xlink:href="#k"/><radialGradient id="ab" cx="0.283" cy="0.553" r="0.77" gradientTransform="matrix(0.706, 0.707, 0.706, -0.707, 1751.664, -4255.105)" xlink:href="#m"/><radialGradient id="ac" cx="0.5" cy="0.5" r="0.5" gradientTransform="matrix(0.708, 0.707, 0.708, -0.707, 1559.362, -3737.113)" xlink:href="#k"/><radialGradient id="ad" cx="0.283" cy="0.554" r="0.767" gradientTransform="matrix(0.709, 0.707, 0.709, -0.707, 1764.933, -4216.866)" xlink:href="#m"/><radialGradient id="ae" cx="0.501" cy="0.5" r="0.499" gradientTransform="matrix(0.705, -0.707, -0.705, -0.707, 3250.925, 7894.506)" xlink:href="#k"/><radialGradient id="af" cx="0.554" cy="0.718" r="0.768" gradientTransform="matrix(0.708, -0.707, -0.708, -0.707, 3698.186, 8898.685)" xlink:href="#m"/><radialGradient id="ag" cx="0.5" cy="0.5" r="0.5" gradientTransform="matrix(0.707, -0.707, -0.707, -0.707, 3262.485, 7876.364)" xlink:href="#k"/><radialGradient id="ah" cx="0.554" cy="0.717" r="0.769" gradientTransform="matrix(0.707, -0.707, -0.707, -0.707, 3689.982, 8918.058)" xlink:href="#m"/><linearGradient id="ai" x1="86.271" y1="-0.212" x2="86.271" y2="1.103" xlink:href="#g"/><linearGradient id="aj" x1="4919.453" y1="0.5" x2="4920.453" y2="0.5" xlink:href="#g"/><linearGradient id="ak" x1="4806.031" y1="0.5" x2="4807.031" y2="0.5" xlink:href="#g"/><linearGradient id="al" x1="84.784" y1="-0.283" x2="84.784" y2="2.29" xlink:href="#g"/><linearGradient id="am" x1="84.784" y1="-0.997" x2="84.784" y2="0.955" xlink:href="#g"/><linearGradient id="an" x1="-699.916" y1="-17288.246" x2="-699.618" y2="-17287.369" gradientUnits="objectBoundingBox"><stop offset="0" stop-color="#5f6161"/><stop offset="0.31" stop-color="#747475"/><stop offset="0.41" stop-color="#7d7c7d"/><stop offset="1" stop-color="#2f3130"/></linearGradient><linearGradient id="ao" x1="-2087.396" y1="-51863.711" x2="-2086.4" y2="-51863.711" gradientUnits="objectBoundingBox"><stop offset="0" stop-color="#3c3f3e"/><stop offset="1"/></linearGradient><linearGradient id="ap" x1="-2127.852" y1="-52882.668" x2="-2127.544" y2="-52881.832" gradientUnits="objectBoundingBox"><stop offset="0" stop-color="#5f6161"/><stop offset="0.491" stop-color="#494b4b"/><stop offset="1" stop-color="#2f3130"/></linearGradient><linearGradient id="aq" x1="-711.905" y1="-17276.332" x2="-711.607" y2="-17275.455" xlink:href="#an"/><linearGradient id="ar" x1="-2123.146" y1="-51827.973" x2="-2122.15" y2="-51827.973" xlink:href="#ao"/><linearGradient id="as" x1="-2164.258" y1="-52846.211" x2="-2163.956" y2="-52845.391" xlink:href="#ap"/><linearGradient id="at" x1="-723.897" y1="-17264.414" x2="-723.6" y2="-17263.543" xlink:href="#an"/><linearGradient id="au" x1="-2201.245" y1="-51792.227" x2="-2200.229" y2="-51792.227" xlink:href="#ao"/><linearGradient id="av" x1="-2209.387" y1="-53015.965" x2="-2209.083" y2="-53015.141" xlink:href="#ap"/><linearGradient id="aw" x1="-735.886" y1="-17252.502" x2="-735.588" y2="-17251.625" xlink:href="#an"/><linearGradient id="ax" x1="-2282.489" y1="-51756.469" x2="-2281.453" y2="-51756.469" xlink:href="#ao"/><linearGradient id="ay" x1="-2237.162" y1="-52773.313" x2="-2236.854" y2="-52772.477" xlink:href="#ap"/><linearGradient id="az" x1="-738.353" y1="-17240.588" x2="-738.056" y2="-17239.705" xlink:href="#an"/><linearGradient id="ba" x1="-2230.396" y1="-51720.723" x2="-2229.4" y2="-51720.723" xlink:href="#ao"/><linearGradient id="bb" x1="-2229.893" y1="-52736.871" x2="-2229.591" y2="-52736.035" xlink:href="#ap"/><linearGradient id="bc" x1="-764.815" y1="-17228.668" x2="-764.517" y2="-17227.797" xlink:href="#an"/><linearGradient id="bd" x1="-2310.536" y1="-51684.992" x2="-2309.52" y2="-51684.992" xlink:href="#ao"/><linearGradient id="be" x1="-2319.155" y1="-52906.195" x2="-2318.851" y2="-52905.375" xlink:href="#ap"/><linearGradient id="bf" x1="-633.048" y1="-17458.205" x2="-632.752" y2="-17457.318" xlink:href="#an"/><linearGradient id="bg" x1="-1912.444" y1="-53058.453" x2="-1911.468" y2="-53058.453" xlink:href="#ao"/><linearGradient id="bh" x1="-1911.953" y1="-52039.242" x2="-1911.652" y2="-52038.426" xlink:href="#ap"/><linearGradient id="bi" x1="-652.926" y1="-17446.5" x2="-652.627" y2="-17445.617" xlink:href="#an"/><linearGradient id="bj" x1="-1985.509" y1="-53022.895" x2="-1984.513" y2="-53022.895" xlink:href="#ao"/><linearGradient id="bk" x1="-1985.045" y1="-52004.352" x2="-1984.743" y2="-52003.551" xlink:href="#ap"/><linearGradient id="bl" x1="-660.369" y1="-17434.795" x2="-660.072" y2="-17433.912" xlink:href="#an"/><linearGradient id="bm" x1="-1982.214" y1="-52987.316" x2="-1981.237" y2="-52987.316" xlink:href="#ao"/><linearGradient id="bn" x1="-2020.595" y1="-51969.457" x2="-2020.293" y2="-51968.656" xlink:href="#ap"/><linearGradient id="bo" x1="-680.731" y1="-17423.09" x2="-680.432" y2="-17422.211" xlink:href="#an"/><linearGradient id="bp" x1="-2064.764" y1="-53160.512" x2="-2063.764" y2="-53160.512" xlink:href="#ao"/><linearGradient id="bq" x1="-2097.303" y1="-51934.566" x2="-2096.994" y2="-51933.762" xlink:href="#ap"/><linearGradient id="br" x1="-688.041" y1="-17411.383" x2="-687.744" y2="-17410.506" xlink:href="#an"/><linearGradient id="bs" x1="-2100.461" y1="-53124.797" x2="-2099.461" y2="-53124.797" xlink:href="#ao"/><linearGradient id="bt" x1="-2091.732" y1="-51899.676" x2="-2091.429" y2="-51898.871" xlink:href="#ap"/><linearGradient id="bu" x1="-767.894" y1="-17326.578" x2="-767.596" y2="-17325.691" xlink:href="#an"/><linearGradient id="bv" x1="-2304.79" y1="-52658.41" x2="-2303.813" y2="-52658.41" xlink:href="#ao"/><linearGradient id="bw" x1="-2349.479" y1="-51646.891" x2="-2349.171" y2="-51646.074" xlink:href="#ap"/><linearGradient id="bx" x1="-779.523" y1="-17314.873" x2="-779.224" y2="-17313.984" xlink:href="#an"/><linearGradient id="by" x1="-2394.947" y1="-52830.309" x2="-2393.947" y2="-52830.309" xlink:href="#ao"/><linearGradient id="bz" x1="-2339.203" y1="-51611.996" x2="-2338.901" y2="-51611.184" xlink:href="#ap"/><linearGradient id="ca" x1="-801.435" y1="-17303.166" x2="-801.136" y2="-17302.289" xlink:href="#an"/><linearGradient id="cb" x1="-2374.559" y1="-52587.277" x2="-2373.583" y2="-52587.277" xlink:href="#ao"/><linearGradient id="cc" x1="-2420.611" y1="-51577.105" x2="-2420.309" y2="-51576.305" xlink:href="#ap"/><linearGradient id="cd" x1="-813.215" y1="-17291.461" x2="-812.916" y2="-17290.584" xlink:href="#an"/><linearGradient id="ce" x1="-2466.362" y1="-52758.895" x2="-2465.362" y2="-52758.895" xlink:href="#ao"/><linearGradient id="cf" x1="-2456.199" y1="-51542.211" x2="-2455.897" y2="-51541.41" xlink:href="#ap"/><linearGradient id="cg" x1="-814.407" y1="-17279.768" x2="-814.109" y2="-17278.879" xlink:href="#an"/><linearGradient id="ch" x1="-2492.249" y1="-52516.129" x2="-2491.253" y2="-52516.129" xlink:href="#ao"/><linearGradient id="ci" x1="-2491.767" y1="-51507.32" x2="-2491.465" y2="-51506.516" xlink:href="#ap"/><linearGradient id="cj" x1="3230.55" y1="0.5" x2="3231.55" y2="0.5" xlink:href="#b"/><linearGradient id="ck" x1="3240.674" y1="0.5" x2="3241.674" y2="0.5" xlink:href="#b"/><radialGradient id="cl" cx="0.5" cy="0.501" r="0.5" gradientTransform="matrix(-0.999, 0, 0, 1, 7763.133, 0)" gradientUnits="objectBoundingBox"><stop offset="0" stop-color="#ef6624"/><stop offset="1" stop-color="#f4ea0b"/></radialGradient><radialGradient id="cm" cx="0.501" cy="0.5" r="0.5" gradientTransform="matrix(-0.999, 0, 0, 1, 7758.169, 0)" gradientUnits="objectBoundingBox"><stop offset="0" stop-color="#f4ea0b"/><stop offset="1" stop-color="#ea2427"/></radialGradient><radialGradient id="cn" cx="0.5" cy="0.5" r="0.582" gradientTransform="matrix(-1, 0, 0, 1, 1011.567, 0)" xlink:href="#h"/><radialGradient id="co" cx="0.5" cy="0.895" r="1.041" gradientTransform="matrix(-0.559, 0, 0, 1, 813.452, 0)" xlink:href="#i"/><radialGradient id="cp" cx="0.5" cy="0.5" r="0.5" gradientTransform="matrix(-1, 0, 0, 1, 1340.374, 0)" xlink:href="#j"/><radialGradient id="cq" cx="0.5" cy="0.5" r="0.5" gradientTransform="matrix(-0.999, 0, 0, 1, 1579.886, 0)" xlink:href="#k"/><radialGradient id="cr" cx="0.5" cy="0.5" r="0.5" gradientTransform="matrix(-1, 0, 0, 1, 1810.714, 0)" xlink:href="#k"/><radialGradient id="cs" cx="0.616" cy="0.309" r="0.768" gradientTransform="matrix(-1, 0, 0, 1, 1956.515, 0)" xlink:href="#m"/><radialGradient id="ct" cx="0.616" cy="-0.331" r="1.478" gradientTransform="matrix(-0.52, 0, 0, 1, 1486.567, 0)" xlink:href="#m"/><radialGradient id="cu" cx="0.5" cy="0.5" r="0.5" gradientTransform="matrix(-1, 0, 0, 1, 5081.058, 0)" xlink:href="#k"/><radialGradient id="cv" cx="0.616" cy="0.309" r="0.768" gradientTransform="matrix(-1, 0, 0, 1, 5748.473, 0)" xlink:href="#m"/><radialGradient id="cw" cx="0.5" cy="0.5" r="0.5" gradientTransform="matrix(-1, 0, 0, 1, 10215.106, 0)" xlink:href="#k"/><radialGradient id="cx" cx="0.616" cy="0.309" r="0.768" gradientTransform="matrix(-1, 0, 0, 1, 11547.38, 0)" xlink:href="#m"/><radialGradient id="cy" cx="0.5" cy="0.499" r="0.5" gradientTransform="matrix(-1, 0, 0, 1, 16122.301, 0)" xlink:href="#k"/><radialGradient id="cz" cx="0.616" cy="0.309" r="0.768" gradientTransform="matrix(-1, 0, 0, 1, 18202.609, 0)" xlink:href="#m"/><radialGradient id="da" cx="0.501" cy="0.499" r="0.5" gradientTransform="matrix(-1, 0, 0, 1, 16095.294, 0)" xlink:href="#k"/><radialGradient id="db" cx="0.615" cy="0.31" r="0.768" gradientTransform="matrix(-1, 0, 0, 1, 18184.438, 0)" xlink:href="#m"/><radialGradient id="dc" cx="0.5" cy="0.501" r="0.5" gradientTransform="matrix(0, 1, 0.997, 0, 6827.805, -6850.354)" xlink:href="#k"/><radialGradient id="dd" cx="0.309" cy="0.384" r="0.768" gradientTransform="matrix(0, 1, 1, 0, 7732.913, -7732.913)" xlink:href="#m"/><radialGradient id="de" cx="0.5" cy="0.5" r="0.5" gradientTransform="matrix(0, 1, 0.997, 0, 6814.2, -6836.815)" xlink:href="#k"/><radialGradient id="df" cx="0.309" cy="0.383" r="0.77" gradientTransform="matrix(0, 1, 0.996, 0, 7722.876, -7751.937)" xlink:href="#m"/><radialGradient id="dg" cx="0.5" cy="0.5" r="0.5" gradientTransform="matrix(0.707, 0.707, 0.707, -0.707, 1501.757, -3625.562)" xlink:href="#k"/><radialGradient id="dh" cx="0.28" cy="0.553" r="0.769" gradientTransform="matrix(0.708, 0.707, 0.708, -0.707, 1708.387, -4097.779)" xlink:href="#m"/><radialGradient id="di" cx="0.503" cy="0.5" r="0.5" gradientTransform="matrix(0.704, 0.707, 0.704, -0.707, 1471.583, -3634.419)" xlink:href="#k"/><radialGradient id="dj" cx="0.282" cy="0.554" r="0.77" gradientTransform="matrix(0.709, 0.707, 0.709, -0.707, 1710.492, -4068.062)" xlink:href="#m"/><radialGradient id="dk" cx="0.5" cy="0.5" r="0.5" gradientTransform="matrix(0.707, -0.707, -0.707, -0.707, 3213.562, 7758.224)" xlink:href="#k"/><radialGradient id="dl" cx="0.551" cy="0.717" r="0.767" gradientTransform="matrix(0.71, -0.707, -0.71, -0.707, 3658.317, 8743.485)" xlink:href="#m"/><radialGradient id="dm" cx="0.503" cy="0.5" r="0.499" gradientTransform="matrix(0.705, -0.707, -0.705, -0.707, 3183.907, 7747.448)" xlink:href="#k"/><radialGradient id="dn" cx="0.554" cy="0.718" r="0.772" gradientTransform="matrix(0.707, -0.707, -0.707, -0.707, 3636.555, 8769.522)" xlink:href="#m"/><linearGradient id="do" x1="379.637" y1="-0.208" x2="379.723" y2="1.548" gradientUnits="objectBoundingBox"><stop offset="0.029" stop-color="#fff"/><stop offset="0.255" stop-color="#dcdddd"/><stop offset="0.476" stop-color="#c0c2c2"/><stop offset="0.604" stop-color="#b6b8b9"/><stop offset="0.7" stop-color="#b1b3b4"/><stop offset="0.805" stop-color="#a4a6a7"/><stop offset="0.915" stop-color="#8f9092"/><stop offset="1" stop-color="#7a7a7c"/></linearGradient><linearGradient id="dp" x1="2742.731" y1="0.5" x2="2743.732" y2="0.5" xlink:href="#g"/><linearGradient id="ds" x1="291.22" y1="0.068" x2="291.474" y2="0.865" gradientUnits="objectBoundingBox"><stop offset="0" stop-color="#a5dce7"/><stop offset="0.28" stop-color="#99d9e9"/><stop offset="0.785" stop-color="#79d1f1"/><stop offset="1" stop-color="#6acef5"/></linearGradient><linearGradient id="dt" x1="290.86" y1="0.5" x2="291.86" y2="0.5" xlink:href="#ds"/><linearGradient id="du" x1="691.926" y1="0.071" x2="689.852" y2="2.284" xlink:href="#ds"/><linearGradient id="dv" x1="691.026" y1="0.5" x2="692.026" y2="0.5" xlink:href="#ds"/><linearGradient id="dw" x1="2245.022" y1="-0.657" x2="2245.022" y2="1.032" gradientUnits="objectBoundingBox"><stop offset="0" stop-color="#bfb9c3"/><stop offset="0.006" stop-color="#c3bec7"/><stop offset="0.041" stop-color="#dddadf"/><stop offset="0.077" stop-color="#f0eef1"/><stop offset="0.112" stop-color="#fbfafb"/><stop offset="0.147" stop-color="#fff"/><stop offset="0.299" stop-color="#fcfcfc"/><stop offset="0.394" stop-color="#f4f3f5"/><stop offset="0.474" stop-color="#e7e5e8"/><stop offset="0.545" stop-color="#d4d0d7"/><stop offset="0.604" stop-color="#bfb9c3"/><stop offset="0.62" stop-color="#bfb9c3"/><stop offset="1" stop-color="#bfb9c3"/></linearGradient><linearGradient id="dx" x1="2900.726" y1="-2.279" x2="2900.726" y2="1.064" xlink:href="#dw"/><linearGradient id="dy" x1="2050.554" y1="-0.66" x2="2050.554" y2="1.033" xlink:href="#dw"/><linearGradient id="dz" x1="257.697" y1="1.445" x2="256.845" y2="-0.467" gradientUnits="objectBoundingBox"><stop offset="0" stop-color="#bfb9c3"/><stop offset="0.38" stop-color="#bfb9c3"/><stop offset="0.396" stop-color="#bfb9c3"/><stop offset="0.571" stop-color="#ddd9df"/><stop offset="0.748" stop-color="#f5f4f6"/><stop offset="0.853" stop-color="#fff"/><stop offset="0.888" stop-color="#fbfafb"/><stop offset="0.923" stop-color="#f0eef1"/><stop offset="0.959" stop-color="#dddadf"/><stop offset="0.994" stop-color="#c3bec7"/><stop offset="1" stop-color="#bfb9c3"/></linearGradient><linearGradient id="ea" x1="4993.491" y1="0.5" x2="4996.834" y2="0.5" xlink:href="#dz"/><linearGradient id="eb" x1="379.637" y1="-0.286" x2="379.723" y2="1.584" xlink:href="#dz"/><linearGradient id="ec" x1="401.393" y1="1.171" x2="401.393" y2="0.223" xlink:href="#dz"/><linearGradient id="ed" x1="607.043" y1="0.5" x2="608.537" y2="0.5" xlink:href="#b"/><linearGradient id="ee" x1="607.06" y1="0.5" x2="608.555" y2="0.5" xlink:href="#b"/><linearGradient id="ef" x1="3708.842" y1="0.5" x2="3707.063" y2="0.5" gradientUnits="objectBoundingBox"><stop offset="0" stop-color="#bfb9c3"/><stop offset="0.012" stop-color="#bfb9c3"/><stop offset="0.286" stop-color="#bfb9c3"/><stop offset="0.503" stop-color="#ddd9df"/><stop offset="0.723" stop-color="#f5f4f6"/><stop offset="0.853" stop-color="#fff"/><stop offset="0.888" stop-color="#fbfafb"/><stop offset="0.923" stop-color="#f0eef1"/><stop offset="0.959" stop-color="#dddadf"/><stop offset="0.994" stop-color="#c3bec7"/><stop offset="1" stop-color="#bfb9c3"/></linearGradient><radialGradient id="eg" cx="0.501" cy="0.501" r="0.318" gradientTransform="matrix(-1.576, 0, 0, 1.571, 39222.914, -0.286)" xlink:href="#k"/><radialGradient id="eh" cx="0.961" cy="0.448" r="0.797" gradientTransform="matrix(-1.564, 0, 0, 1, 25046.338, 0)" gradientUnits="objectBoundingBox"><stop offset="0" stop-color="#fff"/><stop offset="0.032" stop-color="#f8f8f9"/><stop offset="0.192" stop-color="#dfdce1"/><stop offset="0.353" stop-color="#cdc8d0"/><stop offset="0.515" stop-color="#c2bcc6"/><stop offset="0.678" stop-color="#bfb9c3"/><stop offset="0.691" stop-color="#bfb9c3"/><stop offset="1" stop-color="#bfb9c3"/></radialGradient><radialGradient id="ei" cx="0.615" cy="-0.33" r="0.94" gradientTransform="matrix(-0.814, 0, 0, 1.571, 29614.891, 0.188)" xlink:href="#m"/><linearGradient id="ej" x1="1576.491" y1="0.504" x2="1577.996" y2="0.499" gradientUnits="objectBoundingBox"><stop offset="0" stop-color="#bfb9c3"/><stop offset="0.014" stop-color="#c3bec7"/><stop offset="0.103" stop-color="#dddadf"/><stop offset="0.191" stop-color="#f0eef1"/><stop offset="0.279" stop-color="#fbfafb"/><stop offset="0.366" stop-color="#fff"/><stop offset="0.654" stop-color="#bfb9c3"/><stop offset="1" stop-color="#bfb9c3"/></linearGradient></defs><g transform="translate(0 0)"><g transform="translate(0 0)"><rect width="74.254" height="28.814" transform="translate(272.655 78.781)"/><path d="M241.275,31.424l3.235,29.909,2.534,2.812H15.969V50.861H1.417V31.5Z" transform="translate(5.033 54.949)" fill="url(#a)"/><path d="M217.691,35.2c-.482-1.592-.776-2.6-.776-2.6l8.767-1.6s.315,1.759.757,4.2l14.832-.01,1.976,18.223h1.533l-.02,7.637h-.7l.442,4.05,2.536,2.811h-6.251V63.4c0-1.867-.777-2.32-3.489-2.32-.187,0-.373-.02-.59-.039h-4.374c-3.411,0-6.546.059-8.335-5.317-.727-2.182-2.035-6.389-3.312-10.615a10.14,10.14,0,0,1-.7-1.877s-.5-2.782-8.728-2.782H78.112c-4.551,0-4.305,3.538.128,10.753,2.575,4.2,3.479,11.362,3.116,16.7H15.974V54.617H11.167c.767-3,2.418-8.089,5.435-10.94,4.472-4.226-.334-3.578-4.374-3.647-4.669-.088-7.352.167-7.352,3.961V54.617H1.417V35.264Z" transform="translate(5.033 51.189)" opacity="0.5" fill="url(#b)" style="mix-blend-mode:multiply;isolation:isolate"/><path d="M32.109,31s2.467,14.242,3.637,18.144,2.054,4.266,6.163,4.266h9.3l-.02,7.637H38.763c-3.411,0-6.546.059-8.335-5.317S23.342,32.6,23.342,32.6Z" transform="translate(198.606 51.189)" fill="url(#c)" style="mix-blend-mode:multiply;isolation:isolate"/><path d="M30.249,31.222s2.536,13.751,3.627,17.289,1.936,3.882,5.819,3.882h8.767l.6,5.317H37.336c-3.214,0-5.907.088-7.608-4.806C28.048,48.01,23.487,31.89,23.487,31.89Z" transform="translate(199.886 53.167)" fill="url(#d)"/><path d="M25.82,31.449l55.451-.029L86.3,34.138,79.485,61.925l-2.246,2.246H31.589l-2.534-2.812Z" transform="translate(220.487 54.923)" fill="url(#e)"/><path d="M81.274,31.421l5.032,2.713s-2.958,12-2.86,11.7c.993-3.558-14.055-4.05-29.084-4.05s-21.25.678-21.25,7.932c0,4.767.364,10.851,3.627,14.458H31.59L29.054,61.36,25.82,31.451Z" transform="translate(220.483 54.924)" opacity="0.5" fill="url(#f)" style="mix-blend-mode:multiply;isolation:isolate"/><path d="M1.263,63.074a1.2,1.2,0,0,0,1.2,1.209h0a1.206,1.206,0,0,0,1.2-1.209V32.447a1.206,1.206,0,0,0-1.2-1.209h0a1.2,1.2,0,0,0-1.2,1.209Z" transform="translate(3.673 53.308)" fill="url(#g)"/><path d="M1.267,62.762c0,.482.246.875.56.875h0c.324,0,.57-.393.57-.875V32.125c0-.491-.246-.894-.57-.894h0c-.315,0-.56.4-.56.894Z" transform="translate(3.708 53.246)" fill="#fff" opacity="0.5"/><path d="M2.421,65.289c0-18.8,14.94-34.037,33.359-34.037S69.13,46.487,69.13,65.289c0,.678-.03,1.356-.079,2.035H2.49C2.46,66.646,2.421,65.968,2.421,65.289Z" transform="translate(13.897 53.432)" fill="#3c3c3d"/><path d="M2.862,61.352c0-16.365,12.994-29.624,29.025-29.624C47.9,31.728,60.9,44.987,60.9,61.352q0,.885-.059,1.769H2.921Q2.862,62.237,2.862,61.352Z" transform="translate(17.79 57.634)"/><g transform="translate(24.682 93.618)"><path d="M3.272,57.392A25.226,25.226,0,1,0,28.493,32.161,25.231,25.231,0,0,0,3.272,57.392Z" transform="translate(-3.272 -32.161)" fill="url(#h)"/><g transform="translate(0.776 0.432)" style="mix-blend-mode:screen;isolation:isolate"><path d="M27.628,34.662A24.442,24.442,0,0,0,3.351,56.237a24.456,24.456,0,0,1,48.908.423c0,.983-.079,1.946-.167,2.88v-.423A24.457,24.457,0,0,0,27.628,34.662Z" transform="translate(-3.351 -32.205)" opacity="0.5" fill="url(#i)" style="mix-blend-mode:screen;isolation:isolate"/></g><path d="M22.94,32.8A19.038,19.038,0,1,1,3.9,51.825,19.04,19.04,0,0,1,22.94,32.8Z" transform="translate(2.281 -26.555)" fill="url(#j)" style="mix-blend-mode:multiply;isolation:isolate"/><path d="M4.22,49.221A16.124,16.124,0,1,0,20.339,33.082,16.122,16.122,0,0,0,4.22,49.221Z" transform="translate(5.098 -24.03)" fill="url(#k)"/><path d="M4.428,47.385A14.08,14.08,0,1,0,18.5,33.29,14.073,14.073,0,0,0,4.428,47.385Z" transform="translate(6.934 -22.193)" fill="url(#l)" style="mix-blend-mode:multiply;isolation:isolate"/><path d="M4.534,46.44A13.038,13.038,0,1,0,17.567,33.4,13.035,13.035,0,0,0,4.534,46.44Z" transform="translate(7.87 -21.249)" fill="url(#m)"/><g transform="translate(12.404 24.67)" opacity="0.8" style="mix-blend-mode:multiply;isolation:isolate"><path d="M30.59,34.691a4.108,4.108,0,0,1,.02.5,13.038,13.038,0,0,1-26.076,0c0-.177.01-.344.02-.521A41.977,41.977,0,0,0,30.59,34.691Z" transform="translate(-4.534 -34.671)" fill="url(#n)"/></g><g transform="translate(20.198 20.1)"><path d="M5.327,39.229a5.023,5.023,0,1,0,5.013-5.023A5.015,5.015,0,0,0,5.327,39.229Z" transform="translate(-5.327 -34.206)" fill="url(#o)" style="mix-blend-mode:multiply;isolation:isolate"/><path d="M5.386,38.7a4.433,4.433,0,1,0,4.433-4.433A4.44,4.44,0,0,0,5.386,38.7Z" transform="translate(-4.806 -33.676)" fill="url(#p)"/></g><g transform="translate(22.715 22.626)"><path d="M5.583,36.959a2.5,2.5,0,1,0,2.5-2.5A2.5,2.5,0,0,0,5.583,36.959Z" transform="translate(-5.583 -34.463)" fill="url(#q)" style="mix-blend-mode:multiply;isolation:isolate"/><ellipse cx="2.208" cy="2.208" rx="2.208" ry="2.208" transform="translate(0.289 0.287)" fill="url(#r)"/></g><g transform="translate(12.827 12.738)"><g transform="translate(0 10.802)"><path d="M4.577,36.138a1.587,1.587,0,1,0,1.592-1.582A1.59,1.59,0,0,0,4.577,36.138Z" transform="translate(-4.577 -34.556)" fill="url(#s)" style="mix-blend-mode:multiply;isolation:isolate"/><ellipse cx="1.402" cy="1.402" rx="1.402" ry="1.402" transform="translate(0.194 0.179)" fill="url(#t)"/><g transform="translate(21.604)"><path d="M6.775,36.138a1.587,1.587,0,1,0,1.592-1.582A1.584,1.584,0,0,0,6.775,36.138Z" transform="translate(-6.775 -34.556)" fill="url(#u)" style="mix-blend-mode:multiply;isolation:isolate"/><path d="M6.794,35.98A1.4,1.4,0,1,0,8.2,34.574,1.4,1.4,0,0,0,6.794,35.98Z" transform="translate(-6.607 -34.397)" fill="url(#v)"/></g></g><g transform="translate(10.812)"><g transform="translate(0 21.594)"><path d="M7.259,38.819a1.582,1.582,0,1,0-1.582-1.582A1.581,1.581,0,0,0,7.259,38.819Z" transform="translate(-5.677 -35.654)" fill="url(#w)" style="mix-blend-mode:multiply;isolation:isolate"/><path d="M7.091,38.474a1.4,1.4,0,1,0-1.4-1.406A1.4,1.4,0,0,0,7.091,38.474Z" transform="translate(-5.518 -35.486)" fill="url(#x)"/></g><path d="M7.259,36.622a1.582,1.582,0,1,0-1.582-1.582A1.581,1.581,0,0,0,7.259,36.622Z" transform="translate(-5.677 -33.457)" fill="url(#y)" style="mix-blend-mode:multiply;isolation:isolate"/><path d="M7.091,36.267a1.4,1.4,0,1,0-1.4-1.4A1.4,1.4,0,0,0,7.091,36.267Z" transform="translate(-5.518 -33.289)" fill="url(#z)"/></g><g transform="translate(3.17 3.162)"><g transform="translate(15.277 15.267)"><path d="M9.159,38.035a1.581,1.581,0,1,0-2.241,0A1.572,1.572,0,0,0,9.159,38.035Z" transform="translate(-6.454 -35.332)" fill="url(#aa)" style="mix-blend-mode:multiply;isolation:isolate"/><path d="M8.87,37.746a1.4,1.4,0,0,0-1.985-1.985,1.4,1.4,0,0,0,0,1.985A1.418,1.418,0,0,0,8.87,37.746Z" transform="translate(-6.293 -35.161)" fill="url(#ab)"/></g><path d="M7.607,36.484a1.588,1.588,0,1,0-2.251,0A1.6,1.6,0,0,0,7.607,36.484Z" transform="translate(-4.899 -33.779)" fill="url(#ac)" style="mix-blend-mode:multiply;isolation:isolate"/><path d="M7.306,36.2a1.4,1.4,0,1,0-1.976,0A1.4,1.4,0,0,0,7.306,36.2Z" transform="translate(-4.736 -33.618)" fill="url(#ad)"/></g><g transform="translate(3.168 3.162)"><g transform="translate(15.271)"><path d="M9.166,34.243a1.584,1.584,0,0,0-2.241,0,1.566,1.566,0,0,0,0,2.241,1.585,1.585,0,1,0,2.241-2.241Z" transform="translate(-6.453 -33.779)" fill="url(#ae)" style="mix-blend-mode:multiply;isolation:isolate"/><path d="M8.87,34.21a1.4,1.4,0,1,0,0,1.985A1.418,1.418,0,0,0,8.87,34.21Z" transform="translate(-6.285 -33.618)" fill="url(#af)"/></g><g transform="translate(0 15.271)"><ellipse cx="1.585" cy="1.585" rx="1.585" ry="1.585" fill="url(#ag)" style="mix-blend-mode:multiply;isolation:isolate"/><path d="M7.306,35.761a1.4,1.4,0,1,0,0,1.985A1.4,1.4,0,0,0,7.306,35.761Z" transform="translate(-4.735 -35.165)" fill="url(#ah)"/></g></g></g></g><g transform="translate(0 77.494)"><rect width="301.47" height="11.153" transform="translate(2.649 0.25)" fill="url(#ai)"/><g transform="translate(1.309 1.175)"><rect width="303.408" height="0.105" transform="translate(0.246 0.016)" fill="#8e9093"/><path d="M1.385,30.679H304.3v.049H1.385v-.049M.894,30.64v.138h303.9V30.64Z" transform="translate(-0.894 -30.64)" fill="#525656"/><g transform="translate(0 0.708)"><rect width="303.408" height="0.105" transform="translate(0.246 0.019)" fill="#8e9093"/><path d="M1.385,30.761H304.3v.049H1.385v-.049m-.491-.049v.138h303.9v-.138Z" transform="translate(-0.894 -30.712)" fill="#525656"/></g><g transform="translate(0 1.415)"><rect width="303.408" height="0.106" transform="translate(0.246 0.021)" fill="#8e9093"/><path d="M1.385,30.833H304.3v.049H1.385v-.049m-.491-.049v.157h303.9v-.157Z" transform="translate(-0.894 -30.784)" fill="#525656"/></g><g transform="translate(0 2.123)"><rect width="303.408" height="0.105" transform="translate(0.246 0.024)" fill="#8e9093"/><path d="M1.385,30.905H304.3v.049H1.385v-.049m-.491-.049v.157h303.9v-.157Z" transform="translate(-0.894 -30.856)" fill="#525656"/></g><g transform="translate(0 2.841)"><rect width="303.408" height="0.096" transform="translate(0.246 0.026)" fill="#8e9093"/><path d="M1.385,30.978H304.3v.049H1.385v-.049m-.491-.049v.147h303.9v-.147Z" transform="translate(-0.894 -30.929)" fill="#525656"/></g><g transform="translate(0 3.548)"><rect width="303.408" height="0.096" transform="translate(0.246 0.029)" fill="#8e9093"/><path d="M1.385,31.05H304.3V31.1H1.385V31.05M.894,31v.157h303.9V31Z" transform="translate(-0.894 -31.001)" fill="#525656"/></g><g transform="translate(0 4.256)"><rect width="303.408" height="0.105" transform="translate(0.246 0.022)" fill="#8e9093"/><path d="M1.385,31.122H304.3v.049H1.385v-.049m-.491-.049v.157h303.9v-.157Z" transform="translate(-0.894 -31.073)" fill="#525656"/></g><g transform="translate(0 4.964)"><rect width="303.408" height="0.096" transform="translate(0.246 0.033)" fill="#8e9093"/><path d="M1.385,31.194H304.3v.049H1.385v-.049m-.491-.049V31.3h303.9v-.157Z" transform="translate(-0.894 -31.145)" fill="#525656"/></g><g transform="translate(0 5.681)"><rect width="303.408" height="0.096" transform="translate(0.246 0.027)" fill="#8e9093"/><path d="M1.385,31.267H304.3v.039H1.385v-.039m-.491-.049v.147h303.9v-.147Z" transform="translate(-0.894 -31.218)" fill="#525656"/></g><g transform="translate(0 6.389)"><rect width="303.408" height="0.105" transform="translate(0.246 0.02)" fill="#8e9093"/><path d="M1.385,31.339H304.3V31.4H1.385v-.059M.894,31.29v.157h303.9V31.29Z" transform="translate(-0.894 -31.29)" fill="#525656"/></g><g transform="translate(0 7.096)"><rect width="303.408" height="0.096" transform="translate(0.246 0.031)" fill="#8e9093"/><path d="M1.385,31.411H304.3v.059H1.385v-.059m-.491-.049v.157h303.9v-.157Z" transform="translate(-0.894 -31.362)" fill="#525656"/></g><g transform="translate(0 7.814)"><rect width="303.408" height="0.096" transform="translate(0.246 0.025)" fill="#8e9093"/><path d="M1.385,31.474H304.3v.059H1.385v-.059m-.491-.039v.147h303.9v-.147Z" transform="translate(-0.894 -31.435)" fill="#525656"/></g><g transform="translate(0 8.522)"><rect width="303.408" height="0.095" transform="translate(0.246 0.028)" fill="#8e9093"/><path d="M1.385,31.556H304.3v.059H1.385v-.059m-.491-.049v.147h303.9v-.147Z" transform="translate(-0.894 -31.507)" fill="#525656"/></g><g transform="translate(0 9.229)"><rect width="303.408" height="0.096" transform="translate(0.246 0.029)" fill="#8e9093"/><path d="M1.385,31.628H304.3v.049H1.385v-.049m-.491-.049v.157h303.9v-.157Z" transform="translate(-0.894 -31.579)" fill="#525656"/></g></g><path d="M.85,30.528V41.8H305.8v-.118h.079V30.607H305.8v-.079Zm299.77.521v3.794c-1.907,1.13-2.172,5.74-91.615,5.583C119.838,40.268,6.118,34.735,6.118,34.735V31.049Z" transform="translate(0.027 -30.454)" fill="#d3d5d7" style="mix-blend-mode:multiply;isolation:isolate"/><path d="M303.592,31.293s2.713,4.374-96.765,4.374S1.03,31.146,1.03,31.146v5.023H303.268Z" transform="translate(1.616 -24.998)" fill="#d3d5d7" style="mix-blend-mode:multiply;isolation:isolate"/><rect width="5.317" height="11.297" transform="translate(0 0.077)" fill="url(#aj)"/><rect width="5.317" height="11.297" transform="translate(301.547 0.077)" fill="url(#ak)"/><rect width="306.787" height="0.528" fill="url(#al)"/><rect width="306.787" height="0.528" transform="translate(0 11.029)" fill="url(#am)"/></g><g transform="translate(106.095 85.696)"><path d="M12.39,33.036a.84.84,0,1,0-.835-.845A.845.845,0,0,0,12.39,33.036Z" transform="translate(-11.555 -31.355)" fill="#646667" opacity="0.5" style="mix-blend-mode:multiply;isolation:isolate"/><path d="M12.316,32.9a.776.776,0,0,0,.767-.776.766.766,0,0,0-.767-.757.757.757,0,0,0-.757.757A.768.768,0,0,0,12.316,32.9Z" transform="translate(-11.52 -31.284)" fill="url(#an)"/><g transform="translate(0.511 0.58)"><path d="M11.878,31.925a.256.256,0,0,0,0-.511.256.256,0,1,0,0,.511Z" transform="translate(-11.554 -31.414)" fill="url(#ao)"/><path d="M11.863,31.917a.24.24,0,0,0,.246-.256.243.243,0,0,0-.246-.246.252.252,0,0,0-.256.246A.248.248,0,0,0,11.863,31.917Z" transform="translate(-11.607 -31.396)" fill="url(#ap)"/></g></g><g transform="translate(124.357 85.696)"><path d="M14.258,33.036a.84.84,0,1,0-.845-.845A.845.845,0,0,0,14.258,33.036Z" transform="translate(-13.413 -31.355)" fill="#646667" opacity="0.5" style="mix-blend-mode:multiply;isolation:isolate"/><path d="M14.184,32.9a.768.768,0,0,0,.757-.776.757.757,0,0,0-.757-.757.766.766,0,0,0-.767.757A.776.776,0,0,0,14.184,32.9Z" transform="translate(-13.378 -31.284)" fill="url(#aq)"/><g transform="translate(0.521 0.58)"><path d="M13.728,31.925a.256.256,0,1,0-.256-.256A.254.254,0,0,0,13.728,31.925Z" transform="translate(-13.413 -31.414)" fill="url(#ar)"/><path d="M13.712,31.917a.248.248,0,0,0,.256-.256.252.252,0,0,0-.256-.246.257.257,0,0,0-.246.246A.252.252,0,0,0,13.712,31.917Z" transform="translate(-13.466 -31.396)" fill="url(#as)"/></g></g><g transform="translate(142.638 85.696)"><path d="M16.108,33.036a.84.84,0,0,0,0-1.681.84.84,0,0,0,0,1.681Z" transform="translate(-15.273 -31.355)" fill="#646667" opacity="0.5" style="mix-blend-mode:multiply;isolation:isolate"/><path d="M16.043,32.9a.768.768,0,0,0,.757-.776.757.757,0,0,0-.757-.757.766.766,0,0,0-.767.757A.776.776,0,0,0,16.043,32.9Z" transform="translate(-15.247 -31.284)" fill="url(#at)"/><g transform="translate(0.513 0.58)"><path d="M15.587,31.925a.256.256,0,1,0-.256-.256A.259.259,0,0,0,15.587,31.925Z" transform="translate(-15.274 -31.414)" fill="url(#au)"/><ellipse cx="0.25" cy="0.25" rx="0.25" ry="0.25" transform="translate(0 0.02)" fill="url(#av)"/></g></g><g transform="translate(160.91 85.696)"><path d="M17.958,33.036a.84.84,0,1,0-.826-.845A.829.829,0,0,0,17.958,33.036Z" transform="translate(-17.132 -31.355)" fill="#646667" opacity="0.5" style="mix-blend-mode:multiply;isolation:isolate"/><path d="M17.892,32.9a.776.776,0,0,0,.767-.776.762.762,0,0,0-1.523,0A.774.774,0,0,0,17.892,32.9Z" transform="translate(-17.106 -31.284)" fill="url(#aw)"/><g transform="translate(0.511 0.58)"><path d="M17.437,31.925a.256.256,0,1,0-.246-.256A.252.252,0,0,0,17.437,31.925Z" transform="translate(-17.122 -31.414)" fill="url(#ax)"/><path d="M17.44,31.917a.246.246,0,0,0,.246-.256.25.25,0,0,0-.246-.246.246.246,0,0,0-.256.246A.242.242,0,0,0,17.44,31.917Z" transform="translate(-17.184 -31.396)" fill="url(#ay)"/></g></g><g transform="translate(179.163 85.696)"><path d="M19.834,33.036a.84.84,0,1,0-.845-.845A.845.845,0,0,0,19.834,33.036Z" transform="translate(-18.989 -31.355)" fill="#646667" opacity="0.5" style="mix-blend-mode:multiply;isolation:isolate"/><path d="M19.76,32.9a.785.785,0,0,0,.776-.776.774.774,0,0,0-.776-.757.766.766,0,0,0-.767.757A.776.776,0,0,0,19.76,32.9Z" transform="translate(-18.954 -31.284)" fill="url(#az)"/><g transform="translate(0.521 0.58)"><path d="M19.295,31.925a.256.256,0,1,0,0-.511.256.256,0,0,0,0,.511Z" transform="translate(-18.98 -31.414)" fill="url(#ba)"/><path d="M19.288,31.917a.25.25,0,0,0,.265-.256.256.256,0,0,0-.511,0A.252.252,0,0,0,19.288,31.917Z" transform="translate(-19.042 -31.396)" fill="url(#bb)"/></g></g><g transform="translate(197.444 85.696)"><path d="M21.694,33.036a.84.84,0,1,0-.845-.845A.837.837,0,0,0,21.694,33.036Z" transform="translate(-20.849 -31.355)" fill="#646667" opacity="0.5" style="mix-blend-mode:multiply;isolation:isolate"/><path d="M21.62,32.9a.76.76,0,0,0,.747-.776.749.749,0,0,0-.747-.757.766.766,0,0,0-.767.757A.776.776,0,0,0,21.62,32.9Z" transform="translate(-20.814 -31.284)" fill="url(#bc)"/><g transform="translate(0.515 0.58)"><path d="M21.163,31.925a.256.256,0,0,0,0-.511.256.256,0,1,0,0,.511Z" transform="translate(-20.852 -31.414)" fill="url(#bd)"/><ellipse cx="0.25" cy="0.25" rx="0.25" ry="0.25" transform="translate(0 0.02)" fill="url(#be)"/></g></g><g transform="translate(16.495 85.519)"><path d="M3.284,33.018a.84.84,0,1,0-.845-.845A.843.843,0,0,0,3.284,33.018Z" transform="translate(-2.439 -31.337)" fill="#646667" opacity="0.5" style="mix-blend-mode:multiply;isolation:isolate"/><path d="M3.218,32.868a.762.762,0,1,0-.776-.767A.776.776,0,0,0,3.218,32.868Z" transform="translate(-2.413 -31.266)" fill="url(#bf)"/><g transform="translate(0.511 0.58)"><path d="M2.754,31.9a.259.259,0,0,0,.256-.246.254.254,0,0,0-.256-.256.248.248,0,0,0-.256.256A.252.252,0,0,0,2.754,31.9Z" transform="translate(-2.429 -31.396)" fill="url(#bg)"/><path d="M2.747,31.908A.254.254,0,0,0,3,31.653a.256.256,0,0,0-.511,0A.254.254,0,0,0,2.747,31.908Z" transform="translate(-2.491 -31.387)" fill="url(#bh)"/></g><g transform="translate(17.83)"><path d="M5.1,33.018a.84.84,0,1,0-.845-.845A.837.837,0,0,0,5.1,33.018Z" transform="translate(-4.253 -31.337)" fill="#646667" opacity="0.5" style="mix-blend-mode:multiply;isolation:isolate"/><path d="M5.024,32.868a.762.762,0,1,0-.767-.767A.768.768,0,0,0,5.024,32.868Z" transform="translate(-4.218 -31.266)" fill="url(#bi)"/><g transform="translate(0.521 0.58)"><path d="M4.568,31.9a.243.243,0,0,0,.246-.246.24.24,0,0,0-.246-.256.248.248,0,0,0-.256.256A.252.252,0,0,0,4.568,31.9Z" transform="translate(-4.253 -31.396)" fill="url(#bj)"/><path d="M4.552,31.908a.254.254,0,0,0,.256-.256.26.26,0,0,0-.256-.256.252.252,0,0,0-.246.256A.246.246,0,0,0,4.552,31.908Z" transform="translate(-4.306 -31.387)" fill="url(#bk)"/></g></g><g transform="translate(35.659)"><path d="M6.912,33.018a.84.84,0,1,0-.845-.845A.837.837,0,0,0,6.912,33.018Z" transform="translate(-6.067 -31.337)" fill="#646667" opacity="0.5" style="mix-blend-mode:multiply;isolation:isolate"/><path d="M6.847,32.868a.762.762,0,0,0,0-1.523.762.762,0,1,0,0,1.523Z" transform="translate(-6.032 -31.266)" fill="url(#bl)"/><g transform="translate(0.521 0.58)"><path d="M6.372,31.9a.261.261,0,0,0,.265-.246.256.256,0,0,0-.265-.256.252.252,0,0,0-.246.256A.257.257,0,0,0,6.372,31.9Z" transform="translate(-6.067 -31.396)" fill="url(#bm)"/><path d="M6.376,31.908a.252.252,0,0,0,.246-.256.251.251,0,1,0-.5,0A.254.254,0,0,0,6.376,31.908Z" transform="translate(-6.12 -31.387)" fill="url(#bn)"/></g></g><g transform="translate(53.499)"><path d="M8.717,33.018a.84.84,0,1,0,0-1.681.84.84,0,0,0,0,1.681Z" transform="translate(-7.882 -31.337)" fill="#646667" opacity="0.5" style="mix-blend-mode:multiply;isolation:isolate"/><path d="M8.643,32.868a.762.762,0,1,0-.757-.767A.759.759,0,0,0,8.643,32.868Z" transform="translate(-7.847 -31.266)" fill="url(#bo)"/><g transform="translate(0.521 0.585)"><ellipse cx="0.25" cy="0.25" rx="0.25" ry="0.25" transform="translate(0.054)" fill="url(#bp)"/><path d="M8.181,31.908a.246.246,0,0,0,.246-.256.252.252,0,0,0-.246-.256.246.246,0,0,0-.246.256A.24.24,0,0,0,8.181,31.908Z" transform="translate(-7.935 -31.392)" fill="url(#bq)"/></g></g><g transform="translate(71.328)"><path d="M10.531,33.018a.84.84,0,1,0-.835-.845A.831.831,0,0,0,10.531,33.018Z" transform="translate(-9.696 -31.337)" fill="#646667" opacity="0.5" style="mix-blend-mode:multiply;isolation:isolate"/><path d="M10.447,32.868a.762.762,0,1,0,0-1.523.762.762,0,0,0,0,1.523Z" transform="translate(-9.661 -31.266)" fill="url(#br)"/><g transform="translate(0.521 0.585)"><ellipse cx="0.25" cy="0.25" rx="0.25" ry="0.25" transform="translate(0.058)" fill="url(#bs)"/><path d="M10,31.908a.252.252,0,0,0,.246-.256A.259.259,0,0,0,10,31.4a.254.254,0,0,0-.256.256A.248.248,0,0,0,10,31.908Z" transform="translate(-9.749 -31.392)" fill="url(#bt)"/></g></g><g transform="translate(200.528)"><path d="M23.686,33.018a.84.84,0,1,0-.845-.845A.845.845,0,0,0,23.686,33.018Z" transform="translate(-22.841 -31.337)" fill="#646667" opacity="0.5" style="mix-blend-mode:multiply;isolation:isolate"/><path d="M23.612,32.868a.762.762,0,1,0-.767-.767A.768.768,0,0,0,23.612,32.868Z" transform="translate(-22.806 -31.266)" fill="url(#bu)"/><g transform="translate(0.521 0.58)"><path d="M23.156,31.9a.259.259,0,0,0,.256-.246.254.254,0,0,0-.256-.256.248.248,0,0,0-.256.256A.252.252,0,0,0,23.156,31.9Z" transform="translate(-22.841 -31.396)" fill="url(#bv)"/><path d="M23.15,31.908a.246.246,0,0,0,.246-.256.251.251,0,1,0-.5,0A.248.248,0,0,0,23.15,31.908Z" transform="translate(-22.894 -31.387)" fill="url(#bw)"/></g></g><g transform="translate(218.358)"><path d="M25.5,33.018a.84.84,0,1,0-.845-.845A.845.845,0,0,0,25.5,33.018Z" transform="translate(-24.655 -31.337)" fill="#646667" opacity="0.5" style="mix-blend-mode:multiply;isolation:isolate"/><path d="M25.426,32.868a.762.762,0,1,0-.767-.767A.768.768,0,0,0,25.426,32.868Z" transform="translate(-24.62 -31.266)" fill="url(#bx)"/><g transform="translate(0.521 0.585)"><ellipse cx="0.25" cy="0.25" rx="0.25" ry="0.25" transform="translate(0.068)" fill="url(#by)"/><path d="M24.954,31.908a.256.256,0,0,0,.265-.256.262.262,0,0,0-.265-.256.259.259,0,0,0-.246.256A.252.252,0,0,0,24.954,31.908Z" transform="translate(-24.708 -31.392)" fill="url(#bz)"/></g></g><g transform="translate(236.197)"><path d="M27.315,33.018a.84.84,0,1,0-.845-.845A.837.837,0,0,0,27.315,33.018Z" transform="translate(-26.47 -31.337)" fill="#646667" opacity="0.5" style="mix-blend-mode:multiply;isolation:isolate"/><path d="M27.231,32.868a.762.762,0,0,0,0-1.523.762.762,0,0,0,0,1.523Z" transform="translate(-26.435 -31.266)" fill="url(#ca)"/><g transform="translate(0.511 0.58)"><path d="M26.793,31.9a.257.257,0,0,0,.246-.246.252.252,0,0,0-.246-.256.256.256,0,0,0-.265.256A.261.261,0,0,0,26.793,31.9Z" transform="translate(-26.469 -31.396)" fill="url(#cb)"/><path d="M26.778,31.908a.246.246,0,0,0,.246-.256.252.252,0,0,0-.246-.256.26.26,0,0,0-.256.256A.254.254,0,0,0,26.778,31.908Z" transform="translate(-26.522 -31.387)" fill="url(#cc)"/></g></g><g transform="translate(254.027)"><path d="M29.11,33.018a.84.84,0,1,0-.826-.845A.833.833,0,0,0,29.11,33.018Z" transform="translate(-28.284 -31.337)" fill="#646667" opacity="0.5" style="mix-blend-mode:multiply;isolation:isolate"/><path d="M29.055,32.868a.762.762,0,1,0-.767-.767A.764.764,0,0,0,29.055,32.868Z" transform="translate(-28.249 -31.266)" fill="url(#cd)"/><g transform="translate(0.521 0.585)"><ellipse cx="0.25" cy="0.25" rx="0.25" ry="0.25" transform="translate(0.057)" fill="url(#ce)"/><path d="M28.583,31.908a.254.254,0,0,0,.256-.256.251.251,0,1,0-.5,0A.252.252,0,0,0,28.583,31.908Z" transform="translate(-28.337 -31.392)" fill="url(#cf)"/></g></g><g transform="translate(271.866)"><path d="M30.925,33.018a.84.84,0,1,0,0-1.681.84.84,0,0,0,0,1.681Z" transform="translate(-30.099 -31.337)" fill="#646667" opacity="0.5" style="mix-blend-mode:multiply;isolation:isolate"/><path d="M30.868,32.868A.762.762,0,1,0,30.1,32.1.768.768,0,0,0,30.868,32.868Z" transform="translate(-30.081 -31.266)" fill="url(#cg)"/><g transform="translate(0.511 0.58)"><path d="M30.413,31.9a.257.257,0,0,0,.246-.246.251.251,0,1,0-.5,0A.259.259,0,0,0,30.413,31.9Z" transform="translate(-30.098 -31.396)" fill="url(#ch)"/><path d="M30.407,31.908a.252.252,0,0,0,.246-.256.251.251,0,1,0-.5,0A.254.254,0,0,0,30.407,31.908Z" transform="translate(-30.151 -31.387)" fill="url(#ci)"/></g></g></g><rect width="306.787" height="0.461" transform="translate(0 88.6)" fill="#2c7fbb" style="mix-blend-mode:multiply;isolation:isolate"/><path d="M31.044,35.671A3.956,3.956,0,1,0,35,31.72,3.943,3.943,0,0,0,31.044,35.671Z" transform="translate(266.605 57.564)" opacity="0.8" fill="url(#cj)" style="mix-blend-mode:multiply;isolation:isolate"/><path d="M30.212,35.662a3.946,3.946,0,1,0,3.951-3.951A3.96,3.96,0,0,0,30.212,35.662Z" transform="translate(259.26 57.484)" opacity="0.8" fill="url(#ck)" style="mix-blend-mode:multiply;isolation:isolate"/><path d="M30.28,35.068a3.293,3.293,0,1,0,3.283-3.293A3.289,3.289,0,0,0,30.28,35.068Z" transform="translate(259.86 58.049)" fill="url(#cl)"/><path d="M31.112,35.075a3.293,3.293,0,1,0,3.283-3.293A3.289,3.289,0,0,0,31.112,35.075Z" transform="translate(267.206 58.111)" fill="url(#cm)"/><g transform="translate(306.83)"><path d="M58.516,31.856c6.33,0,19.038,2.447,25.113,13.367-5.9-7.843-14.517-12.66-29.084-11.834C39.526,34.225,33.364,49.332,33.2,53.8v-15.7c0-2.379.265-4.629-.717-5.937C37.089,33.714,51.39,31.856,58.516,31.856Z" transform="translate(-27.555 58.764)"/><path d="M64.163,31.664A32.287,32.287,0,0,1,96.333,61.4H31.983A32.289,32.289,0,0,1,64.163,31.664Z" transform="translate(-31.934 57.069)"/><g transform="translate(5.062 93.618)"><path d="M32.493,57.392A25.226,25.226,0,1,0,57.724,32.161,25.233,25.233,0,0,0,32.493,57.392Z" transform="translate(-32.493 -32.161)" fill="url(#cn)"/><g transform="translate(0.786 0.432)" style="mix-blend-mode:screen;isolation:isolate"><path d="M56.86,34.662A24.459,24.459,0,0,0,32.573,56.237a24.451,24.451,0,0,1,48.9.423,23,23,0,0,1-.177,2.88c0-.128.02-.275.02-.423A24.462,24.462,0,0,0,56.86,34.662Z" transform="translate(-32.573 -32.205)" opacity="0.5" fill="url(#co)" style="mix-blend-mode:screen;isolation:isolate"/></g><path d="M52.153,32.8A19.038,19.038,0,1,1,33.124,51.825,19.034,19.034,0,0,1,52.153,32.8Z" transform="translate(-26.922 -26.555)" fill="url(#cp)" style="mix-blend-mode:multiply;isolation:isolate"/><path d="M33.44,49.221A16.139,16.139,0,1,0,49.589,33.082,16.148,16.148,0,0,0,33.44,49.221Z" transform="translate(-24.132 -24.03)" fill="url(#cq)"/><path d="M33.649,47.385A14.085,14.085,0,1,0,47.744,33.29,14.078,14.078,0,0,0,33.649,47.385Z" transform="translate(-22.287 -22.193)" fill="url(#cr)" style="mix-blend-mode:multiply;isolation:isolate"/><path d="M33.757,46.44A13.033,13.033,0,1,0,46.79,33.4,13.035,13.035,0,0,0,33.757,46.44Z" transform="translate(-21.333 -21.249)" fill="url(#cs)"/><g transform="translate(12.424 24.67)" opacity="0.8" style="mix-blend-mode:multiply;isolation:isolate"><path d="M59.8,34.691c0,.157.02.324.02.5a13.033,13.033,0,0,1-26.066,0v-.521A42,42,0,0,0,59.8,34.691Z" transform="translate(-33.757 -34.671)" fill="url(#ct)"/></g><g transform="translate(20.198 20.1)"><path d="M34.548,39.229a5.018,5.018,0,1,0,5.032-5.023A5.013,5.013,0,0,0,34.548,39.229Z" transform="translate(-34.548 -34.206)" fill="url(#cu)" style="mix-blend-mode:multiply;isolation:isolate"/><ellipse cx="4.435" cy="4.435" rx="4.435" ry="4.435" transform="translate(0.594 0.586)" fill="url(#cv)"/></g><g transform="translate(22.731 22.625)"><ellipse cx="2.496" cy="2.496" rx="2.496" ry="2.496" fill="url(#cw)" style="mix-blend-mode:multiply;isolation:isolate"/><ellipse cx="2.208" cy="2.208" rx="2.208" ry="2.208" transform="translate(0.288 0.288)" fill="url(#cx)"/></g><g transform="translate(12.846 12.738)"><g transform="translate(0 10.802)"><path d="M33.8,36.138a1.582,1.582,0,1,0,1.573-1.582A1.579,1.579,0,0,0,33.8,36.138Z" transform="translate(-33.8 -34.556)" fill="url(#cy)" style="mix-blend-mode:multiply;isolation:isolate"/><ellipse cx="1.402" cy="1.402" rx="1.402" ry="1.402" transform="translate(0.171 0.179)" fill="url(#cz)"/><g transform="translate(21.594)"><path d="M36,36.138a1.582,1.582,0,1,0,1.592-1.582A1.583,1.583,0,0,0,36,36.138Z" transform="translate(-35.997 -34.556)" fill="url(#da)" style="mix-blend-mode:multiply;isolation:isolate"/><path d="M36.015,35.98a1.4,1.4,0,1,0,1.415-1.406A1.4,1.4,0,0,0,36.015,35.98Z" transform="translate(-35.838 -34.397)" fill="url(#db)"/></g></g><g transform="translate(10.782)"><g transform="translate(0 21.594)"><path d="M36.5,38.819a1.583,1.583,0,1,0-1.6-1.582A1.586,1.586,0,0,0,36.5,38.819Z" transform="translate(-34.897 -35.654)" fill="url(#dc)" style="mix-blend-mode:multiply;isolation:isolate"/><ellipse cx="1.402" cy="1.402" rx="1.402" ry="1.402" transform="translate(0.197 0.185)" fill="url(#dd)"/></g><path d="M36.5,36.622a1.583,1.583,0,1,0-1.6-1.582A1.586,1.586,0,0,0,36.5,36.622Z" transform="translate(-34.897 -33.457)" fill="url(#de)" style="mix-blend-mode:multiply;isolation:isolate"/><path d="M36.323,36.267a1.4,1.4,0,1,0-1.406-1.4A1.4,1.4,0,0,0,36.323,36.267Z" transform="translate(-34.72 -33.289)" fill="url(#df)"/></g><g transform="translate(3.148 3.162)"><g transform="translate(15.279 15.271)"><circle cx="1.585" cy="1.585" r="1.585" fill="url(#dg)" style="mix-blend-mode:multiply;isolation:isolate"/><path d="M38.078,37.746a1.4,1.4,0,1,0-1.985-1.985,1.437,1.437,0,0,0,0,1.985A1.418,1.418,0,0,0,38.078,37.746Z" transform="translate(-35.5 -35.165)" fill="url(#dh)"/></g><path d="M36.84,36.484A1.585,1.585,0,1,0,34.6,34.243a1.55,1.55,0,0,0,0,2.241A1.584,1.584,0,0,0,36.84,36.484Z" transform="translate(-34.12 -33.779)" fill="url(#di)" style="mix-blend-mode:multiply;isolation:isolate"/><path d="M36.54,36.2a1.437,1.437,0,0,0,0-1.985,1.407,1.407,0,1,0,0,1.985Z" transform="translate(-33.948 -33.618)" fill="url(#dj)"/></g><g transform="translate(3.148 3.162)"><g transform="translate(15.279)"><path d="M38.38,34.243a1.585,1.585,0,1,0,0,2.241A1.584,1.584,0,0,0,38.38,34.243Z" transform="translate(-35.675 -33.779)" fill="url(#dk)" style="mix-blend-mode:multiply;isolation:isolate"/><path d="M38.078,34.21a1.4,1.4,0,0,0-1.985,0,1.437,1.437,0,0,0,0,1.985,1.4,1.4,0,0,0,1.985-1.985Z" transform="translate(-35.5 -33.618)" fill="url(#dl)"/></g><g transform="translate(0 15.267)"><path d="M36.84,35.8a1.567,1.567,0,0,0-2.241,0,1.538,1.538,0,0,0,0,2.231A1.581,1.581,0,0,0,36.84,35.8Z" transform="translate(-34.12 -35.332)" fill="url(#dm)" style="mix-blend-mode:multiply;isolation:isolate"/><path d="M36.54,35.761a1.407,1.407,0,1,0,0,1.985A1.437,1.437,0,0,0,36.54,35.761Z" transform="translate(-33.948 -35.161)" fill="url(#dn)"/></g></g></g></g><path d="M32.29,27.588c0-2.732.747-4.944,7.45-4.944s28.985-.128,36.259.629c6.084.639,14.92,1.425,23.481,11.1C96.7,32.522,90.5,31.5,75.616,31.5H32.29Z" transform="translate(-29.223 -22.636)" fill="url(#do)"/><path d="M32.292,27.076V23.538H41.6c-3.627.029-4.2.423-4.2,4.561V106.13a13.063,13.063,0,0,1-3.253-.521,2.294,2.294,0,0,0-.452-.472c-1.523-1.179-1.405-1.288-1.405-3.725Z" transform="translate(-29.225 -14.674)" fill="url(#dp)"/><path d="M39,23.54H71.025c14.881,0,21.083,1.022,23.865,2.87.285.324.58.659.845,1.012a48.874,48.874,0,0,1,4.148,5.819c9.957,16.208,24.9,42.952,27.6,47.591a29.959,29.959,0,0,1,3.44,9.426,60.693,60.693,0,0,1,.944,11.411v38.9H86.132s1.022-12.905-4.895-21.181c-.167-.246-.344-.491-.531-.727C74.632,107.744,61.923,105.3,55.593,105.3c-5.878,0-16.611,1.258-22.783.835V28.1C32.81,23.294,33.577,23.54,39,23.54Z" transform="translate(-24.632 -14.676)" fill="#fdad0e"/><path d="M32.29,27.588c0-2.732.747-4.944,7.45-4.944s28.985-.128,36.259.629c6.084.639,14.92,1.425,23.481,11.1C96.7,32.522,90.5,31.5,75.616,31.5H32.29Z" transform="translate(-29.223 -22.636)" fill="url(#do)"/><path d="M32.292,27.076V23.538H41.6c-3.627.029-4.2.423-4.2,4.561V106.13a13.063,13.063,0,0,1-3.253-.521,2.294,2.294,0,0,0-.452-.472c-1.523-1.179-1.405-1.288-1.405-3.725Z" transform="translate(-29.225 -14.674)" fill="url(#dp)"/><g transform="translate(10.059 11.528)"><path d="M90.6,31.023s23.422,40.75,26.2,44.8,3.666,7.214,3.666,10.124.256,5.317-5.445,5.317H92.619c-2.4,0-5.3.128-7.077-3.548-1.769-3.656-8.217-13.79-9.485-15.942s-2.035-3.411-8.482-3.411H40.369c-5.2,0-7.352-1.14-7.352-5.19V31.4c0-4.177-.767-7.588,8.482-7.588s36.455,1.268,40.121,1.514A11.623,11.623,0,0,1,90.6,31.023Z" transform="translate(-33.001 -23.809)" fill="url(#ds)"/><path d="M33.017,31.4V63.174c0,4.05,2.153,5.19,7.352,5.19H67.575c6.448,0,7.214,1.258,8.482,3.411s7.716,12.286,9.485,15.942c1.671,3.44,4.315,3.548,6.625,3.548h22.862c5.7,0,5.445-2.4,5.445-5.317s-.875-6.064-3.666-10.124-26.2-44.8-26.2-44.8a11.623,11.623,0,0,0-8.984-5.7c-3.666-.246-30.882-1.514-40.121-1.514S33.017,27.22,33.017,31.4Zm2.595-4.374c.531-.55,1.976-1.189,5.887-1.189,9.023,0,36.17,1.248,39.994,1.514a9.608,9.608,0,0,1,7.332,4.639l.02.039C89.8,33.7,112.336,72.9,115.137,76.973c2.29,3.342,3.3,6.1,3.3,8.974l.02.364c0,.993,0,2.025-.3,2.329-.157.147-.786.6-3.126.6H92.167c-2.27,0-3.725-.157-4.806-2.4-1.337-2.782-5.141-8.925-7.637-12.974-.9-1.425-1.592-2.556-1.917-3.116-1.769-3.008-3.361-4.413-10.232-4.413H40.369c-2.28,0-3.764-.246-4.492-.747-.265-.167-.826-.541-.826-2.418V31.4c0-.3,0-.609-.02-.914C35.012,28.723,35.032,27.6,35.612,27.023Z" transform="translate(-33.001 -23.809)" fill="url(#dt)" style="mix-blend-mode:multiply;isolation:isolate"/><path d="M41.5,23.809c9.239,0,36.455,1.268,40.121,1.514a11.623,11.623,0,0,1,8.984,5.7s9.622,16.729,17.259,29.811c-2.919,1.455-7.087,2.339-13.072,1.9C75.419,61.267,72.254,51.851,53.019,49.59c-9.79-1.16-15.815-.57-20,1.052V31.4C33.017,27.22,32.25,23.809,41.5,23.809Z" transform="translate(-33.001 -23.809)" fill="#fff" opacity="0.5" style="mix-blend-mode:screen;isolation:isolate"/><path d="M39.779,23.832c.285.314.58.649.845.993a48.873,48.873,0,0,1,4.148,5.819c3.529,5.74,7.676,12.8,11.687,19.727,7.313,12.64,14.173,24.877,15.913,27.865a28.985,28.985,0,0,1,3.4,9.318c-.826.776-2.093.767-3.784-2.438C69.954,81.272,59.977,63.7,51.839,49.446c-5.534-9.7-10.222-17.859-10.989-19.137C39.435,27.94,38.226,24.432,39.779,23.832Z" transform="translate(20.419 -23.606)" fill="url(#du)"/><path d="M39.779,23.832c.285.314.58.649.845.993.226.285.482.58.708.875a11.182,11.182,0,0,0,1.651,4.541c.688,1.189,4.993,8.777,10.084,17.8C60.528,61.3,69.688,77.655,71.546,81.223,72.951,83.886,74,84.191,74.78,83.7a31.356,31.356,0,0,1,.993,3.853c-.845.776-2.093.767-3.784-2.438C69.954,81.272,59.977,63.7,51.839,49.446c-5.534-9.7-10.222-17.859-10.989-19.137C39.435,27.94,38.226,24.432,39.779,23.832Z" transform="translate(20.419 -23.606)" fill="url(#dv)" style="mix-blend-mode:multiply;isolation:isolate"/><path d="M40.85,30.309c-1.415-2.369-2.624-5.878-1.071-6.477.285.314.58.649.845.993a48.873,48.873,0,0,1,4.148,5.819c3.529,5.74,7.676,12.8,11.687,19.727.747,1.307,1.5,2.6,2.251,3.882a17.709,17.709,0,0,1-2.231,3.322c-1.573-2.752-3.126-5.5-4.639-8.128C46.305,39.745,41.617,31.587,40.85,30.309Z" transform="translate(20.419 -23.606)" fill="#fff" opacity="0.5" style="mix-blend-mode:screen;isolation:isolate"/><g transform="translate(2.836 47.493)"><path d="M42.879,28.663H35.085c-1.278,0-1.74.295-1.74,1.071s0,3.706,6.1,3.656C45.474,33.322,45.9,28.663,42.879,28.663Z" transform="translate(-32.804 -28.447)" fill="url(#dw)"/><g transform="translate(1.514 2.546)" style="mix-blend-mode:multiply;isolation:isolate"><path d="M33.444,30a8.7,8.7,0,0,1,4.4-1.1,5.788,5.788,0,0,1,4.394,1.543,7.688,7.688,0,0,1-3.666.855C35.793,31.318,34.27,30.728,33.444,30Z" transform="translate(-33.444 -28.9)" fill="url(#dx)"/></g><path d="M43.738,28.641H35.207c-1.4,0-1.917.324-1.917,1.179s0,4.04,6.684,3.971C46.579,33.732,47.021,28.641,43.738,28.641Z" transform="translate(-33.29 -28.641)" fill="url(#dy)" style="mix-blend-mode:multiply;isolation:isolate"/></g></g><path d="M90.682,73.128a59.327,59.327,0,0,0,40.741-16.11,67.933,67.933,0,0,1,.442,8.089v38.9H86.132S87.154,91.1,81.237,82.829c-.167-.246-.344-.491-.531-.727-6.074-10.92-18.783-13.367-25.113-13.367-5.878,0-16.611,1.258-22.783.836V27.679A59.6,59.6,0,0,0,90.682,73.128Z" transform="translate(-24.632 21.886)" opacity="0.5" fill="url(#dz)" style="mix-blend-mode:multiply;isolation:isolate"/><path d="M32.292,101.412V23.538h2.782c-.442.668-.531,1.779-.531,3.6,0,3.253-.039,6.507-.02,9.75.049,7.391-.1,14.783-.177,22.174a43.772,43.772,0,0,0,.3,6.114c.079.6.236,2.644,1.209,2.477.767-.128,1.12-1.926,1.307-2.526a4.911,4.911,0,0,0,.236-.885V106.13a12.662,12.662,0,0,1-2.86-.423,3.823,3.823,0,0,1-.393-.1,2.294,2.294,0,0,0-.452-.472C32.174,103.958,32.292,103.85,32.292,101.412Z" transform="translate(-29.225 -14.674)" opacity="0.5" fill="url(#ea)" style="mix-blend-mode:multiply;isolation:isolate"/><path d="M34.747,22.709c.442,3.529,3.322,6.585,15.431,6.507,19.088-.128,42.048.609,48.456,3.6.285.3.56.609.845.914-2.782-1.848-8.984-2.87-23.864-2.87H32.29V26.945C32.29,25.147,32.614,23.574,34.747,22.709Z" transform="translate(-29.223 -21.993)" opacity="0.5" fill="url(#eb)" style="mix-blend-mode:multiply;isolation:isolate"/><path d="M64.207,31.664A32.254,32.254,0,0,1,95.9,70.006H91.482a31.566,31.566,0,0,0,.364-4.747c0-16.463-12.748-29.8-28.464-29.8-14.763,0-26.911,11.765-28.337,26.823H31.978A32.248,32.248,0,0,1,64.207,31.664Z" transform="translate(-31.978 57.069)" fill="#3c3c3d"/><path d="M60.729,58.323l-.059.049H77.281c7.008,0,10.979.02,11.057-5.927.039-4.177-.157-5.946,2.5-5.946H98.03a7.035,7.035,0,0,1,1.769.187V66.893H54.065a42.224,42.224,0,0,0-.265-7.755,2.559,2.559,0,0,1,.786-.413c-2.457-13.21-17.889-25.2-17.889-25.2l-.256-1.641C55.166,38.714,60.729,58.323,60.729,58.323Z" transform="translate(7.434 59.003)" opacity="0.8" fill="url(#ec)" style="mix-blend-mode:multiply;isolation:isolate"/><path d="M80.62,37.427V51.522c0,2.693.246,5.652-6.32,5.652H42.642c-1.592,0-3.784.177-3.784-2.959V48.652c0-1.435-.265-3.126,3.538-3.126H59.518c4.148,0,9.986-1.75,9.986-5.927s-.118-5.946,2.143-5.946H77.3C79.313,33.653,80.62,34.243,80.62,37.427Z" transform="translate(28.726 74.63)" fill="url(#ed)"/><path d="M42.4,34.861h.826c-.079,4.659.727,7.175,7.087,7.175H80.62c-.079,2.31-.7,4.472-6.32,4.472H42.642c-1.592,0-3.784.177-3.784-2.958V37.987C38.858,36.552,38.592,34.861,42.4,34.861Z" transform="translate(28.726 85.295)" opacity="0.5" fill="url(#ee)" style="mix-blend-mode:multiply;isolation:isolate"/><path d="M65.988,27.978c-17.692.285-28.867.491-32.71-5.337,8.492-.01,27.413-.059,34,.629,4.855.511,11.48,1.121,18.321,6.29A90.2,90.2,0,0,0,65.988,27.978Z" transform="translate(-20.5 -22.633)" fill="#fff" opacity="0.2"/><path d="M44.046,31.238c.963,0,1.75,1.17,1.75,2.624,0,1.435-.786,2.6-1.75,2.6s-1.74-1.17-1.74-2.6C42.306,32.408,43.073,31.238,44.046,31.238Z" transform="translate(59.207 53.308)" fill="#bfb9c3" opacity="0.5" style="mix-blend-mode:multiply;isolation:isolate"/><g transform="translate(109.11 43.609)"><path d="M49.91,31.122c0,1.573-.442,19.166-.442,22.085,0,3.725-.491,5.819-2.723,5.887-2.644.079-3.666-.757-3.666-7.214V32.135c0-2.536.826-5.062,3.224-5.062C48.721,27.073,49.91,27.387,49.91,31.122Z" transform="translate(-43.079 -27.073)" fill="url(#ef)"/><path d="M46.3,27.073a3.987,3.987,0,0,1,2.673.6,7.278,7.278,0,0,0-1.789-.157c-2.4,0-3.224,2.477-3.224,4.954V51.783c0,6.31,1.012,7.136,3.666,7.057l.226-.02a2.375,2.375,0,0,1-1.111.275c-2.644.079-3.666-.757-3.666-7.214V32.135C43.079,29.6,43.9,27.073,46.3,27.073Z" transform="translate(-43.079 -27.073)" fill="#bfb9c3" opacity="0.5" style="mix-blend-mode:multiply;isolation:isolate"/><path d="M44.962,55.7c2.349,0,4.246-7.146,4.246-15.972a41.994,41.994,0,0,0-1.651-12.65c1.533.206,2.3,1.012,2.3,3.99,0,1.573-.442,19.166-.442,22.085,0,3.725-.491,5.819-2.723,5.887-2.32.069-3.381-.57-3.607-5.042C43.645,55.091,44.294,55.7,44.962,55.7Z" transform="translate(-43.026 -27.02)" fill="#bfb9c3" opacity="0.3" style="mix-blend-mode:multiply;isolation:isolate"/></g><g transform="translate(102.122 84.969)"><path d="M42.368,33.473c0,1.209.619,2.192,1.406,2.192.767,0,1.376-.983,1.376-2.192s-.609-2.192-1.376-2.192C42.987,31.281,42.368,32.264,42.368,33.473Z" transform="translate(-42.368 -31.281)" fill="url(#eg)" style="mix-blend-mode:multiply;isolation:isolate"/><path d="M42.378,33.323c0,1.12.58,2.035,1.307,2.035.708,0,1.288-.914,1.288-2.035s-.58-2.025-1.288-2.025C42.958,31.3,42.378,32.2,42.378,33.323Z" transform="translate(-42.28 -31.131)" fill="url(#eh)"/><g transform="translate(0.098 2.113)" opacity="0.8" style="mix-blend-mode:multiply;isolation:isolate"><path d="M44.973,31.5v.079c0,1.121-.58,2.035-1.288,2.035-.727,0-1.307-.914-1.307-2.035V31.5A2.8,2.8,0,0,0,44.973,31.5Z" transform="translate(-42.378 -31.496)" fill="url(#ei)"/></g></g><path d="M43.325,31.357c.482,0,.865.58.865,1.3s-.383,1.3-.865,1.3-.885-.59-.885-1.3S42.843,31.357,43.325,31.357Z" transform="translate(60.39 54.359)" fill="#bfb9c3" opacity="0.5" style="mix-blend-mode:multiply;isolation:isolate"/><path d="M44.337,28.808c.472,0,.855.57.855,1.288s-.383,1.3-.855,1.3-.865-.58-.865-1.3S43.855,28.808,44.337,28.808Z" transform="translate(69.501 31.854)" fill="#bfb9c3" opacity="0.5" style="mix-blend-mode:multiply;isolation:isolate"/><path d="M43.465,55.8h9.544a5.577,5.577,0,0,0,4.148-1.347c1.268-1.288,1.248-3.106,1.229-4.718V49.2c0-1.052.02-2.8.059-4.816.039-2.841.088-6.379.088-9.367,0-4.846-3.263-6.153-4.983-6.173h0a1.009,1.009,0,0,0-1.022.993,1.026,1.026,0,0,0,1,1.032c.3.01,2.968.206,2.968,4.148,0,2.968-.029,6.5-.088,9.337-.02,2.025-.039,3.784-.039,4.846v.56c.02,1.327.02,2.585-.659,3.283a3.863,3.863,0,0,1-2.7.747H43.465a1.008,1.008,0,0,0,0,2.015Z" transform="translate(60.672 32.172)" fill="url(#ej)"/><path d="M42.8,53.7a1.047,1.047,0,0,1,.668-.256h9.544a6.517,6.517,0,0,0,1.474-.157,2.482,2.482,0,0,0,1.229-.59c.678-.7.678-1.956.659-3.283v-.56c0-1.062.02-2.821.039-4.846.059-2.841.088-6.369.088-9.337,0-3.941-2.664-4.138-2.968-4.148a1.026,1.026,0,0,1-1-1.032.98.98,0,0,1,.236-.609h.03c1.73.02,4.973,1.327,4.973,6.133,0,2.978-.059,6.5-.088,9.328-.02,2.005-.059,3.755-.059,4.8,0,.177.02.344.02.531.02,1.6.02,3.43-1.248,4.7a3.746,3.746,0,0,1-1.268.855,8.518,8.518,0,0,1-2.113.236H43.465a1,1,0,0,1-.993-1.012A.961.961,0,0,1,42.8,53.7Z" transform="translate(60.672 32.516)" fill="#bfb9c3" opacity="0.3" style="mix-blend-mode:multiply;isolation:isolate"/><path d="M42.549,52.156a1.048,1.048,0,0,1,.668-.256h9.544a6.518,6.518,0,0,0,1.474-.157,2.482,2.482,0,0,0,1.229-.59c.678-.7.678-1.956.659-3.283v-.56c0-1.062.02-2.821.039-4.846.039-2.841.088-6.369.088-9.337,0-3.037-1.573-3.853-2.457-4.069.718.088,2.791.678,2.791,4.118,0,2.988-.059,6.517-.1,9.347-.039,2.035-.059,3.794-.059,4.846v.55c.02,1.337.039,2.6-.649,3.283a2.415,2.415,0,0,1-1.229.609,6.531,6.531,0,0,1-1.484.147H43.542C42.854,51.94,42.333,52.343,42.549,52.156Z" transform="translate(60.919 34.061)" fill="#bfb9c3" opacity="0.5" style="mix-blend-mode:multiply;isolation:isolate"/><path d="M42.5,31.779a1.048,1.048,0,0,1,.668-.256h9.544a6.516,6.516,0,0,0,1.474-.157,4.923,4.923,0,0,1-2.241.413Z" transform="translate(60.963 54.438)" fill="#bfb9c3" opacity="0.5" style="mix-blend-mode:multiply;isolation:isolate"/></g></g></g></svg>