<svg xmlns="http://www.w3.org/2000/svg" width="373.822" height="165.608" viewBox="0 0 373.822 165.608"><g transform="translate(0 0)"><g transform="translate(0 6.275)"><g transform="translate(0 83.109)"><path d="M132.047,53.384a1.22,1.22,0,0,0,1.222,1.222h0a1.222,1.222,0,0,0,1.224-1.222V40.943a1.221,1.221,0,0,0-1.224-1.222h0a1.219,1.219,0,0,0-1.222,1.222Z" transform="translate(-132.047 -39.721)" fill="#f0851d"/></g><g transform="translate(36.26 98.194)"><g transform="translate(0 0)"><path d="M2.873,0H251.366a2.872,2.872,0,0,1,2.872,2.872V33.577a2.87,2.87,0,0,1-2.87,2.87H2.871A2.871,2.871,0,0,1,0,33.576V2.873A2.873,2.873,0,0,1,2.873,0Z" fill="#333"/></g><g transform="translate(0 0)"><path d="M2.873,0H251.366a2.872,2.872,0,0,1,2.872,2.872V33.577a2.87,2.87,0,0,1-2.87,2.87H2.871A2.871,2.871,0,0,1,0,33.576V2.873A2.873,2.873,0,0,1,2.873,0Z" fill="#333"/></g></g><g transform="translate(36.26 109.04)"><rect width="191.589" height="7.374" fill="#1a1a1a"/></g><g transform="translate(310.756 24.005)"><path d="M278.446,12.337a1.334,1.334,0,0,0,0,1.875L310,45.757a1.326,1.326,0,0,0,1.873,0h0a1.331,1.331,0,0,0,0-1.875L280.321,12.337a1.328,1.328,0,0,0-1.875,0Z" transform="translate(-278.061 -11.95)" fill="#4d4d4d"/></g><g transform="translate(332.793 45.65)"><path d="M289.134,22.837a2.438,2.438,0,0,0,0,3.456l8.932,8.932a2.448,2.448,0,0,0,3.458,0h0a2.452,2.452,0,0,0,0-3.458l-8.934-8.93a2.442,2.442,0,0,0-3.456,0Z" transform="translate(-288.416 -22.12)" fill="#333"/></g><g transform="translate(226.731 43.187)"><rect width="12.431" height="70.013" fill="#1a1a1a"/></g><g transform="translate(226.73 4.482)"><path d="M238.58,5.322a2.552,2.552,0,0,0,2.554,2.55h1.113a2.552,2.552,0,0,0,2.552-2.55h0a2.55,2.55,0,0,0-2.552-2.545h-1.113a2.55,2.55,0,0,0-2.554,2.545Z" transform="translate(-238.58 -2.777)" fill="#4d4d4d"/></g><g transform="translate(304.599 116.414)"><path d="M8.986,0H53.1a8.98,8.98,0,0,1,8.98,8.98v.262A8.986,8.986,0,0,1,53.1,18.227H8.98A8.98,8.98,0,0,1,0,9.247V8.986A8.986,8.986,0,0,1,8.986,0Z" transform="translate(0)" fill="#0d539b"/></g><g transform="translate(235.967 76.996)"><path d="M2.871,0H127.844a2.871,2.871,0,0,1,2.871,2.871V25.29a2.872,2.872,0,0,1-2.872,2.872H2.872A2.872,2.872,0,0,1,0,25.29V2.871A2.871,2.871,0,0,1,2.871,0Z" fill="#4f80c1"/></g><g transform="translate(235.967 12.548)"><path d="M242.92,109.145a6.115,6.115,0,0,0,6.112,6.114H305.44c3.376,0,66.234-39.209,66.234-42.582l-60.121-60a6.111,6.111,0,0,0-6.113-6.11H249.032a6.11,6.11,0,0,0-6.112,6.11Z" transform="translate(-242.92 -6.567)" fill="#0d539b"/></g><g transform="translate(62.169 97.994)"><g transform="translate(0 0)"><path d="M165.161,75.008c2.158,0,3.905-1.256,3.905-2.807,0-10.956,12.4-19.869,27.648-19.869s27.65,8.913,27.65,19.869c0,1.552,1.747,2.807,3.9,2.807s3.9-1.256,3.9-2.807c0-14.053-15.9-25.486-35.457-25.486S161.258,58.148,161.258,72.2C161.258,73.752,163.008,75.008,165.161,75.008Z" transform="translate(-161.258 -46.715)" fill="#ee8335"/></g></g><g transform="translate(244.456 21.598)"><path d="M246.909,17.651v25.3a6.83,6.83,0,0,0,6.832,6.834h70.905c1.175,0,2.214-.049,3.144-.136,5.961-.573,6.819-2.969,3.688-6.7L319.2,30.325,306.873,17.651a6.825,6.825,0,0,0-6.834-6.832h-46.3A6.827,6.827,0,0,0,246.909,17.651Z" transform="translate(-246.909 -10.819)" fill="#4d4d4d"/></g><g transform="translate(346.616 78.659)"><path d="M2.872,0H15.233a2.872,2.872,0,0,1,2.872,2.872v14.7a2.87,2.87,0,0,1-2.87,2.87H2.871A2.871,2.871,0,0,1,0,17.57V2.872A2.872,2.872,0,0,1,2.872,0Z" fill="#999"/></g><g transform="translate(235.377 101.665)"><path d="M2.871,0h132.7a2.871,2.871,0,0,1,2.871,2.871V20.2a2.87,2.87,0,0,1-2.87,2.87H2.869A2.869,2.869,0,0,1,0,20.2V2.871A2.871,2.871,0,0,1,2.871,0Z" fill="#0d539b"/></g><g transform="translate(292.981 21.598)"><path d="M269.709,15.169a5.26,5.26,0,0,0,1.554,3.75L301.514,49.17a4.852,4.852,0,0,0,.551.477c5.961-.573,6.819-2.969,3.688-6.7l-24.6-25.3a6.825,6.825,0,0,0-6.834-6.832h-2.307a4.509,4.509,0,0,0-.745.609A5.259,5.259,0,0,0,269.709,15.169Z" transform="translate(-269.709 -10.819)" fill="#1a1a1a"/></g><g transform="translate(310.755 41.103)"><path d="M280.247,39.443H289.5c1.175,0,2.214-.049,3.144-.136,5.961-.572,6.819-2.969,3.688-6.7L284.054,19.984a5.908,5.908,0,0,0-3.282,3.837l-2.52,9.522A6.047,6.047,0,0,0,280.247,39.443Z" transform="translate(-278.061 -19.984)" fill="#1a1a1a"/></g><g transform="translate(292.848 47.894)"><path d="M270.245,34.683a2.036,2.036,0,0,0,0,2.884h0a2.041,2.041,0,0,0,2.882,0L284.041,26.65a2.038,2.038,0,0,0,0-2.882h0a2.045,2.045,0,0,0-2.882,0Z" transform="translate(-269.647 -23.175)" fill="#1a1a1a"/></g><g transform="translate(242.418 52.561)"><path d="M8.983,0h35a8.98,8.98,0,0,1,8.98,8.98V35.025A8.977,8.977,0,0,1,43.989,44h-35A8.986,8.986,0,0,1,0,35.015V8.983A8.983,8.983,0,0,1,8.983,0Z" transform="translate(0)" fill="#0a7eb4"/></g><g transform="translate(242.418 58.875)"><rect width="88.393" height="58.466" fill="#4f80c1"/></g><g transform="translate(250.973 24.856)"><path d="M2.871,0H41.54a2.871,2.871,0,0,1,2.871,2.871V17.092a2.871,2.871,0,0,1-2.871,2.871H2.872A2.872,2.872,0,0,1,0,17.091V2.871A2.871,2.871,0,0,1,2.871,0Z" fill="#fff"/></g><g transform="translate(250 70.08)"><path d="M1.026,0H16.811a1.025,1.025,0,0,1,1.025,1.025V5.891A1.026,1.026,0,0,1,16.81,6.917H1.026A1.026,1.026,0,0,1,0,5.89V1.026A1.026,1.026,0,0,1,1.026,0Z" fill="#1a1a1a"/></g><g transform="translate(285.095 123.654)"><path d="M266,60.075a1.3,1.3,0,0,0,1.3,1.3h3.971a1.3,1.3,0,0,0,1.3-1.3h0a1.3,1.3,0,0,0-1.3-1.3H267.3a1.3,1.3,0,0,0-1.3,1.3Z" transform="translate(-266.004 -58.772)" fill="#4d4d4d"/></g><g transform="translate(239.161 99.1)"><path d="M244.421,50.266a3.03,3.03,0,0,0,3.029,3.029H335.5a3.03,3.03,0,0,0,3.033-3.029h0a3.031,3.031,0,0,0-3.033-3.031H247.45a3.03,3.03,0,0,0-3.029,3.031Z" transform="translate(-244.421 -47.235)" fill="#3ba0d1"/></g><g transform="translate(240.794 94.933)"><path d="M245.188,47.358a2.083,2.083,0,0,0,2.085,2.086h87.476a2.085,2.085,0,0,0,2.086-2.086h0a2.084,2.084,0,0,0-2.086-2.081H247.274a2.083,2.083,0,0,0-2.085,2.081Z" transform="translate(-245.188 -45.277)" fill="#0a7eb4"/></g><g transform="translate(239.817 9.577)"><path d="M244.729,9.142a3.975,3.975,0,0,0,3.973,3.973h50.755a3.972,3.972,0,0,0,3.973-3.973h0a3.972,3.972,0,0,0-3.973-3.971H248.7a3.975,3.975,0,0,0-3.973,3.971Z" transform="translate(-244.729 -5.171)" fill="#2cb8dd"/></g><g transform="translate(349.464 78.875)"><path d="M295.784,48.646c0,5.587,2.456,10.115,5.491,10.115h4.273c3.033,0,5.491-4.528,5.491-10.115h0c0-5.587-2.458-10.111-5.491-10.111h-4.273c-3.035,0-5.491,4.524-5.491,10.111Z" transform="translate(-295.784 -38.535)" fill="#fff"/></g><g transform="translate(348.999 78.875)"><path d="M291.13,48.646c0,5.587,1.431,10.115,3.192,10.115h5.314c1.761,0,3.189-4.528,3.189-10.115h0c0-5.587-1.428-10.111-3.189-10.111h-5.314c-1.761,0-3.192,4.524-3.192,10.111Z" transform="translate(-291.13 -38.535)" fill="#e6e6e6"/></g><g transform="translate(242.08 105.158)"><path d="M2.87,0H125.4a2.873,2.873,0,0,1,2.873,2.873V13.209a2.872,2.872,0,0,1-2.872,2.872H2.87A2.87,2.87,0,0,1,0,13.211V2.87A2.87,2.87,0,0,1,2.87,0Z" fill="#4f80c1"/></g><g transform="translate(264.013 109.937)"><path d="M256.1,77.032a24.7,24.7,0,1,0,24.7-24.7A24.691,24.691,0,0,0,256.1,77.032Z" transform="translate(-256.098 -52.327)" fill="#333"/></g><g transform="translate(256.922 103.216)"><path d="M256.265,84.46a3.5,3.5,0,0,0,3.5-3.5,24.788,24.788,0,1,1,49.576,0,3.5,3.5,0,1,0,7,0,31.789,31.789,0,1,0-63.578,0A3.5,3.5,0,0,0,256.265,84.46Z" transform="translate(-252.766 -49.169)" fill="#ee8335"/></g><g transform="translate(266.677 113.2)"><path d="M257.35,75.9a22.035,22.035,0,1,0,22.032-22.04A22.024,22.024,0,0,0,257.35,75.9Z" transform="translate(-257.35 -53.86)" fill="#1a1a1a"/></g><g transform="translate(274.375 120.862)"><path d="M260.967,71.8A14.335,14.335,0,1,0,275.3,57.46,14.335,14.335,0,0,0,260.967,71.8Z" transform="translate(-260.967 -57.46)" fill="#b2b2b2"/><g transform="translate(7.479 7.411)"><path d="M264.481,67.8a6.857,6.857,0,1,0,6.855-6.859A6.857,6.857,0,0,0,264.481,67.8Z" transform="translate(-264.481 -60.942)" fill="#ccc"/></g><g transform="translate(9.277 9.264)"><path d="M265.326,66.872a5.059,5.059,0,1,0,5.057-5.059A5.058,5.058,0,0,0,265.326,66.872Z" transform="translate(-265.326 -61.813)" fill="#999"/></g><g transform="translate(3.273 3.265)"><path d="M284.6,69.337a10.815,10.815,0,0,0-2.3-6.087,11.026,11.026,0,0,0-5.105-3.639c-.237-.085-.492-.17-.747-.234a6.322,6.322,0,0,0-1.085-.213,8.353,8.353,0,0,0-1.788-.17,10.7,10.7,0,0,0-3.6.617c-.021-.021-.021,0-.021,0a11.249,11.249,0,0,0-4.661,3.084,10.923,10.923,0,0,0-2.533,5.046,1,1,0,0,0-.043.234,8.881,8.881,0,0,0-.191,1.534,4.55,4.55,0,0,0-.021.551,11.031,11.031,0,0,0,2.9,7.47,11.208,11.208,0,0,0,4.959,3.129,11.44,11.44,0,0,0,3.211.468,4.815,4.815,0,0,0,.553-.021,9.8,9.8,0,0,0,1.767-.234,9.644,9.644,0,0,0,2.426-.83,11.007,11.007,0,0,0,4.812-4.427,10.707,10.707,0,0,0,1.511-5.555A3.824,3.824,0,0,0,284.6,69.337Zm-2.66,5.917a9.763,9.763,0,0,1-4.127,3.682,9.388,9.388,0,0,1-2.961.894,8.856,8.856,0,0,1-1.277.085,6.217,6.217,0,0,1-.66-.023,8.173,8.173,0,0,1-1.937-.341,9.966,9.966,0,0,1-7.236-8.83c-.019-.215-.019-.426-.019-.66a5.122,5.122,0,0,1,.019-.551,3.751,3.751,0,0,1,.066-.724.211.211,0,0,1,.019-.109,9.836,9.836,0,0,1,6.536-7.917,9.368,9.368,0,0,1,3.211-.555,9.985,9.985,0,0,1,1.788.172,6.724,6.724,0,0,1,.894.213,9.979,9.979,0,0,1,7.153,8.851c.019.194.019.409.019.619A9.78,9.78,0,0,1,281.936,75.254Z" transform="translate(-262.505 -58.994)" fill="#ccc"/></g><g transform="translate(3.329 2.792)"><g transform="translate(7.391)"><path d="M266,60.075a1.3,1.3,0,0,0,1.3,1.3h3.971a1.3,1.3,0,0,0,1.3-1.3h0a1.3,1.3,0,0,0-1.3-1.3H267.3a1.3,1.3,0,0,0-1.3,1.3Z" transform="translate(-266.004 -58.772)" fill="#4d4d4d"/></g><g transform="translate(18.912 4.62)"><path d="M272.351,61a1.3,1.3,0,0,0-.881,1.611l1.122,3.812a1.3,1.3,0,0,0,1.613.879h0a1.3,1.3,0,0,0,.881-1.613l-1.126-3.812A1.294,1.294,0,0,0,272.351,61Z" transform="translate(-271.417 -60.943)" fill="#4d4d4d"/></g><g transform="translate(0 4.079)"><path d="M263.209,66.613a1.3,1.3,0,0,0,1.762-.517l1.9-3.486a1.3,1.3,0,0,0-.521-1.762h0a1.3,1.3,0,0,0-1.762.519l-1.9,3.486a1.3,1.3,0,0,0,.519,1.76Z" transform="translate(-262.531 -60.688)" fill="#4d4d4d"/></g><g transform="translate(2.745 17.224)"><path d="M269.2,71.511a1.309,1.309,0,0,0-.179-1.83l-3.071-2.522a1.3,1.3,0,0,0-1.833.183h0a1.3,1.3,0,0,0,.181,1.828l3.073,2.516a1.3,1.3,0,0,0,1.828-.174Z" transform="translate(-263.821 -66.865)" fill="#4d4d4d"/></g><g transform="translate(15.245 16.684)"><path d="M275.088,67.1a1.3,1.3,0,0,0-1.83-.2l-3.084,2.507a1.3,1.3,0,0,0-.192,1.824h0a1.305,1.305,0,0,0,1.83.192l3.084-2.5a1.294,1.294,0,0,0,.191-1.824Z" transform="translate(-269.695 -66.612)" fill="#4d4d4d"/></g></g></g><g transform="translate(72.929 109.937)"><path d="M166.314,77.032a24.7,24.7,0,1,0,24.7-24.7A24.693,24.693,0,0,0,166.314,77.032Z" transform="translate(-166.314 -52.327)" fill="#333"/></g><g transform="translate(65.836 103.216)"><path d="M166.482,84.46a3.5,3.5,0,0,0,3.5-3.5,24.79,24.79,0,0,1,49.58,0,3.5,3.5,0,1,0,7,0,31.791,31.791,0,0,0-63.582,0A3.5,3.5,0,0,0,166.482,84.46Z" transform="translate(-162.981 -49.169)" fill="#1a1a1a"/></g><g transform="translate(75.592 113.2)"><path d="M167.565,75.9A22.035,22.035,0,1,0,189.6,53.86,22.025,22.025,0,0,0,167.565,75.9Z" transform="translate(-167.565 -53.86)" fill="#1a1a1a"/></g><g transform="translate(223.68)"><path d="M237.147,94.178a3.052,3.052,0,0,0,3.05,3.054h0a3.055,3.055,0,0,0,3.06-3.054V3.729A3.059,3.059,0,0,0,240.2.671h0a3.056,3.056,0,0,0-3.05,3.058Z" transform="translate(-237.147 -0.671)" fill="#ee8335"/></g><g transform="translate(189.86 96.561)"><path d="M221.256,63.217a6.111,6.111,0,0,0,6.11,6.11l27.71,4.889a6.112,6.112,0,0,0,6.11-6.11V52.154a6.114,6.114,0,0,0-6.11-6.112h-27.71a6.112,6.112,0,0,0-6.11,6.112Z" transform="translate(-221.256 -46.042)" fill="#b2b2b2"/></g><g transform="translate(202.083 101.665)"><path d="M2.871,0H16.684a2.871,2.871,0,0,1,2.871,2.871v9.008a2.87,2.87,0,0,1-2.87,2.87H2.871A2.871,2.871,0,0,1,0,11.878V2.871A2.871,2.871,0,0,1,2.871,0Z" fill="#333"/></g><g transform="translate(2.445 76.996)"><path d="M2.87,0h221.6a2.871,2.871,0,0,1,2.871,2.871V27.693a2.872,2.872,0,0,1-2.872,2.872H2.871A2.871,2.871,0,0,1,0,27.693V2.87A2.87,2.87,0,0,1,2.87,0Z" transform="translate(0)" fill="#ee8335"/></g><g transform="translate(2.445 83.109)"><rect width="227.346" height="18.344" transform="translate(0)" fill="#ccc"/></g><g transform="translate(4.889 105.16)"><path d="M134.344,52.025a1.939,1.939,0,0,0,1.939,1.937H357.3a1.939,1.939,0,0,0,1.941-1.937h0a1.942,1.942,0,0,0-1.941-1.943H136.283a1.942,1.942,0,0,0-1.939,1.943Z" transform="translate(-134.344 -50.082)" fill="#999"/></g><g transform="translate(83.294 120.862)"><path d="M171.184,71.8A14.333,14.333,0,1,0,185.516,57.46,14.335,14.335,0,0,0,171.184,71.8Z" transform="translate(-171.184 -57.46)" fill="#b2b2b2"/><g transform="translate(7.474 7.411)"><path d="M174.7,67.8a6.859,6.859,0,1,0,6.857-6.859A6.858,6.858,0,0,0,174.7,67.8Z" transform="translate(-174.696 -60.942)" fill="#ccc"/></g><g transform="translate(9.269 9.264)"><path d="M175.539,66.872a5.063,5.063,0,1,0,5.063-5.059A5.064,5.064,0,0,0,175.539,66.872Z" transform="translate(-175.539 -61.813)" fill="#999"/></g><g transform="translate(3.258 3.265)"><path d="M194.851,69.51a.38.38,0,0,0-.023-.172,10.7,10.7,0,0,0-2.32-6.087,10.939,10.939,0,0,0-5.853-3.873,10.64,10.64,0,0,0-2.873-.383,11.122,11.122,0,0,0-3.576.6,10.917,10.917,0,0,0-4.661,3.105,10.624,10.624,0,0,0-2.618,5.28,8.9,8.9,0,0,0-.192,1.534,4.589,4.589,0,0,0-.021.551,10.918,10.918,0,0,0,2.9,7.449,11.036,11.036,0,0,0,4.978,3.15,11.319,11.319,0,0,0,3.192.468,11.18,11.18,0,0,0,9.577-5.512,10.891,10.891,0,0,0,1.511-5.555A5.106,5.106,0,0,0,194.851,69.51Zm-2.705,5.744a9.7,9.7,0,0,1-4.107,3.682,9.549,9.549,0,0,1-4.257.979,9.375,9.375,0,0,1-2.594-.364,9.605,9.605,0,0,1-5.2-3.51,9.775,9.775,0,0,1-2.043-5.98,4.619,4.619,0,0,1,.021-.551,5.759,5.759,0,0,1,.085-.832,9.749,9.749,0,0,1,6.534-7.917,9.269,9.269,0,0,1,3.192-.555,9.428,9.428,0,0,1,2.7.385,9.909,9.909,0,0,1,7.13,8.851v.068a4.583,4.583,0,0,1,.021.551A9.8,9.8,0,0,1,192.146,75.254Z" transform="translate(-172.715 -58.994)" fill="#ccc"/></g><g transform="translate(3.325 2.792)"><g transform="translate(7.395)"><path d="M176.221,60.075a1.3,1.3,0,0,0,1.3,1.3h3.974a1.3,1.3,0,0,0,1.3-1.3h0a1.3,1.3,0,0,0-1.3-1.3h-3.974a1.3,1.3,0,0,0-1.3,1.3Z" transform="translate(-176.221 -58.772)" fill="#4d4d4d"/></g><g transform="translate(18.912 4.62)"><path d="M182.566,61a1.3,1.3,0,0,0-.881,1.611l1.122,3.812a1.3,1.3,0,0,0,1.613.879h0a1.3,1.3,0,0,0,.881-1.613l-1.119-3.812A1.3,1.3,0,0,0,182.566,61Z" transform="translate(-181.633 -60.943)" fill="#4d4d4d"/></g><g transform="translate(0 4.079)"><path d="M173.429,66.613a1.3,1.3,0,0,0,1.762-.517l1.9-3.486a1.3,1.3,0,0,0-.519-1.762h0a1.3,1.3,0,0,0-1.762.519l-1.9,3.486a1.3,1.3,0,0,0,.524,1.76Z" transform="translate(-172.746 -60.688)" fill="#4d4d4d"/></g><g transform="translate(2.749 17.224)"><path d="M179.41,71.511a1.3,1.3,0,0,0-.179-1.83l-3.071-2.522a1.3,1.3,0,0,0-1.826.183h0a1.3,1.3,0,0,0,.177,1.828l3.071,2.516a1.3,1.3,0,0,0,1.828-.174Z" transform="translate(-174.038 -66.865)" fill="#4d4d4d"/></g><g transform="translate(15.247 16.684)"><path d="M185.307,67.1a1.3,1.3,0,0,0-1.83-.2l-3.084,2.507a1.291,1.291,0,0,0-.192,1.824h0a1.3,1.3,0,0,0,1.826.192l3.088-2.5a1.3,1.3,0,0,0,.192-1.824Z" transform="translate(-179.91 -66.612)" fill="#4d4d4d"/></g></g></g><g transform="translate(3.667 88.88)"><rect width="226.123" height="7.892" transform="translate(0)" fill="#ee8335"/></g><g transform="translate(205.851 83.109)"><rect width="1.937" height="19.021" fill="#ee8335"/></g><g transform="translate(175.251 83.109)"><rect width="1.937" height="19.021" fill="#ee8335"/></g><g transform="translate(144.647 83.109)"><rect width="1.941" height="19.021" fill="#ee8335"/></g><g transform="translate(114.054 83.109)"><rect width="1.937" height="19.021" transform="translate(0)" fill="#ee8335"/></g><g transform="translate(83.453 83.109)"><rect width="1.939" height="19.021" transform="translate(0)" fill="#ee8335"/></g><g transform="translate(52.853 83.109)"><rect width="1.939" height="19.021" transform="translate(0)" fill="#ee8335"/></g><g transform="translate(22.254 83.109)"><rect width="1.939" height="19.021" fill="#ee8335"/></g><g transform="translate(246.802 55.388)"><path d="M248.011,28.439a1.741,1.741,0,0,0,1.743,1.743h34.81a1.741,1.741,0,0,0,1.741-1.743h0a1.741,1.741,0,0,0-1.741-1.743h-34.81a1.741,1.741,0,0,0-1.743,1.743Z" transform="translate(-248.011 -26.696)" fill="#0d539b"/></g><g transform="translate(333.277 107.56)"><path d="M288.643,53.5a2.285,2.285,0,0,0,2.286,2.29H317.8a2.286,2.286,0,0,0,2.288-2.29h0a2.289,2.289,0,0,0-2.288-2.29H290.929a2.287,2.287,0,0,0-2.286,2.29Z" transform="translate(-288.643 -51.21)" fill="#3ba0d1"/></g><g transform="translate(261.44 78.625)"><path d="M9.749,396.894a2.773,2.773,0,0,0,1.691-.676l1.614,1.768a5.236,5.236,0,0,1-3.6,1.368c-2.552,0-4.121-1.492-4.121-3.69a5.028,5.028,0,0,1,5.1-5.1,3.38,3.38,0,0,1,3.69,3.644,5.155,5.155,0,0,1-.246,1.568h-5.4A1.139,1.139,0,0,0,9.749,396.894Zm1.322-2.66a1.034,1.034,0,0,0,.061-.369.876.876,0,0,0-.907-.892A1.657,1.657,0,0,0,8.7,394.235Z" transform="translate(-5.336 -387.931)" fill="#fff"/><path d="M171.947,359.149h4.766c3.305,0,4.105,1.215,4.105,2.537a2.967,2.967,0,0,1-2.521,2.829,2.159,2.159,0,0,1,1.753,2.122c0,1.814-1.445,3.275-5.135,3.275h-5.858Zm3.075,8.041c.876,0,1.4-.384,1.4-.922,0-.461-.384-.677-1.153-.677h-1.553l-.431,1.6Zm.953-3.813c.923,0,1.338-.415,1.338-.877,0-.445-.338-.63-1.107-.63h-1.491l-.4,1.507Z" transform="translate(-157.757 -358.688)" fill="#f7971e"/><path d="M356.7,355.3h3.49l-2.245,8.395h-3.49Zm.707-2.829h3.613l-.6,2.229h-3.613Z" transform="translate(-330.358 -352.467)" fill="#f7971e"/><path d="M451.518,352.467h3.49L452,363.691h-3.49Z" transform="translate(-417.918 -352.467)" fill="#f7971e"/><path d="M558.327,371.332a4.865,4.865,0,0,1,.169-1.168l.645-2.429h-.984l.722-2.691h.984l.569-2.106h3.49l-.569,2.106h1.937l-.723,2.691h-1.937l-.477,1.8a2.436,2.436,0,0,0-.107.646c0,.353.215.538.707.538a3.548,3.548,0,0,0,1.015-.185l-.753,2.844a7.1,7.1,0,0,1-1.768.246C559.28,373.623,558.327,372.869,558.327,371.332Z" transform="translate(-520.003 -362.214)" fill="#f7971e"/><path d="M661.124,403.725l1.353-2.568a2.416,2.416,0,0,0,1.4.492,1.674,1.674,0,0,0,.553-.092l-1.153-8.1h3.535l.293,4.412,2.506-4.412h3.629l-5.182,8.1c-1.338,2.091-2.6,2.8-4.443,2.8A4.446,4.446,0,0,1,661.124,403.725Z" transform="translate(-615.863 -390.625)" fill="#f7971e"/></g></g><path d="M3.191,0H234.955a3.189,3.189,0,0,1,3.189,3.189V109.9a3.19,3.19,0,0,1-3.19,3.19H3.191A3.191,3.191,0,0,1,0,109.9V3.191A3.191,3.191,0,0,1,3.191,0Z" fill="#f6b17e"/></g></svg>