<svg xmlns="http://www.w3.org/2000/svg" width="400.945" height="149.799" viewBox="0 0 400.945 149.799"><g transform="translate(5.91 108.346)"><g transform="translate(0)"><path d="M1.73,0H12.417a1.727,1.727,0,0,1,1.727,1.727V20.893a1.728,1.728,0,0,1-1.728,1.728H1.729A1.729,1.729,0,0,1,0,20.892V1.73A1.73,1.73,0,0,1,1.73,0Z" fill="#0d539b"/></g></g><g transform="translate(305.171 85.394)"><g transform="translate(0)"><path d="M155.283,304.929a28.878,28.878,0,1,0,28.876-28.874A28.875,28.875,0,0,0,155.283,304.929Z" transform="translate(-155.283 -276.055)" fill="#1a1a1a"/></g></g><g transform="translate(62.547 85.394)"><path d="M60.573,304.929a28.874,28.874,0,1,0,28.869-28.874A28.866,28.866,0,0,0,60.573,304.929Z" transform="translate(-60.573 -276.055)" fill="#1a1a1a"/></g><g transform="translate(12.822 110.986)"><g transform="translate(0 0)"><path d="M41.163,298.918A12.879,12.879,0,0,0,54.036,311.8H333.46a12.878,12.878,0,0,0,12.878-12.881h0a12.875,12.875,0,0,0-12.878-12.873H54.036a12.875,12.875,0,0,0-12.873,12.873Z" transform="translate(-41.163 -286.045)" fill="#1a1a1a"/></g></g><g transform="translate(144.925 109.099)"><g transform="translate(0 0)"><path d="M3.336,0H60.188a3.336,3.336,0,0,1,3.336,3.336V19.309a3.336,3.336,0,0,1-3.336,3.336H3.337A3.337,3.337,0,0,1,0,19.309V3.336A3.336,3.336,0,0,1,3.336,0Z" fill="#333"/></g></g><g transform="translate(222.406 7.975)"><g transform="translate(0)"><rect width="41.023" height="107.181" fill="#1a1a1a"/></g></g><g transform="translate(250.964 58.062)"><g transform="translate(0)"><path d="M134.123,273.935v42.3a8.553,8.553,0,0,0,8.546,8.549H275.558a8.55,8.55,0,0,0,8.546-8.549V282.478a8.549,8.549,0,0,0-8.546-8.544l-132.889-8.549A8.553,8.553,0,0,0,134.123,273.935Z" transform="translate(-134.123 -265.386)" fill="#4f80c1"/></g></g><g transform="translate(283.982 49.279)"><g transform="translate(0)"><path d="M147.028,274.986c-.763,9.443,26.115-.4,58.329,2.2s57.568,16.672,58.324,7.227S238.954,265.2,206.74,262.6,147.791,265.54,147.028,274.986Z" transform="translate(-147.012 -261.957)" fill="#0d539b"/></g></g><g transform="translate(250.964 4.652)"><g transform="translate(0)"><path d="M134.123,313.758a8.547,8.547,0,0,0,8.546,8.546l52.562-10.068c4.721,0,25.046-4.683,25.046-9.4l-26.758-49.75c0-4.721-5.539-8.546-10.255-8.546h-40.6a8.546,8.546,0,0,0-8.546,8.546Z" transform="translate(-134.123 -244.537)" fill="#0d539b"/></g></g><g transform="translate(80.435 96.317)"><path d="M67.556,307.061A26.744,26.744,0,1,0,94.3,280.319,26.745,26.745,0,0,0,67.556,307.061Z" transform="translate(-67.556 -280.319)" fill="#333"/><g transform="translate(2.283 2.277)"><path d="M68.447,305.673a24.462,24.462,0,1,0,24.465-24.465A24.465,24.465,0,0,0,68.447,305.673Z" transform="translate(-68.447 -281.208)" fill="#1a1a1a"/></g><g transform="translate(9.087 9.079)"><path d="M71.1,301.526a17.66,17.66,0,1,0,17.661-17.663A17.657,17.657,0,0,0,71.1,301.526Z" transform="translate(-71.103 -283.863)" fill="gray"/></g><g transform="translate(12.788 12.783)"><path d="M72.548,299.268a13.958,13.958,0,1,0,13.959-13.959A13.957,13.957,0,0,0,72.548,299.268Z" transform="translate(-72.548 -285.309)" fill="#999"/></g><g transform="translate(18.844 18.839)"><path d="M74.912,295.576a7.9,7.9,0,1,0,7.9-7.9A7.905,7.905,0,0,0,74.912,295.576Z" transform="translate(-74.912 -287.673)" fill="#4d4d4d"/></g><g transform="translate(25.943 13.636)"><path d="M77.683,311.052a.806.806,0,0,0,.8.8h0a.805.805,0,0,0,.8-.8V286.444a.8.8,0,0,0-.8-.8h0a.8.8,0,0,0-.8.8Z" transform="translate(-77.683 -285.642)" fill="#4d4d4d"/></g><g transform="translate(13.641 25.935)"><path d="M73.68,290.443a.8.8,0,0,0-.8.807h0a.8.8,0,0,0,.8.8H98.289a.8.8,0,0,0,.809-.8h0a.807.807,0,0,0-.809-.807Z" transform="translate(-72.881 -290.443)" fill="#4d4d4d"/></g><g transform="translate(17.24 17.238)"><path d="M91.922,305.823a.813.813,0,0,0,1.14-.005h0a.8.8,0,0,0,0-1.13l-17.4-17.4a.8.8,0,0,0-1.137-.005h0a.8.8,0,0,0,0,1.137Z" transform="translate(-74.286 -287.048)" fill="#4d4d4d"/></g><g transform="translate(17.242 17.237)"><path d="M74.521,304.684a.8.8,0,0,0,0,1.135h0a.8.8,0,0,0,1.137,0l17.4-17.4a.8.8,0,0,0,.005-1.135h0a.806.806,0,0,0-1.14,0Z" transform="translate(-74.286 -287.048)" fill="#4d4d4d"/></g><g transform="translate(22.121 22.111)"><path d="M76.191,293.582a4.625,4.625,0,1,0,4.627-4.632A4.627,4.627,0,0,0,76.191,293.582Z" transform="translate(-76.191 -288.95)" fill="#333"/></g></g><g transform="translate(0 61.238)"><path d="M3.337,0H244.925a3.336,3.336,0,0,1,3.336,3.336V50.615a3.336,3.336,0,0,1-3.336,3.336H3.338A3.338,3.338,0,0,1,0,50.613V3.337A3.337,3.337,0,0,1,3.337,0Z" fill="#ee8335"/></g><g transform="translate(258.613 13.19)"><path d="M137.109,256.419v32.66a8.551,8.551,0,0,0,8.546,8.549h47.772a8.54,8.54,0,0,0,8.546-8.549l-4.8-9.179-12.291-23.481a8.537,8.537,0,0,0-8.546-8.549H145.655A8.551,8.551,0,0,0,137.109,256.419Z" transform="translate(-137.109 -247.87)" fill="#4d4d4d"/></g><g transform="translate(250.965 83.256)"><g transform="translate(0 0)"><rect width="89.757" height="30.298" fill="#0d539b"/></g></g><g transform="translate(316.338 87.533)"><path d="M159.642,297.7a20.75,20.75,0,0,0,1.985,8.871h64.4a20.822,20.822,0,0,0-18.847-29.685h-26.7A20.828,20.828,0,0,0,159.642,297.7Z" transform="translate(-159.642 -276.89)" fill="#1a1a1a"/></g><g transform="translate(323.483 96.317)"><path d="M162.431,307.061a26.744,26.744,0,1,0,26.742-26.742A26.744,26.744,0,0,0,162.431,307.061Z" transform="translate(-162.431 -280.319)" fill="#333"/><g transform="translate(2.283 2.277)"><path d="M163.322,305.673a24.461,24.461,0,1,0,24.465-24.465A24.464,24.464,0,0,0,163.322,305.673Z" transform="translate(-163.322 -281.208)" fill="#1a1a1a"/></g><g transform="translate(9.087 9.079)"><path d="M165.978,301.526a17.662,17.662,0,1,0,17.656-17.663A17.656,17.656,0,0,0,165.978,301.526Z" transform="translate(-165.978 -283.863)" fill="gray"/></g><g transform="translate(12.788 12.783)"><path d="M167.423,299.268a13.96,13.96,0,1,0,13.954-13.959A13.955,13.955,0,0,0,167.423,299.268Z" transform="translate(-167.423 -285.309)" fill="#999"/></g><g transform="translate(18.844 18.839)"><path d="M169.787,295.576a7.9,7.9,0,1,0,7.9-7.9A7.9,7.9,0,0,0,169.787,295.576Z" transform="translate(-169.787 -287.673)" fill="#4d4d4d"/></g><g transform="translate(25.943 13.636)"><path d="M172.558,311.052a.806.806,0,0,0,.8.8h0a.805.805,0,0,0,.8-.8V286.444a.8.8,0,0,0-.8-.8h0a.8.8,0,0,0-.8.8Z" transform="translate(-172.558 -285.642)" fill="#4d4d4d"/></g><g transform="translate(13.636 25.935)"><path d="M168.556,290.443a.8.8,0,0,0-.8.807h0a.8.8,0,0,0,.8.8h24.608a.808.808,0,0,0,.809-.8h0a.811.811,0,0,0-.809-.807Z" transform="translate(-167.754 -290.443)" fill="#4d4d4d"/></g><g transform="translate(17.24 17.238)"><path d="M186.8,305.823a.806.806,0,0,0,1.135-.005h0a.8.8,0,0,0,0-1.13l-17.4-17.4a.8.8,0,0,0-1.135-.005h0a.8.8,0,0,0,0,1.137Z" transform="translate(-169.161 -287.048)" fill="#4d4d4d"/></g><g transform="translate(17.24 17.237)"><path d="M169.4,304.684a.8.8,0,0,0,0,1.135h0a.8.8,0,0,0,1.135,0l17.4-17.4a.8.8,0,0,0,.005-1.135h0a.8.8,0,0,0-1.135,0Z" transform="translate(-169.161 -287.048)" fill="#4d4d4d"/></g><g transform="translate(22.121 22.111)"><path d="M171.066,293.582a4.625,4.625,0,1,0,4.622-4.632A4.626,4.626,0,0,0,171.066,293.582Z" transform="translate(-171.066 -288.95)" fill="#333"/></g></g><g transform="translate(248.262 108.347)"><g transform="translate(0 0)"><path d="M133.068,290.712a5.7,5.7,0,0,0,5.7,5.7H195.45a5.693,5.693,0,0,0,5.695-5.7h0a5.691,5.691,0,0,0-5.695-5.7H138.765a5.7,5.7,0,0,0-5.7,5.7Z" transform="translate(-133.068 -285.015)" fill="#333"/></g></g><g transform="translate(305.407 14.021)"><g transform="translate(0)"><path d="M178.343,321.237a2.214,2.214,0,0,0,2.213-2.213V287.665a2.243,2.243,0,0,0-.282-1.079L159.53,249.331a2.217,2.217,0,0,0-3.876,2.152l20.476,36.756v30.785A2.214,2.214,0,0,0,178.343,321.237Z" transform="translate(-155.375 -248.194)" fill="#333"/></g></g><g transform="translate(312.072 83.257)"><g transform="translate(0)"><path d="M162.519,323.707h.069a4.264,4.264,0,0,0,4.2-4.332l-.271-19.129a16.557,16.557,0,0,1,16.564-16.479h26.7a16.547,16.547,0,0,1,14.984,23.594,4.275,4.275,0,0,0,7.734,3.645,25.106,25.106,0,0,0-22.718-35.785h-26.7a25.125,25.125,0,0,0-25.108,25.09l.269,19.188A4.272,4.272,0,0,0,162.519,323.707Z" transform="translate(-157.977 -275.221)" fill="#ee8335"/></g></g><g transform="translate(304.461)"><path d="M155.006,283.094a3.163,3.163,0,0,0,3.156,3.159h0a3.163,3.163,0,0,0,3.164-3.159V245.877a3.159,3.159,0,0,0-3.164-3.156h0a3.159,3.159,0,0,0-3.156,3.156Z" transform="translate(-155.006 -242.721)" fill="#666"/></g><g transform="translate(257.447 76.862)"><g transform="translate(0 0)"><path d="M1.334,0h9.294a1.335,1.335,0,0,1,1.335,1.335v13.3a1.335,1.335,0,0,1-1.335,1.335H1.335A1.335,1.335,0,0,1,0,14.639V1.334A1.334,1.334,0,0,1,1.334,0Z" fill="#333"/></g></g><g transform="translate(274.678 31.192)"><path d="M143.38,258.312v28.341h7.626V258.312a3.428,3.428,0,0,0-3.42-3.415H146.8A3.428,3.428,0,0,0,143.38,258.312Z" transform="translate(-143.38 -254.897)" fill="#333"/></g><g transform="translate(291.038 43.532)"><path d="M149.766,273.555a10.75,10.75,0,0,0,1.588,5.574H173.66a8.54,8.54,0,0,0,8.546-8.548l-4.8-9.179a24.09,24.09,0,0,0-8.953-1.688C158.122,259.714,149.766,265.919,149.766,273.555Z" transform="translate(-149.766 -259.714)" fill="#333"/></g><g transform="translate(297.175 56.948)"><g transform="translate(0 0)"><rect width="12.456" height="15.118" rx="1.335" fill="#4d4d4d"/></g></g><g transform="translate(302.974 36.457)"><g transform="translate(0)"><path d="M1.335,0H7.961A1.335,1.335,0,0,1,9.3,1.335V26.717a1.335,1.335,0,0,1-1.335,1.335H1.333A1.333,1.333,0,0,1,0,26.719V1.335A1.335,1.335,0,0,1,1.335,0Z" fill="#999"/></g></g><g transform="translate(261.005 18.797)"><g transform="translate(0)"><rect width="30.038" height="24.735" rx="1.335" fill="#fff"/></g></g><g transform="translate(307.622 40.373)"><g transform="translate(0)"><path d="M156.24,277.686a1.582,1.582,0,0,0,1.578,1.581h0a1.581,1.581,0,0,0,1.581-1.581V260.064a1.582,1.582,0,0,0-1.581-1.583h0a1.583,1.583,0,0,0-1.578,1.583Z" transform="translate(-156.24 -258.481)" fill="#fff"/></g></g><g transform="translate(345.603 83.257)"><path d="M171.066,277.357A2.138,2.138,0,0,0,173.2,279.5h18.012a2.143,2.143,0,0,0,2.142-2.139h0a2.141,2.141,0,0,0-2.142-2.136H173.2a2.135,2.135,0,0,0-2.137,2.136Z" transform="translate(-171.066 -275.221)" fill="#fff"/></g><g transform="translate(331.464 53.05)"><g transform="translate(0 0)"><path d="M165.584,267.132a4.258,4.258,0,0,0,3.671,4.775l27.132,3.563a4.261,4.261,0,0,0,4.778-3.671h0a4.261,4.261,0,0,0-3.671-4.77l-27.134-3.563a4.255,4.255,0,0,0-4.775,3.666Z" transform="translate(-165.547 -263.43)" fill="#95d8e9"/></g></g><g transform="translate(335.927 53.49)"><g transform="translate(0 0)"><path d="M167.317,266.406a3.223,3.223,0,0,0,2.785,3.614l20.538,2.7a3.217,3.217,0,0,0,3.612-2.777h0a3.218,3.218,0,0,0-2.772-3.612l-20.543-2.7a3.231,3.231,0,0,0-3.62,2.777Z" transform="translate(-167.289 -263.601)" fill="#333"/></g></g><g transform="translate(72.881 76.421)"><path d="M13.422,402.168a5.08,5.08,0,0,0,3.1-1.239l2.958,3.24a9.6,9.6,0,0,1-6.593,2.508c-4.677,0-7.551-2.733-7.551-6.762a9.213,9.213,0,0,1,9.354-9.354c5.072,0,6.762,3.438,6.762,6.677A9.445,9.445,0,0,1,21,400.111H11.112A2.087,2.087,0,0,0,13.422,402.168Zm2.423-4.874a1.9,1.9,0,0,0,.113-.676,1.606,1.606,0,0,0-1.662-1.634,3.036,3.036,0,0,0-2.789,2.31Z" transform="translate(-5.336 -385.742)" fill="#fff"/><path d="M174.354,359.149h8.734c6.058,0,7.523,2.226,7.523,4.649,0,2.4-1.606,4.4-4.621,5.184a3.956,3.956,0,0,1,3.212,3.888c0,3.325-2.648,6-9.411,6H169.057Zm5.635,14.736c1.606,0,2.564-.7,2.564-1.69,0-.846-.7-1.24-2.113-1.24h-2.846l-.789,2.93Zm1.747-6.988c1.691,0,2.451-.761,2.451-1.606,0-.817-.62-1.155-2.029-1.155h-2.733l-.732,2.761Z" transform="translate(-148.35 -358.304)" fill="#0d539b"/><path d="M358.566,357.651h6.4l-4.114,15.384h-6.4Zm1.3-5.184h6.621l-1.1,4.085h-6.621Z" transform="translate(-310.297 -352.467)" fill="#0d539b"/><path d="M454.027,352.467h6.4L454.9,373.035h-6.4Z" transform="translate(-392.454 -352.467)" fill="#0d539b"/><path d="M558.468,378.32a8.913,8.913,0,0,1,.31-2.141l1.184-4.452h-1.8l1.325-4.931h1.8l1.043-3.86h6.4l-1.042,3.86h3.55l-1.324,4.931h-3.55l-.873,3.3a4.439,4.439,0,0,0-.2,1.183c0,.648.395.986,1.3.986a6.5,6.5,0,0,0,1.86-.338l-1.381,5.212a13.008,13.008,0,0,1-3.24.451C560.215,382.518,558.468,381.138,558.468,378.32Z" transform="translate(-488.238 -361.613)" fill="#0d539b"/><path d="M661.124,412.275l2.48-4.705a4.426,4.426,0,0,0,2.564.9,3.06,3.06,0,0,0,1.014-.169l-2.113-14.848h6.48l.535,8.086,4.593-8.086h6.649l-9.5,14.848c-2.451,3.832-4.762,5.128-8.143,5.128A8.146,8.146,0,0,1,661.124,412.275Z" transform="translate(-578.181 -388.27)" fill="#0d539b"/></g></svg>