<svg xmlns="http://www.w3.org/2000/svg" width="404.248" height="172.3" viewBox="0 0 404.248 172.3"><g transform="translate(0)"><g transform="translate(0 89.873)"><path d="M132.047,54.5a1.32,1.32,0,0,0,1.321,1.321h0a1.322,1.322,0,0,0,1.323-1.321V41.042a1.32,1.32,0,0,0-1.323-1.321h0a1.318,1.318,0,0,0-1.321,1.321Z" transform="translate(-132.047 -39.721)" fill="#f0851d"/></g><g transform="translate(39.211 106.186)"><g transform="translate(0 0)"><path d="M2.873,0H272.059a2.872,2.872,0,0,1,2.872,2.872V36.544a2.87,2.87,0,0,1-2.87,2.87H2.871A2.871,2.871,0,0,1,0,36.543V2.873A2.873,2.873,0,0,1,2.873,0Z" fill="#333"/></g><g transform="translate(0 0)"><path d="M2.873,0H272.059a2.872,2.872,0,0,1,2.872,2.872V36.544a2.87,2.87,0,0,1-2.87,2.87H2.871A2.871,2.871,0,0,1,0,36.543V2.873A2.873,2.873,0,0,1,2.873,0Z" fill="#333"/></g></g><g transform="translate(39.211 117.915)"><rect width="207.183" height="7.974" fill="#1a1a1a"/></g><g transform="translate(336.05 25.959)"><path d="M278.477,12.369a1.443,1.443,0,0,0,0,2.028L312.6,48.509a1.434,1.434,0,0,0,2.025,0h0a1.439,1.439,0,0,0,0-2.028L280.5,12.369a1.437,1.437,0,0,0-2.027,0Z" transform="translate(-278.061 -11.95)" fill="#4d4d4d"/></g><g transform="translate(359.88 49.365)"><path d="M289.192,22.9a2.637,2.637,0,0,0,0,3.738l9.66,9.659a2.647,2.647,0,0,0,3.74,0h0a2.652,2.652,0,0,0,0-3.74L292.93,22.9a2.641,2.641,0,0,0-3.738,0Z" transform="translate(-288.416 -22.12)" fill="#333"/></g><g transform="translate(245.185 46.702)"><rect width="13.443" height="75.712" fill="#1a1a1a"/></g><g transform="translate(245.184 4.847)"><path d="M238.58,5.53a2.76,2.76,0,0,0,2.762,2.757h1.2a2.76,2.76,0,0,0,2.76-2.757h0a2.757,2.757,0,0,0-2.76-2.753h-1.2A2.758,2.758,0,0,0,238.58,5.53Z" transform="translate(-238.58 -2.777)" fill="#4d4d4d"/></g><g transform="translate(329.391 125.889)"><path d="M9.717,0H57.426a9.711,9.711,0,0,1,9.711,9.711v.283a9.717,9.717,0,0,1-9.717,9.717H9.711A9.711,9.711,0,0,1,0,10V9.717A9.717,9.717,0,0,1,9.717,0Z" transform="translate(0)" fill="#0d539b"/></g><g transform="translate(255.173 83.263)"><path d="M2.871,0H138.484a2.871,2.871,0,0,1,2.871,2.871V27.582a2.872,2.872,0,0,1-2.872,2.872H2.872A2.872,2.872,0,0,1,0,27.582V2.871A2.871,2.871,0,0,1,2.871,0Z" fill="#4f80c1"/></g><g transform="translate(255.172 13.57)"><path d="M242.92,117.494a6.612,6.612,0,0,0,6.61,6.612h61c3.65,0,71.625-42.4,71.625-46.048L317.138,13.175a6.608,6.608,0,0,0-6.61-6.608h-61a6.607,6.607,0,0,0-6.61,6.608Z" transform="translate(-242.92 -6.567)" fill="#0d539b"/></g><g transform="translate(67.229 105.969)"><g transform="translate(0 0)"><path d="M165.479,77.311c2.334,0,4.223-1.358,4.223-3.036,0-11.848,13.413-21.487,29.9-21.487s29.9,9.639,29.9,21.487c0,1.678,1.889,3.036,4.221,3.036s4.221-1.358,4.221-3.036c0-15.2-17.2-27.56-38.343-27.56s-38.343,12.364-38.343,27.56C161.258,75.953,163.15,77.311,165.479,77.311Z" transform="translate(-161.258 -46.715)" fill="#ee8335"/></g></g><g transform="translate(264.353 23.355)"><path d="M246.909,18.207V45.564a7.386,7.386,0,0,0,7.388,7.39h76.676c1.27,0,2.394-.053,3.4-.147,6.446-.619,7.374-3.211,3.988-7.243L325.086,31.912,311.753,18.207a7.38,7.38,0,0,0-7.39-7.388H254.3A7.383,7.383,0,0,0,246.909,18.207Z" transform="translate(-246.909 -10.819)" fill="#4d4d4d"/></g><g transform="translate(363.549 85.061)"><path d="M2.872,0H27.985a2.872,2.872,0,0,1,2.872,2.872V19.234a2.87,2.87,0,0,1-2.87,2.87H2.871A2.871,2.871,0,0,1,0,19.233V2.872A2.872,2.872,0,0,1,2.872,0Z" fill="#999"/></g><g transform="translate(254.535 109.939)"><path d="M2.871,0H146.842a2.871,2.871,0,0,1,2.871,2.871V22.079a2.87,2.87,0,0,1-2.87,2.87H2.869A2.869,2.869,0,0,1,0,22.08V2.871A2.871,2.871,0,0,1,2.871,0Z" fill="#0d539b"/></g><g transform="translate(316.827 23.355)"><path d="M269.709,15.523a5.688,5.688,0,0,0,1.68,4.055L304.1,52.292a5.248,5.248,0,0,0,.6.516c6.447-.619,7.374-3.211,3.988-7.243L282.08,18.207a7.38,7.38,0,0,0-7.39-7.388h-2.495a4.873,4.873,0,0,0-.805.658A5.687,5.687,0,0,0,269.709,15.523Z" transform="translate(-269.709 -10.819)" fill="#1a1a1a"/></g><g transform="translate(336.048 44.449)"><path d="M280.425,41.026h10c1.271,0,2.394-.053,3.4-.147,6.446-.619,7.374-3.211,3.989-7.243L284.542,19.984a6.389,6.389,0,0,0-3.549,4.15l-2.725,10.3A6.539,6.539,0,0,0,280.425,41.026Z" transform="translate(-278.061 -19.984)" fill="#1a1a1a"/></g><g transform="translate(316.684 51.793)"><path d="M270.294,35.619a2.2,2.2,0,0,0,0,3.119h0a2.207,2.207,0,0,0,3.116,0l11.8-11.8a2.2,2.2,0,0,0,0-3.116h0a2.211,2.211,0,0,0-3.116,0Z" transform="translate(-269.647 -23.175)" fill="#1a1a1a"/></g><g transform="translate(262.149 56.839)"><path d="M9.714,0H47.566a9.71,9.71,0,0,1,9.71,9.71V37.875a9.707,9.707,0,0,1-9.707,9.707H9.717A9.717,9.717,0,0,1,0,37.865V9.714A9.714,9.714,0,0,1,9.714,0Z" transform="translate(0)" fill="#0a7eb4"/></g><g transform="translate(262.149 63.667)"><rect width="95.588" height="63.224" fill="#4f80c1"/></g><g transform="translate(271.4 26.879)"><path d="M2.871,0H45.154a2.871,2.871,0,0,1,2.871,2.871V18.717a2.871,2.871,0,0,1-2.871,2.871H2.872A2.872,2.872,0,0,1,0,18.716V2.871A2.871,2.871,0,0,1,2.871,0Z" fill="#fff"/></g><g transform="translate(270.348 75.783)"><path d="M1.026,0H18.263a1.025,1.025,0,0,1,1.025,1.025V6.454A1.026,1.026,0,0,1,18.262,7.48H1.026A1.026,1.026,0,0,1,0,6.453V1.026A1.026,1.026,0,0,1,1.026,0Z" fill="#1a1a1a"/></g><g transform="translate(308.3 133.718)"><path d="M266,60.181a1.405,1.405,0,0,0,1.406,1.4H271.7a1.4,1.4,0,0,0,1.406-1.4h0a1.406,1.406,0,0,0-1.406-1.409H267.41A1.408,1.408,0,0,0,266,60.181Z" transform="translate(-266.004 -58.772)" fill="#4d4d4d"/></g><g transform="translate(258.627 107.166)"><path d="M244.421,50.512a3.276,3.276,0,0,0,3.275,3.275h95.221a3.277,3.277,0,0,0,3.28-3.275h0a3.277,3.277,0,0,0-3.28-3.277H247.7a3.277,3.277,0,0,0-3.275,3.277Z" transform="translate(-244.421 -47.235)" fill="#3ba0d1"/></g><g transform="translate(260.392 102.66)"><path d="M245.188,47.528a2.253,2.253,0,0,0,2.255,2.255h94.6a2.255,2.255,0,0,0,2.255-2.255h0a2.254,2.254,0,0,0-2.255-2.251h-94.6a2.252,2.252,0,0,0-2.255,2.251Z" transform="translate(-245.188 -45.277)" fill="#0a7eb4"/></g><g transform="translate(259.336 10.357)"><path d="M244.729,9.466a4.3,4.3,0,0,0,4.3,4.3h54.886a4.3,4.3,0,0,0,4.3-4.3h0a4.3,4.3,0,0,0-4.3-4.295H249.026a4.3,4.3,0,0,0-4.3,4.295Z" transform="translate(-244.729 -5.171)" fill="#2cb8dd"/></g><g transform="translate(365.416 96.114)"><path d="M290.821,47.36a4.929,4.929,0,0,0,4.927,4.927h19.135a4.93,4.93,0,0,0,4.927-4.927h0a4.93,4.93,0,0,0-4.927-4.928H295.748a4.929,4.929,0,0,0-4.927,4.928Z" transform="translate(-290.821 -42.433)" fill="#f7971e"/></g><g transform="translate(376.838 87.143)"><path d="M295.784,44.208a5.674,5.674,0,0,0,5.676,5.675h4.417a5.675,5.675,0,0,0,5.675-5.675h0a5.673,5.673,0,0,0-5.675-5.673H301.46a5.672,5.672,0,0,0-5.676,5.673Z" transform="translate(-295.784 -38.535)" fill="#fff"/></g><g transform="translate(366.127 87.143)"><path d="M291.13,44.208a5.679,5.679,0,0,0,5.678,5.675h9.452a5.675,5.675,0,0,0,5.673-5.675h0a5.673,5.673,0,0,0-5.673-5.673h-9.452a5.677,5.677,0,0,0-5.678,5.673Z" transform="translate(-291.13 -38.535)" fill="#e6e6e6"/></g><g transform="translate(261.783 113.717)"><path d="M2.87,0H135.836a2.873,2.873,0,0,1,2.873,2.873V14.518a2.872,2.872,0,0,1-2.872,2.872H2.87A2.87,2.87,0,0,1,0,14.52V2.87A2.87,2.87,0,0,1,2.87,0Z" fill="#4f80c1"/></g><g transform="translate(285.501 118.885)"><path d="M256.1,79.043A26.708,26.708,0,1,0,282.8,52.327,26.7,26.7,0,0,0,256.1,79.043Z" transform="translate(-256.098 -52.327)" fill="#333"/></g><g transform="translate(277.833 111.617)"><path d="M256.55,87.332a3.785,3.785,0,0,0,3.788-3.786,26.805,26.805,0,1,1,53.611,0,3.785,3.785,0,1,0,7.57,0,34.376,34.376,0,1,0-68.752,0A3.783,3.783,0,0,0,256.55,87.332Z" transform="translate(-252.766 -49.169)" fill="#ee8335"/></g><g transform="translate(288.383 122.414)"><path d="M257.35,77.694A23.828,23.828,0,1,0,281.175,53.86,23.817,23.817,0,0,0,257.35,77.694Z" transform="translate(-257.35 -53.86)" fill="#1a1a1a"/></g><g transform="translate(296.707 130.699)"><path d="M260.967,72.963a15.5,15.5,0,1,0,15.5-15.5A15.5,15.5,0,0,0,260.967,72.963Z" transform="translate(-260.967 -57.46)" fill="#b2b2b2"/><g transform="translate(8.087 8.014)"><path d="M264.481,68.36a7.415,7.415,0,1,0,7.413-7.418A7.415,7.415,0,0,0,264.481,68.36Z" transform="translate(-264.481 -60.942)" fill="#ccc"/></g><g transform="translate(10.032 10.018)"><path d="M265.326,67.284a5.471,5.471,0,1,0,5.468-5.471A5.469,5.469,0,0,0,265.326,67.284Z" transform="translate(-265.326 -61.813)" fill="#999"/></g><g transform="translate(3.54 3.53)"><path d="M286.395,70.179a11.7,11.7,0,0,0-2.486-6.582,11.922,11.922,0,0,0-5.521-3.936c-.256-.092-.532-.184-.808-.253a6.822,6.822,0,0,0-1.174-.23,9.032,9.032,0,0,0-1.933-.184,11.575,11.575,0,0,0-3.889.667c-.023-.023-.023,0-.023,0A12.166,12.166,0,0,0,265.52,63a11.816,11.816,0,0,0-2.739,5.457,1.085,1.085,0,0,0-.046.253,9.61,9.61,0,0,0-.207,1.659,4.953,4.953,0,0,0-.023.6,11.929,11.929,0,0,0,3.132,8.078A12.123,12.123,0,0,0,271,82.423a12.371,12.371,0,0,0,3.473.506,5.2,5.2,0,0,0,.6-.023,10.59,10.59,0,0,0,1.91-.253,10.43,10.43,0,0,0,2.624-.9,11.9,11.9,0,0,0,5.2-4.787,11.578,11.578,0,0,0,1.634-6.007A4.14,4.14,0,0,0,286.395,70.179Zm-2.877,6.4a10.556,10.556,0,0,1-4.462,3.982,10.152,10.152,0,0,1-3.2.967,9.578,9.578,0,0,1-1.381.092,6.72,6.72,0,0,1-.714-.025,8.836,8.836,0,0,1-2.094-.368,10.778,10.778,0,0,1-7.825-9.549c-.021-.232-.021-.46-.021-.713a5.52,5.52,0,0,1,.021-.6,4.052,4.052,0,0,1,.071-.783.228.228,0,0,1,.021-.117A10.636,10.636,0,0,1,271,60.9a10.132,10.132,0,0,1,3.473-.6,10.8,10.8,0,0,1,1.933.186,7.269,7.269,0,0,1,.967.23,10.791,10.791,0,0,1,7.735,9.572c.021.209.021.442.021.67A10.574,10.574,0,0,1,283.517,76.577Z" transform="translate(-262.505 -58.994)" fill="#ccc"/></g><g transform="translate(3.6 3.02)"><g transform="translate(7.992)"><path d="M266,60.181a1.405,1.405,0,0,0,1.406,1.4H271.7a1.4,1.4,0,0,0,1.406-1.4h0a1.406,1.406,0,0,0-1.406-1.409H267.41A1.408,1.408,0,0,0,266,60.181Z" transform="translate(-266.004 -58.772)" fill="#4d4d4d"/></g><g transform="translate(20.451 4.996)"><path d="M272.427,61a1.4,1.4,0,0,0-.953,1.742l1.213,4.122a1.406,1.406,0,0,0,1.744.951h0a1.411,1.411,0,0,0,.953-1.745l-1.218-4.122a1.4,1.4,0,0,0-1.74-.948Z" transform="translate(-271.417 -60.943)" fill="#4d4d4d"/></g><g transform="translate(0 4.411)"><path d="M263.265,67.095a1.406,1.406,0,0,0,1.906-.559l2.055-3.77a1.4,1.4,0,0,0-.564-1.906h0a1.4,1.4,0,0,0-1.905.562l-2.053,3.77a1.4,1.4,0,0,0,.561,1.9Z" transform="translate(-262.531 -60.688)" fill="#4d4d4d"/></g><g transform="translate(2.969 18.626)"><path d="M269.636,71.889a1.416,1.416,0,0,0-.193-1.979l-3.321-2.727a1.409,1.409,0,0,0-1.982.2h0a1.4,1.4,0,0,0,.2,1.977l3.323,2.72a1.4,1.4,0,0,0,1.977-.189Z" transform="translate(-263.821 -66.865)" fill="#4d4d4d"/></g><g transform="translate(16.486 18.042)"><path d="M275.527,67.135a1.408,1.408,0,0,0-1.979-.212l-3.335,2.711a1.4,1.4,0,0,0-.207,1.972h0a1.412,1.412,0,0,0,1.979.207l3.335-2.707a1.4,1.4,0,0,0,.207-1.972Z" transform="translate(-269.695 -66.611)" fill="#4d4d4d"/></g></g></g><g transform="translate(78.865 118.885)"><path d="M166.314,79.043A26.708,26.708,0,1,0,193.02,52.327,26.7,26.7,0,0,0,166.314,79.043Z" transform="translate(-166.314 -52.327)" fill="#333"/></g><g transform="translate(71.194 111.617)"><path d="M166.767,87.332a3.782,3.782,0,0,0,3.784-3.786,26.808,26.808,0,0,1,53.615,0,3.786,3.786,0,1,0,7.572,0,34.378,34.378,0,0,0-68.757,0A3.783,3.783,0,0,0,166.767,87.332Z" transform="translate(-162.981 -49.169)" fill="#1a1a1a"/></g><g transform="translate(81.744 122.414)"><path d="M167.565,77.694A23.828,23.828,0,1,0,191.392,53.86,23.817,23.817,0,0,0,167.565,77.694Z" transform="translate(-167.565 -53.86)" fill="#1a1a1a"/></g><g transform="translate(365.416 96.114)"><path d="M290.821,44.9a2.463,2.463,0,0,0,2.463,2.465h19.13a2.469,2.469,0,0,0,2.469-2.465h0a2.467,2.467,0,0,0-2.469-2.463h-19.13a2.461,2.461,0,0,0-2.463,2.463Z" transform="translate(-290.821 -42.433)" fill="#f9b256"/></g><g transform="translate(241.886)"><path d="M237.147,101.789a3.3,3.3,0,0,0,3.3,3.3h0a3.3,3.3,0,0,0,3.31-3.3V3.978a3.308,3.308,0,0,0-3.31-3.307h0a3.3,3.3,0,0,0-3.3,3.307Z" transform="translate(-237.147 -0.671)" fill="#ee8335"/></g><g transform="translate(205.313 104.421)"><path d="M221.256,64.615a6.608,6.608,0,0,0,6.608,6.608l29.965,5.287a6.609,6.609,0,0,0,6.607-6.608V52.652a6.611,6.611,0,0,0-6.607-6.61H227.864a6.61,6.61,0,0,0-6.608,6.61Z" transform="translate(-221.256 -46.042)" fill="#b2b2b2"/></g><g transform="translate(218.531 109.939)"><path d="M2.871,0h15.4a2.871,2.871,0,0,1,2.871,2.871V13.08a2.87,2.87,0,0,1-2.87,2.87H2.871A2.871,2.871,0,0,1,0,13.079V2.871A2.871,2.871,0,0,1,2.871,0Z" fill="#333"/></g><g transform="translate(2.644 83.263)"><path d="M2.87,0H242.978a2.871,2.871,0,0,1,2.871,2.871V30.18a2.872,2.872,0,0,1-2.872,2.872H2.871A2.871,2.871,0,0,1,0,30.181V2.87A2.87,2.87,0,0,1,2.87,0Z" transform="translate(0)" fill="#ee8335"/></g><g transform="translate(2.644 89.873)"><rect width="245.85" height="19.837" transform="translate(0)" fill="#ccc"/></g><g transform="translate(5.286 113.719)"><path d="M134.344,52.183a2.1,2.1,0,0,0,2.1,2.094H375.452a2.1,2.1,0,0,0,2.1-2.094h0a2.1,2.1,0,0,0-2.1-2.1H136.441a2.1,2.1,0,0,0-2.1,2.1Z" transform="translate(-134.344 -50.082)" fill="#999"/></g><g transform="translate(90.073 130.699)"><path d="M171.184,72.963a15.5,15.5,0,1,0,15.5-15.5A15.5,15.5,0,0,0,171.184,72.963Z" transform="translate(-171.184 -57.46)" fill="#b2b2b2"/><g transform="translate(8.083 8.014)"><path d="M174.7,68.36a7.418,7.418,0,1,0,7.415-7.418A7.416,7.416,0,0,0,174.7,68.36Z" transform="translate(-174.696 -60.942)" fill="#ccc"/></g><g transform="translate(10.023 10.018)"><path d="M175.539,67.284a5.475,5.475,0,1,0,5.475-5.471A5.476,5.476,0,0,0,175.539,67.284Z" transform="translate(-175.539 -61.813)" fill="#999"/></g><g transform="translate(3.524 3.53)"><path d="M196.653,70.366a.412.412,0,0,0-.025-.186,11.573,11.573,0,0,0-2.509-6.582,11.829,11.829,0,0,0-6.329-4.189,11.506,11.506,0,0,0-3.107-.414,12.025,12.025,0,0,0-3.867.644A11.805,11.805,0,0,0,175.776,63a11.488,11.488,0,0,0-2.831,5.71,9.624,9.624,0,0,0-.207,1.659,4.976,4.976,0,0,0-.023.6,11.806,11.806,0,0,0,3.132,8.055,11.934,11.934,0,0,0,5.383,3.406,12.237,12.237,0,0,0,3.452.506,12.09,12.09,0,0,0,10.357-5.961,11.777,11.777,0,0,0,1.634-6.007A5.507,5.507,0,0,0,196.653,70.366Zm-2.925,6.212a10.489,10.489,0,0,1-4.442,3.982,10.326,10.326,0,0,1-4.6,1.059,10.137,10.137,0,0,1-2.805-.394,10.388,10.388,0,0,1-5.618-3.8,10.571,10.571,0,0,1-2.209-6.467,4.976,4.976,0,0,1,.023-.6,6.243,6.243,0,0,1,.092-.9,10.542,10.542,0,0,1,7.066-8.562,10.023,10.023,0,0,1,3.452-.6,10.2,10.2,0,0,1,2.923.417,10.716,10.716,0,0,1,7.71,9.572v.074a4.983,4.983,0,0,1,.023.6A10.6,10.6,0,0,1,193.728,76.577Z" transform="translate(-172.715 -58.994)" fill="#ccc"/></g><g transform="translate(3.596 3.02)"><g transform="translate(7.997)"><path d="M176.221,60.181a1.4,1.4,0,0,0,1.4,1.4h4.3a1.4,1.4,0,0,0,1.4-1.4h0a1.4,1.4,0,0,0-1.4-1.409h-4.3a1.406,1.406,0,0,0-1.4,1.409Z" transform="translate(-176.221 -58.772)" fill="#4d4d4d"/></g><g transform="translate(20.452 4.996)"><path d="M182.641,61a1.407,1.407,0,0,0-.953,1.742l1.213,4.122a1.407,1.407,0,0,0,1.744.951h0a1.405,1.405,0,0,0,.953-1.745l-1.211-4.122A1.408,1.408,0,0,0,182.641,61Z" transform="translate(-181.633 -60.943)" fill="#4d4d4d"/></g><g transform="translate(0 4.411)"><path d="M173.484,67.095a1.406,1.406,0,0,0,1.906-.559l2.053-3.77a1.4,1.4,0,0,0-.562-1.906h0a1.4,1.4,0,0,0-1.906.562l-2.058,3.77a1.4,1.4,0,0,0,.566,1.9Z" transform="translate(-172.746 -60.688)" fill="#4d4d4d"/></g><g transform="translate(2.972 18.626)"><path d="M179.847,71.889a1.41,1.41,0,0,0-.193-1.979l-3.321-2.727a1.4,1.4,0,0,0-1.975.2h0a1.405,1.405,0,0,0,.191,1.977l3.321,2.72a1.4,1.4,0,0,0,1.977-.189Z" transform="translate(-174.038 -66.865)" fill="#4d4d4d"/></g><g transform="translate(16.487 18.042)"><path d="M185.746,67.135a1.409,1.409,0,0,0-1.979-.212l-3.335,2.711a1.4,1.4,0,0,0-.207,1.972h0a1.406,1.406,0,0,0,1.975.207l3.339-2.707a1.406,1.406,0,0,0,.207-1.972Z" transform="translate(-179.91 -66.611)" fill="#4d4d4d"/></g></g></g><g transform="translate(3.965 96.114)"><rect width="244.528" height="8.534" transform="translate(0)" fill="#ee8335"/></g><g transform="translate(222.606 89.873)"><rect width="2.095" height="20.569" fill="#ee8335"/></g><g transform="translate(189.516 89.873)"><rect width="2.095" height="20.569" fill="#ee8335"/></g><g transform="translate(156.42 89.873)"><rect width="2.099" height="20.569" fill="#ee8335"/></g><g transform="translate(123.337 89.873)"><rect width="2.095" height="20.569" transform="translate(0)" fill="#ee8335"/></g><g transform="translate(90.246 89.873)"><rect width="2.097" height="20.569" transform="translate(0)" fill="#ee8335"/></g><g transform="translate(57.155 89.873)"><rect width="2.097" height="20.569" transform="translate(0)" fill="#ee8335"/></g><g transform="translate(24.065 89.873)"><rect width="2.097" height="20.569" fill="#ee8335"/></g><g transform="translate(266.889 59.896)"><path d="M248.011,28.581a1.883,1.883,0,0,0,1.885,1.885h37.643a1.882,1.882,0,0,0,1.883-1.885h0a1.882,1.882,0,0,0-1.883-1.885H249.9a1.883,1.883,0,0,0-1.885,1.885Z" transform="translate(-248.011 -26.696)" fill="#0d539b"/></g><g transform="translate(360.403 116.315)"><path d="M288.643,53.686a2.47,2.47,0,0,0,2.472,2.476h29.056a2.472,2.472,0,0,0,2.474-2.476h0a2.475,2.475,0,0,0-2.474-2.476H291.115a2.473,2.473,0,0,0-2.472,2.476Z" transform="translate(-288.643 -51.21)" fill="#3ba0d1"/></g></g></svg>